<?xml version="1.0" encoding="utf-8"?>
<!-- Generator: Adobe Illustrator 16.0.0, SVG Export Plug-In . SVG Version: 6.00 Build 0)  -->
<!DOCTYPE svg PUBLIC "-//W3C//DTD SVG 1.1//EN" "http://www.w3.org/Graphics/SVG/1.1/DTD/svg11.dtd">
<svg version="1.1" id="Capa_1" xmlns="http://www.w3.org/2000/svg" xmlns:xlink="http://www.w3.org/1999/xlink" x="0px" y="0px"
	 width="841.89px" height="595.28px" viewBox="0 0 841.89 595.28" enable-background="new 0 0 841.89 595.28" xml:space="preserve">
<g>
	<g>
		<path fill="#2F8ECD" d="M301.564,366.624v20.219h-4.59v-20.219H301.564z"/>
		<path fill="#2F8ECD" d="M305.524,386.843v-20.219h5.34l4.2,7.409c1.2,2.13,2.4,4.65,3.3,6.93h0.09c-0.3-2.67-0.39-5.399-0.39-8.43
			v-5.909h4.2v20.219h-4.8l-4.32-7.8c-1.2-2.16-2.52-4.77-3.51-7.14l-0.09,0.03c0.12,2.67,0.18,5.52,0.18,8.819v6.09H305.524z"/>
		<path fill="#2F8ECD" d="M330.124,370.464h-5.43v-3.84h15.539v3.84h-5.52v16.379h-4.59V370.464z"/>
		<path fill="#2F8ECD" d="M342.663,366.894c1.47-0.24,3.66-0.42,6.09-0.42c3,0,5.1,0.45,6.54,1.59c1.2,0.96,1.86,2.37,1.86,4.229
			c0,2.58-1.83,4.351-3.57,4.98v0.09c1.41,0.57,2.19,1.92,2.7,3.779c0.63,2.28,1.26,4.92,1.65,5.7h-4.68
			c-0.33-0.57-0.81-2.22-1.41-4.71c-0.54-2.52-1.41-3.21-3.27-3.239h-1.38v7.949h-4.53V366.894z M347.193,375.593h1.8
			c2.28,0,3.63-1.14,3.63-2.909c0-1.86-1.26-2.79-3.36-2.82c-1.11,0-1.74,0.09-2.07,0.15V375.593z"/>
		<path fill="#2F8ECD" d="M364.862,366.624v11.639c0,3.48,1.32,5.25,3.66,5.25c2.4,0,3.72-1.68,3.72-5.25v-11.639h4.56v11.339
			c0,6.24-3.149,9.21-8.429,9.21c-5.1,0-8.1-2.82-8.1-9.27v-11.279H364.862z"/>
		<path fill="#2F8ECD" d="M395.612,386.272c-0.84,0.42-2.729,0.87-5.189,0.87c-6.99,0-10.59-4.35-10.59-10.109
			c0-6.899,4.92-10.739,11.04-10.739c2.37,0,4.17,0.479,4.98,0.899l-0.93,3.63c-0.93-0.39-2.22-0.75-3.84-0.75
			c-3.63,0-6.45,2.19-6.45,6.69c0,4.05,2.4,6.6,6.48,6.6c1.38,0,2.91-0.301,3.81-0.66L395.612,386.272z"/>
		<path fill="#2F8ECD" d="M412.562,386.272c-0.84,0.42-2.729,0.87-5.189,0.87c-6.99,0-10.59-4.35-10.59-10.109
			c0-6.899,4.92-10.739,11.04-10.739c2.37,0,4.17,0.479,4.98,0.899l-0.93,3.63c-0.93-0.39-2.22-0.75-3.84-0.75
			c-3.63,0-6.45,2.19-6.45,6.69c0,4.05,2.4,6.6,6.48,6.6c1.38,0,2.91-0.301,3.81-0.66L412.562,386.272z"/>
		<path fill="#2F8ECD" d="M420.151,366.624v20.219h-4.589v-20.219H420.151z"/>
		<path fill="#2F8ECD" d="M442.621,376.523c0,6.63-4.02,10.649-9.93,10.649c-6,0-9.51-4.53-9.51-10.29
			c0-6.06,3.87-10.589,9.84-10.589C439.231,366.294,442.621,370.943,442.621,376.523z M428.012,376.793c0,3.96,1.859,6.75,4.92,6.75
			c3.09,0,4.859-2.939,4.859-6.87c0-3.63-1.74-6.749-4.89-6.749C429.812,369.924,428.012,372.863,428.012,376.793z"/>
		<path fill="#2F8ECD" d="M445.621,386.843v-20.219h5.34l4.2,7.409c1.2,2.13,2.399,4.65,3.3,6.93h0.09
			c-0.3-2.67-0.39-5.399-0.39-8.43v-5.909h4.2v20.219h-4.801l-4.319-7.8c-1.2-2.16-2.52-4.77-3.51-7.14l-0.09,0.03
			c0.12,2.67,0.18,5.52,0.18,8.819v6.09H445.621z"/>
		<path fill="#2F8ECD" d="M478.351,378.293h-7.44v4.8h8.311v3.75h-12.9v-20.219H478.8v3.749h-7.89v4.2h7.44V378.293z"/>
		<path fill="#2F8ECD" d="M482.49,382.133c1.23,0.63,3.12,1.26,5.07,1.26c2.1,0,3.209-0.869,3.209-2.189c0-1.26-0.96-1.98-3.39-2.85
			c-3.359-1.17-5.55-3.03-5.55-5.97c0-3.45,2.88-6.09,7.65-6.09c2.279,0,3.959,0.479,5.159,1.02l-1.02,3.69
			c-0.811-0.391-2.25-0.961-4.23-0.961c-1.979,0-2.939,0.9-2.939,1.95c0,1.29,1.14,1.86,3.75,2.851
			c3.569,1.319,5.25,3.18,5.25,6.029c0,3.39-2.61,6.27-8.16,6.27c-2.31,0-4.59-0.6-5.729-1.229L482.49,382.133z"/>
	</g>
	<g>
		<path fill="#2F8ECD" d="M180.901,446.807c-0.896,0.448-2.688,0.896-4.984,0.896c-5.32,0-9.324-3.36-9.324-9.548
			c0-5.908,4.004-9.912,9.856-9.912c2.352,0,3.836,0.504,4.48,0.84l-0.588,1.988c-0.924-0.448-2.24-0.784-3.808-0.784
			c-4.424,0-7.364,2.828-7.364,7.784c0,4.619,2.66,7.588,7.252,7.588c1.484,0,2.996-0.309,3.976-0.784L180.901,446.807z"/>
		<path fill="#2F8ECD" d="M191.177,447.423l-0.196-1.708h-0.084c-0.756,1.064-2.211,2.016-4.144,2.016
			c-2.744,0-4.144-1.932-4.144-3.892c0-3.276,2.912-5.068,8.148-5.04v-0.28c0-1.12-0.308-3.136-3.08-3.136
			c-1.26,0-2.576,0.393-3.528,1.008l-0.56-1.624c1.12-0.728,2.744-1.204,4.452-1.204c4.144,0,5.151,2.828,5.151,5.544v5.068
			c0,1.176,0.057,2.324,0.225,3.248H191.177z M190.812,440.507c-2.688-0.056-5.74,0.42-5.74,3.052c0,1.597,1.064,2.353,2.324,2.353
			c1.764,0,2.884-1.12,3.276-2.269c0.084-0.252,0.14-0.531,0.14-0.784V440.507z"/>
		<path fill="#2F8ECD" d="M208.873,427.543v16.38c0,1.204,0.028,2.576,0.112,3.5h-2.213l-0.111-2.352h-0.057
			c-0.756,1.512-2.407,2.659-4.619,2.659c-3.276,0-5.796-2.771-5.796-6.888c-0.028-4.508,2.771-7.28,6.075-7.28
			c2.072,0,3.473,0.98,4.088,2.072h0.057v-8.092H208.873z M206.409,439.387c0-0.308-0.028-0.728-0.112-1.036
			c-0.364-1.567-1.708-2.855-3.556-2.855c-2.548,0-4.061,2.24-4.061,5.235c0,2.744,1.345,5.013,4.004,5.013
			c1.652,0,3.164-1.093,3.612-2.94c0.084-0.336,0.112-0.672,0.112-1.063V439.387z"/>
		<path fill="#2F8ECD" d="M220.465,447.423l-0.196-1.708h-0.084c-0.756,1.064-2.212,2.016-4.144,2.016
			c-2.744,0-4.144-1.932-4.144-3.892c0-3.276,2.911-5.068,8.147-5.04v-0.28c0-1.12-0.308-3.136-3.08-3.136
			c-1.26,0-2.576,0.393-3.528,1.008l-0.56-1.624c1.12-0.728,2.744-1.204,4.452-1.204c4.144,0,5.151,2.828,5.151,5.544v5.068
			c0,1.176,0.057,2.324,0.225,3.248H220.465z M220.101,440.507c-2.688-0.056-5.739,0.42-5.739,3.052
			c0,1.597,1.063,2.353,2.323,2.353c1.765,0,2.885-1.12,3.276-2.269c0.084-0.252,0.14-0.531,0.14-0.784V440.507z"/>
		<path fill="#2F8ECD" d="M232.393,438.295c0-1.736-0.056-3.136-0.112-4.424h2.212l0.112,2.324h0.056
			c1.009-1.652,2.604-2.633,4.816-2.633c3.276,0,5.74,2.772,5.74,6.889c0,4.872-2.968,7.279-6.16,7.279
			c-1.792,0-3.36-0.783-4.172-2.128h-0.056v7.364h-2.437V438.295z M234.829,441.907c0,0.363,0.056,0.699,0.111,1.008
			c0.448,1.708,1.933,2.884,3.696,2.884c2.604,0,4.116-2.128,4.116-5.236c0-2.716-1.429-5.04-4.032-5.04
			c-1.68,0-3.248,1.204-3.724,3.053c-0.084,0.308-0.168,0.672-0.168,1.008V441.907z"/>
		<path fill="#2F8ECD" d="M248.324,438.099c0-1.596-0.028-2.968-0.112-4.228h2.156l0.084,2.66h0.112
			c0.616-1.82,2.1-2.969,3.752-2.969c0.28,0,0.476,0.028,0.7,0.084v2.324c-0.252-0.056-0.504-0.084-0.841-0.084
			c-1.735,0-2.968,1.316-3.304,3.164c-0.056,0.336-0.111,0.729-0.111,1.148v7.224h-2.437V438.099z"/>
		<path fill="#2F8ECD" d="M268.82,443.727c0,1.4,0.028,2.632,0.112,3.696h-2.185l-0.14-2.212h-0.056
			c-0.645,1.092-2.072,2.52-4.48,2.52c-2.128,0-4.676-1.176-4.676-5.936v-7.924h2.464v7.504c0,2.576,0.784,4.312,3.024,4.312
			c1.651,0,2.8-1.147,3.248-2.239c0.14-0.364,0.224-0.812,0.224-1.261v-8.315h2.464V443.727z"/>
		<path fill="#2F8ECD" d="M274.28,441.095c0.056,3.332,2.184,4.704,4.648,4.704c1.764,0,2.827-0.308,3.752-0.7l0.42,1.765
			c-0.868,0.392-2.353,0.84-4.509,0.84c-4.172,0-6.663-2.744-6.663-6.832s2.407-7.309,6.355-7.309c4.424,0,5.6,3.893,5.6,6.385
			c0,0.504-0.056,0.896-0.084,1.147H274.28z M281.504,439.331c0.028-1.568-0.644-4.004-3.416-4.004
			c-2.491,0-3.584,2.296-3.779,4.004H281.504z"/>
		<path fill="#2F8ECD" d="M286.823,447.423c0.057-0.924,0.112-2.296,0.112-3.5v-16.38h2.437v8.512h0.056
			c0.868-1.512,2.436-2.492,4.62-2.492c3.359,0,5.739,2.801,5.712,6.916c0,4.845-3.052,7.252-6.076,7.252
			c-1.96,0-3.528-0.756-4.536-2.548h-0.084l-0.112,2.24H286.823z M289.372,441.991c0,0.308,0.056,0.615,0.111,0.896
			c0.477,1.708,1.904,2.884,3.696,2.884c2.576,0,4.116-2.1,4.116-5.208c0-2.716-1.4-5.04-4.032-5.04
			c-1.68,0-3.248,1.148-3.752,3.024c-0.056,0.28-0.14,0.616-0.14,1.008V441.991z"/>
		<path fill="#2F8ECD" d="M310.371,447.423l-0.196-1.708h-0.084c-0.756,1.064-2.212,2.016-4.144,2.016
			c-2.744,0-4.144-1.932-4.144-3.892c0-3.276,2.911-5.068,8.147-5.04v-0.28c0-1.12-0.308-3.136-3.08-3.136
			c-1.26,0-2.576,0.393-3.528,1.008l-0.56-1.624c1.12-0.728,2.744-1.204,4.452-1.204c4.144,0,5.151,2.828,5.151,5.544v5.068
			c0,1.176,0.057,2.324,0.225,3.248H310.371z M310.007,440.507c-2.688-0.056-5.739,0.42-5.739,3.052
			c0,1.597,1.063,2.353,2.323,2.353c1.765,0,2.885-1.12,3.276-2.269c0.084-0.252,0.14-0.531,0.14-0.784V440.507z"/>
		<path fill="#2F8ECD" d="M325.267,429.979v3.893h3.528v1.876h-3.528v7.308c0,1.68,0.477,2.632,1.849,2.632
			c0.644,0,1.119-0.084,1.428-0.168l0.112,1.849c-0.477,0.195-1.232,0.336-2.185,0.336c-1.147,0-2.072-0.364-2.66-1.036
			c-0.699-0.729-0.952-1.933-0.952-3.528v-7.392h-2.1v-1.876h2.1v-3.248L325.267,429.979z"/>
		<path fill="#2F8ECD" d="M334.311,430.062c0.028,0.841-0.588,1.513-1.568,1.513c-0.868,0-1.483-0.672-1.483-1.513
			c0-0.867,0.644-1.54,1.54-1.54C333.723,428.522,334.311,429.195,334.311,430.062z M331.566,447.423v-13.552h2.464v13.552H331.566z
			"/>
		<path fill="#2F8ECD" d="M339.49,441.095c0.056,3.332,2.184,4.704,4.647,4.704c1.765,0,2.828-0.308,3.753-0.7l0.42,1.765
			c-0.868,0.392-2.353,0.84-4.509,0.84c-4.172,0-6.663-2.744-6.663-6.832s2.407-7.309,6.355-7.309c4.424,0,5.6,3.893,5.6,6.385
			c0,0.504-0.056,0.896-0.084,1.147H339.49z M346.714,439.331c0.028-1.568-0.644-4.004-3.416-4.004
			c-2.491,0-3.584,2.296-3.779,4.004H346.714z"/>
		<path fill="#2F8ECD" d="M352.146,437.539c0-1.4-0.028-2.548-0.112-3.668h2.185l0.14,2.24h0.056c0.673-1.288,2.24-2.549,4.48-2.549
			c1.876,0,4.788,1.12,4.788,5.769v8.092h-2.464v-7.812c0-2.185-0.812-4.005-3.137-4.005c-1.623,0-2.884,1.148-3.304,2.521
			c-0.111,0.308-0.168,0.728-0.168,1.147v8.148h-2.464V437.539z"/>
		<path fill="#2F8ECD" d="M369.058,441.095c0.056,3.332,2.184,4.704,4.648,4.704c1.764,0,2.827-0.308,3.752-0.7l0.42,1.765
			c-0.868,0.392-2.353,0.84-4.509,0.84c-4.172,0-6.663-2.744-6.663-6.832s2.407-7.309,6.355-7.309c4.424,0,5.6,3.893,5.6,6.385
			c0,0.504-0.056,0.896-0.084,1.147H369.058z M376.281,439.331c0.028-1.568-0.644-4.004-3.416-4.004
			c-2.491,0-3.584,2.296-3.779,4.004H376.281z"/>
		<path fill="#2F8ECD" d="M398.988,443.727c0,1.4,0.028,2.632,0.112,3.696h-2.185l-0.14-2.212h-0.056
			c-0.645,1.092-2.072,2.52-4.48,2.52c-2.128,0-4.676-1.176-4.676-5.936v-7.924h2.464v7.504c0,2.576,0.784,4.312,3.024,4.312
			c1.651,0,2.8-1.147,3.248-2.239c0.14-0.364,0.224-0.812,0.224-1.261v-8.315h2.464V443.727z"/>
		<path fill="#2F8ECD" d="M403.076,437.539c0-1.4-0.028-2.548-0.112-3.668h2.185l0.14,2.24h0.056c0.673-1.288,2.24-2.549,4.48-2.549
			c1.876,0,4.788,1.12,4.788,5.769v8.092h-2.464v-7.812c0-2.185-0.812-4.005-3.137-4.005c-1.623,0-2.884,1.148-3.304,2.521
			c-0.111,0.308-0.168,0.728-0.168,1.147v8.148h-2.464V437.539z"/>
		<path fill="#2F8ECD" d="M434.212,446.919c-0.645,0.336-2.072,0.784-3.893,0.784c-4.088,0-6.747-2.772-6.747-6.916
			c0-4.172,2.855-7.196,7.279-7.196c1.456,0,2.744,0.364,3.416,0.7l-0.56,1.904c-0.588-0.336-1.513-0.645-2.856-0.645
			c-3.107,0-4.788,2.296-4.788,5.124c0,3.136,2.017,5.068,4.704,5.068c1.4,0,2.324-0.364,3.024-0.672L434.212,446.919z"/>
		<path fill="#2F8ECD" d="M449.191,440.535c0,5.012-3.472,7.195-6.748,7.195c-3.668,0-6.495-2.688-6.495-6.972
			c0-4.536,2.968-7.196,6.72-7.196C446.56,433.562,449.191,436.391,449.191,440.535z M438.439,440.675
			c0,2.968,1.708,5.208,4.116,5.208c2.353,0,4.116-2.212,4.116-5.264c0-2.296-1.148-5.208-4.061-5.208
			C439.7,435.411,438.439,438.099,438.439,440.675z"/>
		<path fill="#2F8ECD" d="M452.3,427.543h2.464v19.88H452.3V427.543z"/>
		<path fill="#2F8ECD" d="M471.171,440.535c0,5.012-3.472,7.195-6.748,7.195c-3.668,0-6.495-2.688-6.495-6.972
			c0-4.536,2.968-7.196,6.72-7.196C468.539,433.562,471.171,436.391,471.171,440.535z M460.419,440.675
			c0,2.968,1.708,5.208,4.116,5.208c2.353,0,4.116-2.212,4.116-5.264c0-2.296-1.148-5.208-4.061-5.208
			C461.68,435.411,460.419,438.099,460.419,440.675z"/>
		<path fill="#2F8ECD" d="M474.279,438.099c0-1.596-0.028-2.968-0.112-4.228h2.156l0.084,2.66h0.112
			c0.616-1.82,2.1-2.969,3.752-2.969c0.28,0,0.476,0.028,0.7,0.084v2.324c-0.252-0.056-0.504-0.084-0.841-0.084
			c-1.735,0-2.968,1.316-3.304,3.164c-0.056,0.336-0.111,0.729-0.111,1.148v7.224h-2.437V438.099z"/>
		<path fill="#2F8ECD" d="M489.371,438.099c0-1.596-0.028-2.968-0.112-4.228h2.156l0.084,2.66h0.112
			c0.616-1.82,2.1-2.969,3.752-2.969c0.28,0,0.476,0.028,0.7,0.084v2.324c-0.252-0.056-0.504-0.084-0.841-0.084
			c-1.735,0-2.968,1.316-3.304,3.164c-0.056,0.336-0.111,0.729-0.111,1.148v7.224h-2.437V438.099z"/>
		<path fill="#2F8ECD" d="M499.619,441.095c0.056,3.332,2.184,4.704,4.647,4.704c1.765,0,2.828-0.308,3.753-0.7l0.42,1.765
			c-0.868,0.392-2.353,0.84-4.509,0.84c-4.172,0-6.663-2.744-6.663-6.832s2.407-7.309,6.355-7.309c4.424,0,5.6,3.893,5.6,6.385
			c0,0.504-0.056,0.896-0.084,1.147H499.619z M506.843,439.331c0.028-1.568-0.644-4.004-3.416-4.004
			c-2.491,0-3.584,2.296-3.779,4.004H506.843z"/>
		<path fill="#2F8ECD" d="M512.274,438.295c0-1.736-0.056-3.136-0.112-4.424h2.212l0.112,2.324h0.056
			c1.009-1.652,2.604-2.633,4.816-2.633c3.276,0,5.74,2.772,5.74,6.889c0,4.872-2.968,7.279-6.16,7.279
			c-1.792,0-3.36-0.783-4.172-2.128h-0.057v7.364h-2.436V438.295z M514.71,441.907c0,0.363,0.057,0.699,0.112,1.008
			c0.448,1.708,1.933,2.884,3.696,2.884c2.604,0,4.116-2.128,4.116-5.236c0-2.716-1.429-5.04-4.032-5.04
			c-1.68,0-3.248,1.204-3.724,3.053c-0.084,0.308-0.169,0.672-0.169,1.008V441.907z"/>
		<path fill="#2F8ECD" d="M528.206,438.099c0-1.596-0.028-2.968-0.112-4.228h2.156l0.084,2.66h0.112
			c0.616-1.82,2.1-2.969,3.752-2.969c0.28,0,0.476,0.028,0.7,0.084v2.324c-0.252-0.056-0.504-0.084-0.841-0.084
			c-1.735,0-2.968,1.316-3.304,3.164c-0.056,0.336-0.112,0.729-0.112,1.148v7.224h-2.436V438.099z"/>
		<path fill="#2F8ECD" d="M538.455,441.095c0.056,3.332,2.184,4.704,4.647,4.704c1.765,0,2.828-0.308,3.753-0.7l0.42,1.765
			c-0.868,0.392-2.353,0.84-4.509,0.84c-4.172,0-6.663-2.744-6.663-6.832s2.407-7.309,6.355-7.309c4.424,0,5.6,3.893,5.6,6.385
			c0,0.504-0.056,0.896-0.084,1.147H538.455z M545.679,439.331c0.028-1.568-0.644-4.004-3.416-4.004
			c-2.491,0-3.584,2.296-3.779,4.004H545.679z"/>
		<path fill="#2F8ECD" d="M550.774,444.903c0.728,0.476,2.016,0.979,3.248,0.979c1.792,0,2.632-0.896,2.632-2.016
			c0-1.177-0.7-1.82-2.52-2.492c-2.437-0.868-3.584-2.212-3.584-3.836c0-2.185,1.764-3.977,4.676-3.977
			c1.372,0,2.576,0.393,3.332,0.841l-0.616,1.792c-0.532-0.336-1.512-0.784-2.772-0.784c-1.455,0-2.268,0.84-2.268,1.848
			c0,1.12,0.812,1.624,2.576,2.296c2.352,0.896,3.556,2.072,3.556,4.088c0,2.38-1.848,4.061-5.067,4.061
			c-1.484,0-2.856-0.364-3.809-0.924L550.774,444.903z"/>
		<path fill="#2F8ECD" d="M563.57,441.095c0.056,3.332,2.184,4.704,4.647,4.704c1.765,0,2.828-0.308,3.753-0.7l0.42,1.765
			c-0.868,0.392-2.353,0.84-4.509,0.84c-4.172,0-6.663-2.744-6.663-6.832s2.407-7.309,6.355-7.309c4.424,0,5.6,3.893,5.6,6.385
			c0,0.504-0.056,0.896-0.084,1.147H563.57z M570.794,439.331c0.028-1.568-0.644-4.004-3.416-4.004
			c-2.491,0-3.584,2.296-3.779,4.004H570.794z"/>
		<path fill="#2F8ECD" d="M576.226,437.539c0-1.4-0.028-2.548-0.112-3.668h2.185l0.14,2.24h0.056c0.673-1.288,2.24-2.549,4.48-2.549
			c1.876,0,4.788,1.12,4.788,5.769v8.092h-2.464v-7.812c0-2.185-0.812-4.005-3.137-4.005c-1.623,0-2.884,1.148-3.304,2.521
			c-0.111,0.308-0.168,0.728-0.168,1.147v8.148h-2.464V437.539z"/>
		<path fill="#2F8ECD" d="M594.621,429.979v3.893h3.528v1.876h-3.528v7.308c0,1.68,0.477,2.632,1.849,2.632
			c0.644,0,1.119-0.084,1.428-0.168l0.112,1.849c-0.477,0.195-1.232,0.336-2.185,0.336c-1.147,0-2.072-0.364-2.66-1.036
			c-0.699-0.729-0.952-1.933-0.952-3.528v-7.392h-2.1v-1.876h2.1v-3.248L594.621,429.979z"/>
		<path fill="#2F8ECD" d="M608.425,447.423l-0.196-1.708h-0.084c-0.756,1.064-2.212,2.016-4.144,2.016
			c-2.744,0-4.144-1.932-4.144-3.892c0-3.276,2.911-5.068,8.147-5.04v-0.28c0-1.12-0.308-3.136-3.08-3.136
			c-1.26,0-2.576,0.393-3.528,1.008l-0.56-1.624c1.12-0.728,2.744-1.204,4.452-1.204c4.144,0,5.151,2.828,5.151,5.544v5.068
			c0,1.176,0.057,2.324,0.225,3.248H608.425z M608.061,440.507c-2.688-0.056-5.739,0.42-5.739,3.052
			c0,1.597,1.063,2.353,2.323,2.353c1.765,0,2.885-1.12,3.276-2.269c0.084-0.252,0.14-0.531,0.14-0.784V440.507z"/>
		<path fill="#2F8ECD" d="M617.272,429.979v3.893h3.528v1.876h-3.528v7.308c0,1.68,0.477,2.632,1.849,2.632
			c0.644,0,1.119-0.084,1.428-0.168l0.112,1.849c-0.477,0.195-1.232,0.336-2.185,0.336c-1.147,0-2.072-0.364-2.66-1.036
			c-0.699-0.729-0.952-1.933-0.952-3.528v-7.392h-2.1v-1.876h2.1v-3.248L617.272,429.979z"/>
		<path fill="#2F8ECD" d="M626.316,430.062c0.028,0.841-0.588,1.513-1.568,1.513c-0.868,0-1.483-0.672-1.483-1.513
			c0-0.867,0.644-1.54,1.54-1.54C625.729,428.522,626.316,429.195,626.316,430.062z M623.572,447.423v-13.552h2.464v13.552H623.572z
			"/>
		<path fill="#2F8ECD" d="M631.076,433.871l2.66,7.616c0.447,1.231,0.812,2.352,1.092,3.472h0.084c0.308-1.12,0.7-2.24,1.147-3.472
			l2.633-7.616h2.575l-5.319,13.552h-2.353l-5.151-13.552H631.076z"/>
		<path fill="#2F8ECD" d="M655.576,440.535c0,5.012-3.472,7.195-6.748,7.195c-3.668,0-6.495-2.688-6.495-6.972
			c0-4.536,2.968-7.196,6.72-7.196C652.944,433.562,655.576,436.391,655.576,440.535z M644.824,440.675
			c0,2.968,1.708,5.208,4.116,5.208c2.353,0,4.116-2.212,4.116-5.264c0-2.296-1.148-5.208-4.061-5.208
			C646.085,435.411,644.824,438.099,644.824,440.675z"/>
		<path fill="#2F8ECD" d="M657.425,445.967c0-1.036,0.7-1.764,1.68-1.764c0.98,0,1.652,0.728,1.652,1.764
			c0,1.008-0.645,1.764-1.68,1.764C658.097,447.73,657.425,446.975,657.425,445.967z"/>
	</g>
	<g>
		<path fill="#2F7ABD" d="M355.602,56.486l-21.357-21.357c-0.424-0.425-1-0.664-1.602-0.664h-64.45
			c-1.251,0-2.266,1.014-2.266,2.267V138.65c0,1.252,1.015,2.267,2.266,2.267H354c1.248,0,2.266-1.014,2.266-2.267V58.086
			C356.266,57.489,356.025,56.912,355.602,56.486z M334.908,42.199l13.622,13.624h-13.622V42.199z M270.457,136.387V38.996h59.922
			v19.09c0,1.252,1.011,2.267,2.264,2.267h19.09v76.034H270.457L270.457,136.387z"/>
		<g>
			<path fill="#2F7ABD" d="M294.047,71.723h-15.914c-1.256,0-2.268-1.015-2.268-2.267V53.539c0-1.252,1.012-2.266,2.268-2.266
				h15.914c1.252,0,2.266,1.014,2.266,2.266v15.917C296.312,70.708,295.299,71.723,294.047,71.723z M280.396,67.192h11.387V55.806
				h-11.387V67.192z"/>
		</g>
		<g>
			<path fill="#2F7ABD" d="M294.047,100.215h-15.914c-1.256,0-2.268-1.011-2.268-2.264V82.032c0-1.253,1.012-2.264,2.268-2.264
				h15.914c1.252,0,2.266,1.011,2.266,2.264v15.919C296.312,99.204,295.299,100.215,294.047,100.215z M280.396,95.686h11.387v-11.39
				h-11.387V95.686z"/>
		</g>
		<g>
			<path fill="#2F7ABD" d="M294.047,128.711h-15.914c-1.256,0-2.268-1.017-2.268-2.267v-15.917c0-1.252,1.012-2.266,2.268-2.266
				h15.914c1.252,0,2.266,1.014,2.266,2.266v15.917C296.312,127.694,295.299,128.711,294.047,128.711z M280.396,124.179h11.387
				v-11.387h-11.387V124.179z"/>
		</g>
		<rect x="300" y="53" fill="#2F7ABD" width="28" height="3"/>
		<rect x="300" y="60" fill="#2F7ABD" width="28" height="4"/>
		<rect x="300" y="88" fill="#2F7ABD" width="46" height="4"/>
		<rect x="300" y="94" fill="#2F7ABD" width="46" height="4"/>
		<rect x="300" y="82" fill="#2F7ABD" width="46" height="3"/>
		<rect x="300" y="65" fill="#2F7ABD" width="28" height="5"/>
		<rect x="300" y="121" fill="#2F7ABD" width="46" height="2"/>
		<rect x="300" y="114" fill="#2F7ABD" width="34" height="4"/>
	</g>
	<g opacity="0.8">
		<path fill="#DEDC00" d="M262.266,222.006l-21.357-21.357c-0.426-0.425-1-0.664-1.602-0.664h-64.451
			c-1.252,0-2.266,1.014-2.266,2.267V304.17c0,1.253,1.014,2.268,2.266,2.268h85.808c1.249,0,2.266-1.015,2.266-2.268v-80.563
			C262.929,223.009,262.688,222.432,262.266,222.006z M241.571,207.719l13.622,13.624h-13.622V207.719z M177.121,301.906v-97.391
			h59.922v19.091c0,1.253,1.01,2.267,2.264,2.267h19.09v76.033H177.121L177.121,301.906z"/>
		<g>
			<path fill="#DEDC00" d="M200.71,237.243h-15.914c-1.255,0-2.267-1.015-2.267-2.267v-15.918c0-1.252,1.012-2.266,2.267-2.266
				h15.914c1.253,0,2.266,1.014,2.266,2.266v15.918C202.976,236.229,201.963,237.243,200.71,237.243z M187.06,232.713h11.387
				v-11.387H187.06V232.713z"/>
		</g>
		<g>
			<path fill="#DEDC00" d="M200.71,265.735h-15.914c-1.255,0-2.267-1.011-2.267-2.264v-15.919c0-1.253,1.012-2.264,2.267-2.264
				h15.914c1.253,0,2.266,1.011,2.266,2.264v15.919C202.976,264.725,201.963,265.735,200.71,265.735z M187.06,261.205h11.387
				v-11.389H187.06V261.205z"/>
		</g>
		<g>
			<path fill="#DEDC00" d="M200.71,294.231h-15.914c-1.255,0-2.267-1.017-2.267-2.267v-15.917c0-1.253,1.012-2.267,2.267-2.267
				h15.914c1.253,0,2.266,1.014,2.266,2.267v15.917C202.976,293.215,201.963,294.231,200.71,294.231z M187.06,289.699h11.387
				v-11.388H187.06V289.699z"/>
		</g>
		<rect x="206" y="218" fill="#DEDC00" width="29" height="4"/>
		<rect x="206" y="225" fill="#DEDC00" width="29" height="4"/>
		<rect x="206" y="254" fill="#DEDC00" width="47" height="3"/>
		<rect x="206" y="260" fill="#DEDC00" width="47" height="4"/>
		<rect x="206" y="247" fill="#DEDC00" width="47" height="4"/>
		<rect x="206" y="231" fill="#DEDC00" width="29" height="4"/>
		<rect x="206" y="286" fill="#DEDC00" width="47" height="3"/>
		<rect x="206" y="280" fill="#DEDC00" width="35" height="3"/>
	</g>
	<g opacity="0.8">
		<path fill="#EA5B0C" d="M623.832,52.862l-21.357-21.358c-0.426-0.425-1-0.663-1.602-0.663h-64.451
			c-1.251,0-2.266,1.014-2.266,2.266v101.919c0,1.252,1.015,2.267,2.266,2.267h85.809c1.248,0,2.265-1.014,2.265-2.267V54.462
			C624.495,53.864,624.254,53.287,623.832,52.862z M603.139,38.574l13.621,13.625h-13.621V38.574z M538.688,132.762V35.371h59.922
			v19.091c0,1.252,1.01,2.266,2.264,2.266h19.09v76.034H538.688L538.688,132.762z"/>
		<g>
			<path fill="#EA5B0C" d="M562.277,68.098h-15.914c-1.256,0-2.268-1.015-2.268-2.267V49.915c0-1.253,1.012-2.267,2.268-2.267
				h15.914c1.252,0,2.266,1.014,2.266,2.267v15.917C564.543,67.083,563.529,68.098,562.277,68.098z M548.627,63.568h11.387V52.181
				h-11.387V63.568z"/>
		</g>
		<g>
			<path fill="#EA5B0C" d="M562.277,96.591h-15.914c-1.256,0-2.268-1.012-2.268-2.264v-15.92c0-1.252,1.012-2.264,2.268-2.264
				h15.914c1.252,0,2.266,1.011,2.266,2.264v15.92C564.543,95.579,563.529,96.591,562.277,96.591z M548.627,92.061h11.387v-11.39
				h-11.387V92.061z"/>
		</g>
		<g>
			<path fill="#EA5B0C" d="M562.277,125.087h-15.914c-1.256,0-2.268-1.017-2.268-2.267v-15.917c0-1.252,1.012-2.266,2.268-2.266
				h15.914c1.252,0,2.266,1.014,2.266,2.266v15.917C564.543,124.07,563.529,125.087,562.277,125.087z M548.627,120.554h11.387
				v-11.387h-11.387V120.554z"/>
		</g>
		<rect x="568" y="49" fill="#EA5B0C" width="28" height="4"/>
		<rect x="568" y="56" fill="#EA5B0C" width="28" height="4"/>
		<rect x="568" y="84" fill="#EA5B0C" width="46" height="4"/>
		<rect x="568" y="91" fill="#EA5B0C" width="46" height="3"/>
		<rect x="568" y="78" fill="#EA5B0C" width="46" height="4"/>
		<rect x="568" y="62" fill="#EA5B0C" width="28" height="4"/>
		<rect x="568" y="117" fill="#EA5B0C" width="46" height="3"/>
		<rect x="568" y="111" fill="#EA5B0C" width="34" height="3"/>
	</g>
	<g opacity="0.8">
		<path fill="#009640" d="M536.838,222.006l-21.357-21.357c-0.424-0.425-1-0.664-1.602-0.664h-64.45
			c-1.251,0-2.266,1.014-2.266,2.267V304.17c0,1.253,1.015,2.268,2.266,2.268h85.808c1.248,0,2.266-1.015,2.266-2.268v-80.563
			C537.502,223.009,537.262,222.432,536.838,222.006z M516.145,207.719l13.621,13.624h-13.621V207.719z M451.694,301.906v-97.391
			h59.921v19.091c0,1.253,1.012,2.267,2.264,2.267h19.09v76.033H451.694L451.694,301.906z"/>
		<g>
			<path fill="#009640" d="M475.283,237.243h-15.914c-1.256,0-2.268-1.015-2.268-2.267v-15.918c0-1.252,1.012-2.266,2.268-2.266
				h15.914c1.252,0,2.266,1.014,2.266,2.266v15.918C477.549,236.229,476.535,237.243,475.283,237.243z M461.633,232.713h11.387
				v-11.387h-11.387V232.713z"/>
		</g>
		<g>
			<path fill="#009640" d="M475.283,265.735h-15.914c-1.256,0-2.268-1.011-2.268-2.264v-15.919c0-1.253,1.012-2.264,2.268-2.264
				h15.914c1.252,0,2.266,1.011,2.266,2.264v15.919C477.549,264.725,476.535,265.735,475.283,265.735z M461.633,261.205h11.387
				v-11.389h-11.387V261.205z"/>
		</g>
		<g>
			<path fill="#009640" d="M475.283,294.232h-15.914c-1.256,0-2.268-1.018-2.268-2.268v-15.917c0-1.253,1.012-2.267,2.268-2.267
				h15.914c1.252,0,2.266,1.014,2.266,2.267v15.917C477.549,293.215,476.535,294.232,475.283,294.232z M461.633,289.699h11.387
				v-11.388h-11.387V289.699z"/>
		</g>
		<rect x="481" y="218" fill="#009640" width="28" height="4"/>
		<rect x="481" y="225" fill="#009640" width="28" height="4"/>
		<rect x="481" y="254" fill="#009640" width="46" height="3"/>
		<rect x="481" y="260" fill="#009640" width="46" height="4"/>
		<rect x="481" y="247" fill="#009640" width="46" height="4"/>
		<rect x="481" y="231" fill="#009640" width="28" height="4"/>
		<rect x="481" y="286" fill="#009640" width="46" height="3"/>
		<rect x="481" y="280" fill="#009640" width="34" height="3"/>
	</g>
	<g>
		<path fill="#34393D" d="M249.082,150.521h5.193v17.273h-3.363V156.11c0-0.336,0.004-0.807,0.012-1.412s0.012-1.072,0.012-1.4
			l-3.273,14.496h-3.508l-3.25-14.496c0,0.328,0.004,0.795,0.012,1.4s0.012,1.076,0.012,1.412v11.684h-3.363v-17.273h5.252
			l3.145,13.582L249.082,150.521z"/>
		<path fill="#34393D" d="M262.405,160.024c0.622-0.078,1.066-0.176,1.334-0.293c0.48-0.203,0.72-0.52,0.72-0.949
			c0-0.523-0.184-0.885-0.552-1.084c-0.369-0.199-0.909-0.299-1.622-0.299c-0.8,0-1.366,0.195-1.699,0.586
			c-0.238,0.289-0.396,0.68-0.475,1.172h-3.223c0.07-1.117,0.384-2.035,0.941-2.754c0.887-1.125,2.409-1.688,4.567-1.688
			c1.404,0,2.652,0.277,3.743,0.832c1.09,0.555,1.636,1.602,1.636,3.141v5.859c0,0.406,0.008,0.898,0.023,1.477
			c0.023,0.438,0.09,0.734,0.199,0.891s0.273,0.285,0.492,0.387v0.492h-3.633c-0.102-0.258-0.172-0.5-0.211-0.727
			s-0.07-0.484-0.094-0.773c-0.464,0.5-0.998,0.926-1.603,1.277c-0.723,0.414-1.541,0.621-2.452,0.621
			c-1.163,0-2.124-0.33-2.882-0.99c-0.759-0.66-1.138-1.596-1.138-2.807c0-1.57,0.61-2.707,1.83-3.41
			c0.669-0.383,1.653-0.656,2.952-0.82L262.405,160.024z M264.447,161.583c-0.214,0.133-0.43,0.24-0.647,0.322
			c-0.218,0.082-0.517,0.158-0.897,0.229l-0.76,0.141c-0.713,0.125-1.225,0.277-1.535,0.457c-0.526,0.305-0.789,0.777-0.789,1.418
			c0,0.57,0.161,0.982,0.482,1.236s0.712,0.381,1.172,0.381c0.73,0,1.402-0.211,2.017-0.633s0.934-1.191,0.958-2.309V161.583z"/>
		<path fill="#34393D" d="M269.381,157.517v-2.379h1.781v-3.562h3.305v3.562h2.074v2.379h-2.074v6.75
			c0,0.523,0.066,0.85,0.199,0.979s0.539,0.193,1.219,0.193c0.102,0,0.209-0.002,0.322-0.006s0.225-0.01,0.334-0.018v2.496
			l-1.582,0.059c-1.578,0.055-2.656-0.219-3.234-0.82c-0.375-0.383-0.562-0.973-0.562-1.77v-7.863H269.381z"/>
		<path fill="#34393D" d="M287.009,155.279c0.891,0.399,1.627,1.029,2.207,1.89c0.523,0.759,0.863,1.639,1.018,2.641
			c0.09,0.587,0.126,1.432,0.11,2.535h-9.303c0.052,1.281,0.497,2.18,1.336,2.695c0.51,0.32,1.124,0.48,1.841,0.48
			c0.761,0,1.379-0.195,1.854-0.586c0.259-0.211,0.489-0.504,0.688-0.879h3.41c-0.09,0.758-0.502,1.527-1.238,2.309
			c-1.144,1.242-2.746,1.863-4.806,1.863c-1.7,0-3.2-0.523-4.499-1.571c-1.3-1.048-1.949-2.753-1.949-5.114
			c0-2.213,0.586-3.909,1.76-5.09c1.173-1.181,2.695-1.771,4.567-1.771C285.117,154.681,286.118,154.88,287.009,155.279z
			 M282.013,158.164c-0.472,0.487-0.769,1.146-0.89,1.978h5.754c-0.061-0.887-0.357-1.56-0.89-2.019
			c-0.533-0.459-1.193-0.688-1.981-0.688C283.149,157.435,282.484,157.678,282.013,158.164z"/>
		<path fill="#34393D" d="M307.971,155.067c0.547,0.219,1.043,0.602,1.488,1.148c0.359,0.445,0.602,0.992,0.727,1.641
			c0.078,0.43,0.117,1.059,0.117,1.887l-0.023,8.051h-3.422v-8.133c0-0.484-0.078-0.883-0.234-1.195
			c-0.297-0.594-0.844-0.891-1.641-0.891c-0.922,0-1.559,0.383-1.91,1.148c-0.18,0.406-0.27,0.895-0.27,1.465v7.605h-3.363v-7.605
			c0-0.758-0.078-1.309-0.234-1.652c-0.281-0.617-0.832-0.926-1.652-0.926c-0.953,0-1.594,0.309-1.922,0.926
			c-0.18,0.352-0.27,0.875-0.27,1.57v7.688h-3.387v-12.75h3.246v1.863c0.414-0.664,0.805-1.137,1.172-1.418
			c0.648-0.5,1.488-0.75,2.52-0.75c0.977,0,1.766,0.215,2.367,0.645c0.484,0.398,0.852,0.91,1.102,1.535
			c0.438-0.75,0.98-1.301,1.629-1.652c0.688-0.352,1.453-0.527,2.297-0.527C306.869,154.739,307.424,154.849,307.971,155.067z"/>
		<path fill="#34393D" d="M318.432,160.024c0.622-0.078,1.066-0.176,1.334-0.293c0.48-0.203,0.72-0.52,0.72-0.949
			c0-0.523-0.184-0.885-0.552-1.084c-0.369-0.199-0.909-0.299-1.622-0.299c-0.8,0-1.366,0.195-1.699,0.586
			c-0.238,0.289-0.396,0.68-0.475,1.172h-3.223c0.07-1.117,0.384-2.035,0.941-2.754c0.887-1.125,2.409-1.688,4.567-1.688
			c1.404,0,2.652,0.277,3.743,0.832c1.09,0.555,1.636,1.602,1.636,3.141v5.859c0,0.406,0.008,0.898,0.023,1.477
			c0.023,0.438,0.09,0.734,0.199,0.891s0.273,0.285,0.492,0.387v0.492h-3.633c-0.102-0.258-0.172-0.5-0.211-0.727
			s-0.07-0.484-0.094-0.773c-0.464,0.5-0.998,0.926-1.603,1.277c-0.723,0.414-1.541,0.621-2.452,0.621
			c-1.163,0-2.124-0.33-2.882-0.99c-0.759-0.66-1.138-1.596-1.138-2.807c0-1.57,0.61-2.707,1.83-3.41
			c0.669-0.383,1.653-0.656,2.952-0.82L318.432,160.024z M320.475,161.583c-0.214,0.133-0.43,0.24-0.647,0.322
			c-0.218,0.082-0.517,0.158-0.897,0.229l-0.76,0.141c-0.713,0.125-1.225,0.277-1.535,0.457c-0.526,0.305-0.789,0.777-0.789,1.418
			c0,0.57,0.161,0.982,0.482,1.236s0.712,0.381,1.172,0.381c0.73,0,1.402-0.211,2.017-0.633s0.934-1.191,0.958-2.309V161.583z
			 M322.561,149.794l-3.562,3.504h-2.414l2.25-3.504H322.561z"/>
		<path fill="#34393D" d="M325.408,157.517v-2.379h1.781v-3.562h3.305v3.562h2.074v2.379h-2.074v6.75
			c0,0.523,0.066,0.85,0.199,0.979s0.539,0.193,1.219,0.193c0.102,0,0.209-0.002,0.322-0.006s0.225-0.01,0.334-0.018v2.496
			l-1.582,0.059c-1.578,0.055-2.656-0.219-3.234-0.82c-0.375-0.383-0.562-0.973-0.562-1.77v-7.863H325.408z"/>
		<path fill="#34393D" d="M338.146,153.497h-3.387v-3.082h3.387V153.497z M334.76,155.021h3.387v12.773h-3.387V155.021z"/>
		<path fill="#34393D" d="M349.021,159.603c-0.062-0.477-0.223-0.906-0.481-1.289c-0.376-0.516-0.959-0.773-1.75-0.773
			c-1.128,0-1.899,0.559-2.314,1.676c-0.22,0.593-0.329,1.379-0.329,2.361c0,0.936,0.109,1.688,0.329,2.256
			c0.399,1.062,1.151,1.594,2.255,1.594c0.783,0,1.339-0.211,1.668-0.633s0.529-0.969,0.599-1.641h3.41
			c-0.078,1.016-0.446,1.977-1.103,2.883c-1.048,1.461-2.601,2.191-4.657,2.191s-3.57-0.609-4.54-1.828s-1.455-2.799-1.455-4.74
			c0-2.191,0.536-3.896,1.607-5.115s2.549-1.828,4.434-1.828c1.604,0,2.915,0.359,3.936,1.078s1.625,1.988,1.812,3.809H349.021z"/>
		<path fill="#34393D" d="M359.788,160.024c0.622-0.078,1.066-0.176,1.334-0.293c0.479-0.203,0.72-0.52,0.72-0.949
			c0-0.523-0.185-0.885-0.553-1.084s-0.908-0.299-1.621-0.299c-0.8,0-1.366,0.195-1.699,0.586c-0.238,0.289-0.396,0.68-0.475,1.172
			h-3.223c0.07-1.117,0.384-2.035,0.941-2.754c0.887-1.125,2.409-1.688,4.567-1.688c1.404,0,2.652,0.277,3.743,0.832
			s1.636,1.602,1.636,3.141v5.859c0,0.406,0.008,0.898,0.023,1.477c0.023,0.438,0.09,0.734,0.199,0.891s0.273,0.285,0.492,0.387
			v0.492h-3.633c-0.102-0.258-0.172-0.5-0.211-0.727s-0.07-0.484-0.094-0.773c-0.464,0.5-0.998,0.926-1.604,1.277
			c-0.723,0.414-1.54,0.621-2.451,0.621c-1.163,0-2.124-0.33-2.882-0.99c-0.759-0.66-1.138-1.596-1.138-2.807
			c0-1.57,0.61-2.707,1.83-3.41c0.669-0.383,1.653-0.656,2.952-0.82L359.788,160.024z M361.83,161.583
			c-0.214,0.133-0.43,0.24-0.647,0.322s-0.517,0.158-0.897,0.229l-0.76,0.141c-0.713,0.125-1.225,0.277-1.535,0.457
			c-0.526,0.305-0.789,0.777-0.789,1.418c0,0.57,0.161,0.982,0.482,1.236s0.712,0.381,1.172,0.381c0.73,0,1.402-0.211,2.017-0.633
			s0.934-1.191,0.958-2.309V161.583z"/>
	</g>
	<g>
		<path fill="#34393D" d="M531.752,148.572h3.609v14.168h8.625v3.105h-12.234V148.572z"/>
		<path fill="#34393D" d="M554.467,153.331c0.891,0.399,1.627,1.029,2.207,1.89c0.523,0.759,0.862,1.639,1.018,2.641
			c0.09,0.587,0.127,1.432,0.109,2.535h-9.303c0.052,1.281,0.497,2.18,1.336,2.695c0.51,0.32,1.123,0.48,1.842,0.48
			c0.76,0,1.379-0.195,1.854-0.586c0.26-0.211,0.489-0.504,0.688-0.879h3.41c-0.09,0.758-0.502,1.527-1.238,2.309
			c-1.145,1.242-2.746,1.863-4.806,1.863c-1.7,0-3.2-0.523-4.499-1.571c-1.3-1.048-1.949-2.753-1.949-5.114
			c0-2.213,0.586-3.909,1.76-5.09c1.173-1.181,2.695-1.771,4.567-1.771C552.574,152.732,553.575,152.932,554.467,153.331z
			 M549.47,156.216c-0.472,0.487-0.769,1.146-0.89,1.978h5.754c-0.061-0.887-0.357-1.56-0.89-2.019s-1.192-0.688-1.981-0.688
			C550.605,155.486,549.941,155.729,549.47,156.216z"/>
		<path fill="#34393D" d="M569.791,153.805c0.836,0.691,1.254,1.838,1.254,3.439v8.602h-3.422v-7.77c0-0.672-0.09-1.188-0.268-1.547
			c-0.326-0.656-0.946-0.984-1.861-0.984c-1.125,0-1.896,0.48-2.314,1.441c-0.218,0.508-0.326,1.156-0.326,1.945v6.914h-3.34v-12.75
			h3.234v1.863c0.428-0.656,0.832-1.129,1.214-1.418c0.685-0.516,1.552-0.773,2.603-0.773
			C567.879,152.768,568.954,153.113,569.791,153.805z"/>
		<path fill="#34393D" d="M580.469,153.061c0.812,0.336,1.467,0.953,1.967,1.852v-1.84h3.258v12.117
			c0,1.648-0.277,2.891-0.832,3.727c-0.953,1.438-2.781,2.156-5.484,2.156c-1.633,0-2.965-0.32-3.996-0.961
			s-1.602-1.598-1.711-2.871h3.633c0.094,0.391,0.246,0.672,0.457,0.844c0.359,0.305,0.965,0.457,1.816,0.457
			c1.203,0,2.008-0.402,2.414-1.207c0.266-0.516,0.398-1.383,0.398-2.602v-0.82c-0.32,0.547-0.664,0.957-1.031,1.23
			c-0.664,0.508-1.527,0.762-2.59,0.762c-1.641,0-2.951-0.576-3.932-1.729s-1.471-2.713-1.471-4.682
			c0-1.898,0.473-3.494,1.416-4.787c0.944-1.293,2.282-1.939,4.015-1.939C579.436,152.768,579.993,152.865,580.469,153.061z
			 M581.607,162.219c0.536-0.59,0.805-1.529,0.805-2.818c0-1.211-0.255-2.133-0.765-2.766c-0.509-0.633-1.192-0.949-2.048-0.949
			c-1.167,0-1.973,0.551-2.416,1.652c-0.232,0.586-0.35,1.309-0.35,2.168c0,0.742,0.125,1.402,0.373,1.98
			c0.451,1.078,1.261,1.617,2.428,1.617C580.412,163.104,581.07,162.809,581.607,162.219z"/>
		<path fill="#34393D" d="M592.139,153.072v7.699c0,0.727,0.086,1.273,0.256,1.641c0.304,0.648,0.898,0.973,1.785,0.973
			c1.135,0,1.912-0.461,2.332-1.383c0.217-0.5,0.326-1.16,0.326-1.98v-6.949h3.387v12.773h-3.246v-1.805
			c-0.031,0.039-0.109,0.156-0.233,0.352c-0.125,0.195-0.272,0.367-0.444,0.516c-0.521,0.469-1.026,0.789-1.514,0.961
			c-0.486,0.172-1.057,0.258-1.712,0.258c-1.885,0-3.155-0.68-3.81-2.039c-0.365-0.75-0.549-1.855-0.549-3.316v-7.699H592.139z"/>
		<path fill="#34393D" d="M608.529,158.076c0.622-0.078,1.066-0.176,1.334-0.293c0.48-0.203,0.721-0.52,0.721-0.949
			c0-0.523-0.184-0.885-0.553-1.084c-0.368-0.199-0.908-0.299-1.621-0.299c-0.8,0-1.366,0.195-1.699,0.586
			c-0.237,0.289-0.396,0.68-0.475,1.172h-3.223c0.07-1.117,0.385-2.035,0.941-2.754c0.887-1.125,2.408-1.688,4.566-1.688
			c1.404,0,2.652,0.277,3.743,0.832s1.636,1.602,1.636,3.141v5.859c0,0.406,0.008,0.898,0.023,1.477
			c0.023,0.438,0.09,0.734,0.199,0.891s0.273,0.285,0.492,0.387v0.492h-3.633c-0.102-0.258-0.172-0.5-0.211-0.727
			s-0.07-0.484-0.094-0.773c-0.464,0.5-0.998,0.926-1.604,1.277c-0.723,0.414-1.54,0.621-2.451,0.621
			c-1.163,0-2.124-0.33-2.882-0.99c-0.759-0.66-1.138-1.596-1.138-2.807c0-1.57,0.609-2.707,1.83-3.41
			c0.669-0.383,1.652-0.656,2.951-0.82L608.529,158.076z M610.572,159.635c-0.214,0.133-0.43,0.24-0.647,0.322
			s-0.517,0.158-0.897,0.229l-0.76,0.141c-0.713,0.125-1.225,0.277-1.535,0.457c-0.526,0.305-0.789,0.777-0.789,1.418
			c0,0.57,0.16,0.982,0.482,1.236c0.32,0.254,0.711,0.381,1.172,0.381c0.729,0,1.402-0.211,2.017-0.633s0.935-1.191,0.958-2.309
			V159.635z"/>
		<path fill="#34393D" d="M615.365,168.295c0.188,0.016,0.32,0.025,0.398,0.029s0.148,0.006,0.211,0.006
			c0.328,0,0.576-0.08,0.744-0.24s0.252-0.471,0.252-0.932v-14.027h3.34v14.086c0,1.289-0.254,2.242-0.762,2.859
			s-1.504,0.926-2.988,0.926c-0.102,0-0.252-0.004-0.451-0.012s-0.447-0.016-0.744-0.023V168.295z M620.311,151.549h-3.34v-3.082
			h3.34V151.549z"/>
		<path fill="#34393D" d="M631.811,153.331c0.891,0.399,1.627,1.029,2.207,1.89c0.523,0.759,0.862,1.639,1.018,2.641
			c0.09,0.587,0.127,1.432,0.109,2.535h-9.303c0.052,1.281,0.497,2.18,1.336,2.695c0.51,0.32,1.123,0.48,1.842,0.48
			c0.76,0,1.379-0.195,1.854-0.586c0.26-0.211,0.489-0.504,0.688-0.879h3.41c-0.09,0.758-0.502,1.527-1.238,2.309
			c-1.145,1.242-2.746,1.863-4.806,1.863c-1.7,0-3.2-0.523-4.499-1.571c-1.3-1.048-1.949-2.753-1.949-5.114
			c0-2.213,0.586-3.909,1.76-5.09c1.173-1.181,2.695-1.771,4.567-1.771C629.918,152.732,630.919,152.932,631.811,153.331z
			 M626.813,156.216c-0.472,0.487-0.769,1.146-0.89,1.978h5.754c-0.061-0.887-0.357-1.56-0.89-2.019s-1.192-0.688-1.981-0.688
			C627.949,155.486,627.285,155.729,626.813,156.216z"/>
	</g>
	<g>
		<path fill="#34393D" d="M175.366,333.4v-17.273h3.586v6.586h6.715v-6.586h3.586V333.4h-3.586v-7.711h-6.715v7.711H175.366z"/>
		<path fill="#34393D" d="M195.886,319.104h-3.387v-3.082h3.387V319.104z M192.499,320.627h3.387V333.4h-3.387V320.627z"/>
		<path fill="#34393D" d="M201.71,329.322c0.071,0.594,0.224,1.016,0.459,1.266c0.416,0.445,1.186,0.668,2.308,0.668
			c0.659,0,1.184-0.098,1.572-0.293c0.389-0.195,0.583-0.488,0.583-0.879c0-0.375-0.157-0.66-0.47-0.855s-1.478-0.531-3.494-1.008
			c-1.452-0.359-2.474-0.809-3.068-1.348c-0.594-0.531-0.891-1.297-0.891-2.297c0-1.18,0.464-2.193,1.392-3.041
			s2.233-1.271,3.917-1.271c1.597,0,2.899,0.318,3.905,0.955s1.583,1.736,1.732,3.299h-3.34c-0.047-0.43-0.168-0.77-0.364-1.02
			c-0.368-0.453-0.995-0.68-1.88-0.68c-0.729,0-1.248,0.113-1.557,0.34c-0.31,0.227-0.464,0.492-0.464,0.797
			c0,0.383,0.165,0.66,0.494,0.832c0.329,0.18,1.491,0.488,3.487,0.926c1.331,0.312,2.328,0.785,2.992,1.418
			c0.656,0.641,0.984,1.441,0.984,2.402c0,1.266-0.472,2.299-1.415,3.1s-2.401,1.201-4.374,1.201c-2.012,0-3.497-0.424-4.456-1.271
			s-1.438-1.928-1.438-3.24H201.71z"/>
		<path fill="#34393D" d="M211.155,323.123v-2.379h1.781v-3.562h3.305v3.562h2.074v2.379h-2.074v6.75
			c0,0.523,0.066,0.85,0.199,0.979s0.539,0.193,1.219,0.193c0.102,0,0.209-0.002,0.322-0.006s0.225-0.01,0.334-0.018v2.496
			l-1.582,0.059c-1.578,0.055-2.656-0.219-3.234-0.82c-0.375-0.383-0.562-0.973-0.562-1.77v-7.863H211.155z"/>
		<path fill="#34393D" d="M231.112,331.838c-1.078,1.331-2.715,1.996-4.91,1.996s-3.832-0.665-4.91-1.996s-1.617-2.934-1.617-4.807
			c0-1.842,0.539-3.438,1.617-4.789c1.078-1.35,2.715-2.025,4.91-2.025s3.832,0.676,4.91,2.025c1.078,1.351,1.617,2.947,1.617,4.789
			C232.729,328.904,232.19,330.507,231.112,331.838z M228.44,329.992c0.523-0.694,0.785-1.682,0.785-2.961s-0.262-2.265-0.785-2.955
			c-0.523-0.689-1.273-1.035-2.25-1.035s-1.729,0.346-2.256,1.035c-0.527,0.69-0.791,1.676-0.791,2.955s0.264,2.267,0.791,2.961
			s1.279,1.041,2.256,1.041S227.917,330.687,228.44,329.992z"/>
		<path fill="#34393D" d="M242.216,320.328c0.043,0.004,0.139,0.01,0.287,0.018v3.422c-0.211-0.023-0.398-0.039-0.562-0.047
			s-0.297-0.012-0.398-0.012c-1.344,0-2.246,0.438-2.707,1.312c-0.258,0.492-0.387,1.25-0.387,2.273v6.105h-3.363v-12.773h3.188
			v2.227c0.516-0.852,0.965-1.434,1.348-1.746c0.625-0.523,1.438-0.785,2.438-0.785C242.12,320.322,242.173,320.324,242.216,320.328
			z"/>
		<path fill="#34393D" d="M247.894,319.104h-3.387v-3.082h3.387V319.104z M244.507,320.627h3.387V333.4h-3.387V320.627z"/>
		<path fill="#34393D" d="M256.187,325.631c0.622-0.078,1.066-0.176,1.334-0.293c0.48-0.203,0.72-0.52,0.72-0.949
			c0-0.523-0.184-0.885-0.552-1.084c-0.369-0.199-0.909-0.299-1.622-0.299c-0.8,0-1.366,0.195-1.699,0.586
			c-0.238,0.289-0.396,0.68-0.475,1.172h-3.223c0.07-1.117,0.384-2.035,0.941-2.754c0.887-1.125,2.409-1.688,4.567-1.688
			c1.404,0,2.652,0.277,3.743,0.832c1.09,0.555,1.636,1.602,1.636,3.141v5.859c0,0.406,0.008,0.898,0.023,1.477
			c0.023,0.438,0.09,0.734,0.199,0.891s0.273,0.285,0.492,0.387v0.492h-3.633c-0.102-0.258-0.172-0.5-0.211-0.727
			s-0.07-0.484-0.094-0.773c-0.464,0.5-0.998,0.926-1.603,1.277c-0.723,0.414-1.541,0.621-2.452,0.621
			c-1.163,0-2.124-0.33-2.882-0.99c-0.759-0.66-1.138-1.596-1.138-2.807c0-1.57,0.61-2.707,1.83-3.41
			c0.669-0.383,1.653-0.656,2.952-0.82L256.187,325.631z M258.229,327.189c-0.214,0.133-0.43,0.24-0.647,0.322
			c-0.218,0.082-0.517,0.158-0.897,0.229l-0.76,0.141c-0.713,0.125-1.225,0.277-1.535,0.457c-0.526,0.305-0.789,0.777-0.789,1.418
			c0,0.57,0.161,0.982,0.482,1.236s0.712,0.381,1.172,0.381c0.73,0,1.402-0.211,2.017-0.633s0.934-1.191,0.958-2.309V327.189z"/>
	</g>
	<g>
		<path fill="#34393D" d="M385.708,315.982c1.391-1.422,3.161-2.133,5.31-2.133c2.875,0,4.977,0.953,6.307,2.859
			c0.734,1.07,1.128,2.145,1.183,3.223h-3.609c-0.229-0.828-0.524-1.453-0.884-1.875c-0.643-0.75-1.596-1.125-2.859-1.125
			c-1.286,0-2.3,0.529-3.042,1.588c-0.742,1.059-1.113,2.557-1.113,4.494s0.392,3.389,1.175,4.354
			c0.784,0.965,1.779,1.447,2.986,1.447c1.238,0,2.182-0.414,2.832-1.242c0.359-0.445,0.657-1.113,0.894-2.004h3.586
			c-0.309,1.883-1.1,3.414-2.371,4.594s-2.9,1.77-4.886,1.77c-2.458,0-4.39-0.797-5.797-2.391c-1.407-1.602-2.11-3.797-2.11-6.586
			C383.309,319.939,384.108,317.615,385.708,315.982z"/>
		<path fill="#34393D" d="M404.555,317.154h-3.387v-3.082h3.387V317.154z M401.168,318.678h3.387v12.773h-3.387V318.678z"/>
		<path fill="#34393D" d="M416.113,318.937c0.891,0.399,1.627,1.029,2.207,1.89c0.523,0.759,0.863,1.639,1.018,2.641
			c0.09,0.587,0.126,1.432,0.11,2.535h-9.303c0.052,1.281,0.497,2.18,1.336,2.695c0.51,0.32,1.124,0.48,1.841,0.48
			c0.761,0,1.379-0.195,1.854-0.586c0.259-0.211,0.489-0.504,0.688-0.879h3.41c-0.09,0.758-0.502,1.527-1.238,2.309
			c-1.144,1.242-2.746,1.863-4.806,1.863c-1.7,0-3.2-0.523-4.499-1.571c-1.3-1.048-1.949-2.753-1.949-5.114
			c0-2.213,0.586-3.909,1.76-5.09c1.173-1.181,2.695-1.771,4.567-1.771C414.22,318.338,415.222,318.537,416.113,318.937z
			 M411.116,321.821c-0.472,0.487-0.769,1.146-0.89,1.978h5.754c-0.061-0.887-0.357-1.56-0.89-2.019
			c-0.533-0.459-1.193-0.688-1.981-0.688C412.252,321.092,411.588,321.335,411.116,321.821z"/>
		<path fill="#34393D" d="M431.438,319.41c0.836,0.691,1.254,1.838,1.254,3.439v8.602h-3.422v-7.77c0-0.672-0.09-1.188-0.268-1.547
			c-0.326-0.656-0.946-0.984-1.861-0.984c-1.125,0-1.896,0.48-2.314,1.441c-0.218,0.508-0.326,1.156-0.326,1.945v6.914h-3.34v-12.75
			h3.234v1.863c0.428-0.656,0.832-1.129,1.214-1.418c0.685-0.516,1.552-0.773,2.603-0.773
			C429.525,318.373,430.601,318.719,431.438,319.41z"/>
		<path fill="#34393D" d="M443.438,323.26c-0.062-0.477-0.223-0.906-0.481-1.289c-0.376-0.516-0.96-0.773-1.751-0.773
			c-1.127,0-1.898,0.559-2.313,1.676c-0.22,0.593-0.329,1.379-0.329,2.361c0,0.936,0.109,1.688,0.329,2.256
			c0.399,1.062,1.151,1.594,2.255,1.594c0.783,0,1.34-0.211,1.668-0.633c0.329-0.422,0.529-0.969,0.6-1.641h3.41
			c-0.078,1.016-0.445,1.977-1.103,2.883c-1.048,1.461-2.601,2.191-4.657,2.191s-3.57-0.609-4.539-1.828
			c-0.971-1.219-1.455-2.799-1.455-4.74c0-2.191,0.535-3.896,1.607-5.115c1.07-1.219,2.549-1.828,4.434-1.828
			c1.604,0,2.915,0.359,3.936,1.078s1.625,1.988,1.812,3.809H443.438z"/>
		<path fill="#34393D" d="M452.578,317.154h-3.387v-3.082h3.387V317.154z M449.191,318.678h3.387v12.773h-3.387V318.678z"/>
		<path fill="#34393D" d="M460.871,323.682c0.622-0.078,1.066-0.176,1.334-0.293c0.48-0.203,0.721-0.52,0.721-0.949
			c0-0.523-0.184-0.885-0.553-1.084c-0.368-0.199-0.908-0.299-1.621-0.299c-0.8,0-1.366,0.195-1.699,0.586
			c-0.237,0.289-0.396,0.68-0.475,1.172h-3.223c0.07-1.117,0.385-2.035,0.941-2.754c0.887-1.125,2.408-1.688,4.566-1.688
			c1.404,0,2.652,0.277,3.743,0.832s1.636,1.602,1.636,3.141v5.859c0,0.406,0.008,0.898,0.023,1.477
			c0.023,0.438,0.09,0.734,0.199,0.891s0.273,0.285,0.492,0.387v0.492h-3.633c-0.102-0.258-0.172-0.5-0.211-0.727
			s-0.07-0.484-0.094-0.773c-0.464,0.5-0.998,0.926-1.604,1.277c-0.723,0.414-1.54,0.621-2.451,0.621
			c-1.163,0-2.124-0.33-2.882-0.99c-0.759-0.66-1.138-1.596-1.138-2.807c0-1.57,0.609-2.707,1.83-3.41
			c0.669-0.383,1.652-0.656,2.951-0.82L460.871,323.682z M462.914,325.24c-0.214,0.133-0.43,0.24-0.647,0.322
			s-0.517,0.158-0.897,0.229l-0.76,0.141c-0.713,0.125-1.225,0.277-1.535,0.457c-0.526,0.305-0.789,0.777-0.789,1.418
			c0,0.57,0.16,0.982,0.482,1.236c0.32,0.254,0.711,0.381,1.172,0.381c0.729,0,1.402-0.211,2.017-0.633s0.935-1.191,0.958-2.309
			V325.24z"/>
		<path fill="#34393D" d="M471.75,327.373c0.07,0.594,0.224,1.016,0.459,1.266c0.416,0.445,1.186,0.668,2.309,0.668
			c0.658,0,1.184-0.098,1.571-0.293c0.389-0.195,0.583-0.488,0.583-0.879c0-0.375-0.156-0.66-0.47-0.855s-1.478-0.531-3.493-1.008
			c-1.452-0.359-2.475-0.809-3.068-1.348c-0.594-0.531-0.891-1.297-0.891-2.297c0-1.18,0.464-2.193,1.392-3.041
			s2.233-1.271,3.917-1.271c1.597,0,2.898,0.318,3.904,0.955s1.584,1.736,1.732,3.299h-3.34c-0.047-0.43-0.168-0.77-0.364-1.02
			c-0.368-0.453-0.995-0.68-1.88-0.68c-0.729,0-1.248,0.113-1.557,0.34c-0.311,0.227-0.465,0.492-0.465,0.797
			c0,0.383,0.164,0.66,0.494,0.832c0.328,0.18,1.49,0.488,3.486,0.926c1.33,0.312,2.328,0.785,2.992,1.418
			c0.656,0.641,0.984,1.441,0.984,2.402c0,1.266-0.472,2.299-1.415,3.1s-2.401,1.201-4.374,1.201c-2.012,0-3.497-0.424-4.456-1.271
			s-1.438-1.928-1.438-3.24H471.75z"/>
		<path fill="#34393D" d="M489.387,314.178h3.783l6.857,12.044v-12.044h3.363v17.273h-3.608l-7.032-12.256v12.256h-3.363V314.178z"
			/>
		<path fill="#34393D" d="M511.566,323.682c0.621-0.078,1.066-0.176,1.334-0.293c0.48-0.203,0.721-0.52,0.721-0.949
			c0-0.523-0.186-0.885-0.553-1.084c-0.369-0.199-0.908-0.299-1.621-0.299c-0.801,0-1.367,0.195-1.699,0.586
			c-0.238,0.289-0.396,0.68-0.475,1.172h-3.223c0.07-1.117,0.385-2.035,0.941-2.754c0.887-1.125,2.408-1.688,4.566-1.688
			c1.404,0,2.652,0.277,3.742,0.832c1.092,0.555,1.637,1.602,1.637,3.141v5.859c0,0.406,0.008,0.898,0.023,1.477
			c0.023,0.438,0.09,0.734,0.199,0.891s0.273,0.285,0.492,0.387v0.492h-3.633c-0.102-0.258-0.172-0.5-0.211-0.727
			s-0.07-0.484-0.094-0.773c-0.465,0.5-0.998,0.926-1.604,1.277c-0.723,0.414-1.541,0.621-2.451,0.621
			c-1.164,0-2.125-0.33-2.883-0.99s-1.137-1.596-1.137-2.807c0-1.57,0.609-2.707,1.83-3.41c0.668-0.383,1.652-0.656,2.951-0.82
			L511.566,323.682z M513.609,325.24c-0.215,0.133-0.43,0.24-0.648,0.322c-0.217,0.082-0.516,0.158-0.896,0.229l-0.76,0.141
			c-0.713,0.125-1.225,0.277-1.535,0.457c-0.527,0.305-0.789,0.777-0.789,1.418c0,0.57,0.16,0.982,0.482,1.236
			c0.32,0.254,0.711,0.381,1.172,0.381c0.729,0,1.4-0.211,2.016-0.633s0.934-1.191,0.959-2.309V325.24z"/>
		<path fill="#34393D" d="M518.543,321.174v-2.379h1.781v-3.562h3.305v3.562h2.074v2.379h-2.074v6.75
			c0,0.523,0.066,0.85,0.199,0.979s0.539,0.193,1.219,0.193c0.102,0,0.209-0.002,0.322-0.006s0.225-0.01,0.334-0.018v2.496
			l-1.582,0.059c-1.578,0.055-2.656-0.219-3.234-0.82c-0.375-0.383-0.562-0.973-0.562-1.77v-7.863H518.543z"/>
		<path fill="#34393D" d="M531.176,318.678v7.699c0,0.727,0.086,1.273,0.258,1.641c0.303,0.648,0.896,0.973,1.783,0.973
			c1.135,0,1.912-0.461,2.332-1.383c0.217-0.5,0.326-1.16,0.326-1.98v-6.949h3.387v12.773h-3.246v-1.805
			c-0.031,0.039-0.109,0.156-0.232,0.352c-0.125,0.195-0.273,0.367-0.445,0.516c-0.521,0.469-1.025,0.789-1.514,0.961
			c-0.486,0.172-1.057,0.258-1.711,0.258c-1.885,0-3.156-0.68-3.811-2.039c-0.365-0.75-0.549-1.855-0.549-3.316v-7.699H531.176z"/>
		<path fill="#34393D" d="M549.604,318.379c0.043,0.004,0.139,0.01,0.287,0.018v3.422c-0.211-0.023-0.398-0.039-0.562-0.047
			s-0.297-0.012-0.398-0.012c-1.344,0-2.246,0.438-2.707,1.312c-0.258,0.492-0.387,1.25-0.387,2.273v6.105h-3.363v-12.773h3.188
			v2.227c0.516-0.852,0.965-1.434,1.348-1.746c0.625-0.523,1.438-0.785,2.438-0.785
			C549.508,318.373,549.561,318.375,549.604,318.379z"/>
		<path fill="#34393D" d="M556.908,323.682c0.621-0.078,1.064-0.176,1.334-0.293c0.479-0.203,0.719-0.52,0.719-0.949
			c0-0.523-0.184-0.885-0.553-1.084c-0.367-0.199-0.908-0.299-1.621-0.299c-0.799,0-1.365,0.195-1.697,0.586
			c-0.238,0.289-0.396,0.68-0.477,1.172h-3.223c0.07-1.117,0.385-2.035,0.941-2.754c0.887-1.125,2.41-1.688,4.566-1.688
			c1.404,0,2.652,0.277,3.744,0.832c1.09,0.555,1.635,1.602,1.635,3.141v5.859c0,0.406,0.008,0.898,0.023,1.477
			c0.023,0.438,0.09,0.734,0.199,0.891s0.273,0.285,0.492,0.387v0.492h-3.633c-0.102-0.258-0.172-0.5-0.211-0.727
			s-0.07-0.484-0.094-0.773c-0.463,0.5-0.998,0.926-1.604,1.277c-0.723,0.414-1.539,0.621-2.451,0.621
			c-1.162,0-2.123-0.33-2.881-0.99c-0.76-0.66-1.139-1.596-1.139-2.807c0-1.57,0.611-2.707,1.83-3.41
			c0.67-0.383,1.652-0.656,2.951-0.82L556.908,323.682z M558.949,325.24c-0.213,0.133-0.43,0.24-0.646,0.322
			c-0.219,0.082-0.518,0.158-0.898,0.229l-0.76,0.141c-0.713,0.125-1.225,0.277-1.535,0.457c-0.525,0.305-0.789,0.777-0.789,1.418
			c0,0.57,0.16,0.982,0.482,1.236c0.32,0.254,0.711,0.381,1.172,0.381c0.73,0,1.402-0.211,2.018-0.633s0.934-1.191,0.957-2.309
			V325.24z"/>
		<path fill="#34393D" d="M568.605,331.451h-3.34v-17.273h3.34V331.451z"/>
		<path fill="#34393D" d="M580.188,318.937c0.891,0.399,1.627,1.029,2.207,1.89c0.523,0.759,0.863,1.639,1.018,2.641
			c0.09,0.587,0.127,1.432,0.109,2.535h-9.303c0.053,1.281,0.498,2.18,1.336,2.695c0.51,0.32,1.125,0.48,1.842,0.48
			c0.762,0,1.379-0.195,1.854-0.586c0.26-0.211,0.49-0.504,0.688-0.879h3.41c-0.09,0.758-0.502,1.527-1.238,2.309
			c-1.145,1.242-2.746,1.863-4.805,1.863c-1.701,0-3.199-0.523-4.5-1.571c-1.299-1.048-1.949-2.753-1.949-5.114
			c0-2.213,0.588-3.909,1.76-5.09c1.174-1.181,2.695-1.771,4.568-1.771C578.295,318.338,579.297,318.537,580.188,318.937z
			 M575.191,321.821c-0.473,0.487-0.77,1.146-0.891,1.978h5.754c-0.061-0.887-0.357-1.56-0.889-2.019
			c-0.533-0.459-1.193-0.688-1.98-0.688C576.328,321.092,575.662,321.335,575.191,321.821z"/>
		<path fill="#34393D" d="M587.801,327.373c0.07,0.594,0.225,1.016,0.459,1.266c0.416,0.445,1.186,0.668,2.309,0.668
			c0.66,0,1.184-0.098,1.572-0.293s0.582-0.488,0.582-0.879c0-0.375-0.156-0.66-0.469-0.855s-1.479-0.531-3.494-1.008
			c-1.451-0.359-2.475-0.809-3.068-1.348c-0.594-0.531-0.891-1.297-0.891-2.297c0-1.18,0.465-2.193,1.393-3.041
			s2.232-1.271,3.916-1.271c1.598,0,2.898,0.318,3.904,0.955s1.584,1.736,1.732,3.299h-3.34c-0.047-0.43-0.168-0.77-0.363-1.02
			c-0.369-0.453-0.996-0.68-1.881-0.68c-0.729,0-1.248,0.113-1.557,0.34c-0.311,0.227-0.465,0.492-0.465,0.797
			c0,0.383,0.164,0.66,0.494,0.832c0.328,0.18,1.49,0.488,3.486,0.926c1.332,0.312,2.328,0.785,2.992,1.418
			c0.656,0.641,0.984,1.441,0.984,2.402c0,1.266-0.471,2.299-1.414,3.1s-2.402,1.201-4.375,1.201c-2.012,0-3.496-0.424-4.455-1.271
			s-1.439-1.928-1.439-3.24H587.801z"/>
	</g>
</g>
</svg>
