<?xml version="1.0" encoding="utf-8"?>
<!-- Generator: Adobe Illustrator 16.0.0, SVG Export Plug-In . SVG Version: 6.00 Build 0)  -->
<!DOCTYPE svg PUBLIC "-//W3C//DTD SVG 1.1//EN" "http://www.w3.org/Graphics/SVG/1.1/DTD/svg11.dtd">
<svg version="1.1" id="Capa_1" xmlns="http://www.w3.org/2000/svg" xmlns:xlink="http://www.w3.org/1999/xlink" x="0px" y="0px"
	 width="841.89px" height="595.28px" viewBox="0 0 841.89 595.28" enable-background="new 0 0 841.89 595.28" xml:space="preserve">
<g>
	<g>
		<path fill="#2F8ECD" d="M30.712,430.31h-5.74v-2.072h13.972v2.072h-5.768v16.8h-2.464V430.31z"/>
		<path fill="#2F8ECD" d="M39.7,437.785c0-1.596-0.028-2.968-0.112-4.228h2.156l0.084,2.66h0.112c0.616-1.82,2.1-2.969,3.752-2.969
			c0.28,0,0.476,0.028,0.7,0.084v2.324c-0.252-0.056-0.504-0.084-0.84-0.084c-1.736,0-2.968,1.316-3.304,3.164
			c-0.056,0.336-0.112,0.729-0.112,1.148v7.224H39.7V437.785z"/>
		<path fill="#2F8ECD" d="M56.22,447.109l-0.196-1.708H55.94c-0.756,1.064-2.212,2.016-4.144,2.016
			c-2.744,0-4.144-1.932-4.144-3.892c0-3.276,2.912-5.068,8.148-5.04v-0.28c0-1.12-0.308-3.136-3.08-3.136
			c-1.26,0-2.576,0.393-3.528,1.008l-0.56-1.624c1.12-0.728,2.744-1.204,4.452-1.204c4.144,0,5.152,2.828,5.152,5.544v5.068
			c0,1.176,0.056,2.324,0.224,3.248H56.22z M55.856,440.193c-2.688-0.056-5.74,0.42-5.74,3.052c0,1.597,1.064,2.353,2.324,2.353
			c1.764,0,2.884-1.12,3.276-2.269c0.084-0.252,0.14-0.531,0.14-0.784V440.193z"/>
		<path fill="#2F8ECD" d="M65.068,429.665v3.893h3.528v1.876h-3.528v7.308c0,1.68,0.476,2.632,1.848,2.632
			c0.644,0,1.12-0.084,1.428-0.168l0.112,1.849c-0.476,0.195-1.232,0.336-2.184,0.336c-1.148,0-2.072-0.364-2.66-1.036
			c-0.7-0.729-0.952-1.933-0.952-3.528v-7.392h-2.1v-1.876h2.1v-3.248L65.068,429.665z"/>
		<path fill="#2F8ECD" d="M78.872,447.109l-0.196-1.708h-0.084c-0.756,1.064-2.212,2.016-4.144,2.016
			c-2.744,0-4.144-1.932-4.144-3.892c0-3.276,2.912-5.068,8.148-5.04v-0.28c0-1.12-0.308-3.136-3.08-3.136
			c-1.26,0-2.576,0.393-3.528,1.008l-0.56-1.624c1.12-0.728,2.744-1.204,4.452-1.204c4.144,0,5.152,2.828,5.152,5.544v5.068
			c0,1.176,0.056,2.324,0.224,3.248H78.872z M78.508,440.193c-2.688-0.056-5.74,0.42-5.74,3.052c0,1.597,1.064,2.353,2.324,2.353
			c1.764,0,2.884-1.12,3.276-2.269c0.084-0.252,0.14-0.531,0.14-0.784V440.193z"/>
		<path fill="#2F8ECD" d="M102.503,427.229v16.38c0,1.204,0.028,2.576,0.112,3.5h-2.212l-0.112-2.352h-0.056
			c-0.756,1.512-2.408,2.659-4.62,2.659c-3.276,0-5.796-2.771-5.796-6.888c-0.028-4.508,2.772-7.28,6.076-7.28
			c2.072,0,3.472,0.98,4.088,2.072h0.056v-8.092H102.503z M100.04,439.073c0-0.308-0.028-0.728-0.112-1.036
			c-0.364-1.567-1.708-2.855-3.556-2.855c-2.548,0-4.06,2.24-4.06,5.235c0,2.744,1.344,5.013,4.004,5.013
			c1.652,0,3.164-1.093,3.612-2.94c0.084-0.336,0.112-0.672,0.112-1.063V439.073z"/>
		<path fill="#2F8ECD" d="M107.963,440.781c0.056,3.332,2.184,4.704,4.648,4.704c1.764,0,2.828-0.308,3.752-0.7l0.42,1.765
			c-0.868,0.392-2.352,0.84-4.508,0.84c-4.172,0-6.664-2.744-6.664-6.832s2.408-7.309,6.356-7.309c4.424,0,5.6,3.893,5.6,6.385
			c0,0.504-0.056,0.896-0.084,1.147H107.963z M115.188,439.018c0.028-1.568-0.644-4.004-3.416-4.004
			c-2.492,0-3.584,2.296-3.78,4.004H115.188z"/>
		<path fill="#2F8ECD" d="M136.215,446.605c-0.644,0.336-2.072,0.784-3.892,0.784c-4.088,0-6.748-2.772-6.748-6.916
			c0-4.172,2.856-7.196,7.28-7.196c1.456,0,2.744,0.364,3.416,0.7l-0.56,1.904c-0.588-0.336-1.512-0.645-2.856-0.645
			c-3.108,0-4.788,2.296-4.788,5.124c0,3.136,2.016,5.068,4.704,5.068c1.4,0,2.324-0.364,3.024-0.672L136.215,446.605z"/>
		<path fill="#2F8ECD" d="M151.195,440.222c0,5.012-3.472,7.195-6.748,7.195c-3.668,0-6.496-2.688-6.496-6.972
			c0-4.536,2.968-7.196,6.72-7.196C148.562,433.249,151.195,436.077,151.195,440.222z M140.443,440.361
			c0,2.968,1.708,5.208,4.116,5.208c2.352,0,4.116-2.212,4.116-5.264c0-2.296-1.148-5.208-4.06-5.208
			S140.443,437.785,140.443,440.361z"/>
		<path fill="#2F8ECD" d="M154.303,437.226c0-1.4-0.028-2.548-0.112-3.668h2.184l0.14,2.24h0.056
			c0.672-1.288,2.24-2.549,4.479-2.549c1.876,0,4.788,1.12,4.788,5.769v8.092h-2.464v-7.812c0-2.185-0.812-4.005-3.136-4.005
			c-1.624,0-2.884,1.148-3.304,2.521c-0.112,0.308-0.168,0.728-0.168,1.147v8.148h-2.464V437.226z"/>
		<path fill="#2F8ECD" d="M172.699,429.665v3.893h3.528v1.876h-3.528v7.308c0,1.68,0.477,2.632,1.849,2.632
			c0.644,0,1.119-0.084,1.428-0.168l0.112,1.849c-0.477,0.195-1.232,0.336-2.185,0.336c-1.147,0-2.072-0.364-2.66-1.036
			c-0.699-0.729-0.952-1.933-0.952-3.528v-7.392h-2.1v-1.876h2.1v-3.248L172.699,429.665z"/>
		<path fill="#2F8ECD" d="M180.203,440.781c0.056,3.332,2.184,4.704,4.647,4.704c1.765,0,2.828-0.308,3.753-0.7l0.42,1.765
			c-0.868,0.392-2.353,0.84-4.509,0.84c-4.172,0-6.663-2.744-6.663-6.832s2.407-7.309,6.355-7.309c4.424,0,5.6,3.893,5.6,6.385
			c0,0.504-0.056,0.896-0.084,1.147H180.203z M187.426,439.018c0.028-1.568-0.644-4.004-3.416-4.004
			c-2.491,0-3.584,2.296-3.779,4.004H187.426z"/>
		<path fill="#2F8ECD" d="M192.522,444.59c0.728,0.476,2.016,0.979,3.248,0.979c1.792,0,2.632-0.896,2.632-2.016
			c0-1.177-0.7-1.82-2.52-2.492c-2.437-0.868-3.584-2.212-3.584-3.836c0-2.185,1.764-3.977,4.676-3.977
			c1.372,0,2.576,0.393,3.332,0.841l-0.616,1.792c-0.532-0.336-1.512-0.784-2.772-0.784c-1.455,0-2.268,0.84-2.268,1.848
			c0,1.12,0.812,1.624,2.576,2.296c2.352,0.896,3.556,2.072,3.556,4.088c0,2.38-1.848,4.061-5.067,4.061
			c-1.484,0-2.856-0.364-3.809-0.924L192.522,444.59z"/>
		<path fill="#2F8ECD" d="M206.914,429.665v3.893h3.528v1.876h-3.528v7.308c0,1.68,0.477,2.632,1.849,2.632
			c0.644,0,1.119-0.084,1.428-0.168l0.112,1.849c-0.477,0.195-1.232,0.336-2.185,0.336c-1.147,0-2.072-0.364-2.66-1.036
			c-0.699-0.729-0.952-1.933-0.952-3.528v-7.392h-2.1v-1.876h2.1v-3.248L206.914,429.665z"/>
		<path fill="#2F8ECD" d="M220.717,447.109l-0.196-1.708h-0.084c-0.756,1.064-2.212,2.016-4.144,2.016
			c-2.744,0-4.144-1.932-4.144-3.892c0-3.276,2.911-5.068,8.147-5.04v-0.28c0-1.12-0.308-3.136-3.08-3.136
			c-1.26,0-2.576,0.393-3.528,1.008l-0.56-1.624c1.12-0.728,2.744-1.204,4.452-1.204c4.144,0,5.151,2.828,5.151,5.544v5.068
			c0,1.176,0.057,2.324,0.225,3.248H220.717z M220.353,440.193c-2.688-0.056-5.739,0.42-5.739,3.052
			c0,1.597,1.063,2.353,2.323,2.353c1.765,0,2.885-1.12,3.276-2.269c0.084-0.252,0.14-0.531,0.14-0.784V440.193z"/>
		<path fill="#2F8ECD" d="M226.709,437.785c0-1.596-0.028-2.968-0.112-4.228h2.156l0.084,2.66h0.112
			c0.616-1.82,2.1-2.969,3.752-2.969c0.28,0,0.476,0.028,0.7,0.084v2.324c-0.252-0.056-0.504-0.084-0.841-0.084
			c-1.735,0-2.968,1.316-3.304,3.164c-0.056,0.336-0.112,0.729-0.112,1.148v7.224h-2.436V437.785z"/>
		<path fill="#2F8ECD" d="M244.769,429.665v3.893h3.528v1.876h-3.528v7.308c0,1.68,0.477,2.632,1.849,2.632
			c0.644,0,1.119-0.084,1.428-0.168l0.112,1.849c-0.477,0.195-1.232,0.336-2.185,0.336c-1.147,0-2.072-0.364-2.66-1.036
			c-0.699-0.729-0.952-1.933-0.952-3.528v-7.392h-2.1v-1.876h2.1v-3.248L244.769,429.665z"/>
		<path fill="#2F8ECD" d="M263.165,440.222c0,5.012-3.472,7.195-6.748,7.195c-3.668,0-6.495-2.688-6.495-6.972
			c0-4.536,2.968-7.196,6.72-7.196C260.533,433.249,263.165,436.077,263.165,440.222z M252.413,440.361
			c0,2.968,1.708,5.208,4.116,5.208c2.353,0,4.116-2.212,4.116-5.264c0-2.296-1.148-5.208-4.061-5.208
			C253.673,435.098,252.413,437.785,252.413,440.361z"/>
		<path fill="#2F8ECD" d="M277.977,427.229v16.38c0,1.204,0.028,2.576,0.112,3.5h-2.212l-0.112-2.352h-0.057
			c-0.756,1.512-2.407,2.659-4.619,2.659c-3.276,0-5.796-2.771-5.796-6.888c-0.028-4.508,2.771-7.28,6.075-7.28
			c2.072,0,3.473,0.98,4.088,2.072h0.057v-8.092H277.977z M275.513,439.073c0-0.308-0.028-0.728-0.112-1.036
			c-0.364-1.567-1.708-2.855-3.556-2.855c-2.548,0-4.061,2.24-4.061,5.235c0,2.744,1.345,5.013,4.004,5.013
			c1.652,0,3.164-1.093,3.612-2.94c0.084-0.336,0.112-0.672,0.112-1.063V439.073z"/>
		<path fill="#2F8ECD" d="M289.569,447.109l-0.196-1.708h-0.084c-0.756,1.064-2.212,2.016-4.144,2.016
			c-2.744,0-4.144-1.932-4.144-3.892c0-3.276,2.911-5.068,8.147-5.04v-0.28c0-1.12-0.308-3.136-3.08-3.136
			c-1.26,0-2.576,0.393-3.528,1.008l-0.56-1.624c1.12-0.728,2.744-1.204,4.452-1.204c4.144,0,5.151,2.828,5.151,5.544v5.068
			c0,1.176,0.057,2.324,0.225,3.248H289.569z M289.205,440.193c-2.688-0.056-5.739,0.42-5.739,3.052
			c0,1.597,1.063,2.353,2.323,2.353c1.765,0,2.885-1.12,3.276-2.269c0.084-0.252,0.14-0.531,0.14-0.784V440.193z"/>
		<path fill="#2F8ECD" d="M295.225,444.59c0.728,0.476,2.016,0.979,3.248,0.979c1.792,0,2.632-0.896,2.632-2.016
			c0-1.177-0.7-1.82-2.52-2.492c-2.437-0.868-3.584-2.212-3.584-3.836c0-2.185,1.764-3.977,4.676-3.977
			c1.372,0,2.576,0.393,3.332,0.841l-0.616,1.792c-0.532-0.336-1.512-0.784-2.772-0.784c-1.455,0-2.268,0.84-2.268,1.848
			c0,1.12,0.812,1.624,2.576,2.296c2.352,0.896,3.556,2.072,3.556,4.088c0,2.38-1.848,4.061-5.067,4.061
			c-1.484,0-2.856-0.364-3.809-0.924L295.225,444.59z"/>
		<path fill="#2F8ECD" d="M312.584,427.229h2.464v19.88h-2.464V427.229z"/>
		<path fill="#2F8ECD" d="M326.696,447.109l-0.196-1.708h-0.084c-0.756,1.064-2.212,2.016-4.144,2.016
			c-2.744,0-4.144-1.932-4.144-3.892c0-3.276,2.911-5.068,8.147-5.04v-0.28c0-1.12-0.308-3.136-3.08-3.136
			c-1.26,0-2.576,0.393-3.528,1.008l-0.56-1.624c1.12-0.728,2.744-1.204,4.452-1.204c4.144,0,5.151,2.828,5.151,5.544v5.068
			c0,1.176,0.057,2.324,0.225,3.248H326.696z M326.332,440.193c-2.688-0.056-5.739,0.42-5.739,3.052
			c0,1.597,1.063,2.353,2.323,2.353c1.765,0,2.885-1.12,3.276-2.269c0.084-0.252,0.14-0.531,0.14-0.784V440.193z"/>
		<path fill="#2F8ECD" d="M332.352,444.59c0.728,0.476,2.016,0.979,3.248,0.979c1.792,0,2.632-0.896,2.632-2.016
			c0-1.177-0.7-1.82-2.52-2.492c-2.437-0.868-3.584-2.212-3.584-3.836c0-2.185,1.764-3.977,4.676-3.977
			c1.372,0,2.576,0.393,3.332,0.841l-0.616,1.792c-0.532-0.336-1.512-0.784-2.772-0.784c-1.455,0-2.268,0.84-2.268,1.848
			c0,1.12,0.812,1.624,2.576,2.296c2.352,0.896,3.556,2.072,3.556,4.088c0,2.38-1.848,4.061-5.067,4.061
			c-1.484,0-2.856-0.364-3.809-0.924L332.352,444.59z"/>
		<path fill="#2F8ECD" d="M349.711,437.981c0-1.736-0.056-3.136-0.112-4.424h2.212l0.112,2.324h0.056
			c1.009-1.652,2.604-2.633,4.816-2.633c3.276,0,5.74,2.772,5.74,6.889c0,4.872-2.968,7.279-6.16,7.279
			c-1.792,0-3.36-0.783-4.172-2.128h-0.057v7.364h-2.436V437.981z M352.147,441.594c0,0.363,0.057,0.699,0.112,1.008
			c0.448,1.708,1.933,2.884,3.696,2.884c2.604,0,4.116-2.128,4.116-5.236c0-2.716-1.429-5.04-4.032-5.04
			c-1.68,0-3.248,1.204-3.724,3.053c-0.084,0.308-0.169,0.672-0.169,1.008V441.594z"/>
		<path fill="#2F8ECD" d="M365.643,437.785c0-1.596-0.028-2.968-0.112-4.228h2.156l0.084,2.66h0.112
			c0.616-1.82,2.1-2.969,3.752-2.969c0.28,0,0.476,0.028,0.7,0.084v2.324c-0.252-0.056-0.504-0.084-0.841-0.084
			c-1.735,0-2.968,1.316-3.304,3.164c-0.056,0.336-0.112,0.729-0.112,1.148v7.224h-2.436V437.785z"/>
		<path fill="#2F8ECD" d="M375.891,440.781c0.056,3.332,2.184,4.704,4.648,4.704c1.764,0,2.827-0.308,3.752-0.7l0.42,1.765
			c-0.868,0.392-2.353,0.84-4.509,0.84c-4.172,0-6.663-2.744-6.663-6.832s2.407-7.309,6.355-7.309c4.424,0,5.6,3.893,5.6,6.385
			c0,0.504-0.056,0.896-0.084,1.147H375.891z M383.115,439.018c0.028-1.568-0.644-4.004-3.416-4.004
			c-2.491,0-3.584,2.296-3.779,4.004H383.115z"/>
		<path fill="#2F8ECD" d="M400.222,433.558c-0.056,0.979-0.111,2.072-0.111,3.724v7.868c0,3.108-0.616,5.012-1.933,6.188
			c-1.315,1.232-3.22,1.624-4.928,1.624c-1.624,0-3.416-0.392-4.508-1.119l0.616-1.876c0.896,0.56,2.296,1.063,3.976,1.063
			c2.52,0,4.368-1.316,4.368-4.731v-1.513h-0.057c-0.756,1.26-2.212,2.269-4.312,2.269c-3.36,0-5.768-2.856-5.768-6.608
			c0-4.592,2.995-7.196,6.104-7.196c2.352,0,3.64,1.232,4.228,2.353h0.057l0.111-2.044H400.222z M397.674,438.905
			c0-0.42-0.028-0.784-0.14-1.12c-0.448-1.428-1.652-2.604-3.444-2.604c-2.352,0-4.032,1.987-4.032,5.124
			c0,2.66,1.345,4.872,4.004,4.872c1.513,0,2.885-0.952,3.416-2.521c0.141-0.42,0.196-0.896,0.196-1.315V438.905z"/>
		<path fill="#2F8ECD" d="M415.538,443.413c0,1.4,0.028,2.632,0.112,3.696h-2.185l-0.14-2.212h-0.056
			c-0.645,1.092-2.072,2.52-4.48,2.52c-2.128,0-4.676-1.176-4.676-5.936v-7.924h2.464v7.504c0,2.576,0.784,4.312,3.024,4.312
			c1.651,0,2.8-1.147,3.248-2.239c0.14-0.364,0.224-0.812,0.224-1.261v-8.315h2.464V443.413z"/>
		<path fill="#2F8ECD" d="M419.625,437.226c0-1.4-0.028-2.548-0.112-3.668h2.185l0.14,2.24h0.056c0.673-1.288,2.24-2.549,4.48-2.549
			c1.877,0,4.789,1.12,4.789,5.769v8.092h-2.465v-7.812c0-2.185-0.812-4.005-3.137-4.005c-1.623,0-2.883,1.148-3.303,2.521
			c-0.111,0.308-0.168,0.728-0.168,1.147v8.148h-2.464V437.226z"/>
		<path fill="#2F8ECD" d="M438.021,429.665v3.893h3.529v1.876h-3.529v7.308c0,1.68,0.477,2.632,1.85,2.632
			c0.643,0,1.119-0.084,1.428-0.168l0.111,1.849c-0.477,0.195-1.232,0.336-2.184,0.336c-1.148,0-2.072-0.364-2.66-1.036
			c-0.699-0.729-0.953-1.933-0.953-3.528v-7.392h-2.1v-1.876h2.1v-3.248L438.021,429.665z"/>
		<path fill="#2F8ECD" d="M451.826,447.109l-0.197-1.708h-0.084c-0.756,1.064-2.211,2.016-4.143,2.016
			c-2.744,0-4.145-1.932-4.145-3.892c0-3.276,2.912-5.068,8.148-5.04v-0.28c0-1.12-0.309-3.136-3.08-3.136
			c-1.26,0-2.576,0.393-3.529,1.008l-0.559-1.624c1.119-0.728,2.744-1.204,4.451-1.204c4.145,0,5.152,2.828,5.152,5.544v5.068
			c0,1.176,0.057,2.324,0.225,3.248H451.826z M451.461,440.193c-2.688-0.056-5.738,0.42-5.738,3.052
			c0,1.597,1.062,2.353,2.322,2.353c1.766,0,2.885-1.12,3.277-2.269c0.084-0.252,0.139-0.531,0.139-0.784V440.193z"/>
		<path fill="#2F8ECD" d="M457.482,444.59c0.727,0.476,2.016,0.979,3.248,0.979c1.791,0,2.631-0.896,2.631-2.016
			c0-1.177-0.699-1.82-2.52-2.492c-2.436-0.868-3.584-2.212-3.584-3.836c0-2.185,1.764-3.977,4.676-3.977
			c1.373,0,2.576,0.393,3.332,0.841l-0.615,1.792c-0.533-0.336-1.512-0.784-2.773-0.784c-1.455,0-2.268,0.84-2.268,1.848
			c0,1.12,0.812,1.624,2.576,2.296c2.352,0.896,3.557,2.072,3.557,4.088c0,2.38-1.848,4.061-5.068,4.061
			c-1.484,0-2.855-0.364-3.809-0.924L457.482,444.59z"/>
		<path fill="#2F8ECD" d="M486.545,427.229v16.38c0,1.204,0.029,2.576,0.113,3.5h-2.213l-0.111-2.352h-0.057
			c-0.756,1.512-2.408,2.659-4.619,2.659c-3.277,0-5.797-2.771-5.797-6.888c-0.027-4.508,2.771-7.28,6.076-7.28
			c2.072,0,3.473,0.98,4.088,2.072h0.057v-8.092H486.545z M484.082,439.073c0-0.308-0.029-0.728-0.113-1.036
			c-0.363-1.567-1.707-2.855-3.555-2.855c-2.549,0-4.061,2.24-4.061,5.235c0,2.744,1.344,5.013,4.004,5.013
			c1.652,0,3.164-1.093,3.611-2.94c0.084-0.336,0.113-0.672,0.113-1.063V439.073z"/>
		<path fill="#2F8ECD" d="M492.004,440.781c0.057,3.332,2.184,4.704,4.648,4.704c1.764,0,2.828-0.308,3.752-0.7l0.42,1.765
			c-0.867,0.392-2.352,0.84-4.508,0.84c-4.172,0-6.664-2.744-6.664-6.832s2.408-7.309,6.355-7.309c4.424,0,5.6,3.893,5.6,6.385
			c0,0.504-0.055,0.896-0.084,1.147H492.004z M499.229,439.018c0.027-1.568-0.645-4.004-3.416-4.004
			c-2.492,0-3.584,2.296-3.779,4.004H499.229z"/>
		<path fill="#2F8ECD" d="M510.596,427.229h2.463v19.88h-2.463V427.229z"/>
		<path fill="#2F8ECD" d="M524.707,447.109l-0.197-1.708h-0.084c-0.756,1.064-2.211,2.016-4.143,2.016
			c-2.744,0-4.145-1.932-4.145-3.892c0-3.276,2.912-5.068,8.148-5.04v-0.28c0-1.12-0.309-3.136-3.08-3.136
			c-1.26,0-2.576,0.393-3.529,1.008l-0.559-1.624c1.119-0.728,2.744-1.204,4.451-1.204c4.145,0,5.152,2.828,5.152,5.544v5.068
			c0,1.176,0.057,2.324,0.225,3.248H524.707z M524.342,440.193c-2.688-0.056-5.738,0.42-5.738,3.052
			c0,1.597,1.062,2.353,2.322,2.353c1.766,0,2.885-1.12,3.277-2.269c0.084-0.252,0.139-0.531,0.139-0.784V440.193z"/>
		<path fill="#2F8ECD" d="M536.635,437.981c0-1.736-0.057-3.136-0.113-4.424h2.213l0.111,2.324h0.057
			c1.008-1.652,2.604-2.633,4.816-2.633c3.275,0,5.74,2.772,5.74,6.889c0,4.872-2.969,7.279-6.16,7.279
			c-1.793,0-3.361-0.783-4.172-2.128h-0.057v7.364h-2.436V437.981z M539.07,441.594c0,0.363,0.057,0.699,0.111,1.008
			c0.449,1.708,1.934,2.884,3.697,2.884c2.604,0,4.115-2.128,4.115-5.236c0-2.716-1.428-5.04-4.031-5.04
			c-1.68,0-3.248,1.204-3.725,3.053c-0.084,0.308-0.168,0.672-0.168,1.008V441.594z"/>
		<path fill="#2F8ECD" d="M552.566,437.785c0-1.596-0.029-2.968-0.113-4.228h2.156l0.084,2.66h0.113
			c0.615-1.82,2.1-2.969,3.752-2.969c0.279,0,0.475,0.028,0.699,0.084v2.324c-0.252-0.056-0.504-0.084-0.84-0.084
			c-1.736,0-2.969,1.316-3.305,3.164c-0.055,0.336-0.111,0.729-0.111,1.148v7.224h-2.436V437.785z"/>
		<path fill="#2F8ECD" d="M573.062,443.413c0,1.4,0.027,2.632,0.111,3.696h-2.184l-0.141-2.212h-0.055
			c-0.645,1.092-2.072,2.52-4.48,2.52c-2.129,0-4.676-1.176-4.676-5.936v-7.924h2.463v7.504c0,2.576,0.785,4.312,3.025,4.312
			c1.65,0,2.799-1.147,3.248-2.239c0.139-0.364,0.223-0.812,0.223-1.261v-8.315h2.465V443.413z"/>
		<path fill="#2F8ECD" d="M578.521,440.781c0.057,3.332,2.184,4.704,4.648,4.704c1.764,0,2.828-0.308,3.752-0.7l0.42,1.765
			c-0.867,0.392-2.352,0.84-4.508,0.84c-4.172,0-6.664-2.744-6.664-6.832s2.408-7.309,6.355-7.309c4.424,0,5.6,3.893,5.6,6.385
			c0,0.504-0.055,0.896-0.084,1.147H578.521z M585.746,439.018c0.027-1.568-0.645-4.004-3.416-4.004
			c-2.492,0-3.584,2.296-3.779,4.004H585.746z"/>
		<path fill="#2F8ECD" d="M591.064,447.109c0.057-0.924,0.113-2.296,0.113-3.5v-16.38h2.436v8.512h0.057
			c0.867-1.512,2.436-2.492,4.619-2.492c3.359,0,5.74,2.801,5.713,6.916c0,4.845-3.053,7.252-6.076,7.252
			c-1.961,0-3.529-0.756-4.537-2.548h-0.084l-0.111,2.24H591.064z M593.613,441.678c0,0.308,0.057,0.615,0.111,0.896
			c0.477,1.708,1.904,2.884,3.697,2.884c2.576,0,4.115-2.1,4.115-5.208c0-2.716-1.4-5.04-4.031-5.04
			c-1.68,0-3.248,1.148-3.752,3.024c-0.057,0.28-0.141,0.616-0.141,1.008V441.678z"/>
		<path fill="#2F8ECD" d="M614.613,447.109l-0.197-1.708h-0.084c-0.756,1.064-2.211,2.016-4.143,2.016
			c-2.744,0-4.145-1.932-4.145-3.892c0-3.276,2.912-5.068,8.148-5.04v-0.28c0-1.12-0.309-3.136-3.08-3.136
			c-1.26,0-2.576,0.393-3.529,1.008l-0.559-1.624c1.119-0.728,2.744-1.204,4.451-1.204c4.145,0,5.152,2.828,5.152,5.544v5.068
			c0,1.176,0.057,2.324,0.225,3.248H614.613z M614.248,440.193c-2.688-0.056-5.738,0.42-5.738,3.052
			c0,1.597,1.062,2.353,2.322,2.353c1.766,0,2.885-1.12,3.277-2.269c0.084-0.252,0.139-0.531,0.139-0.784V440.193z"/>
		<path fill="#2F8ECD" d="M619.01,450.554c0.615-1.652,1.371-4.648,1.68-6.692l2.744-0.28c-0.645,2.38-1.877,5.488-2.66,6.805
			L619.01,450.554z"/>
		<path fill="#2F8ECD" d="M635.082,429.749c0.027,0.841-0.588,1.513-1.568,1.513c-0.869,0-1.484-0.672-1.484-1.513
			c0-0.867,0.645-1.54,1.541-1.54C634.494,428.209,635.082,428.882,635.082,429.749z M632.338,447.109v-13.552h2.463v13.552H632.338
			z"/>
		<path fill="#2F8ECD" d="M638.889,437.226c0-1.4-0.029-2.548-0.113-3.668h2.186l0.139,2.24h0.057
			c0.672-1.288,2.24-2.549,4.48-2.549c1.875,0,4.787,1.12,4.787,5.769v8.092h-2.463v-7.812c0-2.185-0.812-4.005-3.137-4.005
			c-1.623,0-2.885,1.148-3.305,2.521c-0.111,0.308-0.168,0.728-0.168,1.147v8.148h-2.463V437.226z"/>
		<path fill="#2F8ECD" d="M664.09,446.605c-0.645,0.336-2.072,0.784-3.893,0.784c-4.088,0-6.748-2.772-6.748-6.916
			c0-4.172,2.855-7.196,7.279-7.196c1.457,0,2.744,0.364,3.416,0.7l-0.559,1.904c-0.588-0.336-1.514-0.645-2.857-0.645
			c-3.107,0-4.787,2.296-4.787,5.124c0,3.136,2.016,5.068,4.703,5.068c1.4,0,2.324-0.364,3.025-0.672L664.09,446.605z"/>
		<path fill="#2F8ECD" d="M666.973,427.229h2.463v19.88h-2.463V427.229z"/>
		<path fill="#2F8ECD" d="M684.92,443.413c0,1.4,0.027,2.632,0.111,3.696h-2.184l-0.141-2.212h-0.055
			c-0.645,1.092-2.072,2.52-4.48,2.52c-2.129,0-4.676-1.176-4.676-5.936v-7.924h2.463v7.504c0,2.576,0.785,4.312,3.025,4.312
			c1.65,0,2.799-1.147,3.248-2.239c0.139-0.364,0.223-0.812,0.223-1.261v-8.315h2.465V443.413z"/>
		<path fill="#2F8ECD" d="M688.672,444.59c0.727,0.476,2.016,0.979,3.248,0.979c1.791,0,2.631-0.896,2.631-2.016
			c0-1.177-0.699-1.82-2.52-2.492c-2.436-0.868-3.584-2.212-3.584-3.836c0-2.185,1.764-3.977,4.676-3.977
			c1.373,0,2.576,0.393,3.332,0.841l-0.615,1.792c-0.533-0.336-1.512-0.784-2.773-0.784c-1.455,0-2.268,0.84-2.268,1.848
			c0,1.12,0.812,1.624,2.576,2.296c2.352,0.896,3.557,2.072,3.557,4.088c0,2.38-1.848,4.061-5.068,4.061
			c-1.484,0-2.855-0.364-3.809-0.924L688.672,444.59z"/>
		<path fill="#2F8ECD" d="M712.359,440.222c0,5.012-3.473,7.195-6.748,7.195c-3.668,0-6.496-2.688-6.496-6.972
			c0-4.536,2.969-7.196,6.721-7.196C709.727,433.249,712.359,436.077,712.359,440.222z M701.607,440.361
			c0,2.968,1.707,5.208,4.115,5.208c2.354,0,4.117-2.212,4.117-5.264c0-2.296-1.148-5.208-4.061-5.208
			S701.607,437.785,701.607,440.361z"/>
		<path fill="#2F8ECD" d="M721.068,444.59c0.727,0.476,2.016,0.979,3.248,0.979c1.791,0,2.631-0.896,2.631-2.016
			c0-1.177-0.699-1.82-2.52-2.492c-2.436-0.868-3.584-2.212-3.584-3.836c0-2.185,1.764-3.977,4.676-3.977
			c1.373,0,2.576,0.393,3.332,0.841l-0.615,1.792c-0.533-0.336-1.512-0.784-2.773-0.784c-1.455,0-2.268,0.84-2.268,1.848
			c0,1.12,0.812,1.624,2.576,2.296c2.352,0.896,3.557,2.072,3.557,4.088c0,2.38-1.848,4.061-5.068,4.061
			c-1.484,0-2.855-0.364-3.809-0.924L721.068,444.59z"/>
		<path fill="#2F8ECD" d="M735.236,429.749c0.027,0.841-0.588,1.513-1.568,1.513c-0.869,0-1.484-0.672-1.484-1.513
			c0-0.867,0.645-1.54,1.541-1.54C734.648,428.209,735.236,428.882,735.236,429.749z M732.492,447.109v-13.552h2.463v13.552H732.492
			z"/>
		<path fill="#2F8ECD" d="M744.979,437.226c0-1.4-0.029-2.548-0.113-3.668h2.186l0.139,2.24h0.057
			c0.672-1.288,2.24-2.549,4.48-2.549c1.875,0,4.787,1.12,4.787,5.769v8.092h-2.463v-7.812c0-2.185-0.812-4.005-3.137-4.005
			c-1.623,0-2.885,1.148-3.305,2.521c-0.111,0.308-0.168,0.728-0.168,1.147v8.148h-2.463V437.226z"/>
		<path fill="#2F8ECD" d="M772.783,440.222c0,5.012-3.473,7.195-6.748,7.195c-3.668,0-6.496-2.688-6.496-6.972
			c0-4.536,2.969-7.196,6.721-7.196C770.15,433.249,772.783,436.077,772.783,440.222z M762.031,440.361
			c0,2.968,1.707,5.208,4.115,5.208c2.354,0,4.117-2.212,4.117-5.264c0-2.296-1.148-5.208-4.061-5.208
			S762.031,437.785,762.031,440.361z"/>
		<path fill="#2F8ECD" d="M138.342,474.381c0.056,3.332,2.184,4.704,4.648,4.704c1.764,0,2.828-0.308,3.752-0.7l0.42,1.765
			c-0.868,0.392-2.352,0.84-4.508,0.84c-4.172,0-6.664-2.744-6.664-6.832s2.408-7.309,6.356-7.309c4.424,0,5.6,3.893,5.6,6.385
			c0,0.504-0.056,0.896-0.084,1.147H138.342z M145.566,472.617c0.028-1.568-0.644-4.004-3.416-4.004
			c-2.492,0-3.584,2.296-3.78,4.004H145.566z"/>
		<path fill="#2F8ECD" d="M150.662,478.189c0.728,0.476,2.016,0.979,3.248,0.979c1.792,0,2.632-0.896,2.632-2.016
			c0-1.177-0.7-1.82-2.52-2.492c-2.436-0.868-3.584-2.212-3.584-3.836c0-2.185,1.764-3.977,4.676-3.977
			c1.372,0,2.576,0.393,3.332,0.841l-0.616,1.792c-0.532-0.336-1.512-0.784-2.772-0.784c-1.456,0-2.268,0.84-2.268,1.848
			c0,1.12,0.812,1.624,2.576,2.296c2.352,0.896,3.556,2.072,3.556,4.088c0,2.38-1.848,4.061-5.068,4.061
			c-1.484,0-2.856-0.364-3.808-0.924L150.662,478.189z"/>
		<path fill="#2F8ECD" d="M165.053,463.265v3.893h3.528v1.876h-3.528v7.308c0,1.68,0.477,2.632,1.849,2.632
			c0.644,0,1.119-0.084,1.428-0.168l0.112,1.849c-0.477,0.195-1.232,0.336-2.185,0.336c-1.147,0-2.072-0.364-2.66-1.036
			c-0.699-0.729-0.952-1.933-0.952-3.528v-7.392h-2.1v-1.876h2.1v-3.248L165.053,463.265z"/>
		<path fill="#2F8ECD" d="M178.857,480.709l-0.196-1.708h-0.084c-0.756,1.064-2.212,2.016-4.144,2.016
			c-2.744,0-4.144-1.932-4.144-3.892c0-3.276,2.911-5.068,8.147-5.04v-0.28c0-1.12-0.308-3.136-3.08-3.136
			c-1.26,0-2.576,0.393-3.528,1.008l-0.56-1.624c1.12-0.728,2.744-1.204,4.452-1.204c4.144,0,5.151,2.828,5.151,5.544v5.068
			c0,1.176,0.057,2.324,0.225,3.248H178.857z M178.493,473.793c-2.688-0.056-5.739,0.42-5.739,3.052
			c0,1.597,1.063,2.353,2.323,2.353c1.765,0,2.885-1.12,3.276-2.269c0.084-0.252,0.14-0.531,0.14-0.784V473.793z M179.725,461.305
			l-3.416,4.004h-1.764l2.464-4.004H179.725z"/>
		<path fill="#2F8ECD" d="M184.513,478.189c0.728,0.476,2.016,0.979,3.248,0.979c1.792,0,2.632-0.896,2.632-2.016
			c0-1.177-0.7-1.82-2.52-2.492c-2.437-0.868-3.584-2.212-3.584-3.836c0-2.185,1.764-3.977,4.676-3.977
			c1.372,0,2.576,0.393,3.332,0.841l-0.616,1.792c-0.532-0.336-1.512-0.784-2.772-0.784c-1.455,0-2.268,0.84-2.268,1.848
			c0,1.12,0.812,1.624,2.576,2.296c2.352,0.896,3.556,2.072,3.556,4.088c0,2.38-1.848,4.061-5.067,4.061
			c-1.484,0-2.856-0.364-3.809-0.924L184.513,478.189z"/>
		<path fill="#2F8ECD" d="M211.533,480.205c-0.645,0.336-2.072,0.784-3.893,0.784c-4.088,0-6.747-2.772-6.747-6.916
			c0-4.172,2.855-7.196,7.279-7.196c1.456,0,2.744,0.364,3.416,0.7l-0.56,1.904c-0.588-0.336-1.513-0.645-2.856-0.645
			c-3.107,0-4.788,2.296-4.788,5.124c0,3.136,2.017,5.068,4.704,5.068c1.4,0,2.324-0.364,3.024-0.672L211.533,480.205z"/>
		<path fill="#2F8ECD" d="M226.512,473.821c0,5.012-3.472,7.195-6.748,7.195c-3.668,0-6.495-2.688-6.495-6.972
			c0-4.536,2.968-7.196,6.72-7.196C223.88,466.849,226.512,469.677,226.512,473.821z M215.76,473.961
			c0,2.968,1.708,5.208,4.116,5.208c2.353,0,4.116-2.212,4.116-5.264c0-2.296-1.148-5.208-4.061-5.208
			C217.021,468.697,215.76,471.385,215.76,473.961z"/>
		<path fill="#2F8ECD" d="M229.621,470.825c0-1.4-0.028-2.548-0.112-3.668h2.156l0.112,2.184h0.084
			c0.756-1.288,2.016-2.492,4.256-2.492c1.848,0,3.248,1.12,3.836,2.717h0.056c0.42-0.757,0.952-1.345,1.513-1.765
			c0.812-0.616,1.708-0.952,2.995-0.952c1.792,0,4.452,1.177,4.452,5.881v7.979h-2.407v-7.672c0-2.604-0.952-4.172-2.94-4.172
			c-1.4,0-2.492,1.036-2.912,2.24c-0.112,0.336-0.196,0.783-0.196,1.231v8.372h-2.407v-8.12c0-2.156-0.952-3.724-2.828-3.724
			c-1.54,0-2.66,1.231-3.052,2.464c-0.141,0.364-0.196,0.784-0.196,1.204v8.176h-2.408V470.825z"/>
		<path fill="#2F8ECD" d="M252.972,471.581c0-1.736-0.056-3.136-0.112-4.424h2.212l0.112,2.324h0.056
			c1.009-1.652,2.604-2.633,4.816-2.633c3.276,0,5.74,2.772,5.74,6.889c0,4.872-2.968,7.279-6.16,7.279
			c-1.792,0-3.36-0.783-4.172-2.128h-0.056v7.364h-2.437V471.581z M255.409,475.193c0,0.363,0.056,0.699,0.111,1.008
			c0.448,1.708,1.933,2.884,3.696,2.884c2.604,0,4.116-2.128,4.116-5.236c0-2.716-1.429-5.04-4.032-5.04
			c-1.68,0-3.248,1.204-3.724,3.053c-0.084,0.308-0.168,0.672-0.168,1.008V475.193z"/>
		<path fill="#2F8ECD" d="M268.904,460.829h2.464v19.88h-2.464V460.829z"/>
		<path fill="#2F8ECD" d="M276.883,474.381c0.056,3.332,2.184,4.704,4.648,4.704c1.764,0,2.827-0.308,3.752-0.7l0.42,1.765
			c-0.868,0.392-2.353,0.84-4.509,0.84c-4.172,0-6.663-2.744-6.663-6.832s2.407-7.309,6.355-7.309c4.424,0,5.6,3.893,5.6,6.385
			c0,0.504-0.056,0.896-0.084,1.147H276.883z M284.107,472.617c0.028-1.568-0.644-4.004-3.416-4.004
			c-2.491,0-3.584,2.296-3.779,4.004H284.107z"/>
		<path fill="#2F8ECD" d="M292.506,463.265v3.893h3.528v1.876h-3.528v7.308c0,1.68,0.477,2.632,1.849,2.632
			c0.644,0,1.119-0.084,1.428-0.168l0.112,1.849c-0.477,0.195-1.232,0.336-2.185,0.336c-1.147,0-2.072-0.364-2.66-1.036
			c-0.699-0.729-0.952-1.933-0.952-3.528v-7.392h-2.1v-1.876h2.1v-3.248L292.506,463.265z"/>
		<path fill="#2F8ECD" d="M306.31,480.709l-0.196-1.708h-0.084c-0.756,1.064-2.212,2.016-4.144,2.016
			c-2.744,0-4.144-1.932-4.144-3.892c0-3.276,2.911-5.068,8.147-5.04v-0.28c0-1.12-0.308-3.136-3.08-3.136
			c-1.26,0-2.576,0.393-3.528,1.008l-0.56-1.624c1.12-0.728,2.744-1.204,4.452-1.204c4.144,0,5.151,2.828,5.151,5.544v5.068
			c0,1.176,0.057,2.324,0.225,3.248H306.31z M305.946,473.793c-2.688-0.056-5.739,0.42-5.739,3.052c0,1.597,1.063,2.353,2.323,2.353
			c1.765,0,2.885-1.12,3.276-2.269c0.084-0.252,0.14-0.531,0.14-0.784V473.793z"/>
		<path fill="#2F8ECD" d="M312.302,470.825c0-1.4-0.028-2.548-0.112-3.668h2.156l0.112,2.184h0.084
			c0.756-1.288,2.016-2.492,4.256-2.492c1.848,0,3.248,1.12,3.836,2.717h0.056c0.42-0.757,0.952-1.345,1.513-1.765
			c0.812-0.616,1.708-0.952,2.995-0.952c1.792,0,4.452,1.177,4.452,5.881v7.979h-2.407v-7.672c0-2.604-0.952-4.172-2.94-4.172
			c-1.4,0-2.492,1.036-2.912,2.24c-0.112,0.336-0.196,0.783-0.196,1.231v8.372h-2.407v-8.12c0-2.156-0.952-3.724-2.828-3.724
			c-1.54,0-2.66,1.231-3.052,2.464c-0.141,0.364-0.196,0.784-0.196,1.204v8.176h-2.408V470.825z"/>
		<path fill="#2F8ECD" d="M337.026,474.381c0.056,3.332,2.184,4.704,4.648,4.704c1.764,0,2.827-0.308,3.752-0.7l0.42,1.765
			c-0.868,0.392-2.353,0.84-4.509,0.84c-4.172,0-6.663-2.744-6.663-6.832s2.407-7.309,6.355-7.309c4.424,0,5.6,3.893,5.6,6.385
			c0,0.504-0.056,0.896-0.084,1.147H337.026z M344.25,472.617c0.028-1.568-0.644-4.004-3.416-4.004
			c-2.491,0-3.584,2.296-3.779,4.004H344.25z"/>
		<path fill="#2F8ECD" d="M349.681,470.825c0-1.4-0.028-2.548-0.112-3.668h2.185l0.14,2.24h0.056c0.673-1.288,2.24-2.549,4.48-2.549
			c1.876,0,4.788,1.12,4.788,5.769v8.092h-2.464v-7.812c0-2.185-0.812-4.005-3.137-4.005c-1.623,0-2.884,1.148-3.304,2.521
			c-0.111,0.308-0.168,0.728-0.168,1.147v8.148h-2.464V470.825z"/>
		<path fill="#2F8ECD" d="M368.077,463.265v3.893h3.528v1.876h-3.528v7.308c0,1.68,0.477,2.632,1.849,2.632
			c0.644,0,1.119-0.084,1.428-0.168l0.112,1.849c-0.477,0.195-1.232,0.336-2.185,0.336c-1.147,0-2.072-0.364-2.66-1.036
			c-0.699-0.729-0.952-1.933-0.952-3.528v-7.392h-2.1v-1.876h2.1v-3.248L368.077,463.265z"/>
		<path fill="#2F8ECD" d="M375.581,474.381c0.056,3.332,2.184,4.704,4.648,4.704c1.764,0,2.827-0.308,3.752-0.7l0.42,1.765
			c-0.868,0.392-2.353,0.84-4.509,0.84c-4.172,0-6.663-2.744-6.663-6.832s2.407-7.309,6.355-7.309c4.424,0,5.6,3.893,5.6,6.385
			c0,0.504-0.056,0.896-0.084,1.147H375.581z M382.804,472.617c0.028-1.568-0.644-4.004-3.416-4.004
			c-2.491,0-3.584,2.296-3.779,4.004H382.804z"/>
		<path fill="#2F8ECD" d="M393.835,478.189c0.728,0.476,2.016,0.979,3.248,0.979c1.792,0,2.632-0.896,2.632-2.016
			c0-1.177-0.7-1.82-2.52-2.492c-2.437-0.868-3.584-2.212-3.584-3.836c0-2.185,1.764-3.977,4.676-3.977
			c1.372,0,2.576,0.393,3.332,0.841l-0.616,1.792c-0.532-0.336-1.512-0.784-2.772-0.784c-1.455,0-2.268,0.84-2.268,1.848
			c0,1.12,0.812,1.624,2.576,2.296c2.352,0.896,3.556,2.072,3.556,4.088c0,2.38-1.848,4.061-5.067,4.061
			c-1.484,0-2.856-0.364-3.809-0.924L393.835,478.189z"/>
		<path fill="#2F8ECD" d="M406.631,474.381c0.056,3.332,2.184,4.704,4.648,4.704c1.764,0,2.827-0.308,3.752-0.7l0.42,1.765
			c-0.868,0.392-2.353,0.84-4.509,0.84c-4.172,0-6.663-2.744-6.663-6.832s2.407-7.309,6.355-7.309c4.424,0,5.6,3.893,5.6,6.385
			c0,0.504-0.056,0.896-0.084,1.147H406.631z M413.855,472.617c0.028-1.568-0.644-4.004-3.416-4.004
			c-2.491,0-3.584,2.296-3.779,4.004H413.855z"/>
		<path fill="#2F8ECD" d="M430.963,467.157c-0.057,0.979-0.111,2.072-0.111,3.724v7.868c0,3.108-0.617,5.012-1.934,6.188
			c-1.314,1.232-3.219,1.624-4.928,1.624c-1.623,0-3.416-0.392-4.507-1.119l0.616-1.876c0.896,0.56,2.295,1.063,3.975,1.063
			c2.52,0,4.369-1.316,4.369-4.731v-1.513h-0.057c-0.756,1.26-2.213,2.269-4.312,2.269c-3.36,0-5.767-2.856-5.767-6.608
			c0-4.592,2.995-7.196,6.103-7.196c2.352,0,3.641,1.232,4.229,2.353h0.057l0.111-2.044H430.963z M428.414,472.505
			c0-0.42-0.027-0.784-0.139-1.12c-0.449-1.428-1.652-2.604-3.445-2.604c-2.352,0-4.032,1.987-4.032,5.124
			c0,2.66,1.344,4.872,4.004,4.872c1.512,0,2.885-0.952,3.416-2.521c0.141-0.42,0.195-0.896,0.195-1.315V472.505z"/>
		<path fill="#2F8ECD" d="M446.279,477.013c0,1.4,0.027,2.632,0.111,3.696h-2.184l-0.141-2.212h-0.055
			c-0.645,1.092-2.072,2.52-4.48,2.52c-2.129,0-4.676-1.176-4.676-5.936v-7.924h2.463v7.504c0,2.576,0.785,4.312,3.025,4.312
			c1.65,0,2.799-1.147,3.248-2.239c0.139-0.364,0.223-0.812,0.223-1.261v-8.315h2.465V477.013z"/>
		<path fill="#2F8ECD" d="M450.367,471.385c0-1.596-0.029-2.968-0.113-4.228h2.156l0.084,2.66h0.113
			c0.615-1.82,2.1-2.969,3.752-2.969c0.279,0,0.475,0.028,0.699,0.084v2.324c-0.252-0.056-0.504-0.084-0.84-0.084
			c-1.736,0-2.969,1.316-3.305,3.164c-0.055,0.336-0.111,0.729-0.111,1.148v7.224h-2.436V471.385z"/>
		<path fill="#2F8ECD" d="M471.506,473.821c0,5.012-3.471,7.195-6.748,7.195c-3.668,0-6.494-2.688-6.494-6.972
			c0-4.536,2.967-7.196,6.719-7.196C468.875,466.849,471.506,469.677,471.506,473.821z M460.754,473.961
			c0,2.968,1.709,5.208,4.117,5.208c2.352,0,4.115-2.212,4.115-5.264c0-2.296-1.148-5.208-4.061-5.208
			C462.016,468.697,460.754,471.385,460.754,473.961z"/>
		<path fill="#2F8ECD" d="M492.254,460.829v16.38c0,1.204,0.029,2.576,0.113,3.5h-2.213l-0.111-2.352h-0.057
			c-0.756,1.512-2.408,2.659-4.619,2.659c-3.277,0-5.797-2.771-5.797-6.888c-0.027-4.508,2.771-7.28,6.076-7.28
			c2.072,0,3.473,0.98,4.088,2.072h0.057v-8.092H492.254z M489.791,472.673c0-0.308-0.029-0.728-0.113-1.036
			c-0.363-1.567-1.707-2.855-3.555-2.855c-2.549,0-4.061,2.24-4.061,5.235c0,2.744,1.344,5.013,4.004,5.013
			c1.652,0,3.164-1.093,3.611-2.94c0.084-0.336,0.113-0.672,0.113-1.063V472.673z"/>
		<path fill="#2F8ECD" d="M497.715,474.381c0.055,3.332,2.184,4.704,4.646,4.704c1.766,0,2.828-0.308,3.754-0.7l0.42,1.765
			c-0.869,0.392-2.354,0.84-4.51,0.84c-4.172,0-6.662-2.744-6.662-6.832s2.406-7.309,6.355-7.309c4.424,0,5.6,3.893,5.6,6.385
			c0,0.504-0.057,0.896-0.084,1.147H497.715z M504.938,472.617c0.029-1.568-0.643-4.004-3.416-4.004
			c-2.49,0-3.584,2.296-3.779,4.004H504.938z"/>
		<path fill="#2F8ECD" d="M519.273,463.265v3.893h3.527v1.876h-3.527v7.308c0,1.68,0.477,2.632,1.848,2.632
			c0.645,0,1.119-0.084,1.428-0.168l0.113,1.849c-0.477,0.195-1.232,0.336-2.186,0.336c-1.146,0-2.072-0.364-2.66-1.036
			c-0.699-0.729-0.951-1.933-0.951-3.528v-7.392h-2.1v-1.876h2.1v-3.248L519.273,463.265z"/>
		<path fill="#2F8ECD" d="M536.912,477.013c0,1.4,0.029,2.632,0.113,3.696h-2.186l-0.139-2.212h-0.057
			c-0.645,1.092-2.072,2.52-4.48,2.52c-2.127,0-4.676-1.176-4.676-5.936v-7.924h2.465v7.504c0,2.576,0.783,4.312,3.023,4.312
			c1.652,0,2.801-1.147,3.248-2.239c0.141-0.364,0.225-0.812,0.225-1.261v-8.315h2.463V477.013z"/>
		<path fill="#2F8ECD" d="M546.936,471.385c0-1.596-0.027-2.968-0.111-4.228h2.156l0.084,2.66h0.111
			c0.617-1.82,2.1-2.969,3.752-2.969c0.281,0,0.477,0.028,0.701,0.084v2.324c-0.252-0.056-0.504-0.084-0.842-0.084
			c-1.734,0-2.967,1.316-3.303,3.164c-0.057,0.336-0.113,0.729-0.113,1.148v7.224h-2.436V471.385z"/>
		<path fill="#2F8ECD" d="M557.184,474.381c0.057,3.332,2.184,4.704,4.648,4.704c1.764,0,2.828-0.308,3.752-0.7l0.42,1.765
			c-0.867,0.392-2.352,0.84-4.508,0.84c-4.172,0-6.664-2.744-6.664-6.832s2.408-7.309,6.355-7.309c4.424,0,5.6,3.893,5.6,6.385
			c0,0.504-0.055,0.896-0.084,1.147H557.184z M564.408,472.617c0.027-1.568-0.645-4.004-3.416-4.004
			c-2.492,0-3.584,2.296-3.779,4.004H564.408z"/>
		<path fill="#2F8ECD" d="M569.504,478.189c0.727,0.476,2.016,0.979,3.248,0.979c1.791,0,2.631-0.896,2.631-2.016
			c0-1.177-0.699-1.82-2.52-2.492c-2.436-0.868-3.584-2.212-3.584-3.836c0-2.185,1.764-3.977,4.676-3.977
			c1.373,0,2.576,0.393,3.332,0.841l-0.615,1.792c-0.533-0.336-1.512-0.784-2.773-0.784c-1.455,0-2.268,0.84-2.268,1.848
			c0,1.12,0.812,1.624,2.576,2.296c2.352,0.896,3.557,2.072,3.557,4.088c0,2.38-1.848,4.061-5.068,4.061
			c-1.484,0-2.855-0.364-3.809-0.924L569.504,478.189z"/>
		<path fill="#2F8ECD" d="M580.928,471.581c0-1.736-0.057-3.136-0.113-4.424h2.213l0.111,2.324h0.057
			c1.008-1.652,2.604-2.633,4.816-2.633c3.275,0,5.74,2.772,5.74,6.889c0,4.872-2.969,7.279-6.16,7.279
			c-1.793,0-3.361-0.783-4.172-2.128h-0.057v7.364h-2.436V471.581z M583.363,475.193c0,0.363,0.057,0.699,0.111,1.008
			c0.449,1.708,1.934,2.884,3.697,2.884c2.604,0,4.115-2.128,4.115-5.236c0-2.716-1.428-5.04-4.031-5.04
			c-1.68,0-3.248,1.204-3.725,3.053c-0.084,0.308-0.168,0.672-0.168,1.008V475.193z"/>
		<path fill="#2F8ECD" d="M608.199,477.013c0,1.4,0.027,2.632,0.111,3.696h-2.184l-0.141-2.212h-0.055
			c-0.645,1.092-2.072,2.52-4.48,2.52c-2.129,0-4.676-1.176-4.676-5.936v-7.924h2.463v7.504c0,2.576,0.785,4.312,3.025,4.312
			c1.65,0,2.799-1.147,3.248-2.239c0.139-0.364,0.223-0.812,0.223-1.261v-8.315h2.465V477.013z"/>
		<path fill="#2F8ECD" d="M613.658,474.381c0.057,3.332,2.184,4.704,4.648,4.704c1.764,0,2.828-0.308,3.752-0.7l0.42,1.765
			c-0.867,0.392-2.352,0.84-4.508,0.84c-4.172,0-6.664-2.744-6.664-6.832s2.408-7.309,6.355-7.309c4.424,0,5.6,3.893,5.6,6.385
			c0,0.504-0.055,0.896-0.084,1.147H613.658z M620.883,472.617c0.027-1.568-0.645-4.004-3.416-4.004
			c-2.492,0-3.584,2.296-3.779,4.004H620.883z"/>
		<path fill="#2F8ECD" d="M625.979,478.189c0.727,0.476,2.016,0.979,3.248,0.979c1.791,0,2.631-0.896,2.631-2.016
			c0-1.177-0.699-1.82-2.52-2.492c-2.436-0.868-3.584-2.212-3.584-3.836c0-2.185,1.764-3.977,4.676-3.977
			c1.373,0,2.576,0.393,3.332,0.841l-0.615,1.792c-0.533-0.336-1.512-0.784-2.773-0.784c-1.455,0-2.268,0.84-2.268,1.848
			c0,1.12,0.812,1.624,2.576,2.296c2.352,0.896,3.557,2.072,3.557,4.088c0,2.38-1.848,4.061-5.068,4.061
			c-1.484,0-2.855-0.364-3.809-0.924L625.979,478.189z"/>
		<path fill="#2F8ECD" d="M640.369,463.265v3.893h3.529v1.876h-3.529v7.308c0,1.68,0.477,2.632,1.85,2.632
			c0.643,0,1.119-0.084,1.428-0.168l0.111,1.849c-0.477,0.195-1.232,0.336-2.184,0.336c-1.148,0-2.072-0.364-2.66-1.036
			c-0.699-0.729-0.953-1.933-0.953-3.528v-7.392h-2.1v-1.876h2.1v-3.248L640.369,463.265z"/>
		<path fill="#2F8ECD" d="M654.174,480.709l-0.197-1.708h-0.084c-0.756,1.064-2.211,2.016-4.143,2.016
			c-2.744,0-4.145-1.932-4.145-3.892c0-3.276,2.912-5.068,8.148-5.04v-0.28c0-1.12-0.309-3.136-3.08-3.136
			c-1.26,0-2.576,0.393-3.529,1.008l-0.559-1.624c1.119-0.728,2.744-1.204,4.451-1.204c4.145,0,5.152,2.828,5.152,5.544v5.068
			c0,1.176,0.057,2.324,0.225,3.248H654.174z M653.809,473.793c-2.688-0.056-5.738,0.42-5.738,3.052
			c0,1.597,1.062,2.353,2.322,2.353c1.766,0,2.885-1.12,3.277-2.269c0.084-0.252,0.139-0.531,0.139-0.784V473.793z"/>
		<path fill="#2F8ECD" d="M659.578,479.253c0-1.036,0.699-1.764,1.68-1.764s1.652,0.728,1.652,1.764c0,1.008-0.645,1.764-1.68,1.764
			C660.25,481.017,659.578,480.261,659.578,479.253z"/>
	</g>
	<g>
		<path fill="#50BDEE" d="M504.32,132.279l-46.615-46.617c-0.928-0.927-2.183-1.448-3.499-1.448H313.535
			c-2.732,0-4.945,2.213-4.945,4.947v222.454c0,2.733,2.213,4.946,4.945,4.946h187.287c2.727,0,4.947-2.213,4.947-4.946V135.771
			C505.77,134.466,505.243,133.206,504.32,132.279z M459.152,101.092l29.732,29.737h-29.732V101.092z M318.479,306.674V94.102
			h130.787v41.669c0,2.733,2.207,4.946,4.94,4.946h41.671v165.957H318.479L318.479,306.674z"/>
		<g>
			<path fill="#50BDEE" d="M369.965,165.534H335.23c-2.739,0-4.947-2.214-4.947-4.947v-34.742c0-2.734,2.208-4.947,4.947-4.947
				h34.734c2.734,0,4.947,2.213,4.947,4.947v34.742C374.912,163.32,372.699,165.534,369.965,165.534z M340.172,155.646h24.853
				v-24.854h-24.853V155.646z"/>
		</g>
		<g>
			<path fill="#50BDEE" d="M369.965,227.724H335.23c-2.739,0-4.947-2.207-4.947-4.94v-34.748c0-2.733,2.208-4.94,4.947-4.94h34.734
				c2.734,0,4.947,2.207,4.947,4.94v34.748C374.912,225.517,372.699,227.724,369.965,227.724z M340.172,217.836h24.853v-24.86
				h-24.853V217.836z"/>
		</g>
		<g>
			<path fill="#50BDEE" d="M369.965,289.921H335.23c-2.739,0-4.947-2.22-4.947-4.947v-34.741c0-2.733,2.208-4.946,4.947-4.946
				h34.734c2.734,0,4.947,2.213,4.947,4.946v34.741C374.912,287.701,372.699,289.921,369.965,289.921z M340.172,280.027h24.853
				v-24.854h-24.853V280.027z"/>
		</g>
		<g>
			<polygon fill="none" stroke="#50BDEE" stroke-width="10" stroke-miterlimit="10" points="467.869,254.695 467.869,275.705 
				488.885,275.705 549.703,214.33 528.692,193.32 			"/>
			<path fill="none" stroke="#50BDEE" stroke-width="10" stroke-miterlimit="10" d="M559.07,203.86c2.206-2.208,2.206-5.53,0-7.737
				l-12.723-12.715c-2.213-2.22-5.529-2.22-7.735,0l-9.951,9.95l21.005,21.01L559.07,203.86z"/>
		</g>
		<rect x="382" y="126" fill="#50BDEE" width="62" height="8"/>
		<rect x="382" y="140" fill="#50BDEE" width="62" height="8"/>
		<rect x="382" y="202" fill="#50BDEE" width="100" height="8"/>
		<rect x="382" y="216" fill="#50BDEE" width="100" height="8"/>
		<rect x="382" y="188" fill="#50BDEE" width="100" height="8"/>
		<rect x="382" y="154" fill="#50BDEE" width="62" height="8"/>
		<rect x="382" y="273" fill="#50BDEE" width="100" height="8"/>
		<rect x="382" y="259" fill="#50BDEE" width="75" height="8"/>
	</g>
	<g>
		<path fill="#2F8ECD" d="M301.564,366.624v20.219h-4.59v-20.219H301.564z"/>
		<path fill="#2F8ECD" d="M305.524,386.843v-20.219h5.34l4.2,7.409c1.2,2.13,2.4,4.65,3.3,6.93h0.09c-0.3-2.67-0.39-5.399-0.39-8.43
			v-5.909h4.2v20.219h-4.8l-4.32-7.8c-1.2-2.16-2.52-4.77-3.51-7.14l-0.09,0.03c0.12,2.67,0.18,5.52,0.18,8.819v6.09H305.524z"/>
		<path fill="#2F8ECD" d="M330.124,370.464h-5.43v-3.84h15.539v3.84h-5.52v16.379h-4.59V370.464z"/>
		<path fill="#2F8ECD" d="M342.663,366.894c1.47-0.24,3.66-0.42,6.09-0.42c3,0,5.1,0.45,6.54,1.59c1.2,0.96,1.86,2.37,1.86,4.229
			c0,2.58-1.83,4.351-3.57,4.98v0.09c1.41,0.57,2.19,1.92,2.7,3.779c0.63,2.28,1.26,4.92,1.65,5.7h-4.68
			c-0.33-0.57-0.81-2.22-1.41-4.71c-0.54-2.52-1.41-3.21-3.27-3.239h-1.38v7.949h-4.53V366.894z M347.193,375.593h1.8
			c2.28,0,3.63-1.14,3.63-2.909c0-1.86-1.26-2.79-3.36-2.82c-1.11,0-1.74,0.09-2.07,0.15V375.593z"/>
		<path fill="#2F8ECD" d="M364.862,366.624v11.639c0,3.48,1.32,5.25,3.66,5.25c2.4,0,3.72-1.68,3.72-5.25v-11.639h4.56v11.339
			c0,6.24-3.149,9.21-8.429,9.21c-5.1,0-8.1-2.82-8.1-9.27v-11.279H364.862z"/>
		<path fill="#2F8ECD" d="M395.612,386.272c-0.84,0.42-2.729,0.87-5.189,0.87c-6.99,0-10.59-4.35-10.59-10.109
			c0-6.899,4.92-10.739,11.04-10.739c2.37,0,4.17,0.479,4.98,0.899l-0.93,3.63c-0.93-0.39-2.22-0.75-3.84-0.75
			c-3.63,0-6.45,2.19-6.45,6.69c0,4.05,2.4,6.6,6.48,6.6c1.38,0,2.91-0.301,3.81-0.66L395.612,386.272z"/>
		<path fill="#2F8ECD" d="M412.562,386.272c-0.84,0.42-2.729,0.87-5.189,0.87c-6.99,0-10.59-4.35-10.59-10.109
			c0-6.899,4.92-10.739,11.04-10.739c2.37,0,4.17,0.479,4.98,0.899l-0.93,3.63c-0.93-0.39-2.22-0.75-3.84-0.75
			c-3.63,0-6.45,2.19-6.45,6.69c0,4.05,2.4,6.6,6.48,6.6c1.38,0,2.91-0.301,3.81-0.66L412.562,386.272z"/>
		<path fill="#2F8ECD" d="M420.151,366.624v20.219h-4.589v-20.219H420.151z"/>
		<path fill="#2F8ECD" d="M442.621,376.523c0,6.63-4.02,10.649-9.93,10.649c-6,0-9.51-4.53-9.51-10.29
			c0-6.06,3.87-10.589,9.84-10.589C439.231,366.294,442.621,370.943,442.621,376.523z M428.012,376.793c0,3.96,1.859,6.75,4.92,6.75
			c3.09,0,4.859-2.939,4.859-6.87c0-3.63-1.74-6.749-4.89-6.749C429.812,369.924,428.012,372.863,428.012,376.793z"/>
		<path fill="#2F8ECD" d="M445.621,386.843v-20.219h5.34l4.2,7.409c1.2,2.13,2.399,4.65,3.3,6.93h0.09
			c-0.3-2.67-0.39-5.399-0.39-8.43v-5.909h4.2v20.219h-4.801l-4.319-7.8c-1.2-2.16-2.52-4.77-3.51-7.14l-0.09,0.03
			c0.12,2.67,0.18,5.52,0.18,8.819v6.09H445.621z"/>
		<path fill="#2F8ECD" d="M478.351,378.293h-7.44v4.8h8.311v3.75h-12.9v-20.219H478.8v3.749h-7.89v4.2h7.44V378.293z"/>
		<path fill="#2F8ECD" d="M482.49,382.133c1.23,0.63,3.12,1.26,5.07,1.26c2.1,0,3.209-0.869,3.209-2.189c0-1.26-0.96-1.98-3.39-2.85
			c-3.359-1.17-5.55-3.03-5.55-5.97c0-3.45,2.88-6.09,7.65-6.09c2.279,0,3.959,0.479,5.159,1.02l-1.02,3.69
			c-0.811-0.391-2.25-0.961-4.23-0.961c-1.979,0-2.939,0.9-2.939,1.95c0,1.29,1.14,1.86,3.75,2.851
			c3.569,1.319,5.25,3.18,5.25,6.029c0,3.39-2.61,6.27-8.16,6.27c-2.31,0-4.59-0.6-5.729-1.229L482.49,382.133z"/>
	</g>
</g>
</svg>
