<?xml version="1.0" encoding="utf-8"?>
<!-- Generator: Adobe Illustrator 16.0.0, SVG Export Plug-In . SVG Version: 6.00 Build 0)  -->
<!DOCTYPE svg PUBLIC "-//W3C//DTD SVG 1.1//EN" "http://www.w3.org/Graphics/SVG/1.1/DTD/svg11.dtd">
<svg version="1.1" id="Capa_1" xmlns="http://www.w3.org/2000/svg" xmlns:xlink="http://www.w3.org/1999/xlink" x="0px" y="0px"
	 width="841.89px" height="595.28px" viewBox="0 0 841.89 595.28" enable-background="new 0 0 841.89 595.28" xml:space="preserve">
<g>
	<g>
		<path fill="#2F8ECD" d="M124.102,447.494c-0.896,0.447-2.688,0.896-4.984,0.896c-5.32,0-9.324-3.361-9.324-9.549
			c0-5.908,4.004-9.912,9.856-9.912c2.352,0,3.836,0.504,4.48,0.84l-0.588,1.988c-0.924-0.447-2.24-0.783-3.808-0.783
			c-4.424,0-7.364,2.828-7.364,7.783c0,4.619,2.66,7.588,7.252,7.588c1.484,0,2.996-0.309,3.976-0.783L124.102,447.494z"/>
		<path fill="#2F8ECD" d="M139.026,441.223c0,5.012-3.472,7.195-6.748,7.195c-3.668,0-6.496-2.688-6.496-6.973
			c0-4.535,2.968-7.195,6.72-7.195C136.394,434.25,139.026,437.078,139.026,441.223z M128.274,441.361
			c0,2.969,1.708,5.209,4.116,5.209c2.352,0,4.116-2.213,4.116-5.264c0-2.297-1.148-5.209-4.06-5.209
			S128.274,438.785,128.274,441.361z"/>
		<path fill="#2F8ECD" d="M142.134,438.227c0-1.4-0.028-2.549-0.112-3.668h2.184l0.14,2.24h0.056c0.672-1.289,2.24-2.549,4.48-2.549
			c1.876,0,4.788,1.119,4.788,5.768v8.092h-2.464v-7.811c0-2.186-0.812-4.006-3.136-4.006c-1.624,0-2.884,1.148-3.304,2.521
			c-0.112,0.307-0.168,0.727-0.168,1.146v8.148h-2.464V438.227z"/>
		<path fill="#2F8ECD" d="M160.531,430.666v3.893h3.527v1.875h-3.527v7.309c0,1.68,0.476,2.631,1.848,2.631
			c0.645,0,1.12-0.084,1.428-0.168l0.112,1.85c-0.476,0.195-1.232,0.336-2.184,0.336c-1.148,0-2.072-0.365-2.66-1.037
			c-0.7-0.729-0.952-1.932-0.952-3.527v-7.393h-2.1v-1.875h2.1v-3.248L160.531,430.666z"/>
		<path fill="#2F8ECD" d="M168.034,441.781c0.056,3.332,2.184,4.705,4.648,4.705c1.764,0,2.827-0.309,3.752-0.701l0.42,1.766
			c-0.868,0.391-2.353,0.84-4.509,0.84c-4.172,0-6.663-2.744-6.663-6.832s2.407-7.309,6.355-7.309c4.424,0,5.6,3.893,5.6,6.385
			c0,0.504-0.056,0.895-0.084,1.146H168.034z M175.257,440.018c0.028-1.568-0.644-4.004-3.416-4.004
			c-2.491,0-3.584,2.297-3.779,4.004H175.257z"/>
		<path fill="#2F8ECD" d="M180.353,445.59c0.728,0.477,2.016,0.98,3.248,0.98c1.792,0,2.632-0.896,2.632-2.016
			c0-1.178-0.7-1.82-2.52-2.492c-2.437-0.869-3.584-2.213-3.584-3.836c0-2.186,1.764-3.977,4.676-3.977
			c1.372,0,2.576,0.393,3.332,0.84l-0.616,1.793c-0.532-0.336-1.512-0.785-2.772-0.785c-1.455,0-2.268,0.84-2.268,1.848
			c0,1.121,0.812,1.625,2.576,2.297c2.352,0.896,3.556,2.072,3.556,4.088c0,2.379-1.848,4.061-5.067,4.061
			c-1.484,0-2.856-0.365-3.809-0.924L180.353,445.59z"/>
		<path fill="#2F8ECD" d="M194.745,430.666v3.893h3.528v1.875h-3.528v7.309c0,1.68,0.477,2.631,1.849,2.631
			c0.644,0,1.119-0.084,1.428-0.168l0.112,1.85c-0.477,0.195-1.232,0.336-2.185,0.336c-1.147,0-2.072-0.365-2.66-1.037
			c-0.699-0.729-0.952-1.932-0.952-3.527v-7.393h-2.1v-1.875h2.1v-3.248L194.745,430.666z"/>
		<path fill="#2F8ECD" d="M208.548,448.109l-0.196-1.707h-0.084c-0.756,1.064-2.212,2.016-4.144,2.016
			c-2.744,0-4.144-1.932-4.144-3.893c0-3.275,2.911-5.068,8.147-5.039v-0.281c0-1.119-0.308-3.135-3.08-3.135
			c-1.26,0-2.576,0.393-3.528,1.008l-0.56-1.625c1.12-0.727,2.744-1.203,4.452-1.203c4.144,0,5.151,2.828,5.151,5.543v5.068
			c0,1.176,0.057,2.324,0.225,3.248H208.548z M208.184,441.193c-2.688-0.055-5.739,0.42-5.739,3.053
			c0,1.596,1.063,2.352,2.323,2.352c1.765,0,2.885-1.119,3.276-2.268c0.084-0.252,0.14-0.531,0.14-0.785V441.193z"/>
		<path fill="#2F8ECD" d="M220.476,428.23h2.464v19.879h-2.464V428.23z"/>
		<path fill="#2F8ECD" d="M234.587,448.109l-0.196-1.707h-0.084c-0.756,1.064-2.212,2.016-4.144,2.016
			c-2.744,0-4.144-1.932-4.144-3.893c0-3.275,2.911-5.068,8.147-5.039v-0.281c0-1.119-0.308-3.135-3.08-3.135
			c-1.26,0-2.576,0.393-3.528,1.008l-0.56-1.625c1.12-0.727,2.744-1.203,4.452-1.203c4.144,0,5.151,2.828,5.151,5.543v5.068
			c0,1.176,0.057,2.324,0.225,3.248H234.587z M234.223,441.193c-2.688-0.055-5.739,0.42-5.739,3.053
			c0,1.596,1.063,2.352,2.323,2.352c1.765,0,2.885-1.119,3.276-2.268c0.084-0.252,0.14-0.531,0.14-0.785V441.193z"/>
		<path fill="#2F8ECD" d="M246.515,438.982c0-1.736-0.056-3.137-0.112-4.424h2.212l0.112,2.324h0.056
			c1.009-1.652,2.604-2.633,4.816-2.633c3.276,0,5.74,2.771,5.74,6.889c0,4.871-2.968,7.279-6.16,7.279
			c-1.792,0-3.36-0.783-4.172-2.129h-0.056v7.365h-2.437V438.982z M248.952,442.594c0,0.363,0.056,0.699,0.111,1.008
			c0.448,1.709,1.933,2.885,3.696,2.885c2.604,0,4.116-2.129,4.116-5.236c0-2.717-1.429-5.041-4.032-5.041
			c-1.68,0-3.248,1.205-3.724,3.053c-0.084,0.309-0.168,0.672-0.168,1.008V442.594z"/>
		<path fill="#2F8ECD" d="M262.447,438.785c0-1.596-0.028-2.967-0.112-4.227h2.156l0.084,2.66h0.112
			c0.616-1.82,2.1-2.969,3.752-2.969c0.28,0,0.476,0.027,0.7,0.084v2.324c-0.252-0.057-0.504-0.084-0.841-0.084
			c-1.735,0-2.968,1.316-3.304,3.164c-0.056,0.336-0.111,0.729-0.111,1.148v7.223h-2.437V438.785z"/>
		<path fill="#2F8ECD" d="M282.943,444.414c0,1.4,0.028,2.631,0.112,3.695h-2.185l-0.14-2.211h-0.056
			c-0.645,1.092-2.072,2.52-4.48,2.52c-2.128,0-4.676-1.176-4.676-5.936v-7.924h2.464v7.504c0,2.576,0.784,4.311,3.024,4.311
			c1.651,0,2.8-1.146,3.248-2.238c0.14-0.365,0.224-0.812,0.224-1.262v-8.314h2.464V444.414z"/>
		<path fill="#2F8ECD" d="M288.403,441.781c0.056,3.332,2.184,4.705,4.648,4.705c1.764,0,2.827-0.309,3.752-0.701l0.42,1.766
			c-0.868,0.391-2.353,0.84-4.509,0.84c-4.172,0-6.663-2.744-6.663-6.832s2.407-7.309,6.355-7.309c4.424,0,5.6,3.893,5.6,6.385
			c0,0.504-0.056,0.895-0.084,1.146H288.403z M295.626,440.018c0.028-1.568-0.644-4.004-3.416-4.004
			c-2.491,0-3.584,2.297-3.779,4.004H295.626z"/>
		<path fill="#2F8ECD" d="M300.946,448.109c0.057-0.924,0.112-2.295,0.112-3.5V428.23h2.437v8.512h0.056
			c0.868-1.512,2.436-2.492,4.62-2.492c3.359,0,5.739,2.801,5.712,6.916c0,4.844-3.052,7.252-6.076,7.252
			c-1.96,0-3.528-0.756-4.536-2.549h-0.084l-0.112,2.24H300.946z M303.495,442.678c0,0.309,0.056,0.615,0.111,0.896
			c0.477,1.707,1.904,2.883,3.696,2.883c2.576,0,4.116-2.1,4.116-5.207c0-2.717-1.4-5.041-4.032-5.041
			c-1.68,0-3.248,1.148-3.752,3.025c-0.056,0.279-0.14,0.615-0.14,1.008V442.678z"/>
		<path fill="#2F8ECD" d="M324.494,448.109l-0.196-1.707h-0.084c-0.756,1.064-2.212,2.016-4.144,2.016
			c-2.744,0-4.144-1.932-4.144-3.893c0-3.275,2.911-5.068,8.147-5.039v-0.281c0-1.119-0.308-3.135-3.08-3.135
			c-1.26,0-2.576,0.393-3.528,1.008l-0.56-1.625c1.12-0.727,2.744-1.203,4.452-1.203c4.144,0,5.151,2.828,5.151,5.543v5.068
			c0,1.176,0.057,2.324,0.225,3.248H324.494z M324.129,441.193c-2.688-0.055-5.739,0.42-5.739,3.053
			c0,1.596,1.063,2.352,2.323,2.352c1.765,0,2.885-1.119,3.276-2.268c0.084-0.252,0.14-0.531,0.14-0.785V441.193z"/>
		<path fill="#2F8ECD" d="M346.082,447.605c-0.645,0.336-2.072,0.785-3.893,0.785c-4.088,0-6.747-2.773-6.747-6.916
			c0-4.172,2.855-7.197,7.279-7.197c1.456,0,2.744,0.365,3.416,0.701l-0.56,1.904c-0.588-0.336-1.513-0.645-2.856-0.645
			c-3.107,0-4.788,2.295-4.788,5.123c0,3.137,2.017,5.068,4.704,5.068c1.4,0,2.324-0.363,3.024-0.672L346.082,447.605z"/>
		<path fill="#2F8ECD" d="M361.062,441.223c0,5.012-3.472,7.195-6.748,7.195c-3.668,0-6.495-2.688-6.495-6.973
			c0-4.535,2.968-7.195,6.72-7.195C358.43,434.25,361.062,437.078,361.062,441.223z M350.31,441.361
			c0,2.969,1.708,5.209,4.116,5.209c2.353,0,4.116-2.213,4.116-5.264c0-2.297-1.148-5.209-4.061-5.209
			C351.571,436.098,350.31,438.785,350.31,441.361z"/>
		<path fill="#2F8ECD" d="M364.169,438.227c0-1.4-0.028-2.549-0.112-3.668h2.156l0.112,2.184h0.084
			c0.756-1.289,2.016-2.492,4.256-2.492c1.848,0,3.248,1.119,3.836,2.717h0.056c0.42-0.758,0.952-1.346,1.513-1.766
			c0.812-0.615,1.708-0.951,2.995-0.951c1.792,0,4.452,1.176,4.452,5.881v7.979h-2.407v-7.672c0-2.604-0.952-4.172-2.94-4.172
			c-1.4,0-2.492,1.037-2.912,2.24c-0.112,0.336-0.196,0.783-0.196,1.232v8.371h-2.407v-8.119c0-2.156-0.952-3.725-2.828-3.725
			c-1.54,0-2.66,1.232-3.052,2.465c-0.141,0.363-0.196,0.783-0.196,1.203v8.176h-2.408V438.227z"/>
		<path fill="#2F8ECD" d="M399.785,441.223c0,5.012-3.472,7.195-6.748,7.195c-3.668,0-6.495-2.688-6.495-6.973
			c0-4.535,2.968-7.195,6.72-7.195C397.153,434.25,399.785,437.078,399.785,441.223z M389.033,441.361
			c0,2.969,1.708,5.209,4.116,5.209c2.353,0,4.116-2.213,4.116-5.264c0-2.297-1.148-5.209-4.061-5.209
			C390.293,436.098,389.033,438.785,389.033,441.361z"/>
		<path fill="#2F8ECD" d="M408.494,445.59c0.728,0.477,2.016,0.98,3.248,0.98c1.792,0,2.632-0.896,2.632-2.016
			c0-1.178-0.7-1.82-2.52-2.492c-2.437-0.869-3.584-2.213-3.584-3.836c0-2.186,1.764-3.977,4.676-3.977
			c1.372,0,2.576,0.393,3.332,0.84l-0.616,1.793c-0.532-0.336-1.512-0.785-2.772-0.785c-1.455,0-2.268,0.84-2.268,1.848
			c0,1.121,0.812,1.625,2.576,2.297c2.352,0.896,3.556,2.072,3.556,4.088c0,2.379-1.848,4.061-5.067,4.061
			c-1.484,0-2.856-0.365-3.809-0.924L408.494,445.59z"/>
		<path fill="#2F8ECD" d="M421.29,441.781c0.056,3.332,2.183,4.705,4.648,4.705c1.764,0,2.828-0.309,3.752-0.701l0.42,1.766
			c-0.867,0.391-2.352,0.84-4.508,0.84c-4.172,0-6.664-2.744-6.664-6.832s2.407-7.309,6.355-7.309c4.424,0,5.6,3.893,5.6,6.385
			c0,0.504-0.055,0.895-0.084,1.146H421.29z M428.514,440.018c0.027-1.568-0.645-4.004-3.416-4.004c-2.492,0-3.584,2.297-3.78,4.004
			H428.514z"/>
		<path fill="#2F8ECD" d="M439.881,438.227c0-1.4-0.029-2.549-0.113-3.668h2.156l0.113,2.184h0.084
			c0.756-1.289,2.016-2.492,4.256-2.492c1.848,0,3.248,1.119,3.836,2.717h0.055c0.42-0.758,0.953-1.346,1.514-1.766
			c0.811-0.615,1.707-0.951,2.994-0.951c1.793,0,4.453,1.176,4.453,5.881v7.979h-2.408v-7.672c0-2.604-0.951-4.172-2.939-4.172
			c-1.4,0-2.492,1.037-2.912,2.24c-0.113,0.336-0.197,0.783-0.197,1.232v8.371h-2.406v-8.119c0-2.156-0.953-3.725-2.828-3.725
			c-1.541,0-2.66,1.232-3.053,2.465c-0.141,0.363-0.195,0.783-0.195,1.203v8.176h-2.408V438.227z"/>
		<path fill="#2F8ECD" d="M474.572,444.414c0,1.4,0.027,2.631,0.111,3.695H472.5l-0.141-2.211h-0.055
			c-0.645,1.092-2.072,2.52-4.48,2.52c-2.129,0-4.676-1.176-4.676-5.936v-7.924h2.463v7.504c0,2.576,0.785,4.311,3.025,4.311
			c1.65,0,2.799-1.146,3.248-2.238c0.139-0.365,0.223-0.812,0.223-1.262v-8.314h2.465V444.414z"/>
		<path fill="#2F8ECD" d="M480.031,441.781c0.057,3.332,2.184,4.705,4.648,4.705c1.764,0,2.828-0.309,3.752-0.701l0.42,1.766
			c-0.867,0.391-2.352,0.84-4.508,0.84c-4.172,0-6.664-2.744-6.664-6.832s2.408-7.309,6.355-7.309c4.424,0,5.6,3.893,5.6,6.385
			c0,0.504-0.055,0.895-0.084,1.146H480.031z M487.256,440.018c0.027-1.568-0.645-4.004-3.416-4.004
			c-2.492,0-3.584,2.297-3.779,4.004H487.256z"/>
		<path fill="#2F8ECD" d="M492.352,445.59c0.727,0.477,2.016,0.98,3.248,0.98c1.791,0,2.631-0.896,2.631-2.016
			c0-1.178-0.699-1.82-2.52-2.492c-2.436-0.869-3.584-2.213-3.584-3.836c0-2.186,1.764-3.977,4.676-3.977
			c1.373,0,2.576,0.393,3.332,0.84l-0.615,1.793c-0.533-0.336-1.512-0.785-2.773-0.785c-1.455,0-2.268,0.84-2.268,1.848
			c0,1.121,0.812,1.625,2.576,2.297c2.352,0.896,3.557,2.072,3.557,4.088c0,2.379-1.848,4.061-5.068,4.061
			c-1.484,0-2.855-0.365-3.809-0.924L492.352,445.59z"/>
		<path fill="#2F8ECD" d="M506.742,430.666v3.893h3.529v1.875h-3.529v7.309c0,1.68,0.477,2.631,1.85,2.631
			c0.643,0,1.119-0.084,1.428-0.168l0.111,1.85c-0.477,0.195-1.232,0.336-2.184,0.336c-1.148,0-2.072-0.365-2.66-1.037
			c-0.699-0.729-0.953-1.932-0.953-3.527v-7.393h-2.1v-1.875h2.1v-3.248L506.742,430.666z"/>
		<path fill="#2F8ECD" d="M513.043,438.785c0-1.596-0.029-2.967-0.113-4.227h2.156l0.084,2.66h0.113
			c0.615-1.82,2.1-2.969,3.752-2.969c0.279,0,0.475,0.027,0.699,0.084v2.324c-0.252-0.057-0.504-0.084-0.84-0.084
			c-1.736,0-2.969,1.316-3.305,3.164c-0.055,0.336-0.111,0.729-0.111,1.148v7.223h-2.436V438.785z"/>
		<path fill="#2F8ECD" d="M529.562,448.109l-0.197-1.707h-0.084c-0.756,1.064-2.211,2.016-4.143,2.016
			c-2.744,0-4.145-1.932-4.145-3.893c0-3.275,2.912-5.068,8.148-5.039v-0.281c0-1.119-0.309-3.135-3.08-3.135
			c-1.26,0-2.576,0.393-3.529,1.008l-0.559-1.625c1.119-0.727,2.744-1.203,4.451-1.203c4.145,0,5.152,2.828,5.152,5.543v5.068
			c0,1.176,0.057,2.324,0.225,3.248H529.562z M529.197,441.193c-2.688-0.055-5.738,0.42-5.738,3.053
			c0,1.596,1.062,2.352,2.322,2.352c1.766,0,2.885-1.119,3.277-2.268c0.084-0.252,0.139-0.531,0.139-0.785V441.193z"/>
		<path fill="#2F8ECD" d="M542.861,441.781c0.057,3.332,2.184,4.705,4.648,4.705c1.764,0,2.828-0.309,3.752-0.701l0.42,1.766
			c-0.867,0.391-2.352,0.84-4.508,0.84c-4.172,0-6.664-2.744-6.664-6.832s2.408-7.309,6.355-7.309c4.424,0,5.6,3.893,5.6,6.385
			c0,0.504-0.055,0.895-0.084,1.146H542.861z M550.086,440.018c0.027-1.568-0.645-4.004-3.416-4.004
			c-2.492,0-3.584,2.297-3.779,4.004H550.086z"/>
		<path fill="#2F8ECD" d="M555.518,438.227c0-1.4-0.029-2.549-0.113-3.668h2.186l0.139,2.24h0.057
			c0.672-1.289,2.24-2.549,4.48-2.549c1.875,0,4.787,1.119,4.787,5.768v8.092h-2.463v-7.811c0-2.186-0.812-4.006-3.137-4.006
			c-1.623,0-2.885,1.148-3.305,2.521c-0.111,0.307-0.168,0.727-0.168,1.146v8.148h-2.463V438.227z"/>
		<path fill="#2F8ECD" d="M576.992,428.23h2.465v19.879h-2.465V428.23z"/>
		<path fill="#2F8ECD" d="M591.104,448.109l-0.195-1.707h-0.084c-0.756,1.064-2.213,2.016-4.145,2.016
			c-2.744,0-4.143-1.932-4.143-3.893c0-3.275,2.91-5.068,8.146-5.039v-0.281c0-1.119-0.307-3.135-3.08-3.135
			c-1.26,0-2.576,0.393-3.527,1.008l-0.561-1.625c1.121-0.727,2.744-1.203,4.453-1.203c4.143,0,5.15,2.828,5.15,5.543v5.068
			c0,1.176,0.057,2.324,0.225,3.248H591.104z M590.74,441.193c-2.688-0.055-5.74,0.42-5.74,3.053c0,1.596,1.064,2.352,2.324,2.352
			c1.764,0,2.885-1.119,3.275-2.268c0.084-0.252,0.141-0.531,0.141-0.785V441.193z"/>
		<path fill="#2F8ECD" d="M605.775,430.75c0.029,0.84-0.588,1.512-1.568,1.512c-0.867,0-1.482-0.672-1.482-1.512
			c0-0.867,0.643-1.541,1.539-1.541C605.188,429.209,605.775,429.883,605.775,430.75z M603.031,448.109v-13.551h2.465v13.551
			H603.031z"/>
		<path fill="#2F8ECD" d="M609.584,438.227c0-1.4-0.029-2.549-0.113-3.668h2.156l0.113,2.184h0.084
			c0.756-1.289,2.016-2.492,4.256-2.492c1.848,0,3.248,1.119,3.836,2.717h0.055c0.42-0.758,0.953-1.346,1.514-1.766
			c0.811-0.615,1.707-0.951,2.994-0.951c1.793,0,4.453,1.176,4.453,5.881v7.979h-2.408v-7.672c0-2.604-0.951-4.172-2.939-4.172
			c-1.4,0-2.492,1.037-2.912,2.24c-0.113,0.336-0.197,0.783-0.197,1.232v8.371h-2.406v-8.119c0-2.156-0.953-3.725-2.828-3.725
			c-1.541,0-2.66,1.232-3.053,2.465c-0.141,0.363-0.195,0.783-0.195,1.203v8.176h-2.408V438.227z"/>
		<path fill="#2F8ECD" d="M640.439,448.109l-0.197-1.707h-0.084c-0.756,1.064-2.211,2.016-4.143,2.016
			c-2.744,0-4.145-1.932-4.145-3.893c0-3.275,2.912-5.068,8.148-5.039v-0.281c0-1.119-0.309-3.135-3.08-3.135
			c-1.26,0-2.576,0.393-3.529,1.008l-0.559-1.625c1.119-0.727,2.744-1.203,4.451-1.203c4.145,0,5.152,2.828,5.152,5.543v5.068
			c0,1.176,0.057,2.324,0.225,3.248H640.439z M640.074,441.193c-2.688-0.055-5.738,0.42-5.738,3.053
			c0,1.596,1.062,2.352,2.322,2.352c1.766,0,2.885-1.119,3.277-2.268c0.084-0.252,0.139-0.531,0.139-0.785V441.193z"/>
		<path fill="#2F8ECD" d="M658.107,434.559c-0.057,0.979-0.111,2.072-0.111,3.723v7.869c0,3.107-0.617,5.012-1.934,6.188
			c-1.314,1.232-3.219,1.623-4.928,1.623c-1.623,0-3.416-0.391-4.508-1.119l0.617-1.875c0.895,0.559,2.295,1.062,3.975,1.062
			c2.52,0,4.369-1.316,4.369-4.73v-1.514h-0.057c-0.756,1.26-2.213,2.27-4.312,2.27c-3.359,0-5.768-2.857-5.768-6.609
			c0-4.592,2.996-7.195,6.104-7.195c2.352,0,3.641,1.232,4.229,2.352h0.057l0.111-2.043H658.107z M655.559,439.906
			c0-0.42-0.027-0.785-0.139-1.121c-0.449-1.428-1.652-2.604-3.445-2.604c-2.352,0-4.031,1.988-4.031,5.125
			c0,2.66,1.344,4.871,4.004,4.871c1.512,0,2.885-0.951,3.416-2.52c0.141-0.42,0.195-0.896,0.195-1.316V439.906z"/>
		<path fill="#2F8ECD" d="M663.455,441.781c0.055,3.332,2.184,4.705,4.646,4.705c1.766,0,2.828-0.309,3.754-0.701l0.42,1.766
			c-0.869,0.391-2.354,0.84-4.51,0.84c-4.172,0-6.662-2.744-6.662-6.832s2.406-7.309,6.355-7.309c4.424,0,5.6,3.893,5.6,6.385
			c0,0.504-0.057,0.895-0.084,1.146H663.455z M670.678,440.018c0.029-1.568-0.643-4.004-3.416-4.004
			c-2.49,0-3.584,2.297-3.779,4.004H670.678z"/>
		<path fill="#2F8ECD" d="M676.109,438.227c0-1.4-0.027-2.549-0.111-3.668h2.184l0.141,2.24h0.055
			c0.674-1.289,2.24-2.549,4.48-2.549c1.877,0,4.789,1.119,4.789,5.768v8.092h-2.465v-7.811c0-2.186-0.812-4.006-3.137-4.006
			c-1.623,0-2.883,1.148-3.303,2.521c-0.111,0.307-0.168,0.727-0.168,1.146v8.148h-2.465V438.227z"/>
		<path fill="#2F8ECD" d="M691.062,446.654c0-1.037,0.699-1.764,1.68-1.764s1.652,0.727,1.652,1.764c0,1.008-0.645,1.764-1.68,1.764
			C691.734,448.418,691.062,447.662,691.062,446.654z"/>
		<path fill="#2F8ECD" d="M37.989,490.143c1.092,0.672,2.688,1.23,4.368,1.23c2.492,0,3.948-1.314,3.948-3.219
			c0-1.764-1.008-2.771-3.556-3.752c-3.08-1.092-4.984-2.688-4.984-5.348c0-2.941,2.436-5.125,6.104-5.125
			c1.932,0,3.332,0.449,4.172,0.924l-0.672,1.988c-0.616-0.336-1.876-0.896-3.584-0.896c-2.576,0-3.556,1.541-3.556,2.828
			c0,1.764,1.148,2.633,3.752,3.641c3.192,1.232,4.816,2.771,4.816,5.543c0,2.912-2.156,5.434-6.608,5.434
			c-1.82,0-3.808-0.533-4.816-1.205L37.989,490.143z"/>
		<path fill="#2F8ECD" d="M54.789,475.75c0.028,0.84-0.588,1.512-1.568,1.512c-0.868,0-1.484-0.672-1.484-1.512
			c0-0.867,0.644-1.541,1.54-1.541C54.201,474.209,54.789,474.883,54.789,475.75z M52.045,493.109v-13.551h2.464v13.551H52.045z"/>
		<path fill="#2F8ECD" d="M64.532,483.227c0-1.4-0.028-2.549-0.112-3.668h2.156l0.112,2.184h0.084
			c0.756-1.289,2.016-2.492,4.256-2.492c1.848,0,3.248,1.119,3.836,2.717h0.056c0.42-0.758,0.952-1.346,1.512-1.766
			c0.812-0.615,1.708-0.951,2.996-0.951c1.792,0,4.452,1.176,4.452,5.881v7.979h-2.408v-7.672c0-2.604-0.952-4.172-2.94-4.172
			c-1.4,0-2.492,1.037-2.912,2.24c-0.112,0.336-0.196,0.783-0.196,1.232v8.371h-2.408v-8.119c0-2.156-0.952-3.725-2.828-3.725
			c-1.54,0-2.66,1.232-3.052,2.465c-0.14,0.363-0.196,0.783-0.196,1.203v8.176h-2.408V483.227z"/>
		<path fill="#2F8ECD" d="M95.388,493.109l-0.196-1.707h-0.084c-0.756,1.064-2.212,2.016-4.144,2.016
			c-2.744,0-4.144-1.932-4.144-3.893c0-3.275,2.912-5.068,8.148-5.039v-0.281c0-1.119-0.308-3.135-3.08-3.135
			c-1.26,0-2.576,0.393-3.528,1.008l-0.56-1.625c1.12-0.727,2.744-1.203,4.452-1.203c4.144,0,5.152,2.828,5.152,5.543v5.068
			c0,1.176,0.056,2.324,0.224,3.248H95.388z M95.024,486.193c-2.688-0.055-5.74,0.42-5.74,3.053c0,1.596,1.064,2.352,2.324,2.352
			c1.764,0,2.884-1.119,3.276-2.268c0.084-0.252,0.14-0.531,0.14-0.785V486.193z"/>
		<path fill="#2F8ECD" d="M101.38,483.785c0-1.596-0.028-2.967-0.112-4.227h2.156l0.084,2.66h0.112
			c0.616-1.82,2.1-2.969,3.752-2.969c0.28,0,0.476,0.027,0.7,0.084v2.324c-0.252-0.057-0.504-0.084-0.84-0.084
			c-1.736,0-2.968,1.316-3.304,3.164c-0.056,0.336-0.112,0.729-0.112,1.148v7.223h-2.436V483.785z"/>
		<path fill="#2F8ECD" d="M119.917,492.605c-0.644,0.336-2.072,0.785-3.892,0.785c-4.088,0-6.748-2.773-6.748-6.916
			c0-4.172,2.856-7.197,7.28-7.197c1.456,0,2.744,0.365,3.416,0.701l-0.56,1.904c-0.588-0.336-1.512-0.645-2.856-0.645
			c-3.108,0-4.788,2.295-4.788,5.123c0,3.137,2.016,5.068,4.704,5.068c1.4,0,2.324-0.363,3.024-0.672L119.917,492.605z"/>
		<path fill="#2F8ECD" d="M130.304,493.109l-0.196-1.707h-0.084c-0.756,1.064-2.212,2.016-4.144,2.016
			c-2.744,0-4.144-1.932-4.144-3.893c0-3.275,2.912-5.068,8.148-5.039v-0.281c0-1.119-0.308-3.135-3.08-3.135
			c-1.26,0-2.576,0.393-3.528,1.008l-0.56-1.625c1.12-0.727,2.744-1.203,4.452-1.203c4.144,0,5.152,2.828,5.152,5.543v5.068
			c0,1.176,0.056,2.324,0.224,3.248H130.304z M129.94,486.193c-2.688-0.055-5.74,0.42-5.74,3.053c0,1.596,1.064,2.352,2.324,2.352
			c1.764,0,2.884-1.119,3.276-2.268c0.084-0.252,0.14-0.531,0.14-0.785V486.193z"/>
		<path fill="#2F8ECD" d="M135.96,490.59c0.728,0.477,2.016,0.98,3.248,0.98c1.792,0,2.632-0.896,2.632-2.016
			c0-1.178-0.7-1.82-2.52-2.492c-2.436-0.869-3.584-2.213-3.584-3.836c0-2.186,1.764-3.977,4.676-3.977
			c1.372,0,2.576,0.393,3.332,0.84l-0.616,1.793c-0.532-0.336-1.512-0.785-2.772-0.785c-1.456,0-2.268,0.84-2.268,1.848
			c0,1.121,0.812,1.625,2.576,2.297c2.352,0.896,3.556,2.072,3.556,4.088c0,2.379-1.848,4.061-5.068,4.061
			c-1.484,0-2.856-0.365-3.808-0.924L135.96,490.59z"/>
		<path fill="#2F8ECD" d="M150.352,475.666v3.893h3.528v1.875h-3.528v7.309c0,1.68,0.476,2.631,1.848,2.631
			c0.644,0,1.12-0.084,1.428-0.168l0.112,1.85c-0.476,0.195-1.232,0.336-2.184,0.336c-1.148,0-2.072-0.365-2.66-1.037
			c-0.7-0.729-0.952-1.932-0.952-3.527v-7.393h-2.1v-1.875h2.1v-3.248L150.352,475.666z"/>
		<path fill="#2F8ECD" d="M157.855,486.781c0.056,3.332,2.184,4.705,4.648,4.705c1.764,0,2.828-0.309,3.752-0.701l0.42,1.766
			c-0.868,0.391-2.352,0.84-4.508,0.84c-4.172,0-6.664-2.744-6.664-6.832s2.408-7.309,6.356-7.309c4.424,0,5.6,3.893,5.6,6.385
			c0,0.504-0.056,0.895-0.084,1.146H157.855z M165.08,485.018c0.027-1.568-0.645-4.004-3.416-4.004c-2.492,0-3.584,2.297-3.78,4.004
			H165.08z"/>
		<path fill="#2F8ECD" d="M187.787,489.414c0,1.4,0.028,2.631,0.112,3.695h-2.185l-0.14-2.211h-0.056
			c-0.645,1.092-2.072,2.52-4.48,2.52c-2.128,0-4.676-1.176-4.676-5.936v-7.924h2.464v7.504c0,2.576,0.784,4.311,3.024,4.311
			c1.651,0,2.8-1.146,3.248-2.238c0.14-0.365,0.224-0.812,0.224-1.262v-8.314h2.464V489.414z"/>
		<path fill="#2F8ECD" d="M191.875,483.227c0-1.4-0.028-2.549-0.112-3.668h2.185l0.14,2.24h0.056c0.673-1.289,2.24-2.549,4.48-2.549
			c1.876,0,4.788,1.119,4.788,5.768v8.092h-2.464v-7.811c0-2.186-0.812-4.006-3.137-4.006c-1.623,0-2.884,1.148-3.304,2.521
			c-0.111,0.307-0.168,0.727-0.168,1.146v8.148h-2.464V483.227z"/>
		<path fill="#2F8ECD" d="M214.917,493.109l-0.196-1.707h-0.084c-0.756,1.064-2.212,2.016-4.144,2.016
			c-2.744,0-4.144-1.932-4.144-3.893c0-3.275,2.911-5.068,8.147-5.039v-0.281c0-1.119-0.308-3.135-3.08-3.135
			c-1.26,0-2.576,0.393-3.528,1.008l-0.56-1.625c1.12-0.727,2.744-1.203,4.452-1.203c4.144,0,5.151,2.828,5.151,5.543v5.068
			c0,1.176,0.057,2.324,0.225,3.248H214.917z M214.553,486.193c-2.688-0.055-5.739,0.42-5.739,3.053
			c0,1.596,1.063,2.352,2.323,2.352c1.765,0,2.885-1.119,3.276-2.268c0.084-0.252,0.14-0.531,0.14-0.785V486.193z"/>
		<path fill="#2F8ECD" d="M226.845,483.785c0-1.596-0.028-2.967-0.112-4.227h2.156l0.084,2.66h0.112
			c0.616-1.82,2.1-2.969,3.752-2.969c0.28,0,0.476,0.027,0.7,0.084v2.324c-0.252-0.057-0.504-0.084-0.841-0.084
			c-1.735,0-2.968,1.316-3.304,3.164c-0.056,0.336-0.111,0.729-0.111,1.148v7.223h-2.437V483.785z"/>
		<path fill="#2F8ECD" d="M237.094,486.781c0.056,3.332,2.184,4.705,4.648,4.705c1.764,0,2.827-0.309,3.752-0.701l0.42,1.766
			c-0.868,0.391-2.353,0.84-4.509,0.84c-4.172,0-6.663-2.744-6.663-6.832s2.407-7.309,6.355-7.309c4.424,0,5.6,3.893,5.6,6.385
			c0,0.504-0.056,0.895-0.084,1.146H237.094z M244.318,485.018c0.028-1.568-0.644-4.004-3.416-4.004
			c-2.491,0-3.584,2.297-3.779,4.004H244.318z"/>
		<path fill="#2F8ECD" d="M249.414,490.59c0.728,0.477,2.016,0.98,3.248,0.98c1.792,0,2.632-0.896,2.632-2.016
			c0-1.178-0.7-1.82-2.52-2.492c-2.437-0.869-3.584-2.213-3.584-3.836c0-2.186,1.764-3.977,4.676-3.977
			c1.372,0,2.576,0.393,3.332,0.84l-0.616,1.793c-0.532-0.336-1.512-0.785-2.772-0.785c-1.455,0-2.268,0.84-2.268,1.848
			c0,1.121,0.812,1.625,2.576,2.297c2.352,0.896,3.556,2.072,3.556,4.088c0,2.379-1.848,4.061-5.067,4.061
			c-1.484,0-2.856-0.365-3.809-0.924L249.414,490.59z"/>
		<path fill="#2F8ECD" d="M260.837,483.982c0-1.736-0.056-3.137-0.112-4.424h2.212l0.112,2.324h0.056
			c1.009-1.652,2.604-2.633,4.816-2.633c3.276,0,5.74,2.771,5.74,6.889c0,4.871-2.968,7.279-6.16,7.279
			c-1.792,0-3.36-0.783-4.172-2.129h-0.056v7.365h-2.437V483.982z M263.274,487.594c0,0.363,0.056,0.699,0.111,1.008
			c0.448,1.709,1.933,2.885,3.696,2.885c2.604,0,4.116-2.129,4.116-5.236c0-2.717-1.429-5.041-4.032-5.041
			c-1.68,0-3.248,1.205-3.724,3.053c-0.084,0.309-0.168,0.672-0.168,1.008V487.594z"/>
		<path fill="#2F8ECD" d="M288.109,489.414c0,1.4,0.028,2.631,0.112,3.695h-2.185l-0.14-2.211h-0.056
			c-0.645,1.092-2.072,2.52-4.48,2.52c-2.128,0-4.676-1.176-4.676-5.936v-7.924h2.464v7.504c0,2.576,0.784,4.311,3.024,4.311
			c1.651,0,2.8-1.146,3.248-2.238c0.14-0.365,0.224-0.812,0.224-1.262v-8.314h2.464V489.414z"/>
		<path fill="#2F8ECD" d="M293.569,486.781c0.056,3.332,2.184,4.705,4.648,4.705c1.764,0,2.827-0.309,3.752-0.701l0.42,1.766
			c-0.868,0.391-2.353,0.84-4.509,0.84c-4.172,0-6.663-2.744-6.663-6.832s2.407-7.309,6.355-7.309c4.424,0,5.6,3.893,5.6,6.385
			c0,0.504-0.056,0.895-0.084,1.146H293.569z M300.792,485.018c0.028-1.568-0.644-4.004-3.416-4.004
			c-2.491,0-3.584,2.297-3.779,4.004H300.792z"/>
		<path fill="#2F8ECD" d="M305.888,490.59c0.728,0.477,2.016,0.98,3.248,0.98c1.792,0,2.632-0.896,2.632-2.016
			c0-1.178-0.7-1.82-2.52-2.492c-2.437-0.869-3.584-2.213-3.584-3.836c0-2.186,1.764-3.977,4.676-3.977
			c1.372,0,2.576,0.393,3.332,0.84l-0.616,1.793c-0.532-0.336-1.512-0.785-2.772-0.785c-1.455,0-2.268,0.84-2.268,1.848
			c0,1.121,0.812,1.625,2.576,2.297c2.352,0.896,3.556,2.072,3.556,4.088c0,2.379-1.848,4.061-5.067,4.061
			c-1.484,0-2.856-0.365-3.809-0.924L305.888,490.59z"/>
		<path fill="#2F8ECD" d="M320.28,475.666v3.893h3.528v1.875h-3.528v7.309c0,1.68,0.477,2.631,1.849,2.631
			c0.644,0,1.119-0.084,1.428-0.168l0.112,1.85c-0.477,0.195-1.232,0.336-2.185,0.336c-1.147,0-2.072-0.365-2.66-1.037
			c-0.699-0.729-0.952-1.932-0.952-3.527v-7.393h-2.1v-1.875h2.1v-3.248L320.28,475.666z"/>
		<path fill="#2F8ECD" d="M334.083,493.109l-0.196-1.707h-0.084c-0.756,1.064-2.212,2.016-4.144,2.016
			c-2.744,0-4.144-1.932-4.144-3.893c0-3.275,2.911-5.068,8.147-5.039v-0.281c0-1.119-0.308-3.135-3.08-3.135
			c-1.26,0-2.576,0.393-3.528,1.008l-0.56-1.625c1.12-0.727,2.744-1.203,4.452-1.203c4.144,0,5.151,2.828,5.151,5.543v5.068
			c0,1.176,0.057,2.324,0.225,3.248H334.083z M333.719,486.193c-2.688-0.055-5.739,0.42-5.739,3.053
			c0,1.596,1.063,2.352,2.323,2.352c1.765,0,2.885-1.119,3.276-2.268c0.084-0.252,0.14-0.531,0.14-0.785V486.193z"/>
		<path fill="#2F8ECD" d="M346.908,479.559l2.968,8.008c0.308,0.895,0.644,1.959,0.868,2.771h0.056
			c0.252-0.812,0.532-1.848,0.868-2.828l2.688-7.951h2.604l-3.696,9.66c-1.764,4.646-2.968,7.027-4.647,8.482
			c-1.204,1.064-2.408,1.484-3.024,1.596l-0.616-2.07c0.616-0.197,1.428-0.588,2.156-1.205c0.672-0.531,1.512-1.484,2.072-2.744
			c0.111-0.252,0.195-0.447,0.195-0.588c0-0.139-0.056-0.336-0.168-0.645l-5.012-12.486H346.908z"/>
		<path fill="#2F8ECD" d="M376.838,473.23v16.379c0,1.205,0.028,2.576,0.112,3.5h-2.212l-0.112-2.352h-0.057
			c-0.756,1.512-2.407,2.66-4.619,2.66c-3.276,0-5.796-2.771-5.796-6.889c-0.028-4.508,2.771-7.279,6.075-7.279
			c2.072,0,3.473,0.98,4.088,2.072h0.057v-8.092H376.838z M374.375,485.074c0-0.309-0.028-0.729-0.112-1.037
			c-0.364-1.566-1.708-2.855-3.556-2.855c-2.548,0-4.061,2.24-4.061,5.236c0,2.744,1.345,5.012,4.004,5.012
			c1.652,0,3.164-1.092,3.612-2.939c0.084-0.336,0.112-0.672,0.112-1.064V485.074z"/>
		<path fill="#2F8ECD" d="M382.298,486.781c0.056,3.332,2.184,4.705,4.647,4.705c1.765,0,2.828-0.309,3.753-0.701l0.42,1.766
			c-0.868,0.391-2.353,0.84-4.509,0.84c-4.172,0-6.663-2.744-6.663-6.832s2.407-7.309,6.355-7.309c4.424,0,5.6,3.893,5.6,6.385
			c0,0.504-0.056,0.895-0.084,1.146H382.298z M389.522,485.018c0.028-1.568-0.644-4.004-3.416-4.004
			c-2.491,0-3.584,2.297-3.779,4.004H389.522z"/>
		<path fill="#2F8ECD" d="M394.618,490.59c0.728,0.477,2.016,0.98,3.248,0.98c1.792,0,2.632-0.896,2.632-2.016
			c0-1.178-0.7-1.82-2.52-2.492c-2.437-0.869-3.584-2.213-3.584-3.836c0-2.186,1.764-3.977,4.676-3.977
			c1.372,0,2.576,0.393,3.332,0.84l-0.616,1.793c-0.532-0.336-1.512-0.785-2.772-0.785c-1.455,0-2.268,0.84-2.268,1.848
			c0,1.121,0.812,1.625,2.576,2.297c2.352,0.896,3.556,2.072,3.556,4.088c0,2.379-1.848,4.061-5.067,4.061
			c-1.484,0-2.856-0.365-3.809-0.924L394.618,490.59z"/>
		<path fill="#2F8ECD" d="M406.042,483.982c0-1.736-0.056-3.137-0.112-4.424h2.212l0.112,2.324h0.056
			c1.009-1.652,2.604-2.633,4.816-2.633c3.276,0,5.74,2.771,5.74,6.889c0,4.871-2.968,7.279-6.16,7.279
			c-1.792,0-3.36-0.783-4.172-2.129h-0.057v7.365h-2.436V483.982z M408.477,487.594c0,0.363,0.057,0.699,0.112,1.008
			c0.448,1.709,1.933,2.885,3.696,2.885c2.604,0,4.116-2.129,4.116-5.236c0-2.717-1.429-5.041-4.032-5.041
			c-1.68,0-3.248,1.205-3.724,3.053c-0.084,0.309-0.169,0.672-0.169,1.008V487.594z"/>
		<path fill="#2F8ECD" d="M433.312,489.414c0,1.4,0.029,2.631,0.113,3.695h-2.186l-0.139-2.211h-0.057
			c-0.645,1.092-2.072,2.52-4.48,2.52c-2.127,0-4.675-1.176-4.675-5.936v-7.924h2.464v7.504c0,2.576,0.783,4.311,3.023,4.311
			c1.652,0,2.801-1.146,3.248-2.238c0.141-0.365,0.225-0.812,0.225-1.262v-8.314h2.463V489.414z"/>
		<path fill="#2F8ECD" d="M438.773,486.781c0.055,3.332,2.184,4.705,4.646,4.705c1.766,0,2.828-0.309,3.754-0.701l0.42,1.766
			c-0.869,0.391-2.354,0.84-4.51,0.84c-4.172,0-6.662-2.744-6.662-6.832s2.406-7.309,6.355-7.309c4.424,0,5.6,3.893,5.6,6.385
			c0,0.504-0.057,0.895-0.084,1.146H438.773z M445.996,485.018c0.029-1.568-0.643-4.004-3.416-4.004
			c-2.49,0-3.584,2.297-3.779,4.004H445.996z M446.584,473.705l-3.416,4.004h-1.764l2.465-4.004H446.584z"/>
		<path fill="#2F8ECD" d="M451.092,490.59c0.729,0.477,2.016,0.98,3.248,0.98c1.793,0,2.633-0.896,2.633-2.016
			c0-1.178-0.701-1.82-2.52-2.492c-2.438-0.869-3.584-2.213-3.584-3.836c0-2.186,1.764-3.977,4.676-3.977
			c1.371,0,2.576,0.393,3.332,0.84l-0.617,1.793c-0.531-0.336-1.512-0.785-2.771-0.785c-1.455,0-2.268,0.84-2.268,1.848
			c0,1.121,0.812,1.625,2.576,2.297c2.352,0.896,3.555,2.072,3.555,4.088c0,2.379-1.848,4.061-5.066,4.061
			c-1.484,0-2.857-0.365-3.809-0.924L451.092,490.59z"/>
		<path fill="#2F8ECD" d="M480.156,473.23v16.379c0,1.205,0.027,2.576,0.111,3.5h-2.213l-0.111-2.352h-0.057
			c-0.756,1.512-2.406,2.66-4.619,2.66c-3.275,0-5.795-2.771-5.795-6.889c-0.029-4.508,2.771-7.279,6.074-7.279
			c2.072,0,3.473,0.98,4.088,2.072h0.057v-8.092H480.156z M477.691,485.074c0-0.309-0.027-0.729-0.111-1.037
			c-0.365-1.566-1.709-2.855-3.557-2.855c-2.547,0-4.061,2.24-4.061,5.236c0,2.744,1.346,5.012,4.004,5.012
			c1.652,0,3.164-1.092,3.613-2.939c0.084-0.336,0.111-0.672,0.111-1.064V485.074z"/>
		<path fill="#2F8ECD" d="M485.615,486.781c0.057,3.332,2.184,4.705,4.648,4.705c1.764,0,2.828-0.309,3.752-0.701l0.42,1.766
			c-0.867,0.391-2.352,0.84-4.508,0.84c-4.172,0-6.664-2.744-6.664-6.832s2.408-7.309,6.355-7.309c4.424,0,5.6,3.893,5.6,6.385
			c0,0.504-0.055,0.895-0.084,1.146H485.615z M492.84,485.018c0.027-1.568-0.645-4.004-3.416-4.004
			c-2.492,0-3.584,2.297-3.779,4.004H492.84z"/>
		<path fill="#2F8ECD" d="M497.936,490.59c0.727,0.477,2.016,0.98,3.248,0.98c1.791,0,2.631-0.896,2.631-2.016
			c0-1.178-0.699-1.82-2.52-2.492c-2.436-0.869-3.584-2.213-3.584-3.836c0-2.186,1.764-3.977,4.676-3.977
			c1.373,0,2.576,0.393,3.332,0.84l-0.615,1.793c-0.533-0.336-1.512-0.785-2.773-0.785c-1.455,0-2.268,0.84-2.268,1.848
			c0,1.121,0.812,1.625,2.576,2.297c2.352,0.896,3.557,2.072,3.557,4.088c0,2.379-1.848,4.061-5.068,4.061
			c-1.484,0-2.855-0.365-3.809-0.924L497.936,490.59z"/>
		<path fill="#2F8ECD" d="M510.73,486.781c0.057,3.332,2.184,4.705,4.648,4.705c1.764,0,2.828-0.309,3.752-0.701l0.42,1.766
			c-0.867,0.391-2.352,0.84-4.508,0.84c-4.172,0-6.664-2.744-6.664-6.832s2.408-7.309,6.355-7.309c4.424,0,5.6,3.893,5.6,6.385
			c0,0.504-0.055,0.895-0.084,1.146H510.73z M517.955,485.018c0.027-1.568-0.645-4.004-3.416-4.004
			c-2.492,0-3.584,2.297-3.779,4.004H517.955z"/>
		<path fill="#2F8ECD" d="M530.891,493.109l-0.197-1.707h-0.084c-0.756,1.064-2.211,2.016-4.143,2.016
			c-2.744,0-4.145-1.932-4.145-3.893c0-3.275,2.912-5.068,8.148-5.039v-0.281c0-1.119-0.309-3.135-3.08-3.135
			c-1.26,0-2.576,0.393-3.529,1.008l-0.559-1.625c1.119-0.727,2.744-1.203,4.451-1.203c4.145,0,5.152,2.828,5.152,5.543v5.068
			c0,1.176,0.057,2.324,0.225,3.248H530.891z M530.525,486.193c-2.688-0.055-5.738,0.42-5.738,3.053
			c0,1.596,1.062,2.352,2.322,2.352c1.766,0,2.885-1.119,3.277-2.268c0.084-0.252,0.139-0.531,0.139-0.785V486.193z"/>
		<path fill="#2F8ECD" d="M536.547,490.59c0.727,0.477,2.016,0.98,3.248,0.98c1.791,0,2.631-0.896,2.631-2.016
			c0-1.178-0.699-1.82-2.52-2.492c-2.436-0.869-3.584-2.213-3.584-3.836c0-2.186,1.764-3.977,4.676-3.977
			c1.373,0,2.576,0.393,3.332,0.84l-0.615,1.793c-0.533-0.336-1.512-0.785-2.773-0.785c-1.455,0-2.268,0.84-2.268,1.848
			c0,1.121,0.812,1.625,2.576,2.297c2.352,0.896,3.557,2.072,3.557,4.088c0,2.379-1.848,4.061-5.068,4.061
			c-1.484,0-2.855-0.365-3.809-0.924L536.547,490.59z"/>
		<path fill="#2F8ECD" d="M566.17,486.223c0,5.012-3.473,7.195-6.748,7.195c-3.668,0-6.496-2.688-6.496-6.973
			c0-4.535,2.969-7.195,6.721-7.195C563.537,479.25,566.17,482.078,566.17,486.223z M555.418,486.361
			c0,2.969,1.707,5.209,4.115,5.209c2.354,0,4.117-2.213,4.117-5.264c0-2.297-1.148-5.209-4.061-5.209
			S555.418,483.785,555.418,486.361z"/>
		<path fill="#2F8ECD" d="M569.277,483.227c0-1.4-0.027-2.549-0.111-3.668h2.156l0.111,2.184h0.084
			c0.756-1.289,2.016-2.492,4.256-2.492c1.848,0,3.248,1.119,3.836,2.717h0.057c0.42-0.758,0.951-1.346,1.512-1.766
			c0.812-0.615,1.709-0.951,2.996-0.951c1.791,0,4.451,1.176,4.451,5.881v7.979h-2.406v-7.672c0-2.604-0.953-4.172-2.941-4.172
			c-1.4,0-2.492,1.037-2.912,2.24c-0.111,0.336-0.195,0.783-0.195,1.232v8.371h-2.408v-8.119c0-2.156-0.951-3.725-2.828-3.725
			c-1.539,0-2.66,1.232-3.051,2.465c-0.141,0.363-0.197,0.783-0.197,1.203v8.176h-2.408V483.227z"/>
		<path fill="#2F8ECD" d="M595.373,475.75c0.029,0.84-0.588,1.512-1.568,1.512c-0.867,0-1.482-0.672-1.482-1.512
			c0-0.867,0.643-1.541,1.539-1.541C594.785,474.209,595.373,474.883,595.373,475.75z M592.629,493.109v-13.551h2.465v13.551
			H592.629z"/>
		<path fill="#2F8ECD" d="M602.148,475.666v3.893h3.529v1.875h-3.529v7.309c0,1.68,0.477,2.631,1.85,2.631
			c0.643,0,1.119-0.084,1.428-0.168l0.111,1.85c-0.477,0.195-1.232,0.336-2.184,0.336c-1.148,0-2.072-0.365-2.66-1.037
			c-0.699-0.729-0.953-1.932-0.953-3.527v-7.393h-2.1v-1.875h2.1v-3.248L602.148,475.666z"/>
		<path fill="#2F8ECD" d="M611.193,475.75c0.027,0.84-0.588,1.512-1.568,1.512c-0.869,0-1.484-0.672-1.484-1.512
			c0-0.867,0.645-1.541,1.541-1.541C610.605,474.209,611.193,474.883,611.193,475.75z M608.449,493.109v-13.551h2.463v13.551
			H608.449z"/>
		<path fill="#2F8ECD" d="M615,483.785c0-1.596-0.027-2.967-0.111-4.227h2.156l0.084,2.66h0.111c0.617-1.82,2.1-2.969,3.752-2.969
			c0.281,0,0.477,0.027,0.701,0.084v2.324c-0.252-0.057-0.504-0.084-0.842-0.084c-1.734,0-2.967,1.316-3.303,3.164
			c-0.057,0.336-0.113,0.729-0.113,1.148v7.223H615V483.785z"/>
		<path fill="#2F8ECD" d="M630.092,473.23h2.465v19.879h-2.465V473.23z"/>
		<path fill="#2F8ECD" d="M644.203,493.109l-0.195-1.707h-0.084c-0.756,1.064-2.213,2.016-4.145,2.016
			c-2.744,0-4.143-1.932-4.143-3.893c0-3.275,2.91-5.068,8.146-5.039v-0.281c0-1.119-0.307-3.135-3.08-3.135
			c-1.26,0-2.576,0.393-3.527,1.008l-0.561-1.625c1.121-0.727,2.744-1.203,4.453-1.203c4.143,0,5.15,2.828,5.15,5.543v5.068
			c0,1.176,0.057,2.324,0.225,3.248H644.203z M643.84,486.193c-2.688-0.055-5.74,0.42-5.74,3.053c0,1.596,1.064,2.352,2.324,2.352
			c1.764,0,2.885-1.119,3.275-2.268c0.084-0.252,0.141-0.531,0.141-0.785V486.193z"/>
		<path fill="#2F8ECD" d="M656.131,483.982c0-1.736-0.055-3.137-0.111-4.424h2.211l0.113,2.324h0.055
			c1.01-1.652,2.605-2.633,4.816-2.633c3.277,0,5.74,2.771,5.74,6.889c0,4.871-2.967,7.279-6.16,7.279
			c-1.791,0-3.359-0.783-4.172-2.129h-0.057v7.365h-2.436V483.982z M658.566,487.594c0,0.363,0.057,0.699,0.113,1.008
			c0.447,1.709,1.932,2.885,3.695,2.885c2.604,0,4.117-2.129,4.117-5.236c0-2.717-1.43-5.041-4.033-5.041
			c-1.68,0-3.248,1.205-3.723,3.053c-0.084,0.309-0.17,0.672-0.17,1.008V487.594z"/>
		<path fill="#2F8ECD" d="M672.062,483.785c0-1.596-0.027-2.967-0.111-4.227h2.156l0.084,2.66h0.111
			c0.617-1.82,2.1-2.969,3.752-2.969c0.281,0,0.477,0.027,0.701,0.084v2.324c-0.252-0.057-0.504-0.084-0.842-0.084
			c-1.734,0-2.967,1.316-3.303,3.164c-0.057,0.336-0.113,0.729-0.113,1.148v7.223h-2.436V483.785z"/>
		<path fill="#2F8ECD" d="M682.311,486.781c0.057,3.332,2.184,4.705,4.648,4.705c1.764,0,2.828-0.309,3.752-0.701l0.42,1.766
			c-0.867,0.391-2.352,0.84-4.508,0.84c-4.172,0-6.664-2.744-6.664-6.832s2.408-7.309,6.355-7.309c4.424,0,5.6,3.893,5.6,6.385
			c0,0.504-0.055,0.895-0.084,1.146H682.311z M689.535,485.018c0.027-1.568-0.645-4.004-3.416-4.004
			c-2.492,0-3.584,2.297-3.779,4.004H689.535z"/>
		<path fill="#2F8ECD" d="M706.643,479.559c-0.057,0.979-0.111,2.072-0.111,3.723v7.869c0,3.107-0.617,5.012-1.934,6.188
			c-1.314,1.232-3.219,1.623-4.928,1.623c-1.623,0-3.416-0.391-4.508-1.119l0.617-1.875c0.895,0.559,2.295,1.062,3.975,1.062
			c2.52,0,4.369-1.316,4.369-4.73v-1.514h-0.057c-0.756,1.26-2.213,2.27-4.312,2.27c-3.359,0-5.768-2.857-5.768-6.609
			c0-4.592,2.996-7.195,6.104-7.195c2.352,0,3.641,1.232,4.229,2.352h0.057l0.111-2.043H706.643z M704.094,484.906
			c0-0.42-0.027-0.785-0.139-1.121c-0.449-1.428-1.652-2.604-3.445-2.604c-2.352,0-4.031,1.988-4.031,5.125
			c0,2.66,1.344,4.871,4.004,4.871c1.512,0,2.885-0.951,3.416-2.52c0.141-0.42,0.195-0.896,0.195-1.316V484.906z"/>
		<path fill="#2F8ECD" d="M721.957,489.414c0,1.4,0.029,2.631,0.113,3.695h-2.186l-0.139-2.211h-0.057
			c-0.645,1.092-2.072,2.52-4.48,2.52c-2.127,0-4.676-1.176-4.676-5.936v-7.924h2.465v7.504c0,2.576,0.783,4.311,3.023,4.311
			c1.652,0,2.801-1.146,3.248-2.238c0.141-0.365,0.225-0.812,0.225-1.262v-8.314h2.463V489.414z"/>
		<path fill="#2F8ECD" d="M726.045,483.227c0-1.4-0.027-2.549-0.111-3.668h2.184l0.141,2.24h0.055
			c0.674-1.289,2.24-2.549,4.48-2.549c1.877,0,4.789,1.119,4.789,5.768v8.092h-2.465v-7.811c0-2.186-0.812-4.006-3.137-4.006
			c-1.623,0-2.883,1.148-3.303,2.521c-0.111,0.307-0.168,0.727-0.168,1.146v8.148h-2.465V483.227z"/>
		<path fill="#2F8ECD" d="M744.441,475.666v3.893h3.529v1.875h-3.529v7.309c0,1.68,0.477,2.631,1.85,2.631
			c0.643,0,1.119-0.084,1.428-0.168l0.111,1.85c-0.477,0.195-1.232,0.336-2.184,0.336c-1.148,0-2.072-0.365-2.66-1.037
			c-0.699-0.729-0.953-1.932-0.953-3.527v-7.393h-2.1v-1.875h2.1v-3.248L744.441,475.666z"/>
		<path fill="#2F8ECD" d="M758.246,493.109l-0.197-1.707h-0.084c-0.756,1.064-2.211,2.016-4.143,2.016
			c-2.744,0-4.145-1.932-4.145-3.893c0-3.275,2.912-5.068,8.148-5.039v-0.281c0-1.119-0.309-3.135-3.08-3.135
			c-1.26,0-2.576,0.393-3.529,1.008l-0.559-1.625c1.119-0.727,2.744-1.203,4.451-1.203c4.145,0,5.152,2.828,5.152,5.543v5.068
			c0,1.176,0.057,2.324,0.225,3.248H758.246z M757.881,486.193c-2.688-0.055-5.738,0.42-5.738,3.053
			c0,1.596,1.062,2.352,2.322,2.352c1.766,0,2.885-1.119,3.277-2.268c0.084-0.252,0.139-0.531,0.139-0.785V486.193z"/>
		<path fill="#2F8ECD" d="M762.643,496.555c0.615-1.652,1.371-4.648,1.68-6.693l2.744-0.279c-0.645,2.379-1.877,5.488-2.66,6.805
			L762.643,496.555z"/>
		<path fill="#2F8ECD" d="M83.096,524.189c0.728,0.477,2.016,0.98,3.248,0.98c1.792,0,2.632-0.896,2.632-2.016
			c0-1.178-0.7-1.82-2.52-2.492c-2.436-0.869-3.584-2.213-3.584-3.836c0-2.186,1.764-3.977,4.676-3.977
			c1.372,0,2.576,0.393,3.332,0.84l-0.616,1.793c-0.532-0.336-1.512-0.785-2.772-0.785c-1.456,0-2.268,0.84-2.268,1.848
			c0,1.121,0.812,1.625,2.576,2.297c2.352,0.896,3.556,2.072,3.556,4.088c0,2.379-1.848,4.061-5.068,4.061
			c-1.484,0-2.856-0.365-3.808-0.924L83.096,524.189z"/>
		<path fill="#2F8ECD" d="M106.784,519.822c0,5.012-3.472,7.195-6.748,7.195c-3.668,0-6.496-2.688-6.496-6.973
			c0-4.535,2.968-7.195,6.72-7.195C104.152,512.85,106.784,515.678,106.784,519.822z M96.032,519.961
			c0,2.969,1.708,5.209,4.116,5.209c2.352,0,4.116-2.213,4.116-5.264c0-2.297-1.148-5.209-4.06-5.209S96.032,517.385,96.032,519.961
			z M103.844,507.305l-3.416,4.004h-1.764l2.464-4.004H103.844z"/>
		<path fill="#2F8ECD" d="M109.892,506.83h2.464v19.879h-2.464V506.83z"/>
		<path fill="#2F8ECD" d="M128.764,519.822c0,5.012-3.472,7.195-6.748,7.195c-3.668,0-6.496-2.688-6.496-6.973
			c0-4.535,2.968-7.195,6.72-7.195C126.132,512.85,128.764,515.678,128.764,519.822z M118.012,519.961
			c0,2.969,1.708,5.209,4.116,5.209c2.352,0,4.116-2.213,4.116-5.264c0-2.297-1.148-5.209-4.06-5.209
			S118.012,517.385,118.012,519.961z"/>
		<path fill="#2F8ECD" d="M149.512,506.83v16.379c0,1.205,0.028,2.576,0.112,3.5h-2.212l-0.112-2.352h-0.056
			c-0.756,1.512-2.408,2.66-4.62,2.66c-3.276,0-5.796-2.771-5.796-6.889c-0.028-4.508,2.772-7.279,6.076-7.279
			c2.072,0,3.472,0.98,4.088,2.072h0.056v-8.092H149.512z M147.048,518.674c0-0.309-0.028-0.729-0.112-1.037
			c-0.364-1.566-1.708-2.855-3.556-2.855c-2.548,0-4.06,2.24-4.06,5.236c0,2.744,1.344,5.012,4.004,5.012
			c1.652,0,3.164-1.092,3.612-2.939c0.084-0.336,0.112-0.672,0.112-1.064V518.674z"/>
		<path fill="#2F8ECD" d="M154.972,520.381c0.056,3.332,2.184,4.705,4.648,4.705c1.764,0,2.828-0.309,3.752-0.701l0.42,1.766
			c-0.868,0.391-2.352,0.84-4.508,0.84c-4.172,0-6.664-2.744-6.664-6.832s2.408-7.309,6.356-7.309c4.424,0,5.6,3.893,5.6,6.385
			c0,0.504-0.056,0.895-0.084,1.146H154.972z M162.196,518.617c0.027-1.568-0.645-4.004-3.416-4.004
			c-2.492,0-3.584,2.297-3.78,4.004H162.196z"/>
		<path fill="#2F8ECD" d="M167.515,526.709c0.057-0.924,0.112-2.295,0.112-3.5V506.83h2.436v8.512h0.057
			c0.868-1.512,2.436-2.492,4.62-2.492c3.359,0,5.739,2.801,5.712,6.916c0,4.844-3.052,7.252-6.076,7.252
			c-1.96,0-3.528-0.756-4.536-2.549h-0.084l-0.112,2.24H167.515z M170.063,521.277c0,0.309,0.057,0.615,0.112,0.896
			c0.477,1.707,1.904,2.883,3.696,2.883c2.576,0,4.116-2.1,4.116-5.207c0-2.717-1.4-5.041-4.032-5.041
			c-1.68,0-3.248,1.148-3.752,3.025c-0.056,0.279-0.141,0.615-0.141,1.008V521.277z"/>
		<path fill="#2F8ECD" d="M184.931,520.381c0.056,3.332,2.184,4.705,4.647,4.705c1.765,0,2.828-0.309,3.753-0.701l0.42,1.766
			c-0.868,0.391-2.353,0.84-4.509,0.84c-4.172,0-6.663-2.744-6.663-6.832s2.407-7.309,6.355-7.309c4.424,0,5.6,3.893,5.6,6.385
			c0,0.504-0.056,0.895-0.084,1.146H184.931z M192.155,518.617c0.028-1.568-0.644-4.004-3.416-4.004
			c-2.491,0-3.584,2.297-3.779,4.004H192.155z"/>
		<path fill="#2F8ECD" d="M197.25,524.189c0.728,0.477,2.016,0.98,3.248,0.98c1.792,0,2.632-0.896,2.632-2.016
			c0-1.178-0.7-1.82-2.52-2.492c-2.437-0.869-3.584-2.213-3.584-3.836c0-2.186,1.764-3.977,4.676-3.977
			c1.372,0,2.576,0.393,3.332,0.84l-0.616,1.793c-0.532-0.336-1.512-0.785-2.772-0.785c-1.455,0-2.268,0.84-2.268,1.848
			c0,1.121,0.812,1.625,2.576,2.297c2.352,0.896,3.556,2.072,3.556,4.088c0,2.379-1.848,4.061-5.067,4.061
			c-1.484,0-2.856-0.365-3.809-0.924L197.25,524.189z"/>
		<path fill="#2F8ECD" d="M214.61,516.826c0-1.4-0.028-2.549-0.112-3.668h2.156l0.112,2.184h0.084
			c0.756-1.289,2.016-2.492,4.256-2.492c1.848,0,3.248,1.119,3.836,2.717h0.056c0.42-0.758,0.952-1.346,1.513-1.766
			c0.812-0.615,1.708-0.951,2.995-0.951c1.792,0,4.452,1.176,4.452,5.881v7.979h-2.407v-7.672c0-2.604-0.952-4.172-2.94-4.172
			c-1.4,0-2.492,1.037-2.912,2.24c-0.112,0.336-0.196,0.783-0.196,1.232v8.371h-2.407v-8.119c0-2.156-0.952-3.725-2.828-3.725
			c-1.54,0-2.66,1.232-3.052,2.465c-0.141,0.363-0.196,0.783-0.196,1.203v8.176h-2.408V516.826z"/>
		<path fill="#2F8ECD" d="M245.465,526.709l-0.196-1.707h-0.084c-0.756,1.064-2.212,2.016-4.144,2.016
			c-2.744,0-4.144-1.932-4.144-3.893c0-3.275,2.911-5.068,8.147-5.039v-0.281c0-1.119-0.308-3.135-3.08-3.135
			c-1.26,0-2.576,0.393-3.528,1.008l-0.56-1.625c1.12-0.727,2.744-1.203,4.452-1.203c4.144,0,5.151,2.828,5.151,5.543v5.068
			c0,1.176,0.057,2.324,0.225,3.248H245.465z M245.101,519.793c-2.688-0.055-5.739,0.42-5.739,3.053
			c0,1.596,1.063,2.352,2.323,2.352c1.765,0,2.885-1.119,3.276-2.268c0.084-0.252,0.14-0.531,0.14-0.785V519.793z"/>
		<path fill="#2F8ECD" d="M251.458,517.385c0-1.596-0.028-2.967-0.112-4.227h2.156l0.084,2.66h0.112
			c0.616-1.82,2.1-2.969,3.752-2.969c0.28,0,0.476,0.027,0.7,0.084v2.324c-0.252-0.057-0.504-0.084-0.841-0.084
			c-1.735,0-2.968,1.316-3.304,3.164c-0.056,0.336-0.112,0.729-0.112,1.148v7.223h-2.436V517.385z"/>
		<path fill="#2F8ECD" d="M269.994,526.205c-0.645,0.336-2.072,0.785-3.893,0.785c-4.088,0-6.747-2.773-6.747-6.916
			c0-4.172,2.855-7.197,7.279-7.197c1.456,0,2.744,0.365,3.416,0.701l-0.56,1.904c-0.588-0.336-1.513-0.645-2.856-0.645
			c-3.107,0-4.788,2.295-4.788,5.123c0,3.137,2.017,5.068,4.704,5.068c1.4,0,2.324-0.363,3.024-0.672L269.994,526.205z"/>
		<path fill="#2F8ECD" d="M280.381,526.709l-0.196-1.707h-0.084c-0.756,1.064-2.212,2.016-4.144,2.016
			c-2.744,0-4.144-1.932-4.144-3.893c0-3.275,2.911-5.068,8.147-5.039v-0.281c0-1.119-0.308-3.135-3.08-3.135
			c-1.26,0-2.576,0.393-3.528,1.008l-0.56-1.625c1.12-0.727,2.744-1.203,4.452-1.203c4.144,0,5.151,2.828,5.151,5.543v5.068
			c0,1.176,0.057,2.324,0.225,3.248H280.381z M280.017,519.793c-2.688-0.055-5.739,0.42-5.739,3.053
			c0,1.596,1.063,2.352,2.323,2.352c1.765,0,2.885-1.119,3.276-2.268c0.084-0.252,0.14-0.531,0.14-0.785V519.793z"/>
		<path fill="#2F8ECD" d="M286.374,517.385c0-1.596-0.028-2.967-0.112-4.227h2.156l0.084,2.66h0.112
			c0.616-1.82,2.1-2.969,3.752-2.969c0.28,0,0.476,0.027,0.7,0.084v2.324c-0.252-0.057-0.504-0.084-0.841-0.084
			c-1.735,0-2.968,1.316-3.304,3.164c-0.056,0.336-0.112,0.729-0.112,1.148v7.223h-2.436V517.385z"/>
		<path fill="#2F8ECD" d="M301.465,506.83h2.464v19.879h-2.464V506.83z"/>
		<path fill="#2F8ECD" d="M315.577,526.709l-0.196-1.707h-0.084c-0.756,1.064-2.212,2.016-4.144,2.016
			c-2.744,0-4.144-1.932-4.144-3.893c0-3.275,2.911-5.068,8.147-5.039v-0.281c0-1.119-0.308-3.135-3.08-3.135
			c-1.26,0-2.576,0.393-3.528,1.008l-0.56-1.625c1.12-0.727,2.744-1.203,4.452-1.203c4.144,0,5.151,2.828,5.151,5.543v5.068
			c0,1.176,0.057,2.324,0.225,3.248H315.577z M315.212,519.793c-2.688-0.055-5.739,0.42-5.739,3.053
			c0,1.596,1.063,2.352,2.323,2.352c1.765,0,2.885-1.119,3.276-2.268c0.084-0.252,0.14-0.531,0.14-0.785V519.793z"/>
		<path fill="#2F8ECD" d="M339.768,519.822c0,5.012-3.472,7.195-6.748,7.195c-3.668,0-6.495-2.688-6.495-6.973
			c0-4.535,2.968-7.195,6.72-7.195C337.136,512.85,339.768,515.678,339.768,519.822z M329.016,519.961
			c0,2.969,1.708,5.209,4.116,5.209c2.353,0,4.116-2.213,4.116-5.264c0-2.297-1.148-5.209-4.061-5.209
			C330.277,514.697,329.016,517.385,329.016,519.961z"/>
		<path fill="#2F8ECD" d="M342.876,517.582c0-1.736-0.056-3.137-0.112-4.424h2.212l0.112,2.324h0.056
			c1.009-1.652,2.604-2.633,4.816-2.633c3.276,0,5.74,2.771,5.74,6.889c0,4.871-2.968,7.279-6.16,7.279
			c-1.792,0-3.36-0.783-4.172-2.129h-0.056v7.365h-2.437V517.582z M345.313,521.193c0,0.363,0.056,0.699,0.111,1.008
			c0.448,1.709,1.933,2.885,3.696,2.885c2.604,0,4.116-2.129,4.116-5.236c0-2.717-1.429-5.041-4.032-5.041
			c-1.68,0-3.248,1.205-3.724,3.053c-0.084,0.309-0.168,0.672-0.168,1.008V521.193z"/>
		<path fill="#2F8ECD" d="M368.468,526.205c-0.645,0.336-2.072,0.785-3.893,0.785c-4.088,0-6.747-2.773-6.747-6.916
			c0-4.172,2.855-7.197,7.279-7.197c1.456,0,2.744,0.365,3.416,0.701l-0.56,1.904c-0.588-0.336-1.513-0.645-2.856-0.645
			c-3.107,0-4.788,2.295-4.788,5.123c0,3.137,2.017,5.068,4.704,5.068c1.4,0,2.324-0.363,3.024-0.672L368.468,526.205z"/>
		<path fill="#2F8ECD" d="M374.096,509.35c0.028,0.84-0.588,1.512-1.568,1.512c-0.868,0-1.483-0.672-1.483-1.512
			c0-0.867,0.644-1.541,1.54-1.541C373.508,507.809,374.096,508.482,374.096,509.35z M371.352,526.709v-13.551h2.464v13.551H371.352
			z"/>
		<path fill="#2F8ECD" d="M390.167,519.822c0,5.012-3.472,7.195-6.748,7.195c-3.668,0-6.495-2.688-6.495-6.973
			c0-4.535,2.968-7.195,6.72-7.195C387.536,512.85,390.167,515.678,390.167,519.822z M379.416,519.961
			c0,2.969,1.708,5.209,4.116,5.209c2.353,0,4.116-2.213,4.116-5.264c0-2.297-1.148-5.209-4.061-5.209
			C380.676,514.697,379.416,517.385,379.416,519.961z M387.228,507.305l-3.416,4.004h-1.765l2.465-4.004H387.228z"/>
		<path fill="#2F8ECD" d="M393.276,516.826c0-1.4-0.028-2.549-0.112-3.668h2.185l0.14,2.24h0.056c0.673-1.289,2.24-2.549,4.48-2.549
			c1.876,0,4.788,1.119,4.788,5.768v8.092h-2.464v-7.811c0-2.186-0.812-4.006-3.137-4.006c-1.623,0-2.884,1.148-3.304,2.521
			c-0.111,0.307-0.168,0.727-0.168,1.146v8.148h-2.464V516.826z"/>
		<path fill="#2F8ECD" d="M414.416,524.189c0.728,0.477,2.016,0.98,3.248,0.98c1.792,0,2.632-0.896,2.632-2.016
			c0-1.178-0.7-1.82-2.52-2.492c-2.437-0.869-3.584-2.213-3.584-3.836c0-2.186,1.764-3.977,4.676-3.977
			c1.372,0,2.576,0.393,3.332,0.84l-0.616,1.793c-0.532-0.336-1.512-0.785-2.772-0.785c-1.455,0-2.268,0.84-2.268,1.848
			c0,1.121,0.812,1.625,2.576,2.297c2.352,0.896,3.556,2.072,3.556,4.088c0,2.379-1.848,4.061-5.068,4.061
			c-1.484,0-2.856-0.365-3.809-0.924L414.416,524.189z"/>
		<path fill="#2F8ECD" d="M427.211,520.381c0.057,3.332,2.184,4.705,4.648,4.705c1.764,0,2.828-0.309,3.752-0.701l0.42,1.766
			c-0.867,0.391-2.352,0.84-4.508,0.84c-4.172,0-6.664-2.744-6.664-6.832s2.408-7.309,6.355-7.309c4.424,0,5.6,3.893,5.6,6.385
			c0,0.504-0.055,0.895-0.084,1.146H427.211z M434.436,518.617c0.027-1.568-0.645-4.004-3.416-4.004
			c-2.492,0-3.584,2.297-3.779,4.004H434.436z"/>
		<path fill="#2F8ECD" d="M439.867,506.83h2.463v19.879h-2.463V506.83z"/>
		<path fill="#2F8ECD" d="M447.846,520.381c0.057,3.332,2.184,4.705,4.648,4.705c1.764,0,2.828-0.309,3.752-0.701l0.42,1.766
			c-0.867,0.391-2.352,0.84-4.508,0.84c-4.172,0-6.664-2.744-6.664-6.832s2.408-7.309,6.355-7.309c4.424,0,5.6,3.893,5.6,6.385
			c0,0.504-0.055,0.895-0.084,1.146H447.846z M455.07,518.617c0.027-1.568-0.645-4.004-3.416-4.004
			c-2.492,0-3.584,2.297-3.779,4.004H455.07z"/>
		<path fill="#2F8ECD" d="M470.162,526.205c-0.645,0.336-2.072,0.785-3.893,0.785c-4.088,0-6.748-2.773-6.748-6.916
			c0-4.172,2.855-7.197,7.279-7.197c1.457,0,2.744,0.365,3.416,0.701l-0.559,1.904c-0.588-0.336-1.514-0.645-2.857-0.645
			c-3.107,0-4.787,2.295-4.787,5.123c0,3.137,2.016,5.068,4.703,5.068c1.4,0,2.324-0.363,3.025-0.672L470.162,526.205z"/>
		<path fill="#2F8ECD" d="M482.539,526.205c-0.645,0.336-2.072,0.785-3.893,0.785c-4.088,0-6.748-2.773-6.748-6.916
			c0-4.172,2.855-7.197,7.279-7.197c1.457,0,2.744,0.365,3.416,0.701l-0.559,1.904c-0.588-0.336-1.514-0.645-2.857-0.645
			c-3.107,0-4.787,2.295-4.787,5.123c0,3.137,2.016,5.068,4.703,5.068c1.4,0,2.324-0.363,3.025-0.672L482.539,526.205z"/>
		<path fill="#2F8ECD" d="M488.166,509.35c0.027,0.84-0.588,1.512-1.568,1.512c-0.869,0-1.484-0.672-1.484-1.512
			c0-0.867,0.645-1.541,1.541-1.541C487.578,507.809,488.166,508.482,488.166,509.35z M485.422,526.709v-13.551h2.463v13.551
			H485.422z"/>
		<path fill="#2F8ECD" d="M504.238,519.822c0,5.012-3.473,7.195-6.748,7.195c-3.668,0-6.496-2.688-6.496-6.973
			c0-4.535,2.969-7.195,6.721-7.195C501.605,512.85,504.238,515.678,504.238,519.822z M493.486,519.961
			c0,2.969,1.707,5.209,4.115,5.209c2.354,0,4.117-2.213,4.117-5.264c0-2.297-1.148-5.209-4.061-5.209
			S493.486,517.385,493.486,519.961z"/>
		<path fill="#2F8ECD" d="M507.346,516.826c0-1.4-0.029-2.549-0.113-3.668h2.186l0.139,2.24h0.057
			c0.672-1.289,2.24-2.549,4.48-2.549c1.875,0,4.787,1.119,4.787,5.768v8.092h-2.463v-7.811c0-2.186-0.812-4.006-3.137-4.006
			c-1.623,0-2.885,1.148-3.305,2.521c-0.111,0.307-0.168,0.727-0.168,1.146v8.148h-2.463V516.826z"/>
		<path fill="#2F8ECD" d="M530.391,526.709l-0.197-1.707h-0.084c-0.756,1.064-2.211,2.016-4.143,2.016
			c-2.744,0-4.145-1.932-4.145-3.893c0-3.275,2.912-5.068,8.148-5.039v-0.281c0-1.119-0.309-3.135-3.08-3.135
			c-1.26,0-2.576,0.393-3.529,1.008l-0.559-1.625c1.119-0.727,2.744-1.203,4.451-1.203c4.145,0,5.152,2.828,5.152,5.543v5.068
			c0,1.176,0.057,2.324,0.225,3.248H530.391z M530.025,519.793c-2.688-0.055-5.738,0.42-5.738,3.053
			c0,1.596,1.062,2.352,2.322,2.352c1.766,0,2.885-1.119,3.277-2.268c0.084-0.252,0.139-0.531,0.139-0.785V519.793z"/>
		<path fill="#2F8ECD" d="M548.086,506.83v16.379c0,1.205,0.029,2.576,0.113,3.5h-2.213l-0.111-2.352h-0.057
			c-0.756,1.512-2.408,2.66-4.619,2.66c-3.277,0-5.797-2.771-5.797-6.889c-0.027-4.508,2.771-7.279,6.076-7.279
			c2.072,0,3.473,0.98,4.088,2.072h0.057v-8.092H548.086z M545.623,518.674c0-0.309-0.029-0.729-0.113-1.037
			c-0.363-1.566-1.707-2.855-3.555-2.855c-2.549,0-4.061,2.24-4.061,5.236c0,2.744,1.344,5.012,4.004,5.012
			c1.652,0,3.164-1.092,3.611-2.939c0.084-0.336,0.113-0.672,0.113-1.064V518.674z"/>
		<path fill="#2F8ECD" d="M559.678,526.709l-0.197-1.707h-0.084c-0.756,1.064-2.211,2.016-4.143,2.016
			c-2.744,0-4.145-1.932-4.145-3.893c0-3.275,2.912-5.068,8.148-5.039v-0.281c0-1.119-0.309-3.135-3.08-3.135
			c-1.26,0-2.576,0.393-3.529,1.008l-0.559-1.625c1.119-0.727,2.744-1.203,4.451-1.203c4.145,0,5.152,2.828,5.152,5.543v5.068
			c0,1.176,0.057,2.324,0.225,3.248H559.678z M559.312,519.793c-2.688-0.055-5.738,0.42-5.738,3.053
			c0,1.596,1.062,2.352,2.322,2.352c1.766,0,2.885-1.119,3.277-2.268c0.084-0.252,0.139-0.531,0.139-0.785V519.793z"/>
		<path fill="#2F8ECD" d="M571.605,516.826c0-1.4-0.029-2.549-0.113-3.668h2.186l0.139,2.24h0.057
			c0.672-1.289,2.24-2.549,4.48-2.549c1.875,0,4.787,1.119,4.787,5.768v8.092h-2.463v-7.811c0-2.186-0.812-4.006-3.137-4.006
			c-1.623,0-2.885,1.148-3.305,2.521c-0.111,0.307-0.168,0.727-0.168,1.146v8.148h-2.463V516.826z"/>
		<path fill="#2F8ECD" d="M598.486,523.014c0,1.4,0.027,2.631,0.111,3.695h-2.184l-0.141-2.211h-0.055
			c-0.645,1.092-2.072,2.52-4.48,2.52c-2.129,0-4.676-1.176-4.676-5.936v-7.924h2.463v7.504c0,2.576,0.785,4.311,3.025,4.311
			c1.65,0,2.799-1.146,3.248-2.238c0.139-0.365,0.223-0.812,0.223-1.262v-8.314h2.465V523.014z"/>
		<path fill="#2F8ECD" d="M603.945,520.381c0.057,3.332,2.184,4.705,4.648,4.705c1.764,0,2.828-0.309,3.752-0.701l0.42,1.766
			c-0.867,0.391-2.352,0.84-4.508,0.84c-4.172,0-6.664-2.744-6.664-6.832s2.408-7.309,6.355-7.309c4.424,0,5.6,3.893,5.6,6.385
			c0,0.504-0.055,0.895-0.084,1.146H603.945z M611.17,518.617c0.027-1.568-0.645-4.004-3.416-4.004
			c-2.492,0-3.584,2.297-3.779,4.004H611.17z"/>
		<path fill="#2F8ECD" d="M617.553,513.158l2.66,7.615c0.447,1.232,0.812,2.352,1.092,3.473h0.084
			c0.309-1.121,0.701-2.24,1.148-3.473l2.633-7.615h2.574l-5.318,13.551h-2.354l-5.15-13.551H617.553z"/>
		<path fill="#2F8ECD" d="M637.461,526.709l-0.197-1.707h-0.084c-0.756,1.064-2.211,2.016-4.143,2.016
			c-2.744,0-4.145-1.932-4.145-3.893c0-3.275,2.912-5.068,8.148-5.039v-0.281c0-1.119-0.309-3.135-3.08-3.135
			c-1.26,0-2.576,0.393-3.529,1.008l-0.559-1.625c1.119-0.727,2.744-1.203,4.451-1.203c4.145,0,5.152,2.828,5.152,5.543v5.068
			c0,1.176,0.057,2.324,0.225,3.248H637.461z M637.096,519.793c-2.688-0.055-5.738,0.42-5.738,3.053
			c0,1.596,1.062,2.352,2.322,2.352c1.766,0,2.885-1.119,3.277-2.268c0.084-0.252,0.139-0.531,0.139-0.785V519.793z"/>
		<path fill="#2F8ECD" d="M643.453,516.826c0-1.4-0.029-2.549-0.113-3.668h2.156l0.113,2.184h0.084
			c0.756-1.289,2.016-2.492,4.256-2.492c1.848,0,3.248,1.119,3.836,2.717h0.055c0.42-0.758,0.953-1.346,1.514-1.766
			c0.811-0.615,1.707-0.951,2.994-0.951c1.793,0,4.453,1.176,4.453,5.881v7.979h-2.408v-7.672c0-2.604-0.951-4.172-2.939-4.172
			c-1.4,0-2.492,1.037-2.912,2.24c-0.113,0.336-0.197,0.783-0.197,1.232v8.371h-2.406v-8.119c0-2.156-0.953-3.725-2.828-3.725
			c-1.541,0-2.66,1.232-3.053,2.465c-0.141,0.363-0.195,0.783-0.195,1.203v8.176h-2.408V516.826z"/>
		<path fill="#2F8ECD" d="M668.176,520.381c0.057,3.332,2.184,4.705,4.648,4.705c1.764,0,2.828-0.309,3.752-0.701l0.42,1.766
			c-0.867,0.391-2.352,0.84-4.508,0.84c-4.172,0-6.664-2.744-6.664-6.832s2.408-7.309,6.355-7.309c4.424,0,5.6,3.893,5.6,6.385
			c0,0.504-0.055,0.895-0.084,1.146H668.176z M675.4,518.617c0.027-1.568-0.645-4.004-3.416-4.004c-2.492,0-3.584,2.297-3.779,4.004
			H675.4z"/>
		<path fill="#2F8ECD" d="M680.832,516.826c0-1.4-0.029-2.549-0.113-3.668h2.186l0.139,2.24h0.057
			c0.672-1.289,2.24-2.549,4.48-2.549c1.875,0,4.787,1.119,4.787,5.768v8.092h-2.463v-7.811c0-2.186-0.812-4.006-3.137-4.006
			c-1.623,0-2.885,1.148-3.305,2.521c-0.111,0.307-0.168,0.727-0.168,1.146v8.148h-2.463V516.826z"/>
		<path fill="#2F8ECD" d="M699.227,509.266v3.893h3.529v1.875h-3.529v7.309c0,1.68,0.477,2.631,1.85,2.631
			c0.643,0,1.119-0.084,1.428-0.168l0.111,1.85c-0.477,0.195-1.232,0.336-2.184,0.336c-1.148,0-2.072-0.365-2.66-1.037
			c-0.699-0.729-0.953-1.932-0.953-3.527v-7.393h-2.1v-1.875h2.1v-3.248L699.227,509.266z"/>
		<path fill="#2F8ECD" d="M706.73,520.381c0.057,3.332,2.184,4.705,4.648,4.705c1.764,0,2.828-0.309,3.752-0.701l0.42,1.766
			c-0.867,0.391-2.352,0.84-4.508,0.84c-4.172,0-6.664-2.744-6.664-6.832s2.408-7.309,6.355-7.309c4.424,0,5.6,3.893,5.6,6.385
			c0,0.504-0.055,0.895-0.084,1.146H706.73z M713.955,518.617c0.027-1.568-0.645-4.004-3.416-4.004
			c-2.492,0-3.584,2.297-3.779,4.004H713.955z"/>
		<path fill="#2F8ECD" d="M718.463,525.254c0-1.037,0.699-1.764,1.68-1.764s1.652,0.727,1.652,1.764c0,1.008-0.645,1.764-1.68,1.764
			C719.135,527.018,718.463,526.262,718.463,525.254z"/>
	</g>
	
		<image overflow="visible" width="512" height="193" xlink:href="plataforma/Alumno/Captura de pantalla.jpg"  transform="matrix(1 0 0 1 146.0957 104.4492)">
	</image>
	<g>
		<path fill="#2F8ECD" d="M301.564,366.624v20.219h-4.59v-20.219H301.564z"/>
		<path fill="#2F8ECD" d="M305.524,386.843v-20.219h5.34l4.2,7.409c1.2,2.13,2.4,4.65,3.3,6.93h0.09c-0.3-2.67-0.39-5.399-0.39-8.43
			v-5.909h4.2v20.219h-4.8l-4.32-7.8c-1.2-2.16-2.52-4.77-3.51-7.14l-0.09,0.03c0.12,2.67,0.18,5.52,0.18,8.819v6.09H305.524z"/>
		<path fill="#2F8ECD" d="M330.124,370.464h-5.43v-3.84h15.539v3.84h-5.52v16.379h-4.59V370.464z"/>
		<path fill="#2F8ECD" d="M342.663,366.894c1.47-0.24,3.66-0.42,6.09-0.42c3,0,5.1,0.45,6.54,1.59c1.2,0.96,1.86,2.37,1.86,4.229
			c0,2.58-1.83,4.351-3.57,4.98v0.09c1.41,0.57,2.19,1.92,2.7,3.779c0.63,2.28,1.26,4.92,1.65,5.7h-4.68
			c-0.33-0.57-0.81-2.22-1.41-4.71c-0.54-2.52-1.41-3.21-3.27-3.239h-1.38v7.949h-4.53V366.894z M347.193,375.593h1.8
			c2.28,0,3.63-1.14,3.63-2.909c0-1.86-1.26-2.79-3.36-2.82c-1.11,0-1.74,0.09-2.07,0.15V375.593z"/>
		<path fill="#2F8ECD" d="M364.862,366.624v11.639c0,3.48,1.32,5.25,3.66,5.25c2.4,0,3.72-1.68,3.72-5.25v-11.639h4.56v11.339
			c0,6.24-3.149,9.21-8.429,9.21c-5.1,0-8.1-2.82-8.1-9.27v-11.279H364.862z"/>
		<path fill="#2F8ECD" d="M395.612,386.272c-0.84,0.42-2.729,0.87-5.189,0.87c-6.99,0-10.59-4.35-10.59-10.109
			c0-6.899,4.92-10.739,11.04-10.739c2.37,0,4.17,0.479,4.98,0.899l-0.93,3.63c-0.93-0.39-2.22-0.75-3.84-0.75
			c-3.63,0-6.45,2.19-6.45,6.69c0,4.05,2.4,6.6,6.48,6.6c1.38,0,2.91-0.301,3.81-0.66L395.612,386.272z"/>
		<path fill="#2F8ECD" d="M412.562,386.272c-0.84,0.42-2.729,0.87-5.189,0.87c-6.99,0-10.59-4.35-10.59-10.109
			c0-6.899,4.92-10.739,11.04-10.739c2.37,0,4.17,0.479,4.98,0.899l-0.93,3.63c-0.93-0.39-2.22-0.75-3.84-0.75
			c-3.63,0-6.45,2.19-6.45,6.69c0,4.05,2.4,6.6,6.48,6.6c1.38,0,2.91-0.301,3.81-0.66L412.562,386.272z"/>
		<path fill="#2F8ECD" d="M420.151,366.624v20.219h-4.589v-20.219H420.151z"/>
		<path fill="#2F8ECD" d="M442.621,376.523c0,6.63-4.02,10.649-9.93,10.649c-6,0-9.51-4.53-9.51-10.29
			c0-6.06,3.87-10.589,9.84-10.589C439.231,366.294,442.621,370.943,442.621,376.523z M428.012,376.793c0,3.96,1.859,6.75,4.92,6.75
			c3.09,0,4.859-2.939,4.859-6.87c0-3.63-1.74-6.749-4.89-6.749C429.812,369.924,428.012,372.863,428.012,376.793z"/>
		<path fill="#2F8ECD" d="M445.621,386.843v-20.219h5.34l4.2,7.409c1.2,2.13,2.399,4.65,3.3,6.93h0.09
			c-0.3-2.67-0.39-5.399-0.39-8.43v-5.909h4.2v20.219h-4.801l-4.319-7.8c-1.2-2.16-2.52-4.77-3.51-7.14l-0.09,0.03
			c0.12,2.67,0.18,5.52,0.18,8.819v6.09H445.621z"/>
		<path fill="#2F8ECD" d="M478.351,378.293h-7.44v4.8h8.311v3.75h-12.9v-20.219H478.8v3.749h-7.89v4.2h7.44V378.293z"/>
		<path fill="#2F8ECD" d="M482.49,382.133c1.23,0.63,3.12,1.26,5.07,1.26c2.1,0,3.209-0.869,3.209-2.189c0-1.26-0.96-1.98-3.39-2.85
			c-3.359-1.17-5.55-3.03-5.55-5.97c0-3.45,2.88-6.09,7.65-6.09c2.279,0,3.959,0.479,5.159,1.02l-1.02,3.69
			c-0.811-0.391-2.25-0.961-4.23-0.961c-1.979,0-2.939,0.9-2.939,1.95c0,1.29,1.14,1.86,3.75,2.851
			c3.569,1.319,5.25,3.18,5.25,6.029c0,3.39-2.61,6.27-8.16,6.27c-2.31,0-4.59-0.6-5.729-1.229L482.49,382.133z"/>
	</g>
</g>
</svg>
