<?xml version="1.0" encoding="utf-8"?>
<!-- Generator: Adobe Illustrator 16.0.0, SVG Export Plug-In . SVG Version: 6.00 Build 0)  -->
<!DOCTYPE svg PUBLIC "-//W3C//DTD SVG 1.1//EN" "http://www.w3.org/Graphics/SVG/1.1/DTD/svg11.dtd">
<svg version="1.1" id="Capa_1" xmlns="http://www.w3.org/2000/svg" xmlns:xlink="http://www.w3.org/1999/xlink" x="0px" y="0px"
	 width="841.89px" height="595.28px" viewBox="0 0 841.89 595.28" enable-background="new 0 0 841.89 595.28" xml:space="preserve">
<g>
	<g>
		<path fill="#2F8ECD" d="M42.357,441.029c1.092,0.672,2.688,1.231,4.368,1.231c2.492,0,3.948-1.315,3.948-3.22
			c0-1.764-1.008-2.771-3.556-3.752c-3.08-1.092-4.984-2.688-4.984-5.348c0-2.94,2.436-5.124,6.104-5.124
			c1.932,0,3.332,0.448,4.172,0.924l-0.672,1.988c-0.616-0.336-1.876-0.896-3.584-0.896c-2.576,0-3.556,1.54-3.556,2.828
			c0,1.764,1.148,2.632,3.752,3.64c3.192,1.232,4.816,2.772,4.816,5.544c0,2.912-2.156,5.433-6.608,5.433
			c-1.82,0-3.808-0.532-4.816-1.204L42.357,441.029z"/>
		<path fill="#2F8ECD" d="M59.157,426.637c0.028,0.841-0.588,1.513-1.568,1.513c-0.868,0-1.484-0.672-1.484-1.513
			c0-0.867,0.644-1.54,1.54-1.54C58.569,425.097,59.157,425.77,59.157,426.637z M56.413,443.997v-13.552h2.464v13.552H56.413z"/>
		<path fill="#2F8ECD" d="M71.869,426.553v3.893h3.528v1.876h-3.528v7.308c0,1.68,0.476,2.632,1.848,2.632
			c0.644,0,1.12-0.084,1.428-0.168l0.112,1.849c-0.476,0.195-1.232,0.336-2.184,0.336c-1.148,0-2.072-0.364-2.66-1.036
			c-0.7-0.729-0.952-1.933-0.952-3.528v-7.392h-2.1v-1.876h2.1v-3.248L71.869,426.553z"/>
		<path fill="#2F8ECD" d="M80.913,426.637c0.028,0.841-0.588,1.513-1.568,1.513c-0.868,0-1.484-0.672-1.484-1.513
			c0-0.867,0.644-1.54,1.54-1.54C80.325,425.097,80.913,425.77,80.913,426.637z M78.168,443.997v-13.552h2.464v13.552H78.168z"/>
		<path fill="#2F8ECD" d="M86.092,437.669c0.056,3.332,2.184,4.704,4.648,4.704c1.764,0,2.828-0.308,3.752-0.7l0.42,1.765
			c-0.868,0.392-2.352,0.84-4.508,0.84c-4.172,0-6.664-2.744-6.664-6.832s2.408-7.309,6.356-7.309c4.424,0,5.6,3.893,5.6,6.385
			c0,0.504-0.056,0.896-0.084,1.147H86.092z M93.316,435.905c0.028-1.568-0.644-4.004-3.416-4.004c-2.492,0-3.584,2.296-3.78,4.004
			H93.316z"/>
		<path fill="#2F8ECD" d="M98.748,434.113c0-1.4-0.028-2.548-0.112-3.668h2.184l0.14,2.24h0.056c0.672-1.288,2.24-2.549,4.48-2.549
			c1.876,0,4.788,1.12,4.788,5.769v8.092h-2.464v-7.812c0-2.185-0.812-4.005-3.136-4.005c-1.624,0-2.884,1.148-3.304,2.521
			c-0.112,0.308-0.168,0.728-0.168,1.147v8.148h-2.464V434.113z"/>
		<path fill="#2F8ECD" d="M115.66,437.669c0.056,3.332,2.184,4.704,4.648,4.704c1.764,0,2.828-0.308,3.752-0.7l0.42,1.765
			c-0.868,0.392-2.352,0.84-4.508,0.84c-4.172,0-6.664-2.744-6.664-6.832s2.408-7.309,6.356-7.309c4.424,0,5.6,3.893,5.6,6.385
			c0,0.504-0.056,0.896-0.084,1.147H115.66z M122.884,435.905c0.028-1.568-0.644-4.004-3.416-4.004c-2.492,0-3.584,2.296-3.78,4.004
			H122.884z"/>
		<path fill="#2F8ECD" d="M127.979,441.478c0.728,0.476,2.016,0.979,3.248,0.979c1.792,0,2.632-0.896,2.632-2.016
			c0-1.177-0.7-1.82-2.52-2.492c-2.436-0.868-3.584-2.212-3.584-3.836c0-2.185,1.764-3.977,4.676-3.977
			c1.372,0,2.576,0.393,3.332,0.841l-0.616,1.792c-0.532-0.336-1.512-0.784-2.772-0.784c-1.456,0-2.268,0.84-2.268,1.848
			c0,1.12,0.812,1.624,2.576,2.296c2.352,0.896,3.556,2.072,3.556,4.088c0,2.38-1.848,4.061-5.068,4.061
			c-1.484,0-2.856-0.364-3.808-0.924L127.979,441.478z"/>
		<path fill="#2F8ECD" d="M152.843,443.997l-0.196-1.708h-0.084c-0.756,1.064-2.212,2.016-4.144,2.016
			c-2.744,0-4.144-1.932-4.144-3.892c0-3.276,2.912-5.068,8.148-5.04v-0.28c0-1.12-0.308-3.136-3.08-3.136
			c-1.26,0-2.576,0.393-3.528,1.008l-0.56-1.624c1.12-0.728,2.744-1.204,4.452-1.204c4.144,0,5.152,2.828,5.152,5.544v5.068
			c0,1.176,0.056,2.324,0.224,3.248H152.843z M152.479,437.081c-2.688-0.056-5.74,0.42-5.74,3.052c0,1.597,1.064,2.353,2.324,2.353
			c1.764,0,2.884-1.12,3.276-2.269c0.084-0.252,0.14-0.531,0.14-0.784V437.081z"/>
		<path fill="#2F8ECD" d="M158.834,424.117h2.464v19.88h-2.464V424.117z"/>
		<path fill="#2F8ECD" d="M177.118,430.445c-0.056,0.979-0.111,2.072-0.111,3.724v7.868c0,3.108-0.616,5.012-1.933,6.188
			c-1.315,1.232-3.22,1.624-4.928,1.624c-1.624,0-3.416-0.392-4.508-1.119l0.616-1.876c0.896,0.56,2.296,1.063,3.976,1.063
			c2.52,0,4.368-1.316,4.368-4.731v-1.513h-0.057c-0.756,1.26-2.212,2.269-4.312,2.269c-3.36,0-5.768-2.856-5.768-6.608
			c0-4.592,2.995-7.196,6.104-7.196c2.352,0,3.64,1.232,4.228,2.353h0.057l0.111-2.044H177.118z M174.57,435.793
			c0-0.42-0.028-0.784-0.14-1.12c-0.448-1.428-1.652-2.604-3.444-2.604c-2.352,0-4.032,1.987-4.032,5.124
			c0,2.66,1.345,4.872,4.004,4.872c1.513,0,2.885-0.952,3.416-2.521c0.141-0.42,0.196-0.896,0.196-1.315V435.793z"/>
		<path fill="#2F8ECD" d="M192.433,440.301c0,1.4,0.028,2.632,0.112,3.696h-2.185l-0.14-2.212h-0.056
			c-0.645,1.092-2.072,2.52-4.48,2.52c-2.128,0-4.676-1.176-4.676-5.936v-7.924h2.464v7.504c0,2.576,0.784,4.312,3.024,4.312
			c1.651,0,2.8-1.147,3.248-2.239c0.14-0.364,0.224-0.812,0.224-1.261v-8.315h2.464V440.301z"/>
		<path fill="#2F8ECD" d="M196.521,434.113c0-1.4-0.028-2.548-0.112-3.668h2.185l0.14,2.24h0.056c0.673-1.288,2.24-2.549,4.48-2.549
			c1.876,0,4.788,1.12,4.788,5.769v8.092h-2.464v-7.812c0-2.185-0.812-4.005-3.137-4.005c-1.623,0-2.884,1.148-3.304,2.521
			c-0.111,0.308-0.168,0.728-0.168,1.147v8.148h-2.464V434.113z"/>
		<path fill="#2F8ECD" d="M219.565,443.997l-0.196-1.708h-0.084c-0.756,1.064-2.212,2.016-4.144,2.016
			c-2.744,0-4.144-1.932-4.144-3.892c0-3.276,2.911-5.068,8.147-5.04v-0.28c0-1.12-0.308-3.136-3.08-3.136
			c-1.26,0-2.576,0.393-3.528,1.008l-0.56-1.624c1.12-0.728,2.744-1.204,4.452-1.204c4.144,0,5.151,2.828,5.151,5.544v5.068
			c0,1.176,0.057,2.324,0.225,3.248H219.565z M219.201,437.081c-2.688-0.056-5.739,0.42-5.739,3.052
			c0,1.597,1.063,2.353,2.323,2.353c1.765,0,2.885-1.12,3.276-2.269c0.084-0.252,0.14-0.531,0.14-0.784V437.081z"/>
		<path fill="#2F8ECD" d="M243.197,424.117v16.38c0,1.204,0.028,2.576,0.112,3.5h-2.213l-0.111-2.352h-0.057
			c-0.756,1.512-2.407,2.659-4.619,2.659c-3.276,0-5.796-2.771-5.796-6.888c-0.028-4.508,2.771-7.28,6.075-7.28
			c2.072,0,3.473,0.98,4.088,2.072h0.057v-8.092H243.197z M240.733,435.961c0-0.308-0.028-0.728-0.112-1.036
			c-0.364-1.567-1.708-2.855-3.556-2.855c-2.548,0-4.061,2.24-4.061,5.235c0,2.744,1.345,5.013,4.004,5.013
			c1.652,0,3.164-1.093,3.612-2.94c0.084-0.336,0.112-0.672,0.112-1.063V435.961z"/>
		<path fill="#2F8ECD" d="M258.625,440.301c0,1.4,0.028,2.632,0.112,3.696h-2.185l-0.14-2.212h-0.056
			c-0.645,1.092-2.072,2.52-4.48,2.52c-2.128,0-4.676-1.176-4.676-5.936v-7.924h2.464v7.504c0,2.576,0.784,4.312,3.024,4.312
			c1.651,0,2.8-1.147,3.248-2.239c0.14-0.364,0.224-0.812,0.224-1.261v-8.315h2.464V440.301z"/>
		<path fill="#2F8ECD" d="M274.417,424.117v16.38c0,1.204,0.028,2.576,0.112,3.5h-2.212l-0.112-2.352h-0.057
			c-0.756,1.512-2.407,2.659-4.619,2.659c-3.276,0-5.796-2.771-5.796-6.888c-0.028-4.508,2.771-7.28,6.075-7.28
			c2.072,0,3.473,0.98,4.088,2.072h0.057v-8.092H274.417z M271.953,435.961c0-0.308-0.028-0.728-0.112-1.036
			c-0.364-1.567-1.708-2.855-3.556-2.855c-2.548,0-4.061,2.24-4.061,5.235c0,2.744,1.345,5.013,4.004,5.013
			c1.652,0,3.164-1.093,3.612-2.94c0.084-0.336,0.112-0.672,0.112-1.063V435.961z"/>
		<path fill="#2F8ECD" d="M286.008,443.997l-0.196-1.708h-0.084c-0.756,1.064-2.212,2.016-4.144,2.016
			c-2.744,0-4.144-1.932-4.144-3.892c0-3.276,2.911-5.068,8.147-5.04v-0.28c0-1.12-0.308-3.136-3.08-3.136
			c-1.26,0-2.576,0.393-3.528,1.008l-0.56-1.624c1.12-0.728,2.744-1.204,4.452-1.204c4.144,0,5.151,2.828,5.151,5.544v5.068
			c0,1.176,0.057,2.324,0.225,3.248H286.008z M285.644,437.081c-2.688-0.056-5.739,0.42-5.739,3.052
			c0,1.597,1.063,2.353,2.323,2.353c1.765,0,2.885-1.12,3.276-2.269c0.084-0.252,0.14-0.531,0.14-0.784V437.081z"/>
		<path fill="#2F8ECD" d="M297.6,441.478c0.728,0.476,2.016,0.979,3.248,0.979c1.792,0,2.632-0.896,2.632-2.016
			c0-1.177-0.7-1.82-2.52-2.492c-2.437-0.868-3.584-2.212-3.584-3.836c0-2.185,1.764-3.977,4.676-3.977
			c1.372,0,2.576,0.393,3.332,0.841l-0.616,1.792c-0.532-0.336-1.512-0.784-2.772-0.784c-1.455,0-2.268,0.84-2.268,1.848
			c0,1.12,0.812,1.624,2.576,2.296c2.352,0.896,3.556,2.072,3.556,4.088c0,2.38-1.848,4.061-5.067,4.061
			c-1.484,0-2.856-0.364-3.809-0.924L297.6,441.478z"/>
		<path fill="#2F8ECD" d="M321.288,437.109c0,5.012-3.472,7.195-6.748,7.195c-3.668,0-6.495-2.688-6.495-6.972
			c0-4.536,2.968-7.196,6.72-7.196C318.656,430.137,321.288,432.965,321.288,437.109z M310.536,437.249
			c0,2.968,1.708,5.208,4.116,5.208c2.353,0,4.116-2.212,4.116-5.264c0-2.296-1.148-5.208-4.061-5.208
			C311.796,431.985,310.536,434.673,310.536,437.249z"/>
		<path fill="#2F8ECD" d="M324.284,443.997c0.057-0.924,0.112-2.296,0.112-3.5v-16.38h2.437v8.512h0.056
			c0.868-1.512,2.436-2.492,4.62-2.492c3.359,0,5.739,2.801,5.712,6.916c0,4.845-3.052,7.252-6.076,7.252
			c-1.96,0-3.528-0.756-4.536-2.548h-0.084l-0.112,2.24H324.284z M326.833,438.565c0,0.308,0.056,0.615,0.111,0.896
			c0.477,1.708,1.904,2.884,3.696,2.884c2.576,0,4.116-2.1,4.116-5.208c0-2.716-1.4-5.04-4.032-5.04
			c-1.68,0-3.248,1.148-3.752,3.024c-0.056,0.28-0.14,0.616-0.14,1.008V438.565z"/>
		<path fill="#2F8ECD" d="M340.328,434.673c0-1.596-0.028-2.968-0.112-4.228h2.156l0.084,2.66h0.112
			c0.616-1.82,2.1-2.969,3.752-2.969c0.28,0,0.476,0.028,0.7,0.084v2.324c-0.252-0.056-0.504-0.084-0.841-0.084
			c-1.735,0-2.968,1.316-3.304,3.164c-0.056,0.336-0.111,0.729-0.111,1.148v7.224h-2.437V434.673z"/>
		<path fill="#2F8ECD" d="M350.576,437.669c0.056,3.332,2.184,4.704,4.647,4.704c1.765,0,2.828-0.308,3.753-0.7l0.42,1.765
			c-0.868,0.392-2.353,0.84-4.509,0.84c-4.172,0-6.663-2.744-6.663-6.832s2.407-7.309,6.355-7.309c4.424,0,5.6,3.893,5.6,6.385
			c0,0.504-0.056,0.896-0.084,1.147H350.576z M357.799,435.905c0.028-1.568-0.644-4.004-3.416-4.004
			c-2.491,0-3.584,2.296-3.779,4.004H357.799z"/>
		<path fill="#2F8ECD" d="M378.827,443.493c-0.645,0.336-2.072,0.784-3.893,0.784c-4.088,0-6.747-2.772-6.747-6.916
			c0-4.172,2.855-7.196,7.279-7.196c1.456,0,2.744,0.364,3.416,0.7l-0.56,1.904c-0.588-0.336-1.513-0.645-2.856-0.645
			c-3.107,0-4.788,2.296-4.788,5.124c0,3.136,2.017,5.068,4.704,5.068c1.4,0,2.324-0.364,3.024-0.672L378.827,443.493z"/>
		<path fill="#2F8ECD" d="M393.806,437.109c0,5.012-3.472,7.195-6.748,7.195c-3.668,0-6.495-2.688-6.495-6.972
			c0-4.536,2.968-7.196,6.72-7.196C391.174,430.137,393.806,432.965,393.806,437.109z M383.054,437.249
			c0,2.968,1.708,5.208,4.116,5.208c2.353,0,4.116-2.212,4.116-5.264c0-2.296-1.148-5.208-4.061-5.208
			C384.315,431.985,383.054,434.673,383.054,437.249z M390.867,424.593l-3.416,4.004h-1.765l2.465-4.004H390.867z"/>
		<path fill="#2F8ECD" d="M396.916,434.113c0-1.4-0.028-2.548-0.112-3.668h2.156l0.112,2.184h0.084
			c0.756-1.288,2.016-2.492,4.256-2.492c1.848,0,3.248,1.12,3.836,2.717h0.056c0.42-0.757,0.952-1.345,1.513-1.765
			c0.812-0.616,1.708-0.952,2.995-0.952c1.792,0,4.452,1.177,4.452,5.881v7.979h-2.407v-7.672c0-2.604-0.952-4.172-2.94-4.172
			c-1.4,0-2.492,1.036-2.912,2.24c-0.112,0.336-0.196,0.783-0.196,1.231v8.372H405.4v-8.12c0-2.156-0.952-3.724-2.828-3.724
			c-1.54,0-2.66,1.231-3.052,2.464c-0.141,0.364-0.196,0.784-0.196,1.204v8.176h-2.408V434.113z"/>
		<path fill="#2F8ECD" d="M432.531,437.109c0,5.012-3.473,7.195-6.748,7.195c-3.668,0-6.496-2.688-6.496-6.972
			c0-4.536,2.968-7.196,6.72-7.196C429.898,430.137,432.531,432.965,432.531,437.109z M421.779,437.249
			c0,2.968,1.708,5.208,4.116,5.208c2.354,0,4.117-2.212,4.117-5.264c0-2.296-1.148-5.208-4.061-5.208
			S421.779,434.673,421.779,437.249z"/>
		<path fill="#2F8ECD" d="M451.234,443.493c-0.645,0.336-2.072,0.784-3.893,0.784c-4.088,0-6.748-2.772-6.748-6.916
			c0-4.172,2.855-7.196,7.279-7.196c1.457,0,2.744,0.364,3.416,0.7l-0.559,1.904c-0.588-0.336-1.514-0.645-2.857-0.645
			c-3.107,0-4.787,2.296-4.787,5.124c0,3.136,2.016,5.068,4.703,5.068c1.4,0,2.324-0.364,3.025-0.672L451.234,443.493z"/>
		<path fill="#2F8ECD" d="M466.215,437.109c0,5.012-3.473,7.195-6.748,7.195c-3.668,0-6.496-2.688-6.496-6.972
			c0-4.536,2.969-7.196,6.721-7.196C463.582,430.137,466.215,432.965,466.215,437.109z M455.463,437.249
			c0,2.968,1.707,5.208,4.115,5.208c2.354,0,4.117-2.212,4.117-5.264c0-2.296-1.148-5.208-4.061-5.208
			S455.463,434.673,455.463,437.249z"/>
		<path fill="#2F8ECD" d="M469.322,434.113c0-1.4-0.027-2.548-0.111-3.668h2.184l0.141,2.24h0.055
			c0.674-1.288,2.24-2.549,4.48-2.549c1.877,0,4.789,1.12,4.789,5.769v8.092h-2.465v-7.812c0-2.185-0.812-4.005-3.137-4.005
			c-1.623,0-2.883,1.148-3.303,2.521c-0.111,0.308-0.168,0.728-0.168,1.147v8.148h-2.465V434.113z"/>
		<path fill="#2F8ECD" d="M487.719,426.553v3.893h3.527v1.876h-3.527v7.308c0,1.68,0.477,2.632,1.848,2.632
			c0.645,0,1.119-0.084,1.428-0.168l0.113,1.849c-0.477,0.195-1.232,0.336-2.186,0.336c-1.146,0-2.072-0.364-2.66-1.036
			c-0.699-0.729-0.951-1.933-0.951-3.528v-7.392h-2.1v-1.876h2.1v-3.248L487.719,426.553z"/>
		<path fill="#2F8ECD" d="M495.223,437.669c0.055,3.332,2.184,4.704,4.646,4.704c1.766,0,2.828-0.308,3.754-0.7l0.42,1.765
			c-0.869,0.392-2.354,0.84-4.51,0.84c-4.172,0-6.662-2.744-6.662-6.832s2.406-7.309,6.355-7.309c4.424,0,5.6,3.893,5.6,6.385
			c0,0.504-0.057,0.896-0.084,1.147H495.223z M502.445,435.905c0.029-1.568-0.643-4.004-3.416-4.004
			c-2.49,0-3.584,2.296-3.779,4.004H502.445z"/>
		<path fill="#2F8ECD" d="M507.541,441.478c0.729,0.476,2.016,0.979,3.248,0.979c1.793,0,2.633-0.896,2.633-2.016
			c0-1.177-0.701-1.82-2.52-2.492c-2.438-0.868-3.584-2.212-3.584-3.836c0-2.185,1.764-3.977,4.676-3.977
			c1.371,0,2.576,0.393,3.332,0.841l-0.617,1.792c-0.531-0.336-1.512-0.784-2.771-0.784c-1.455,0-2.268,0.84-2.268,1.848
			c0,1.12,0.812,1.624,2.576,2.296c2.352,0.896,3.555,2.072,3.555,4.088c0,2.38-1.848,4.061-5.066,4.061
			c-1.484,0-2.857-0.364-3.809-0.924L507.541,441.478z"/>
		<path fill="#2F8ECD" d="M521.934,426.553v3.893h3.527v1.876h-3.527v7.308c0,1.68,0.477,2.632,1.848,2.632
			c0.645,0,1.119-0.084,1.428-0.168l0.113,1.849c-0.477,0.195-1.232,0.336-2.186,0.336c-1.146,0-2.072-0.364-2.66-1.036
			c-0.699-0.729-0.951-1.933-0.951-3.528v-7.392h-2.1v-1.876h2.1v-3.248L521.934,426.553z"/>
		<path fill="#2F8ECD" d="M535.736,443.997l-0.195-1.708h-0.084c-0.756,1.064-2.213,2.016-4.145,2.016
			c-2.744,0-4.143-1.932-4.143-3.892c0-3.276,2.91-5.068,8.146-5.04v-0.28c0-1.12-0.307-3.136-3.08-3.136
			c-1.26,0-2.576,0.393-3.527,1.008l-0.561-1.624c1.121-0.728,2.744-1.204,4.453-1.204c4.143,0,5.15,2.828,5.15,5.544v5.068
			c0,1.176,0.057,2.324,0.225,3.248H535.736z M535.373,437.081c-2.688-0.056-5.74,0.42-5.74,3.052c0,1.597,1.064,2.353,2.324,2.353
			c1.764,0,2.885-1.12,3.275-2.269c0.084-0.252,0.141-0.531,0.141-0.784V437.081z"/>
		<path fill="#2F8ECD" d="M541.729,434.673c0-1.596-0.027-2.968-0.111-4.228h2.156l0.084,2.66h0.111
			c0.617-1.82,2.1-2.969,3.752-2.969c0.281,0,0.477,0.028,0.701,0.084v2.324c-0.252-0.056-0.504-0.084-0.842-0.084
			c-1.734,0-2.967,1.316-3.303,3.164c-0.057,0.336-0.113,0.729-0.113,1.148v7.224h-2.436V434.673z"/>
		<path fill="#2F8ECD" d="M547.807,447.441c0.615-1.652,1.371-4.648,1.68-6.692l2.744-0.28c-0.645,2.38-1.877,5.488-2.66,6.805
			L547.807,447.441z"/>
		<path fill="#2F8ECD" d="M561.133,424.117h2.465v19.88h-2.465V424.117z"/>
		<path fill="#2F8ECD" d="M569.113,437.669c0.055,3.332,2.184,4.704,4.646,4.704c1.766,0,2.828-0.308,3.754-0.7l0.42,1.765
			c-0.869,0.392-2.354,0.84-4.51,0.84c-4.172,0-6.662-2.744-6.662-6.832s2.406-7.309,6.355-7.309c4.424,0,5.6,3.893,5.6,6.385
			c0,0.504-0.057,0.896-0.084,1.147H569.113z M576.336,435.905c0.029-1.568-0.643-4.004-3.416-4.004
			c-2.49,0-3.584,2.296-3.779,4.004H576.336z"/>
		<path fill="#2F8ECD" d="M582.721,430.445l2.66,7.616c0.447,1.231,0.811,2.352,1.092,3.472h0.084
			c0.307-1.12,0.699-2.24,1.146-3.472l2.633-7.616h2.576l-5.32,13.552h-2.352l-5.152-13.552H582.721z"/>
		<path fill="#2F8ECD" d="M602.627,443.997l-0.195-1.708h-0.084c-0.756,1.064-2.213,2.016-4.145,2.016
			c-2.744,0-4.143-1.932-4.143-3.892c0-3.276,2.91-5.068,8.146-5.04v-0.28c0-1.12-0.307-3.136-3.08-3.136
			c-1.26,0-2.576,0.393-3.527,1.008l-0.561-1.624c1.121-0.728,2.744-1.204,4.453-1.204c4.143,0,5.15,2.828,5.15,5.544v5.068
			c0,1.176,0.057,2.324,0.225,3.248H602.627z M602.264,437.081c-2.688-0.056-5.74,0.42-5.74,3.052c0,1.597,1.064,2.353,2.324,2.353
			c1.764,0,2.885-1.12,3.275-2.269c0.084-0.252,0.141-0.531,0.141-0.784V437.081z"/>
		<path fill="#2F8ECD" d="M608.619,434.113c0-1.4-0.027-2.548-0.111-3.668h2.184l0.141,2.24h0.055
			c0.674-1.288,2.24-2.549,4.48-2.549c1.877,0,4.789,1.12,4.789,5.769v8.092h-2.465v-7.812c0-2.185-0.812-4.005-3.137-4.005
			c-1.623,0-2.883,1.148-3.303,2.521c-0.111,0.308-0.168,0.728-0.168,1.147v8.148h-2.465V434.113z"/>
		<path fill="#2F8ECD" d="M627.016,426.553v3.893h3.527v1.876h-3.527v7.308c0,1.68,0.477,2.632,1.848,2.632
			c0.645,0,1.119-0.084,1.428-0.168l0.113,1.849c-0.477,0.195-1.232,0.336-2.186,0.336c-1.146,0-2.072-0.364-2.66-1.036
			c-0.699-0.729-0.951-1.933-0.951-3.528v-7.392h-2.1v-1.876h2.1v-3.248L627.016,426.553z"/>
		<path fill="#2F8ECD" d="M640.818,443.997l-0.195-1.708h-0.084c-0.756,1.064-2.213,2.016-4.145,2.016
			c-2.744,0-4.143-1.932-4.143-3.892c0-3.276,2.91-5.068,8.146-5.04v-0.28c0-1.12-0.307-3.136-3.08-3.136
			c-1.26,0-2.576,0.393-3.527,1.008l-0.561-1.624c1.121-0.728,2.744-1.204,4.453-1.204c4.143,0,5.15,2.828,5.15,5.544v5.068
			c0,1.176,0.057,2.324,0.225,3.248H640.818z M640.455,437.081c-2.688-0.056-5.74,0.42-5.74,3.052c0,1.597,1.064,2.353,2.324,2.353
			c1.764,0,2.885-1.12,3.275-2.269c0.084-0.252,0.141-0.531,0.141-0.784V437.081z"/>
		<path fill="#2F8ECD" d="M652.746,424.117h2.465v19.88h-2.465V424.117z"/>
		<path fill="#2F8ECD" d="M666.857,443.997l-0.195-1.708h-0.084c-0.756,1.064-2.213,2.016-4.145,2.016
			c-2.744,0-4.143-1.932-4.143-3.892c0-3.276,2.91-5.068,8.146-5.04v-0.28c0-1.12-0.307-3.136-3.08-3.136
			c-1.26,0-2.576,0.393-3.527,1.008l-0.561-1.624c1.121-0.728,2.744-1.204,4.453-1.204c4.143,0,5.15,2.828,5.15,5.544v5.068
			c0,1.176,0.057,2.324,0.225,3.248H666.857z M666.494,437.081c-2.688-0.056-5.74,0.42-5.74,3.052c0,1.597,1.064,2.353,2.324,2.353
			c1.764,0,2.885-1.12,3.275-2.269c0.084-0.252,0.141-0.531,0.141-0.784V437.081z"/>
		<path fill="#2F8ECD" d="M678.785,434.113c0-1.4-0.027-2.548-0.111-3.668h2.156l0.111,2.184h0.084
			c0.756-1.288,2.016-2.492,4.256-2.492c1.848,0,3.248,1.12,3.836,2.717h0.057c0.42-0.757,0.951-1.345,1.512-1.765
			c0.812-0.616,1.709-0.952,2.996-0.952c1.791,0,4.451,1.177,4.451,5.881v7.979h-2.406v-7.672c0-2.604-0.953-4.172-2.941-4.172
			c-1.4,0-2.492,1.036-2.912,2.24c-0.111,0.336-0.195,0.783-0.195,1.231v8.372h-2.408v-8.12c0-2.156-0.951-3.724-2.828-3.724
			c-1.539,0-2.66,1.231-3.051,2.464c-0.141,0.364-0.197,0.784-0.197,1.204v8.176h-2.408V434.113z"/>
		<path fill="#2F8ECD" d="M709.641,443.997l-0.195-1.708h-0.084c-0.756,1.064-2.213,2.016-4.145,2.016
			c-2.744,0-4.143-1.932-4.143-3.892c0-3.276,2.91-5.068,8.146-5.04v-0.28c0-1.12-0.307-3.136-3.08-3.136
			c-1.26,0-2.576,0.393-3.527,1.008l-0.561-1.624c1.121-0.728,2.744-1.204,4.453-1.204c4.143,0,5.15,2.828,5.15,5.544v5.068
			c0,1.176,0.057,2.324,0.225,3.248H709.641z M709.277,437.081c-2.688-0.056-5.74,0.42-5.74,3.052c0,1.597,1.064,2.353,2.324,2.353
			c1.764,0,2.885-1.12,3.275-2.269c0.084-0.252,0.141-0.531,0.141-0.784V437.081z"/>
		<path fill="#2F8ECD" d="M715.633,434.113c0-1.4-0.027-2.548-0.111-3.668h2.184l0.141,2.24h0.055
			c0.674-1.288,2.24-2.549,4.48-2.549c1.877,0,4.789,1.12,4.789,5.769v8.092h-2.465v-7.812c0-2.185-0.812-4.005-3.137-4.005
			c-1.623,0-2.883,1.148-3.303,2.521c-0.111,0.308-0.168,0.728-0.168,1.147v8.148h-2.465V434.113z"/>
		<path fill="#2F8ECD" d="M743.438,437.109c0,5.012-3.473,7.195-6.748,7.195c-3.668,0-6.496-2.688-6.496-6.972
			c0-4.536,2.969-7.196,6.721-7.196C740.805,430.137,743.438,432.965,743.438,437.109z M732.686,437.249
			c0,2.968,1.707,5.208,4.115,5.208c2.354,0,4.117-2.212,4.117-5.264c0-2.296-1.148-5.208-4.061-5.208
			S732.686,434.673,732.686,437.249z"/>
		<path fill="#2F8ECD" d="M753.377,430.445l2.969,8.008c0.307,0.896,0.643,1.96,0.867,2.771h0.057
			c0.252-0.812,0.531-1.848,0.867-2.827l2.688-7.952h2.605l-3.697,9.66c-1.764,4.647-2.967,7.027-4.646,8.483
			c-1.205,1.064-2.408,1.484-3.025,1.596l-0.615-2.071c0.615-0.196,1.428-0.588,2.156-1.204c0.672-0.532,1.512-1.484,2.072-2.744
			c0.111-0.252,0.195-0.448,0.195-0.588s-0.057-0.336-0.168-0.645l-5.012-12.487H753.377z"/>
		<path fill="#2F8ECD" d="M283.125,468.469c0-1.736-0.056-3.136-0.112-4.424h2.212l0.112,2.324h0.056
			c1.009-1.652,2.604-2.633,4.816-2.633c3.276,0,5.74,2.772,5.74,6.889c0,4.872-2.968,7.279-6.16,7.279
			c-1.792,0-3.36-0.783-4.172-2.128h-0.057v7.364h-2.436V468.469z M285.561,472.081c0,0.363,0.057,0.699,0.112,1.008
			c0.448,1.708,1.933,2.884,3.696,2.884c2.604,0,4.116-2.128,4.116-5.236c0-2.716-1.429-5.04-4.032-5.04
			c-1.68,0-3.248,1.204-3.724,3.053c-0.084,0.308-0.169,0.672-0.169,1.008V472.081z"/>
		<path fill="#2F8ECD" d="M299.057,468.272c0-1.596-0.028-2.968-0.112-4.228h2.156l0.084,2.66h0.112
			c0.616-1.82,2.1-2.969,3.752-2.969c0.28,0,0.476,0.028,0.7,0.084v2.324c-0.252-0.056-0.504-0.084-0.841-0.084
			c-1.735,0-2.968,1.316-3.304,3.164c-0.056,0.336-0.112,0.729-0.112,1.148v7.224h-2.436V468.272z"/>
		<path fill="#2F8ECD" d="M309.305,471.269c0.056,3.332,2.184,4.704,4.648,4.704c1.764,0,2.827-0.308,3.752-0.7l0.42,1.765
			c-0.868,0.392-2.353,0.84-4.509,0.84c-4.172,0-6.663-2.744-6.663-6.832s2.407-7.309,6.355-7.309c4.424,0,5.6,3.893,5.6,6.385
			c0,0.504-0.056,0.896-0.084,1.147H309.305z M316.529,469.505c0.028-1.568-0.644-4.004-3.416-4.004
			c-2.491,0-3.584,2.296-3.779,4.004H316.529z"/>
		<path fill="#2F8ECD" d="M333.636,464.045c-0.056,0.979-0.111,2.072-0.111,3.724v7.868c0,3.108-0.616,5.012-1.933,6.188
			c-1.315,1.232-3.22,1.624-4.928,1.624c-1.624,0-3.416-0.392-4.508-1.119l0.616-1.876c0.896,0.56,2.296,1.063,3.976,1.063
			c2.52,0,4.368-1.316,4.368-4.731v-1.513h-0.057c-0.756,1.26-2.212,2.269-4.312,2.269c-3.36,0-5.768-2.856-5.768-6.608
			c0-4.592,2.995-7.196,6.104-7.196c2.352,0,3.64,1.232,4.228,2.353h0.057l0.111-2.044H333.636z M331.088,469.393
			c0-0.42-0.028-0.784-0.14-1.12c-0.448-1.428-1.652-2.604-3.444-2.604c-2.352,0-4.032,1.987-4.032,5.124
			c0,2.66,1.345,4.872,4.004,4.872c1.513,0,2.885-0.952,3.416-2.521c0.141-0.42,0.196-0.896,0.196-1.315V469.393z"/>
		<path fill="#2F8ECD" d="M348.952,473.9c0,1.4,0.028,2.632,0.112,3.696h-2.185l-0.14-2.212h-0.056
			c-0.645,1.092-2.072,2.52-4.48,2.52c-2.128,0-4.676-1.176-4.676-5.936v-7.924h2.464v7.504c0,2.576,0.784,4.312,3.024,4.312
			c1.651,0,2.8-1.147,3.248-2.239c0.14-0.364,0.224-0.812,0.224-1.261v-8.315h2.464V473.9z"/>
		<path fill="#2F8ECD" d="M353.04,467.713c0-1.4-0.028-2.548-0.112-3.668h2.185l0.14,2.24h0.056c0.673-1.288,2.24-2.549,4.48-2.549
			c1.876,0,4.788,1.12,4.788,5.769v8.092h-2.464v-7.812c0-2.185-0.812-4.005-3.137-4.005c-1.623,0-2.884,1.148-3.304,2.521
			c-0.111,0.308-0.168,0.728-0.168,1.147v8.148h-2.464V467.713z"/>
		<path fill="#2F8ECD" d="M371.436,460.152v3.893h3.528v1.876h-3.528v7.308c0,1.68,0.477,2.632,1.849,2.632
			c0.644,0,1.119-0.084,1.428-0.168l0.112,1.849c-0.477,0.195-1.232,0.336-2.185,0.336c-1.147,0-2.072-0.364-2.66-1.036
			c-0.699-0.729-0.952-1.933-0.952-3.528v-7.392h-2.1v-1.876h2.1v-3.248L371.436,460.152z"/>
		<path fill="#2F8ECD" d="M385.24,477.597l-0.196-1.708h-0.084c-0.756,1.064-2.212,2.016-4.144,2.016
			c-2.744,0-4.144-1.932-4.144-3.892c0-3.276,2.911-5.068,8.147-5.04v-0.28c0-1.12-0.308-3.136-3.08-3.136
			c-1.26,0-2.576,0.393-3.528,1.008l-0.56-1.624c1.12-0.728,2.744-1.204,4.452-1.204c4.144,0,5.151,2.828,5.151,5.544v5.068
			c0,1.176,0.057,2.324,0.225,3.248H385.24z M384.875,470.681c-2.688-0.056-5.739,0.42-5.739,3.052c0,1.597,1.063,2.353,2.323,2.353
			c1.765,0,2.885-1.12,3.276-2.269c0.084-0.252,0.14-0.531,0.14-0.784V470.681z"/>
		<path fill="#2F8ECD" d="M404.671,477.597l-0.196-1.708h-0.084c-0.756,1.064-2.212,2.016-4.144,2.016
			c-2.744,0-4.144-1.932-4.144-3.892c0-3.276,2.911-5.068,8.147-5.04v-0.28c0-1.12-0.308-3.136-3.08-3.136
			c-1.26,0-2.576,0.393-3.528,1.008l-0.56-1.624c1.12-0.728,2.744-1.204,4.452-1.204c4.144,0,5.151,2.828,5.151,5.544v5.068
			c0,1.176,0.057,2.324,0.225,3.248H404.671z M404.307,470.681c-2.688-0.056-5.739,0.42-5.739,3.052
			c0,1.597,1.063,2.353,2.323,2.353c1.765,0,2.885-1.12,3.276-2.269c0.084-0.252,0.14-0.531,0.14-0.784V470.681z"/>
		<path fill="#2F8ECD" d="M410.664,457.717h2.464v19.88h-2.464V457.717z"/>
		<path fill="#2F8ECD" d="M423.207,468.469c0-1.736-0.057-3.136-0.113-4.424h2.213l0.111,2.324h0.057
			c1.008-1.652,2.604-2.633,4.816-2.633c3.275,0,5.74,2.772,5.74,6.889c0,4.872-2.969,7.279-6.16,7.279
			c-1.793,0-3.361-0.783-4.172-2.128h-0.057v7.364h-2.436V468.469z M425.643,472.081c0,0.363,0.057,0.699,0.111,1.008
			c0.449,1.708,1.934,2.884,3.697,2.884c2.604,0,4.115-2.128,4.115-5.236c0-2.716-1.428-5.04-4.031-5.04
			c-1.68,0-3.248,1.204-3.725,3.053c-0.084,0.308-0.168,0.672-0.168,1.008V472.081z"/>
		<path fill="#2F8ECD" d="M439.139,468.272c0-1.596-0.029-2.968-0.113-4.228h2.156l0.084,2.66h0.113
			c0.615-1.82,2.1-2.969,3.752-2.969c0.279,0,0.475,0.028,0.699,0.084v2.324c-0.252-0.056-0.504-0.084-0.84-0.084
			c-1.736,0-2.969,1.316-3.305,3.164c-0.055,0.336-0.111,0.729-0.111,1.148v7.224h-2.436V468.272z"/>
		<path fill="#2F8ECD" d="M460.277,470.709c0,5.012-3.471,7.195-6.748,7.195c-3.668,0-6.494-2.688-6.494-6.972
			c0-4.536,2.967-7.196,6.719-7.196C457.646,463.736,460.277,466.564,460.277,470.709z M449.525,470.849
			c0,2.968,1.709,5.208,4.117,5.208c2.352,0,4.115-2.212,4.115-5.264c0-2.296-1.148-5.208-4.061-5.208
			C450.787,465.585,449.525,468.272,449.525,470.849z"/>
		<path fill="#2F8ECD" d="M463.639,477.597v-11.676h-1.904v-1.876h1.904V463.4c0-1.903,0.42-3.64,1.568-4.731
			c0.924-0.896,2.154-1.26,3.303-1.26c0.869,0,1.625,0.195,2.1,0.392l-0.336,1.904c-0.363-0.168-0.867-0.309-1.566-0.309
			c-2.102,0-2.633,1.849-2.633,3.92v0.729h3.275v1.876h-3.275v11.676H463.639z"/>
		<path fill="#2F8ECD" d="M472.57,471.269c0.057,3.332,2.184,4.704,4.648,4.704c1.764,0,2.828-0.308,3.752-0.7l0.42,1.765
			c-0.867,0.392-2.352,0.84-4.508,0.84c-4.172,0-6.664-2.744-6.664-6.832s2.408-7.309,6.355-7.309c4.424,0,5.6,3.893,5.6,6.385
			c0,0.504-0.055,0.896-0.084,1.147H472.57z M479.795,469.505c0.027-1.568-0.645-4.004-3.416-4.004
			c-2.492,0-3.584,2.296-3.779,4.004H479.795z"/>
		<path fill="#2F8ECD" d="M484.891,475.077c0.727,0.476,2.016,0.979,3.248,0.979c1.791,0,2.631-0.896,2.631-2.016
			c0-1.177-0.699-1.82-2.52-2.492c-2.436-0.868-3.584-2.212-3.584-3.836c0-2.185,1.764-3.977,4.676-3.977
			c1.373,0,2.576,0.393,3.332,0.841l-0.615,1.792c-0.533-0.336-1.512-0.784-2.773-0.784c-1.455,0-2.268,0.84-2.268,1.848
			c0,1.12,0.812,1.624,2.576,2.296c2.352,0.896,3.557,2.072,3.557,4.088c0,2.38-1.848,4.061-5.068,4.061
			c-1.484,0-2.855-0.364-3.809-0.924L484.891,475.077z"/>
		<path fill="#2F8ECD" d="M508.578,470.709c0,5.012-3.473,7.195-6.748,7.195c-3.668,0-6.496-2.688-6.496-6.972
			c0-4.536,2.969-7.196,6.721-7.196C505.945,463.736,508.578,466.564,508.578,470.709z M497.826,470.849
			c0,2.968,1.707,5.208,4.115,5.208c2.354,0,4.117-2.212,4.117-5.264c0-2.296-1.148-5.208-4.061-5.208
			S497.826,468.272,497.826,470.849z"/>
		<path fill="#2F8ECD" d="M511.686,468.272c0-1.596-0.027-2.968-0.111-4.228h2.156l0.084,2.66h0.111
			c0.617-1.82,2.1-2.969,3.752-2.969c0.281,0,0.477,0.028,0.701,0.084v2.324c-0.252-0.056-0.504-0.084-0.842-0.084
			c-1.734,0-2.967,1.316-3.303,3.164c-0.057,0.336-0.113,0.729-0.113,1.148v7.224h-2.436V468.272z"/>
		<path fill="#2F8ECD" d="M518.771,476.141c0-1.036,0.699-1.764,1.68-1.764s1.652,0.728,1.652,1.764c0,1.008-0.645,1.764-1.68,1.764
			C519.443,477.904,518.771,477.148,518.771,476.141z"/>
		<path fill="#2F8ECD" d="M47.005,494.397h-5.74v-2.072h13.972v2.072h-5.768v16.8h-2.464V494.397z"/>
		<path fill="#2F8ECD" d="M59.662,493.837c0.028,0.841-0.588,1.513-1.568,1.513c-0.868,0-1.484-0.672-1.484-1.513
			c0-0.867,0.644-1.54,1.54-1.54C59.074,492.297,59.662,492.97,59.662,493.837z M56.917,511.197v-13.552h2.464v13.552H56.917z"/>
		<path fill="#2F8ECD" d="M64.841,504.869c0.056,3.332,2.184,4.704,4.648,4.704c1.764,0,2.828-0.308,3.752-0.7l0.42,1.765
			c-0.868,0.392-2.352,0.84-4.508,0.84c-4.172,0-6.664-2.744-6.664-6.832s2.408-7.309,6.356-7.309c4.424,0,5.6,3.893,5.6,6.385
			c0,0.504-0.056,0.896-0.084,1.147H64.841z M72.065,503.105c0.028-1.568-0.644-4.004-3.416-4.004c-2.492,0-3.584,2.296-3.78,4.004
			H72.065z"/>
		<path fill="#2F8ECD" d="M77.497,501.313c0-1.4-0.028-2.548-0.112-3.668h2.184l0.14,2.24h0.056c0.672-1.288,2.24-2.549,4.48-2.549
			c1.876,0,4.788,1.12,4.788,5.769v8.092h-2.464v-7.812c0-2.185-0.812-4.005-3.136-4.005c-1.624,0-2.884,1.148-3.304,2.521
			c-0.112,0.308-0.168,0.728-0.168,1.147v8.148h-2.464V501.313z"/>
		<path fill="#2F8ECD" d="M94.409,504.869c0.056,3.332,2.184,4.704,4.648,4.704c1.764,0,2.828-0.308,3.752-0.7l0.42,1.765
			c-0.868,0.392-2.352,0.84-4.508,0.84c-4.172,0-6.664-2.744-6.664-6.832s2.408-7.309,6.356-7.309c4.424,0,5.6,3.893,5.6,6.385
			c0,0.504-0.056,0.896-0.084,1.147H94.409z M101.633,503.105c0.028-1.568-0.644-4.004-3.416-4.004c-2.492,0-3.584,2.296-3.78,4.004
			H101.633z"/>
		<path fill="#2F8ECD" d="M106.729,508.678c0.728,0.476,2.016,0.979,3.248,0.979c1.792,0,2.632-0.896,2.632-2.016
			c0-1.177-0.7-1.82-2.52-2.492c-2.436-0.868-3.584-2.212-3.584-3.836c0-2.185,1.764-3.977,4.676-3.977
			c1.372,0,2.576,0.393,3.332,0.841l-0.616,1.792c-0.532-0.336-1.512-0.784-2.772-0.784c-1.456,0-2.268,0.84-2.268,1.848
			c0,1.12,0.812,1.624,2.576,2.296c2.352,0.896,3.556,2.072,3.556,4.088c0,2.38-1.848,4.061-5.068,4.061
			c-1.484,0-2.856-0.364-3.808-0.924L106.729,508.678z"/>
		<path fill="#2F8ECD" d="M135.428,507.501c0,1.4,0.028,2.632,0.112,3.696h-2.184l-0.14-2.212h-0.056
			c-0.644,1.092-2.072,2.52-4.48,2.52c-2.128,0-4.676-1.176-4.676-5.936v-7.924h2.464v7.504c0,2.576,0.784,4.312,3.024,4.312
			c1.652,0,2.8-1.147,3.248-2.239c0.14-0.364,0.224-0.812,0.224-1.261v-8.315h2.464V507.501z"/>
		<path fill="#2F8ECD" d="M139.516,501.313c0-1.4-0.028-2.548-0.112-3.668h2.184l0.14,2.24h0.056c0.672-1.288,2.24-2.549,4.48-2.549
			c1.876,0,4.788,1.12,4.788,5.769v8.092h-2.464v-7.812c0-2.185-0.812-4.005-3.136-4.005c-1.624,0-2.884,1.148-3.304,2.521
			c-0.112,0.308-0.168,0.728-0.168,1.147v8.148h-2.464V501.313z"/>
		<path fill="#2F8ECD" d="M162.559,511.197l-0.196-1.708h-0.084c-0.756,1.064-2.212,2.016-4.144,2.016
			c-2.744,0-4.144-1.932-4.144-3.892c0-3.276,2.912-5.068,8.148-5.04v-0.28c0-1.12-0.308-3.136-3.08-3.136
			c-1.26,0-2.576,0.392-3.528,1.008l-0.56-1.624c1.12-0.728,2.744-1.204,4.452-1.204c4.144,0,5.151,2.828,5.151,5.544v5.068
			c0,1.176,0.057,2.324,0.225,3.248H162.559z M162.195,504.281c-2.688-0.056-5.74,0.42-5.74,3.052c0,1.597,1.064,2.353,2.324,2.353
			c1.764,0,2.884-1.12,3.276-2.269c0.084-0.252,0.14-0.531,0.14-0.784V504.281z"/>
		<path fill="#2F8ECD" d="M174.487,491.317h2.464v8.456h0.057c0.392-0.7,1.008-1.316,1.764-1.736c0.728-0.42,1.596-0.7,2.52-0.7
			c1.82,0,4.732,1.12,4.732,5.796v8.064h-2.464v-7.784c0-2.184-0.812-4.032-3.137-4.032c-1.596,0-2.855,1.12-3.304,2.465
			c-0.14,0.336-0.168,0.699-0.168,1.176v8.176h-2.464V491.317z"/>
		<path fill="#2F8ECD" d="M202.291,504.31c0,5.012-3.472,7.195-6.748,7.195c-3.668,0-6.495-2.688-6.495-6.972
			c0-4.536,2.968-7.196,6.72-7.196C199.659,497.337,202.291,500.165,202.291,504.31z M191.539,504.449
			c0,2.968,1.708,5.208,4.116,5.208c2.353,0,4.116-2.212,4.116-5.264c0-2.296-1.148-5.208-4.061-5.208
			C192.799,499.186,191.539,501.873,191.539,504.449z"/>
		<path fill="#2F8ECD" d="M205.399,501.873c0-1.596-0.028-2.968-0.112-4.228h2.156l0.084,2.66h0.112
			c0.616-1.82,2.1-2.969,3.752-2.969c0.28,0,0.476,0.028,0.7,0.084v2.324c-0.252-0.056-0.504-0.084-0.841-0.084
			c-1.735,0-2.968,1.316-3.304,3.164c-0.056,0.336-0.112,0.729-0.112,1.148v7.224h-2.436V501.873z"/>
		<path fill="#2F8ECD" d="M221.919,511.197l-0.196-1.708h-0.084c-0.756,1.064-2.212,2.016-4.144,2.016
			c-2.744,0-4.144-1.932-4.144-3.892c0-3.276,2.911-5.068,8.147-5.04v-0.28c0-1.12-0.308-3.136-3.08-3.136
			c-1.26,0-2.576,0.392-3.528,1.008l-0.56-1.624c1.12-0.728,2.744-1.204,4.452-1.204c4.144,0,5.151,2.828,5.151,5.544v5.068
			c0,1.176,0.057,2.324,0.225,3.248H221.919z M221.555,504.281c-2.688-0.056-5.739,0.42-5.739,3.052
			c0,1.597,1.063,2.353,2.323,2.353c1.765,0,2.885-1.12,3.276-2.269c0.084-0.252,0.14-0.531,0.14-0.784V504.281z"/>
		<path fill="#2F8ECD" d="M234.744,497.646l2.968,8.008c0.308,0.896,0.644,1.96,0.868,2.771h0.056
			c0.252-0.812,0.532-1.848,0.868-2.827l2.688-7.952h2.604l-3.696,9.66c-1.764,4.647-2.968,7.027-4.647,8.483
			c-1.204,1.064-2.408,1.484-3.024,1.596l-0.616-2.071c0.616-0.196,1.428-0.588,2.156-1.204c0.672-0.532,1.512-1.484,2.072-2.744
			c0.111-0.252,0.195-0.448,0.195-0.588s-0.056-0.336-0.168-0.645l-5.012-12.487H234.744z"/>
		<path fill="#2F8ECD" d="M252.97,501.313c0-1.4-0.028-2.548-0.112-3.668h2.156l0.112,2.184h0.084
			c0.756-1.288,2.016-2.492,4.256-2.492c1.848,0,3.248,1.12,3.836,2.717h0.056c0.42-0.757,0.952-1.345,1.513-1.765
			c0.812-0.616,1.708-0.952,2.995-0.952c1.792,0,4.452,1.177,4.452,5.881v7.979h-2.407v-7.672c0-2.604-0.952-4.172-2.94-4.172
			c-1.4,0-2.492,1.036-2.912,2.24c-0.112,0.336-0.196,0.783-0.196,1.231v8.372h-2.407v-8.12c0-2.156-0.952-3.724-2.828-3.724
			c-1.54,0-2.66,1.231-3.052,2.464c-0.141,0.364-0.196,0.784-0.196,1.204v8.176h-2.408V501.313z"/>
		<path fill="#2F8ECD" d="M277.694,504.869c0.056,3.332,2.184,4.704,4.648,4.704c1.764,0,2.827-0.308,3.752-0.7l0.42,1.765
			c-0.868,0.392-2.353,0.84-4.509,0.84c-4.172,0-6.663-2.744-6.663-6.832s2.407-7.309,6.355-7.309c4.424,0,5.6,3.893,5.6,6.385
			c0,0.504-0.056,0.896-0.084,1.147H277.694z M284.917,503.105c0.028-1.568-0.644-4.004-3.416-4.004
			c-2.491,0-3.584,2.296-3.779,4.004H284.917z"/>
		<path fill="#2F8ECD" d="M302.053,491.317v16.38c0,1.204,0.028,2.576,0.112,3.5h-2.212l-0.112-2.352h-0.057
			c-0.756,1.512-2.407,2.659-4.619,2.659c-3.276,0-5.796-2.771-5.796-6.888c-0.028-4.508,2.771-7.28,6.075-7.28
			c2.072,0,3.473,0.98,4.088,2.072h0.057v-8.092H302.053z M299.589,503.161c0-0.308-0.028-0.728-0.112-1.036
			c-0.364-1.567-1.708-2.855-3.556-2.855c-2.548,0-4.061,2.24-4.061,5.235c0,2.744,1.345,5.013,4.004,5.013
			c1.652,0,3.164-1.093,3.612-2.94c0.084-0.336,0.112-0.672,0.112-1.063V503.161z"/>
		<path fill="#2F8ECD" d="M308.885,493.837c0.028,0.841-0.588,1.513-1.568,1.513c-0.868,0-1.483-0.672-1.483-1.513
			c0-0.867,0.644-1.54,1.54-1.54C308.297,492.297,308.885,492.97,308.885,493.837z M306.141,511.197v-13.552h2.464v13.552H306.141z"
			/>
		<path fill="#2F8ECD" d="M320.197,511.197L320,509.489h-0.084c-0.756,1.064-2.212,2.016-4.144,2.016
			c-2.744,0-4.144-1.932-4.144-3.892c0-3.276,2.911-5.068,8.147-5.04v-0.28c0-1.12-0.308-3.136-3.08-3.136
			c-1.26,0-2.576,0.392-3.528,1.008l-0.56-1.624c1.12-0.728,2.744-1.204,4.452-1.204c4.144,0,5.151,2.828,5.151,5.544v5.068
			c0,1.176,0.057,2.324,0.225,3.248H320.197z M319.833,504.281c-2.688-0.056-5.739,0.42-5.739,3.052
			c0,1.597,1.063,2.353,2.323,2.353c1.765,0,2.885-1.12,3.276-2.269c0.084-0.252,0.14-0.531,0.14-0.784V504.281z"/>
		<path fill="#2F8ECD" d="M332.125,502.069c0-1.736-0.056-3.136-0.112-4.424h2.212l0.112,2.324h0.056
			c1.009-1.652,2.604-2.633,4.816-2.633c3.276,0,5.74,2.772,5.74,6.889c0,4.872-2.968,7.279-6.16,7.279
			c-1.792,0-3.36-0.783-4.172-2.128h-0.056v7.364h-2.437V502.069z M334.561,505.682c0,0.363,0.056,0.699,0.111,1.008
			c0.448,1.708,1.933,2.884,3.696,2.884c2.604,0,4.116-2.128,4.116-5.236c0-2.716-1.429-5.04-4.032-5.04
			c-1.68,0-3.248,1.204-3.724,3.053c-0.084,0.308-0.168,0.672-0.168,1.008V505.682z"/>
		<path fill="#2F8ECD" d="M355.56,511.197l-0.196-1.708h-0.084c-0.756,1.064-2.212,2.016-4.144,2.016
			c-2.744,0-4.144-1.932-4.144-3.892c0-3.276,2.911-5.068,8.147-5.04v-0.28c0-1.12-0.308-3.136-3.08-3.136
			c-1.26,0-2.576,0.392-3.528,1.008l-0.56-1.624c1.12-0.728,2.744-1.204,4.452-1.204c4.144,0,5.151,2.828,5.151,5.544v5.068
			c0,1.176,0.057,2.324,0.225,3.248H355.56z M355.196,504.281c-2.688-0.056-5.739,0.42-5.739,3.052c0,1.597,1.063,2.353,2.323,2.353
			c1.765,0,2.885-1.12,3.276-2.269c0.084-0.252,0.14-0.531,0.14-0.784V504.281z"/>
		<path fill="#2F8ECD" d="M361.552,501.873c0-1.596-0.028-2.968-0.112-4.228h2.156l0.084,2.66h0.112
			c0.616-1.82,2.1-2.969,3.752-2.969c0.28,0,0.476,0.028,0.7,0.084v2.324c-0.252-0.056-0.504-0.084-0.841-0.084
			c-1.735,0-2.968,1.316-3.304,3.164c-0.056,0.336-0.111,0.729-0.111,1.148v7.224h-2.437V501.873z"/>
		<path fill="#2F8ECD" d="M378.073,511.197l-0.196-1.708h-0.084c-0.756,1.064-2.212,2.016-4.144,2.016
			c-2.744,0-4.144-1.932-4.144-3.892c0-3.276,2.911-5.068,8.147-5.04v-0.28c0-1.12-0.308-3.136-3.08-3.136
			c-1.26,0-2.576,0.392-3.528,1.008l-0.56-1.624c1.12-0.728,2.744-1.204,4.452-1.204c4.144,0,5.151,2.828,5.151,5.544v5.068
			c0,1.176,0.057,2.324,0.225,3.248H378.073z M377.708,504.281c-2.688-0.056-5.739,0.42-5.739,3.052
			c0,1.597,1.063,2.353,2.323,2.353c1.765,0,2.885-1.12,3.276-2.269c0.084-0.252,0.14-0.531,0.14-0.784V504.281z"/>
		<path fill="#2F8ECD" d="M399.661,510.693c-0.645,0.336-2.072,0.784-3.893,0.784c-4.088,0-6.747-2.772-6.747-6.916
			c0-4.172,2.855-7.196,7.279-7.196c1.456,0,2.744,0.364,3.416,0.7l-0.56,1.904c-0.588-0.336-1.513-0.645-2.856-0.645
			c-3.107,0-4.788,2.296-4.788,5.124c0,3.136,2.017,5.068,4.704,5.068c1.4,0,2.324-0.364,3.024-0.672L399.661,510.693z"/>
		<path fill="#2F8ECD" d="M414.64,504.31c0,5.012-3.472,7.195-6.748,7.195c-3.668,0-6.495-2.688-6.495-6.972
			c0-4.536,2.968-7.196,6.72-7.196C412.008,497.337,414.64,500.165,414.64,504.31z M403.888,504.449
			c0,2.968,1.708,5.208,4.116,5.208c2.353,0,4.116-2.212,4.116-5.264c0-2.296-1.148-5.208-4.061-5.208
			C405.149,499.186,403.888,501.873,403.888,504.449z"/>
		<path fill="#2F8ECD" d="M417.749,501.313c0-1.4-0.028-2.548-0.112-3.668h2.185l0.14,2.24h0.056c0.673-1.288,2.24-2.549,4.48-2.549
			c1.877,0,4.789,1.12,4.789,5.769v8.092h-2.465v-7.812c0-2.185-0.812-4.005-3.137-4.005c-1.623,0-2.883,1.148-3.303,2.521
			c-0.111,0.308-0.168,0.728-0.168,1.147v8.148h-2.464V501.313z"/>
		<path fill="#2F8ECD" d="M436.145,493.753v3.893h3.527v1.876h-3.527v7.308c0,1.681,0.477,2.632,1.848,2.632
			c0.645,0,1.119-0.084,1.428-0.168l0.113,1.849c-0.477,0.195-1.232,0.336-2.186,0.336c-1.146,0-2.072-0.364-2.66-1.036
			c-0.699-0.729-0.951-1.932-0.951-3.528v-7.392h-2.1v-1.876h2.1v-3.248L436.145,493.753z"/>
		<path fill="#2F8ECD" d="M443.648,504.869c0.057,3.332,2.184,4.704,4.648,4.704c1.764,0,2.828-0.308,3.752-0.7l0.42,1.765
			c-0.867,0.392-2.352,0.84-4.508,0.84c-4.172,0-6.664-2.744-6.664-6.832s2.408-7.309,6.355-7.309c4.424,0,5.6,3.893,5.6,6.385
			c0,0.504-0.055,0.896-0.084,1.147H443.648z M450.873,503.105c0.027-1.568-0.645-4.004-3.416-4.004
			c-2.492,0-3.584,2.296-3.779,4.004H450.873z"/>
		<path fill="#2F8ECD" d="M455.969,508.678c0.727,0.476,2.016,0.979,3.248,0.979c1.791,0,2.631-0.896,2.631-2.016
			c0-1.177-0.699-1.82-2.52-2.492c-2.436-0.868-3.584-2.212-3.584-3.836c0-2.185,1.764-3.977,4.676-3.977
			c1.373,0,2.576,0.393,3.332,0.841l-0.615,1.792c-0.533-0.336-1.512-0.784-2.773-0.784c-1.455,0-2.268,0.84-2.268,1.848
			c0,1.12,0.812,1.624,2.576,2.296c2.352,0.896,3.557,2.072,3.557,4.088c0,2.38-1.848,4.061-5.068,4.061
			c-1.484,0-2.855-0.364-3.809-0.924L455.969,508.678z"/>
		<path fill="#2F8ECD" d="M470.359,493.753v3.893h3.529v1.876h-3.529v7.308c0,1.681,0.477,2.632,1.85,2.632
			c0.643,0,1.119-0.084,1.428-0.168l0.111,1.849c-0.477,0.195-1.232,0.336-2.184,0.336c-1.148,0-2.072-0.364-2.66-1.036
			c-0.699-0.729-0.953-1.932-0.953-3.528v-7.392h-2.1v-1.876h2.1v-3.248L470.359,493.753z"/>
		<path fill="#2F8ECD" d="M484.164,511.197l-0.197-1.708h-0.084c-0.756,1.064-2.211,2.016-4.143,2.016
			c-2.744,0-4.145-1.932-4.145-3.892c0-3.276,2.912-5.068,8.148-5.04v-0.28c0-1.12-0.309-3.136-3.08-3.136
			c-1.26,0-2.576,0.392-3.529,1.008l-0.559-1.624c1.119-0.728,2.744-1.204,4.451-1.204c4.145,0,5.152,2.828,5.152,5.544v5.068
			c0,1.176,0.057,2.324,0.225,3.248H484.164z M483.799,504.281c-2.688-0.056-5.738,0.42-5.738,3.052
			c0,1.597,1.062,2.353,2.322,2.353c1.766,0,2.885-1.12,3.277-2.269c0.084-0.252,0.139-0.531,0.139-0.784V504.281z"/>
		<path fill="#2F8ECD" d="M490.156,501.873c0-1.596-0.029-2.968-0.113-4.228h2.156l0.084,2.66h0.113
			c0.615-1.82,2.1-2.969,3.752-2.969c0.279,0,0.475,0.028,0.699,0.084v2.324c-0.252-0.056-0.504-0.084-0.84-0.084
			c-1.736,0-2.969,1.316-3.305,3.164c-0.055,0.336-0.111,0.729-0.111,1.148v7.224h-2.436V501.873z"/>
		<path fill="#2F8ECD" d="M505.248,491.317h2.463v19.88h-2.463V491.317z"/>
		<path fill="#2F8ECD" d="M519.359,511.197l-0.197-1.708h-0.084c-0.756,1.064-2.211,2.016-4.143,2.016
			c-2.744,0-4.145-1.932-4.145-3.892c0-3.276,2.912-5.068,8.148-5.04v-0.28c0-1.12-0.309-3.136-3.08-3.136
			c-1.26,0-2.576,0.392-3.529,1.008l-0.559-1.624c1.119-0.728,2.744-1.204,4.451-1.204c4.145,0,5.152,2.828,5.152,5.544v5.068
			c0,1.176,0.057,2.324,0.225,3.248H519.359z M518.994,504.281c-2.688-0.056-5.738,0.42-5.738,3.052
			c0,1.597,1.062,2.353,2.322,2.353c1.766,0,2.885-1.12,3.277-2.269c0.084-0.252,0.139-0.531,0.139-0.784V504.281z"/>
		<path fill="#2F8ECD" d="M531.287,502.069c0-1.736-0.057-3.136-0.113-4.424h2.213l0.111,2.324h0.057
			c1.008-1.652,2.604-2.633,4.816-2.633c3.275,0,5.74,2.772,5.74,6.889c0,4.872-2.969,7.279-6.16,7.279
			c-1.793,0-3.361-0.783-4.172-2.128h-0.057v7.364h-2.436V502.069z M533.723,505.682c0,0.363,0.057,0.699,0.111,1.008
			c0.449,1.708,1.934,2.884,3.697,2.884c2.604,0,4.115-2.128,4.115-5.236c0-2.716-1.428-5.04-4.031-5.04
			c-1.68,0-3.248,1.204-3.725,3.053c-0.084,0.308-0.168,0.672-0.168,1.008V505.682z"/>
		<path fill="#2F8ECD" d="M547.219,501.873c0-1.596-0.029-2.968-0.113-4.228h2.156l0.084,2.66h0.113
			c0.615-1.82,2.1-2.969,3.752-2.969c0.279,0,0.475,0.028,0.699,0.084v2.324c-0.252-0.056-0.504-0.084-0.84-0.084
			c-1.736,0-2.969,1.316-3.305,3.164c-0.055,0.336-0.111,0.729-0.111,1.148v7.224h-2.436V501.873z"/>
		<path fill="#2F8ECD" d="M567.715,507.501c0,1.4,0.027,2.632,0.111,3.696h-2.184l-0.141-2.212h-0.055
			c-0.645,1.092-2.072,2.52-4.48,2.52c-2.129,0-4.676-1.176-4.676-5.936v-7.924h2.463v7.504c0,2.576,0.785,4.312,3.025,4.312
			c1.65,0,2.799-1.147,3.248-2.239c0.139-0.364,0.223-0.812,0.223-1.261v-8.315h2.465V507.501z"/>
		<path fill="#2F8ECD" d="M573.174,504.869c0.057,3.332,2.184,4.704,4.648,4.704c1.764,0,2.828-0.308,3.752-0.7l0.42,1.765
			c-0.867,0.392-2.352,0.84-4.508,0.84c-4.172,0-6.664-2.744-6.664-6.832s2.408-7.309,6.355-7.309c4.424,0,5.6,3.893,5.6,6.385
			c0,0.504-0.055,0.896-0.084,1.147H573.174z M580.398,503.105c0.027-1.568-0.645-4.004-3.416-4.004
			c-2.492,0-3.584,2.296-3.779,4.004H580.398z"/>
		<path fill="#2F8ECD" d="M585.717,511.197c0.057-0.924,0.113-2.296,0.113-3.5v-16.38h2.436v8.512h0.057
			c0.867-1.512,2.436-2.492,4.619-2.492c3.359,0,5.74,2.801,5.713,6.916c0,4.845-3.053,7.252-6.076,7.252
			c-1.961,0-3.529-0.756-4.537-2.548h-0.084l-0.111,2.24H585.717z M588.266,505.766c0,0.308,0.057,0.615,0.111,0.896
			c0.477,1.708,1.904,2.884,3.697,2.884c2.576,0,4.115-2.1,4.115-5.208c0-2.716-1.4-5.04-4.031-5.04
			c-1.68,0-3.248,1.148-3.752,3.024c-0.057,0.28-0.141,0.616-0.141,1.008V505.766z"/>
		<path fill="#2F8ECD" d="M609.266,511.197l-0.197-1.708h-0.084c-0.756,1.064-2.211,2.016-4.143,2.016
			c-2.744,0-4.145-1.932-4.145-3.892c0-3.276,2.912-5.068,8.148-5.04v-0.28c0-1.12-0.309-3.136-3.08-3.136
			c-1.26,0-2.576,0.392-3.529,1.008l-0.559-1.624c1.119-0.728,2.744-1.204,4.451-1.204c4.145,0,5.152,2.828,5.152,5.544v5.068
			c0,1.176,0.057,2.324,0.225,3.248H609.266z M608.9,504.281c-2.688-0.056-5.738,0.42-5.738,3.052c0,1.597,1.062,2.353,2.322,2.353
			c1.766,0,2.885-1.12,3.277-2.269c0.084-0.252,0.139-0.531,0.139-0.784V504.281z"/>
		<path fill="#2F8ECD" d="M614.67,509.741c0-1.036,0.699-1.764,1.68-1.764s1.652,0.728,1.652,1.764c0,1.008-0.645,1.764-1.68,1.764
			C615.342,511.505,614.67,510.749,614.67,509.741z"/>
		<path fill="#2F8ECD" d="M626.736,508.229c1.092,0.672,2.688,1.231,4.367,1.231c2.492,0,3.949-1.315,3.949-3.22
			c0-1.764-1.01-2.771-3.557-3.752c-3.08-1.092-4.984-2.688-4.984-5.348c0-2.94,2.436-5.124,6.104-5.124
			c1.932,0,3.332,0.448,4.172,0.924l-0.672,1.988c-0.615-0.336-1.875-0.896-3.584-0.896c-2.576,0-3.555,1.54-3.555,2.828
			c0,1.764,1.146,2.632,3.752,3.64c3.191,1.232,4.814,2.772,4.814,5.544c0,2.912-2.154,5.433-6.607,5.433
			c-1.82,0-3.809-0.532-4.816-1.204L626.736,508.229z"/>
		<path fill="#2F8ECD" d="M653.223,504.31c0,5.012-3.471,7.195-6.748,7.195c-3.668,0-6.494-2.688-6.494-6.972
			c0-4.536,2.967-7.196,6.719-7.196C650.592,497.337,653.223,500.165,653.223,504.31z M642.471,504.449
			c0,2.968,1.709,5.208,4.117,5.208c2.352,0,4.115-2.212,4.115-5.264c0-2.296-1.148-5.208-4.061-5.208
			C643.732,499.186,642.471,501.873,642.471,504.449z M650.283,491.793l-3.416,4.004h-1.764l2.465-4.004H650.283z"/>
		<path fill="#2F8ECD" d="M656.332,491.317h2.463v19.88h-2.463V491.317z"/>
		<path fill="#2F8ECD" d="M675.203,504.31c0,5.012-3.473,7.195-6.748,7.195c-3.668,0-6.496-2.688-6.496-6.972
			c0-4.536,2.969-7.196,6.721-7.196C672.57,497.337,675.203,500.165,675.203,504.31z M664.451,504.449
			c0,2.968,1.707,5.208,4.115,5.208c2.354,0,4.117-2.212,4.117-5.264c0-2.296-1.148-5.208-4.061-5.208
			S664.451,501.873,664.451,504.449z"/>
		<path fill="#2F8ECD" d="M684.246,502.069c0-1.736-0.055-3.136-0.111-4.424h2.211l0.113,2.324h0.055
			c1.01-1.652,2.605-2.633,4.816-2.633c3.277,0,5.74,2.772,5.74,6.889c0,4.872-2.967,7.279-6.16,7.279
			c-1.791,0-3.359-0.783-4.172-2.128h-0.057v7.364h-2.436V502.069z M686.682,505.682c0,0.363,0.057,0.699,0.113,1.008
			c0.447,1.708,1.932,2.884,3.695,2.884c2.604,0,4.117-2.128,4.117-5.236c0-2.716-1.43-5.04-4.033-5.04
			c-1.68,0-3.248,1.204-3.723,3.053c-0.084,0.308-0.17,0.672-0.17,1.008V505.682z"/>
		<path fill="#2F8ECD" d="M712.441,504.31c0,5.012-3.471,7.195-6.748,7.195c-3.668,0-6.494-2.688-6.494-6.972
			c0-4.536,2.967-7.196,6.719-7.196C709.811,497.337,712.441,500.165,712.441,504.31z M701.689,504.449
			c0,2.968,1.709,5.208,4.117,5.208c2.352,0,4.115-2.212,4.115-5.264c0-2.296-1.148-5.208-4.061-5.208
			C702.951,499.186,701.689,501.873,701.689,504.449z"/>
		<path fill="#2F8ECD" d="M727.254,491.317v16.38c0,1.204,0.029,2.576,0.113,3.5h-2.213l-0.111-2.352h-0.057
			c-0.756,1.512-2.408,2.659-4.619,2.659c-3.277,0-5.797-2.771-5.797-6.888c-0.027-4.508,2.771-7.28,6.076-7.28
			c2.072,0,3.473,0.98,4.088,2.072h0.057v-8.092H727.254z M724.791,503.161c0-0.308-0.029-0.728-0.113-1.036
			c-0.363-1.567-1.707-2.855-3.555-2.855c-2.549,0-4.061,2.24-4.061,5.235c0,2.744,1.344,5.013,4.004,5.013
			c1.652,0,3.164-1.093,3.611-2.94c0.084-0.336,0.113-0.672,0.113-1.063V503.161z"/>
		<path fill="#2F8ECD" d="M731.342,501.873c0-1.596-0.027-2.968-0.111-4.228h2.156l0.084,2.66h0.111
			c0.617-1.82,2.1-2.969,3.752-2.969c0.281,0,0.477,0.028,0.701,0.084v2.324c-0.252-0.056-0.504-0.084-0.842-0.084
			c-1.734,0-2.967,1.316-3.303,3.164c-0.057,0.336-0.113,0.729-0.113,1.148v7.224h-2.436V501.873z"/>
		<path fill="#2F8ECD" d="M747.863,511.197l-0.197-1.708h-0.084c-0.756,1.064-2.211,2.016-4.143,2.016
			c-2.744,0-4.145-1.932-4.145-3.892c0-3.276,2.912-5.068,8.148-5.04v-0.28c0-1.12-0.309-3.136-3.08-3.136
			c-1.26,0-2.576,0.392-3.529,1.008l-0.559-1.624c1.119-0.728,2.744-1.204,4.451-1.204c4.145,0,5.152,2.828,5.152,5.544v5.068
			c0,1.176,0.057,2.324,0.225,3.248H747.863z M747.498,504.281c-2.688-0.056-5.738,0.42-5.738,3.052
			c0,1.597,1.062,2.353,2.322,2.353c1.766,0,2.885-1.12,3.277-2.269c0.084-0.252,0.139-0.531,0.139-0.784V504.281z M748.73,491.793
			l-3.416,4.004h-1.764l2.465-4.004H748.73z"/>
		<path fill="#2F8ECD" d="M753.52,508.678c0.727,0.476,2.016,0.979,3.248,0.979c1.791,0,2.631-0.896,2.631-2.016
			c0-1.177-0.699-1.82-2.52-2.492c-2.436-0.868-3.584-2.212-3.584-3.836c0-2.185,1.764-3.977,4.676-3.977
			c1.373,0,2.576,0.393,3.332,0.841l-0.615,1.792c-0.533-0.336-1.512-0.784-2.773-0.784c-1.455,0-2.268,0.84-2.268,1.848
			c0,1.12,0.812,1.624,2.576,2.296c2.352,0.896,3.557,2.072,3.557,4.088c0,2.38-1.848,4.061-5.068,4.061
			c-1.484,0-2.855-0.364-3.809-0.924L753.52,508.678z"/>
		<path fill="#2F8ECD" d="M135.526,542.277c0.728,0.476,2.016,0.979,3.248,0.979c1.792,0,2.632-0.896,2.632-2.016
			c0-1.177-0.7-1.82-2.52-2.492c-2.436-0.868-3.584-2.212-3.584-3.836c0-2.185,1.764-3.977,4.676-3.977
			c1.372,0,2.576,0.393,3.332,0.841l-0.616,1.792c-0.532-0.336-1.512-0.784-2.772-0.784c-1.456,0-2.268,0.84-2.268,1.848
			c0,1.12,0.812,1.624,2.576,2.296c2.352,0.896,3.556,2.072,3.556,4.088c0,2.38-1.848,4.061-5.068,4.061
			c-1.484,0-2.856-0.364-3.808-0.924L135.526,542.277z"/>
		<path fill="#2F8ECD" d="M154.454,544.797l-0.196-1.708h-0.084c-0.756,1.064-2.212,2.016-4.144,2.016
			c-2.744,0-4.144-1.932-4.144-3.892c0-3.276,2.912-5.068,8.148-5.04v-0.28c0-1.12-0.308-3.136-3.08-3.136
			c-1.26,0-2.576,0.392-3.528,1.008l-0.56-1.624c1.12-0.728,2.744-1.204,4.452-1.204c4.144,0,5.152,2.828,5.152,5.544v5.068
			c0,1.176,0.056,2.324,0.224,3.248H154.454z M154.09,537.881c-2.688-0.056-5.74,0.42-5.74,3.052c0,1.597,1.064,2.353,2.324,2.353
			c1.764,0,2.884-1.12,3.276-2.269c0.084-0.252,0.14-0.531,0.14-0.784V537.881z"/>
		<path fill="#2F8ECD" d="M160.446,524.917h2.464v19.88h-2.464V524.917z"/>
		<path fill="#2F8ECD" d="M169.797,527.437c0.028,0.841-0.588,1.513-1.568,1.513c-0.868,0-1.483-0.672-1.483-1.513
			c0-0.867,0.644-1.54,1.54-1.54C169.209,525.896,169.797,526.569,169.797,527.437z M167.053,544.797v-13.552h2.464v13.552H167.053z
			"/>
		<path fill="#2F8ECD" d="M173.605,535.473c0-1.596-0.028-2.968-0.112-4.228h2.156l0.084,2.66h0.112
			c0.616-1.82,2.1-2.969,3.752-2.969c0.28,0,0.476,0.028,0.7,0.084v2.324c-0.252-0.056-0.504-0.084-0.841-0.084
			c-1.735,0-2.968,1.316-3.304,3.164c-0.056,0.336-0.111,0.729-0.111,1.148v7.224h-2.437V535.473z"/>
		<path fill="#2F8ECD" d="M200.401,524.917v16.38c0,1.204,0.028,2.576,0.112,3.5h-2.212l-0.112-2.352h-0.057
			c-0.756,1.512-2.407,2.659-4.619,2.659c-3.276,0-5.796-2.771-5.796-6.888c-0.028-4.508,2.771-7.28,6.075-7.28
			c2.072,0,3.473,0.98,4.088,2.072h0.057v-8.092H200.401z M197.937,536.761c0-0.308-0.028-0.728-0.112-1.036
			c-0.364-1.567-1.708-2.855-3.556-2.855c-2.548,0-4.061,2.24-4.061,5.235c0,2.744,1.345,5.013,4.004,5.013
			c1.652,0,3.164-1.093,3.612-2.94c0.084-0.336,0.112-0.672,0.112-1.063V536.761z"/>
		<path fill="#2F8ECD" d="M205.861,538.469c0.056,3.332,2.184,4.704,4.647,4.704c1.765,0,2.828-0.308,3.753-0.7l0.42,1.765
			c-0.868,0.392-2.353,0.84-4.509,0.84c-4.172,0-6.663-2.744-6.663-6.832s2.407-7.309,6.355-7.309c4.424,0,5.6,3.893,5.6,6.385
			c0,0.504-0.056,0.896-0.084,1.147H205.861z M213.084,536.705c0.028-1.568-0.644-4.004-3.416-4.004
			c-2.491,0-3.584,2.296-3.779,4.004H213.084z"/>
		<path fill="#2F8ECD" d="M224.452,524.917h2.464v19.88h-2.464V524.917z"/>
		<path fill="#2F8ECD" d="M238.563,544.797l-0.196-1.708h-0.084c-0.756,1.064-2.212,2.016-4.144,2.016
			c-2.744,0-4.144-1.932-4.144-3.892c0-3.276,2.911-5.068,8.147-5.04v-0.28c0-1.12-0.308-3.136-3.08-3.136
			c-1.26,0-2.576,0.392-3.528,1.008l-0.56-1.624c1.12-0.728,2.744-1.204,4.452-1.204c4.144,0,5.151,2.828,5.151,5.544v5.068
			c0,1.176,0.057,2.324,0.225,3.248H238.563z M238.199,537.881c-2.688-0.056-5.739,0.42-5.739,3.052
			c0,1.597,1.063,2.353,2.323,2.353c1.765,0,2.885-1.12,3.276-2.269c0.084-0.252,0.14-0.531,0.14-0.784V537.881z"/>
		<path fill="#2F8ECD" d="M250.155,542.277c0.728,0.476,2.016,0.979,3.248,0.979c1.792,0,2.632-0.896,2.632-2.016
			c0-1.177-0.7-1.82-2.52-2.492c-2.437-0.868-3.584-2.212-3.584-3.836c0-2.185,1.764-3.977,4.676-3.977
			c1.372,0,2.576,0.393,3.332,0.841l-0.616,1.792c-0.532-0.336-1.512-0.784-2.772-0.784c-1.455,0-2.268,0.84-2.268,1.848
			c0,1.12,0.812,1.624,2.576,2.296c2.352,0.896,3.556,2.072,3.556,4.088c0,2.38-1.848,4.061-5.067,4.061
			c-1.484,0-2.856-0.364-3.809-0.924L250.155,542.277z"/>
		<path fill="#2F8ECD" d="M269.083,544.797l-0.196-1.708h-0.084c-0.756,1.064-2.212,2.016-4.144,2.016
			c-2.744,0-4.144-1.932-4.144-3.892c0-3.276,2.911-5.068,8.147-5.04v-0.28c0-1.12-0.308-3.136-3.08-3.136
			c-1.26,0-2.576,0.392-3.528,1.008l-0.56-1.624c1.12-0.728,2.744-1.204,4.452-1.204c4.144,0,5.151,2.828,5.151,5.544v5.068
			c0,1.176,0.057,2.324,0.225,3.248H269.083z M268.718,537.881c-2.688-0.056-5.739,0.42-5.739,3.052
			c0,1.597,1.063,2.353,2.323,2.353c1.765,0,2.885-1.12,3.276-2.269c0.084-0.252,0.14-0.531,0.14-0.784V537.881z"/>
		<path fill="#2F8ECD" d="M275.075,524.917h2.464v19.88h-2.464V524.917z"/>
		<path fill="#2F8ECD" d="M289.186,544.797l-0.196-1.708h-0.084c-0.756,1.064-2.212,2.016-4.144,2.016
			c-2.744,0-4.144-1.932-4.144-3.892c0-3.276,2.911-5.068,8.147-5.04v-0.28c0-1.12-0.308-3.136-3.08-3.136
			c-1.26,0-2.576,0.392-3.528,1.008l-0.56-1.624c1.12-0.728,2.744-1.204,4.452-1.204c4.144,0,5.151,2.828,5.151,5.544v5.068
			c0,1.176,0.057,2.324,0.225,3.248H289.186z M288.822,537.881c-2.688-0.056-5.739,0.42-5.739,3.052
			c0,1.597,1.063,2.353,2.323,2.353c1.765,0,2.885-1.12,3.276-2.269c0.084-0.252,0.14-0.531,0.14-0.784V537.881z"/>
		<path fill="#2F8ECD" d="M312.818,524.917v16.38c0,1.204,0.028,2.576,0.112,3.5h-2.213l-0.111-2.352h-0.057
			c-0.756,1.512-2.407,2.659-4.619,2.659c-3.276,0-5.796-2.771-5.796-6.888c-0.028-4.508,2.771-7.28,6.075-7.28
			c2.072,0,3.473,0.98,4.088,2.072h0.057v-8.092H312.818z M310.354,536.761c0-0.308-0.028-0.728-0.112-1.036
			c-0.364-1.567-1.708-2.855-3.556-2.855c-2.548,0-4.061,2.24-4.061,5.235c0,2.744,1.345,5.013,4.004,5.013
			c1.652,0,3.164-1.093,3.612-2.94c0.084-0.336,0.112-0.672,0.112-1.063V536.761z"/>
		<path fill="#2F8ECD" d="M318.278,538.469c0.056,3.332,2.184,4.704,4.648,4.704c1.764,0,2.827-0.308,3.752-0.7l0.42,1.765
			c-0.868,0.392-2.353,0.84-4.509,0.84c-4.172,0-6.663-2.744-6.663-6.832s2.407-7.309,6.355-7.309c4.424,0,5.6,3.893,5.6,6.385
			c0,0.504-0.056,0.896-0.084,1.147H318.278z M325.501,536.705c0.028-1.568-0.644-4.004-3.416-4.004
			c-2.491,0-3.584,2.296-3.779,4.004H325.501z"/>
		<path fill="#2F8ECD" d="M330.597,542.277c0.728,0.476,2.016,0.979,3.248,0.979c1.792,0,2.632-0.896,2.632-2.016
			c0-1.177-0.7-1.82-2.52-2.492c-2.437-0.868-3.584-2.212-3.584-3.836c0-2.185,1.764-3.977,4.676-3.977
			c1.372,0,2.576,0.393,3.332,0.841l-0.616,1.792c-0.532-0.336-1.512-0.784-2.772-0.784c-1.455,0-2.268,0.84-2.268,1.848
			c0,1.12,0.812,1.624,2.576,2.296c2.352,0.896,3.556,2.072,3.556,4.088c0,2.38-1.848,4.061-5.067,4.061
			c-1.484,0-2.856-0.364-3.809-0.924L330.597,542.277z"/>
		<path fill="#2F8ECD" d="M342.021,535.669c0-1.736-0.056-3.136-0.112-4.424h2.212l0.112,2.324h0.056
			c1.009-1.652,2.604-2.633,4.816-2.633c3.276,0,5.74,2.772,5.74,6.889c0,4.872-2.968,7.279-6.16,7.279
			c-1.792,0-3.36-0.783-4.172-2.128h-0.056v7.364h-2.437V535.669z M344.458,539.281c0,0.363,0.056,0.699,0.111,1.008
			c0.448,1.708,1.933,2.884,3.696,2.884c2.604,0,4.116-2.128,4.116-5.236c0-2.716-1.429-5.04-4.032-5.04
			c-1.68,0-3.248,1.204-3.724,3.053c-0.084,0.308-0.168,0.672-0.168,1.008V539.281z"/>
		<path fill="#2F8ECD" d="M369.292,541.101c0,1.4,0.028,2.632,0.112,3.696h-2.185l-0.14-2.212h-0.056
			c-0.645,1.092-2.072,2.52-4.48,2.52c-2.128,0-4.676-1.176-4.676-5.936v-7.924h2.464v7.504c0,2.576,0.784,4.312,3.024,4.312
			c1.651,0,2.8-1.147,3.248-2.239c0.14-0.364,0.224-0.812,0.224-1.261v-8.315h2.464V541.101z"/>
		<path fill="#2F8ECD" d="M374.752,538.469c0.056,3.332,2.184,4.704,4.648,4.704c1.764,0,2.827-0.308,3.752-0.7l0.42,1.765
			c-0.868,0.392-2.353,0.84-4.509,0.84c-4.172,0-6.663-2.744-6.663-6.832s2.407-7.309,6.355-7.309c4.424,0,5.6,3.893,5.6,6.385
			c0,0.504-0.056,0.896-0.084,1.147H374.752z M381.976,536.705c0.028-1.568-0.644-4.004-3.416-4.004
			c-2.491,0-3.584,2.296-3.779,4.004H381.976z M382.564,525.393l-3.416,4.004h-1.764l2.464-4.004H382.564z"/>
		<path fill="#2F8ECD" d="M387.072,542.277c0.728,0.476,2.016,0.979,3.248,0.979c1.792,0,2.632-0.896,2.632-2.016
			c0-1.177-0.7-1.82-2.52-2.492c-2.437-0.868-3.584-2.212-3.584-3.836c0-2.185,1.764-3.977,4.676-3.977
			c1.372,0,2.576,0.393,3.332,0.841l-0.616,1.792c-0.532-0.336-1.512-0.784-2.772-0.784c-1.455,0-2.268,0.84-2.268,1.848
			c0,1.12,0.812,1.624,2.576,2.296c2.352,0.896,3.556,2.072,3.556,4.088c0,2.38-1.848,4.061-5.067,4.061
			c-1.484,0-2.856-0.364-3.809-0.924L387.072,542.277z"/>
		<path fill="#2F8ECD" d="M416.135,524.917v16.38c0,1.204,0.028,2.576,0.112,3.5h-2.212l-0.112-2.352h-0.057
			c-0.756,1.512-2.407,2.659-4.619,2.659c-3.276,0-5.796-2.771-5.796-6.888c-0.028-4.508,2.771-7.28,6.075-7.28
			c2.072,0,3.473,0.98,4.088,2.072h0.057v-8.092H416.135z M413.671,536.761c0-0.308-0.028-0.728-0.112-1.036
			c-0.364-1.567-1.708-2.855-3.556-2.855c-2.548,0-4.061,2.24-4.061,5.235c0,2.744,1.345,5.013,4.004,5.013
			c1.652,0,3.164-1.093,3.612-2.94c0.084-0.336,0.112-0.672,0.112-1.063V536.761z"/>
		<path fill="#2F8ECD" d="M421.595,538.469c0.056,3.332,2.184,4.704,4.647,4.704c1.766,0,2.828-0.308,3.754-0.7l0.42,1.765
			c-0.869,0.392-2.354,0.84-4.51,0.84c-4.171,0-6.663-2.744-6.663-6.832s2.407-7.309,6.356-7.309c4.424,0,5.6,3.893,5.6,6.385
			c0,0.504-0.057,0.896-0.084,1.147H421.595z M428.818,536.705c0.029-1.568-0.643-4.004-3.416-4.004
			c-2.49,0-3.583,2.296-3.779,4.004H428.818z"/>
		<path fill="#2F8ECD" d="M449.426,542.697h-0.057c-0.727,1.344-2.238,2.407-4.424,2.407c-3.164,0-5.738-2.743-5.738-6.859
			c0-5.068,3.275-7.309,6.131-7.309c2.1,0,3.5,1.036,4.172,2.353h0.057l0.084-2.044h2.324c-0.057,1.147-0.084,2.324-0.084,3.724
			v15.372h-2.465V542.697z M449.426,536.732c0-0.336-0.027-0.728-0.111-1.035c-0.365-1.513-1.68-2.801-3.529-2.801
			c-2.547,0-4.088,2.156-4.088,5.208c0,2.688,1.289,5.04,4.004,5.04c1.598,0,2.969-0.979,3.529-2.688
			c0.111-0.336,0.195-0.812,0.195-1.176V536.732z"/>
		<path fill="#2F8ECD" d="M467.289,541.101c0,1.4,0.029,2.632,0.113,3.696h-2.186l-0.139-2.212h-0.057
			c-0.645,1.092-2.072,2.52-4.48,2.52c-2.127,0-4.676-1.176-4.676-5.936v-7.924h2.465v7.504c0,2.576,0.783,4.312,3.023,4.312
			c1.652,0,2.801-1.147,3.248-2.239c0.141-0.364,0.225-0.812,0.225-1.261v-8.315h2.463V541.101z"/>
		<path fill="#2F8ECD" d="M472.75,538.469c0.055,3.332,2.184,4.704,4.646,4.704c1.766,0,2.828-0.308,3.754-0.7l0.42,1.765
			c-0.869,0.392-2.354,0.84-4.51,0.84c-4.172,0-6.662-2.744-6.662-6.832s2.406-7.309,6.355-7.309c4.424,0,5.6,3.893,5.6,6.385
			c0,0.504-0.057,0.896-0.084,1.147H472.75z M479.973,536.705c0.029-1.568-0.643-4.004-3.416-4.004c-2.49,0-3.584,2.296-3.779,4.004
			H479.973z"/>
		<path fill="#2F8ECD" d="M494.309,527.353v3.893h3.527v1.876h-3.527v7.308c0,1.681,0.477,2.632,1.848,2.632
			c0.645,0,1.119-0.084,1.428-0.168l0.113,1.849c-0.477,0.195-1.232,0.336-2.186,0.336c-1.146,0-2.072-0.364-2.66-1.036
			c-0.699-0.729-0.951-1.932-0.951-3.528v-7.392h-2.1v-1.876h2.1v-3.248L494.309,527.353z"/>
		<path fill="#2F8ECD" d="M501.812,538.469c0.055,3.332,2.184,4.704,4.646,4.704c1.766,0,2.828-0.308,3.754-0.7l0.42,1.765
			c-0.869,0.392-2.354,0.84-4.51,0.84c-4.172,0-6.662-2.744-6.662-6.832s2.406-7.309,6.355-7.309c4.424,0,5.6,3.893,5.6,6.385
			c0,0.504-0.057,0.896-0.084,1.147H501.812z M509.035,536.705c0.029-1.568-0.643-4.004-3.416-4.004
			c-2.49,0-3.584,2.296-3.779,4.004H509.035z"/>
		<path fill="#2F8ECD" d="M532.107,524.917v16.38c0,1.204,0.027,2.576,0.111,3.5h-2.213l-0.111-2.352h-0.057
			c-0.756,1.512-2.406,2.659-4.619,2.659c-3.275,0-5.795-2.771-5.795-6.888c-0.029-4.508,2.771-7.28,6.074-7.28
			c2.072,0,3.473,0.98,4.088,2.072h0.057v-8.092H532.107z M529.643,536.761c0-0.308-0.027-0.728-0.111-1.036
			c-0.365-1.567-1.709-2.855-3.557-2.855c-2.547,0-4.061,2.24-4.061,5.235c0,2.744,1.346,5.013,4.004,5.013
			c1.652,0,3.164-1.093,3.613-2.94c0.084-0.336,0.111-0.672,0.111-1.063V536.761z"/>
		<path fill="#2F8ECD" d="M537.566,538.469c0.057,3.332,2.184,4.704,4.648,4.704c1.764,0,2.828-0.308,3.752-0.7l0.42,1.765
			c-0.867,0.392-2.352,0.84-4.508,0.84c-4.172,0-6.664-2.744-6.664-6.832s2.408-7.309,6.355-7.309c4.424,0,5.6,3.893,5.6,6.385
			c0,0.504-0.055,0.896-0.084,1.147H537.566z M544.791,536.705c0.027-1.568-0.645-4.004-3.416-4.004
			c-2.492,0-3.584,2.296-3.779,4.004H544.791z"/>
		<path fill="#2F8ECD" d="M550.223,534.913c0-1.4-0.029-2.548-0.113-3.668h2.186l0.139,2.24h0.057
			c0.672-1.288,2.24-2.549,4.48-2.549c1.875,0,4.787,1.12,4.787,5.769v8.092h-2.463v-7.812c0-2.185-0.812-4.005-3.137-4.005
			c-1.623,0-2.885,1.148-3.305,2.521c-0.111,0.308-0.168,0.728-0.168,1.147v8.148h-2.463V534.913z"/>
		<path fill="#2F8ECD" d="M571.697,535.669c0-1.736-0.055-3.136-0.111-4.424h2.211l0.113,2.324h0.055
			c1.01-1.652,2.605-2.633,4.816-2.633c3.277,0,5.74,2.772,5.74,6.889c0,4.872-2.967,7.279-6.16,7.279
			c-1.791,0-3.359-0.783-4.172-2.128h-0.057v7.364h-2.436V535.669z M574.133,539.281c0,0.363,0.057,0.699,0.113,1.008
			c0.447,1.708,1.932,2.884,3.695,2.884c2.604,0,4.117-2.128,4.117-5.236c0-2.716-1.43-5.04-4.033-5.04
			c-1.68,0-3.248,1.204-3.723,3.053c-0.084,0.308-0.17,0.672-0.17,1.008V539.281z"/>
		<path fill="#2F8ECD" d="M589.002,538.469c0.055,3.332,2.184,4.704,4.646,4.704c1.766,0,2.828-0.308,3.754-0.7l0.42,1.765
			c-0.869,0.392-2.354,0.84-4.51,0.84c-4.172,0-6.662-2.744-6.662-6.832s2.406-7.309,6.355-7.309c4.424,0,5.6,3.893,5.6,6.385
			c0,0.504-0.057,0.896-0.084,1.147H589.002z M596.225,536.705c0.029-1.568-0.643-4.004-3.416-4.004
			c-2.49,0-3.584,2.296-3.779,4.004H596.225z"/>
		<path fill="#2F8ECD" d="M601.656,535.473c0-1.596-0.027-2.968-0.111-4.228h2.156l0.084,2.66h0.111
			c0.617-1.82,2.1-2.969,3.752-2.969c0.281,0,0.477,0.028,0.701,0.084v2.324c-0.252-0.056-0.504-0.084-0.842-0.084
			c-1.734,0-2.967,1.316-3.303,3.164c-0.057,0.336-0.113,0.729-0.113,1.148v7.224h-2.436V535.473z"/>
		<path fill="#2F8ECD" d="M610.926,534.913c0-1.4-0.029-2.548-0.113-3.668h2.156l0.113,2.184h0.084
			c0.756-1.288,2.016-2.492,4.256-2.492c1.848,0,3.248,1.12,3.836,2.717h0.055c0.42-0.757,0.953-1.345,1.514-1.765
			c0.811-0.616,1.707-0.952,2.994-0.952c1.793,0,4.453,1.177,4.453,5.881v7.979h-2.408v-7.672c0-2.604-0.951-4.172-2.939-4.172
			c-1.4,0-2.492,1.036-2.912,2.24c-0.113,0.336-0.197,0.783-0.197,1.231v8.372h-2.406v-8.12c0-2.156-0.953-3.724-2.828-3.724
			c-1.541,0-2.66,1.231-3.053,2.464c-0.141,0.364-0.195,0.784-0.195,1.204v8.176h-2.408V534.913z"/>
		<path fill="#2F8ECD" d="M637.021,527.437c0.027,0.841-0.588,1.513-1.568,1.513c-0.869,0-1.484-0.672-1.484-1.513
			c0-0.867,0.645-1.54,1.541-1.54C636.434,525.896,637.021,526.569,637.021,527.437z M634.277,544.797v-13.552h2.463v13.552H634.277
			z"/>
		<path fill="#2F8ECD" d="M640.492,542.277c0.729,0.476,2.016,0.979,3.248,0.979c1.793,0,2.633-0.896,2.633-2.016
			c0-1.177-0.701-1.82-2.52-2.492c-2.438-0.868-3.584-2.212-3.584-3.836c0-2.185,1.764-3.977,4.676-3.977
			c1.371,0,2.576,0.393,3.332,0.841l-0.617,1.792c-0.531-0.336-1.512-0.784-2.771-0.784c-1.455,0-2.268,0.84-2.268,1.848
			c0,1.12,0.812,1.624,2.576,2.296c2.352,0.896,3.555,2.072,3.555,4.088c0,2.38-1.848,4.061-5.066,4.061
			c-1.484,0-2.857-0.364-3.809-0.924L640.492,542.277z"/>
		<path fill="#2F8ECD" d="M664.18,537.909c0,5.012-3.471,7.195-6.748,7.195c-3.668,0-6.494-2.688-6.494-6.972
			c0-4.536,2.967-7.196,6.719-7.196C661.549,530.937,664.18,533.765,664.18,537.909z M653.428,538.049
			c0,2.968,1.709,5.208,4.117,5.208c2.352,0,4.115-2.212,4.115-5.264c0-2.296-1.148-5.208-4.061-5.208
			C654.689,532.785,653.428,535.473,653.428,538.049z"/>
		<path fill="#2F8ECD" d="M666.029,543.341c0-1.036,0.699-1.764,1.68-1.764s1.652,0.728,1.652,1.764c0,1.008-0.645,1.764-1.68,1.764
			C666.701,545.104,666.029,544.349,666.029,543.341z"/>
	</g>
	<g>
		<g>
			<g id="Layer_1_1_">
				<g>
					<path fill="#2F8ECD" d="M400.74,153.798c-0.623-1.333-1.957-2.187-3.438-2.187h-11.252
						c-7.152-38.812-41.23-68.314-82.08-68.314c-46.04,0-83.498,37.455-83.498,83.494c0,46.04,37.456,83.496,83.498,83.496
						c29.711,0,57.414-15.997,72.307-41.727c2.103-3.633,0.863-8.272-2.77-10.375c-3.631-2.102-8.271-0.863-10.365,2.77
						c-12.191,21.063-34.867,34.154-59.172,34.154c-37.669,0-68.318-30.648-68.318-68.311c0-37.67,30.649-68.317,68.318-68.317
						c32.442,0,59.623,22.758,66.55,53.136h-11.162c-1.478,0-2.814,0.848-3.443,2.185c-0.623,1.337-0.421,2.905,0.524,4.038
						l18.975,22.773c0.723,0.863,1.787,1.359,2.92,1.359c1.126,0,2.193-0.502,2.913-1.359l18.976-22.773
						C401.17,156.703,401.371,155.13,400.74,153.798z"/>
					<path fill="#2F8ECD" d="M303.971,102.273c-4.195,0-7.592,3.399-7.592,7.588v46.06c-3.434,2.404-5.694,6.371-5.694,10.875
						c0,7.326,5.962,13.286,13.286,13.286c2.008,0,3.9-0.479,5.607-1.284l26.399,15.237c1.202,0.699,2.501,1.021,3.791,1.021
						c2.618,0,5.171-1.357,6.575-3.797c2.095-3.625,0.855-8.271-2.778-10.366l-26.429-15.257c-0.354-4.012-2.439-7.518-5.569-9.709
						v-46.065C311.559,105.672,308.16,102.273,303.971,102.273z M303.971,172.485c-3.141,0-5.693-2.559-5.693-5.689
						c0-3.139,2.557-5.689,5.693-5.689c3.135,0,5.689,2.551,5.689,5.689C309.66,169.926,307.105,172.485,303.971,172.485z"/>
				</g>
			</g>
		</g>
		<g>
			<g>
				<path fill="#2F8ECD" d="M547.778,171.107l-0.005-0.011c0.006,0.002,0.012,0.004,0.018,0.005
					C547.788,171.102,547.782,171.104,547.778,171.107z"/>
				<path fill="#2F8ECD" d="M546.004,168.17h-0.003c0-0.004,0.003-0.006,0.003-0.01V168.17z"/>
			</g>
			<path fill="#2F8ECD" d="M521.478,198.208v-31.987c0.038-1.123-0.193-4.15-4.707-4.664c-3.24-0.37-5.889,0.718-6.621,3.228
				l0.004-2.536c0-3.688-2.992-4.539-6.679-4.539c-3.629,0-6.485,0.831-6.665,3.632v-0.849c0-3.688-3.113-4.506-6.801-4.506
				c-3.688,0-6.557,0.818-6.557,4.506l-0.054-38.17c0-3.686-2.988-6.678-6.676-6.678c-3.69,0-6.681,2.992-6.681,6.678l-0.086,59.166
				c0,0.773-0.55,1.391-1.273,1.557l-0.038,0.074c-0.029-0.02-0.066-0.027-0.098-0.049c-0.073,0.012-0.139,0.045-0.216,0.045
				c-0.505,0-0.853-0.335-1.236-0.603c-1.516-1.05-3.238-1.014-4.418-0.951c-3.435,0.179-6.502,1.87-6.323,5.306l0.797,16.387
				c0,0,12.567,28.785,17.034,29.904l-3.536,79.781c0,0.277,0.023,0.553,0.056,0.826c-0.015,0.053-0.031,0.105-0.044,0.16
				c0.542,4.281,4.188,7.594,8.617,7.594h29.015c4.802,0,7.698-3.895,7.698-8.697l-4.717-80.166
				C520.666,225.622,521.478,198.811,521.478,198.208z"/>
		</g>
		<g>
			<path fill="#2F8ECD" d="M235.308,280.198c0.573,0.06,1.086,0.06,1.991,0c1.389-0.091,2.808-0.483,3.863-1.208
				c1.268-0.875,2.113-2.143,2.476-3.622l-0.091-0.03c-0.875,0.905-2.143,1.418-3.924,1.418c-3.32,0-6.127-2.324-6.127-6.127
				c0-3.833,3.079-7.062,7.395-7.062c5.041,0,7.425,3.863,7.425,8.451c0,4.075-1.298,7.063-3.44,9.024
				c-1.871,1.69-4.437,2.626-7.485,2.747c-0.784,0.061-1.569,0.03-2.082,0V280.198z M238.084,270.359
				c0,1.69,0.905,3.139,2.776,3.139c1.237,0,2.113-0.604,2.535-1.298c0.151-0.271,0.242-0.573,0.242-1.147
				c0-2.083-0.785-4.135-2.867-4.135C239.2,266.918,238.054,268.306,238.084,270.359z"/>
			<path fill="#2F8ECD" d="M265.093,273.619c0,6.066-2.444,10.231-7.455,10.231c-5.07,0-7.304-4.558-7.334-10.111
				c0-5.674,2.415-10.171,7.485-10.171C263.04,263.568,265.093,268.246,265.093,273.619z M254.922,273.739
				c-0.03,4.497,1.056,6.64,2.837,6.64c1.78,0,2.746-2.234,2.746-6.701c0-4.346-0.936-6.64-2.776-6.64
				C256.038,267.039,254.892,269.182,254.922,273.739z"/>
			<path fill="#2F8ECD" d="M274.021,273.467c0-1.841-0.061-3.41-0.12-4.708h3.863l0.211,1.992h0.091
				c0.634-0.936,1.932-2.324,4.467-2.324c1.901,0,3.41,0.966,4.044,2.505h0.061c0.543-0.754,1.207-1.358,1.901-1.781
				c0.815-0.483,1.721-0.724,2.807-0.724c2.838,0,4.98,1.992,4.98,6.398v8.692h-4.467v-8.028c0-2.143-0.694-3.38-2.173-3.38
				c-1.057,0-1.812,0.724-2.113,1.6c-0.12,0.332-0.181,0.815-0.181,1.177v8.632h-4.467v-8.27c0-1.871-0.664-3.139-2.113-3.139
				c-1.177,0-1.871,0.905-2.143,1.66c-0.151,0.362-0.182,0.785-0.182,1.146v8.602h-4.467V273.467z"/>
			<path fill="#2F8ECD" d="M304.711,264.654c0,1.268-0.966,2.294-2.476,2.294c-1.448,0-2.414-1.026-2.384-2.294
				c-0.03-1.328,0.936-2.324,2.414-2.324C303.745,262.331,304.681,263.326,304.711,264.654z M299.972,283.518v-14.759h4.588v14.759
				H299.972z"/>
			<path fill="#2F8ECD" d="M308.239,273.467c0-1.841-0.061-3.41-0.12-4.708h3.983l0.212,2.022h0.09
				c0.604-0.936,2.113-2.354,4.558-2.354c3.019,0,5.282,1.992,5.282,6.338v8.753h-4.588v-8.179c0-1.901-0.664-3.199-2.324-3.199
				c-1.268,0-2.021,0.875-2.324,1.72c-0.12,0.271-0.181,0.725-0.181,1.147v8.511h-4.588V273.467z"/>
			<path fill="#2F8ECD" d="M339.836,278.779c0,1.932,0.061,3.501,0.121,4.739h-3.984l-0.211-2.083h-0.091
				c-0.573,0.905-1.962,2.415-4.618,2.415c-2.987,0-5.191-1.871-5.191-6.429v-8.662h4.618v7.938c0,2.143,0.694,3.441,2.294,3.441
				c1.268,0,1.992-0.875,2.294-1.6c0.12-0.271,0.15-0.634,0.15-0.996v-8.783h4.618V278.779z"/>
			<path fill="#2F8ECD" d="M348.645,264.534v4.226h3.29v3.38h-3.29v5.342c0,1.78,0.423,2.595,1.812,2.595
				c0.573,0,1.026-0.06,1.358-0.121l0.029,3.471c-0.604,0.241-1.689,0.392-2.987,0.392c-1.479,0-2.717-0.513-3.441-1.268
				c-0.845-0.875-1.268-2.294-1.268-4.376v-6.036h-1.962v-3.38h1.962v-3.199L348.645,264.534z"/>
			<path fill="#2F8ECD" d="M369.016,275.973c0,5.402-3.833,7.877-7.787,7.877c-4.315,0-7.636-2.837-7.636-7.606
				c0-4.769,3.139-7.817,7.877-7.817C365.997,268.427,369.016,271.536,369.016,275.973z M358.331,276.124
				c0,2.535,1.057,4.437,3.019,4.437c1.78,0,2.928-1.781,2.928-4.437c0-2.203-0.846-4.437-2.928-4.437
				C359.146,271.687,358.331,273.95,358.331,276.124z"/>
			<path fill="#2F8ECD" d="M371.818,279.504c0.846,0.513,2.596,1.117,3.954,1.117c1.389,0,1.962-0.483,1.962-1.237
				c0-0.755-0.453-1.117-2.173-1.69c-3.049-1.026-4.226-2.686-4.195-4.437c0-2.747,2.354-4.829,6.006-4.829
				c1.721,0,3.26,0.392,4.165,0.845l-0.814,3.169c-0.664-0.362-1.932-0.845-3.199-0.845c-1.117,0-1.751,0.453-1.751,1.208
				c0,0.694,0.573,1.056,2.385,1.69c2.807,0.966,3.983,2.384,4.014,4.558c0,2.747-2.173,4.769-6.398,4.769
				c-1.932,0-3.652-0.422-4.769-1.026L371.818,279.504z"/>
		</g>
	</g>
	<g>
		<path fill="#2F8ECD" d="M301.564,366.624v20.219h-4.59v-20.219H301.564z"/>
		<path fill="#2F8ECD" d="M305.524,386.843v-20.219h5.34l4.2,7.409c1.2,2.13,2.4,4.65,3.3,6.93h0.09c-0.3-2.67-0.39-5.399-0.39-8.43
			v-5.909h4.2v20.219h-4.8l-4.32-7.8c-1.2-2.16-2.52-4.77-3.51-7.14l-0.09,0.03c0.12,2.67,0.18,5.52,0.18,8.819v6.09H305.524z"/>
		<path fill="#2F8ECD" d="M330.124,370.464h-5.43v-3.84h15.539v3.84h-5.52v16.379h-4.59V370.464z"/>
		<path fill="#2F8ECD" d="M342.663,366.894c1.47-0.24,3.66-0.42,6.09-0.42c3,0,5.1,0.45,6.54,1.59c1.2,0.96,1.86,2.37,1.86,4.229
			c0,2.58-1.83,4.351-3.57,4.98v0.09c1.41,0.57,2.19,1.92,2.7,3.779c0.63,2.28,1.26,4.92,1.65,5.7h-4.68
			c-0.33-0.57-0.81-2.22-1.41-4.71c-0.54-2.52-1.41-3.21-3.27-3.239h-1.38v7.949h-4.53V366.894z M347.193,375.593h1.8
			c2.28,0,3.63-1.14,3.63-2.909c0-1.86-1.26-2.79-3.36-2.82c-1.11,0-1.74,0.09-2.07,0.15V375.593z"/>
		<path fill="#2F8ECD" d="M364.862,366.624v11.639c0,3.48,1.32,5.25,3.66,5.25c2.4,0,3.72-1.68,3.72-5.25v-11.639h4.56v11.339
			c0,6.24-3.149,9.21-8.429,9.21c-5.1,0-8.1-2.82-8.1-9.27v-11.279H364.862z"/>
		<path fill="#2F8ECD" d="M395.612,386.272c-0.84,0.42-2.729,0.87-5.189,0.87c-6.99,0-10.59-4.35-10.59-10.109
			c0-6.899,4.92-10.739,11.04-10.739c2.37,0,4.17,0.479,4.98,0.899l-0.93,3.63c-0.93-0.39-2.22-0.75-3.84-0.75
			c-3.63,0-6.45,2.19-6.45,6.69c0,4.05,2.4,6.6,6.48,6.6c1.38,0,2.91-0.301,3.81-0.66L395.612,386.272z"/>
		<path fill="#2F8ECD" d="M412.562,386.272c-0.84,0.42-2.729,0.87-5.189,0.87c-6.99,0-10.59-4.35-10.59-10.109
			c0-6.899,4.92-10.739,11.04-10.739c2.37,0,4.17,0.479,4.98,0.899l-0.93,3.63c-0.93-0.39-2.22-0.75-3.84-0.75
			c-3.63,0-6.45,2.19-6.45,6.69c0,4.05,2.4,6.6,6.48,6.6c1.38,0,2.91-0.301,3.81-0.66L412.562,386.272z"/>
		<path fill="#2F8ECD" d="M420.151,366.624v20.219h-4.589v-20.219H420.151z"/>
		<path fill="#2F8ECD" d="M442.621,376.523c0,6.63-4.02,10.649-9.93,10.649c-6,0-9.51-4.53-9.51-10.29
			c0-6.06,3.87-10.589,9.84-10.589C439.231,366.294,442.621,370.943,442.621,376.523z M428.012,376.793c0,3.96,1.859,6.75,4.92,6.75
			c3.09,0,4.859-2.939,4.859-6.87c0-3.63-1.74-6.749-4.89-6.749C429.812,369.924,428.012,372.863,428.012,376.793z"/>
		<path fill="#2F8ECD" d="M445.621,386.843v-20.219h5.34l4.2,7.409c1.2,2.13,2.399,4.65,3.3,6.93h0.09
			c-0.3-2.67-0.39-5.399-0.39-8.43v-5.909h4.2v20.219h-4.801l-4.319-7.8c-1.2-2.16-2.52-4.77-3.51-7.14l-0.09,0.03
			c0.12,2.67,0.18,5.52,0.18,8.819v6.09H445.621z"/>
		<path fill="#2F8ECD" d="M478.351,378.293h-7.44v4.8h8.311v3.75h-12.9v-20.219H478.8v3.749h-7.89v4.2h7.44V378.293z"/>
		<path fill="#2F8ECD" d="M482.49,382.133c1.23,0.63,3.12,1.26,5.07,1.26c2.1,0,3.209-0.869,3.209-2.189c0-1.26-0.96-1.98-3.39-2.85
			c-3.359-1.17-5.55-3.03-5.55-5.97c0-3.45,2.88-6.09,7.65-6.09c2.279,0,3.959,0.479,5.159,1.02l-1.02,3.69
			c-0.811-0.391-2.25-0.961-4.23-0.961c-1.979,0-2.939,0.9-2.939,1.95c0,1.29,1.14,1.86,3.75,2.851
			c3.569,1.319,5.25,3.18,5.25,6.029c0,3.39-2.61,6.27-8.16,6.27c-2.31,0-4.59-0.6-5.729-1.229L482.49,382.133z"/>
	</g>
</g>
</svg>
