<?xml version="1.0" encoding="utf-8"?>
<!-- Generator: Adobe Illustrator 16.0.0, SVG Export Plug-In . SVG Version: 6.00 Build 0)  -->
<!DOCTYPE svg PUBLIC "-//W3C//DTD SVG 1.1//EN" "http://www.w3.org/Graphics/SVG/1.1/DTD/svg11.dtd">
<svg version="1.1" xmlns="http://www.w3.org/2000/svg" xmlns:xlink="http://www.w3.org/1999/xlink" x="0px" y="0px" width="232px"
	 height="62.5px" viewBox="0 0 232 62.5" enable-background="new 0 0 232 62.5" xml:space="preserve">
<g id="Capa_1">
	<rect y="-0.509" fill="#2F8FCE" width="232" height="63.009"/>
	<rect y="-0.509" fill="#5C6367" width="63" height="63.009"/>
</g>
<g id="Capa_3">
	<rect y="-0.509" fill="#5C6367" width="232" height="63.009"/>
	<rect y="-0.509" fill="#2F8FCE" width="63" height="63.009"/>
</g>
<g id="Capa_2">
	<g>
		<g>
			<path fill="#FFFFFF" d="M84.312,13.296c-0.28-1.227-0.8-2.1-1.56-2.62c-0.761-0.52-1.754-0.78-2.98-0.78
				c-0.866,0-1.613,0.173-2.24,0.52c-0.626,0.347-1.143,0.813-1.55,1.4c-0.406,0.587-0.707,1.264-0.899,2.03
				c-0.193,0.767-0.29,1.577-0.29,2.43c0,0.8,0.083,1.587,0.25,2.36c0.166,0.773,0.442,1.463,0.83,2.07
				c0.386,0.607,0.906,1.097,1.56,1.47s1.474,0.56,2.46,0.56c0.613,0,1.173-0.1,1.68-0.3c0.507-0.2,0.95-0.477,1.33-0.83
				c0.38-0.353,0.7-0.77,0.96-1.25c0.261-0.48,0.457-1.006,0.591-1.58h1.42c-0.16,0.694-0.394,1.35-0.7,1.97s-0.71,1.164-1.21,1.63
				c-0.5,0.467-1.107,0.837-1.82,1.11c-0.713,0.273-1.55,0.41-2.51,0.41c-1.107,0-2.054-0.203-2.84-0.61
				c-0.787-0.407-1.431-0.957-1.931-1.65s-0.863-1.497-1.09-2.41c-0.227-0.913-0.34-1.883-0.34-2.91c0-1.373,0.17-2.54,0.51-3.5
				s0.811-1.743,1.41-2.35c0.601-0.607,1.307-1.047,2.12-1.32c0.813-0.273,1.7-0.41,2.66-0.41c0.733,0,1.416,0.097,2.05,0.29
				c0.633,0.194,1.193,0.484,1.68,0.87c0.487,0.387,0.887,0.864,1.2,1.43c0.313,0.567,0.53,1.223,0.65,1.97H84.312z"/>
			<path fill="#FFFFFF" d="M89.871,16.976v6.54h-1.36v-14.4h5.641c1.586,0,2.8,0.297,3.64,0.89s1.26,1.557,1.26,2.89
				c0,0.907-0.183,1.627-0.55,2.16s-0.963,0.987-1.79,1.36c0.427,0.147,0.76,0.36,1,0.64c0.24,0.28,0.42,0.6,0.54,0.96
				s0.196,0.74,0.23,1.14c0.033,0.4,0.057,0.787,0.069,1.16c0.014,0.547,0.037,1,0.07,1.36c0.033,0.36,0.073,0.653,0.12,0.88
				c0.047,0.227,0.104,0.403,0.17,0.53c0.066,0.127,0.146,0.224,0.24,0.29v0.14h-1.5c-0.147-0.24-0.25-0.573-0.311-1
				c-0.06-0.427-0.106-0.873-0.14-1.34s-0.06-0.92-0.08-1.36c-0.02-0.44-0.057-0.8-0.11-1.08c-0.08-0.387-0.21-0.697-0.39-0.93
				s-0.396-0.41-0.65-0.53c-0.253-0.12-0.536-0.2-0.85-0.24s-0.637-0.06-0.97-0.06H89.871z M94.111,15.816
				c0.507,0,0.977-0.053,1.41-0.16c0.433-0.107,0.81-0.277,1.13-0.51c0.319-0.233,0.573-0.53,0.76-0.89
				c0.187-0.36,0.28-0.793,0.28-1.3c0-0.533-0.097-0.973-0.29-1.32s-0.454-0.62-0.78-0.82c-0.327-0.2-0.7-0.34-1.12-0.42
				s-0.856-0.12-1.31-0.12h-4.32v5.54H94.111z"/>
			<path fill="#FFFFFF" d="M101.871,23.516v-14.4h9.58v1.16h-8.22v5.2h7.42v1.16h-7.42v5.72h8.42v1.16H101.871z"/>
			<path fill="#FFFFFF" d="M112.771,23.516l5.66-14.4h1.54l5.52,14.4h-1.399l-1.66-4.52h-6.56l-1.7,4.52H112.771z M116.331,17.836
				h5.64l-2.82-7.56L116.331,17.836z"/>
			<path fill="#FFFFFF" d="M128.771,16.976v6.54h-1.36v-14.4h5.641c1.586,0,2.8,0.297,3.64,0.89s1.26,1.557,1.26,2.89
				c0,0.907-0.183,1.627-0.55,2.16s-0.963,0.987-1.79,1.36c0.427,0.147,0.76,0.36,1,0.64c0.24,0.28,0.42,0.6,0.54,0.96
				s0.196,0.74,0.23,1.14c0.033,0.4,0.057,0.787,0.069,1.16c0.014,0.547,0.037,1,0.07,1.36c0.033,0.36,0.073,0.653,0.12,0.88
				c0.047,0.227,0.104,0.403,0.17,0.53c0.066,0.127,0.146,0.224,0.24,0.29v0.14h-1.5c-0.147-0.24-0.25-0.573-0.311-1
				c-0.06-0.427-0.106-0.873-0.14-1.34s-0.06-0.92-0.08-1.36c-0.02-0.44-0.057-0.8-0.11-1.08c-0.08-0.387-0.21-0.697-0.39-0.93
				s-0.396-0.41-0.65-0.53c-0.253-0.12-0.536-0.2-0.85-0.24s-0.637-0.06-0.97-0.06H128.771z M133.011,15.816
				c0.507,0,0.977-0.053,1.41-0.16c0.433-0.107,0.81-0.277,1.13-0.51c0.319-0.233,0.573-0.53,0.76-0.89
				c0.187-0.36,0.28-0.793,0.28-1.3c0-0.533-0.097-0.973-0.29-1.32s-0.454-0.62-0.78-0.82c-0.327-0.2-0.7-0.34-1.12-0.42
				s-0.856-0.12-1.31-0.12h-4.32v5.54H133.011z"/>
			<path fill="#FFFFFF" d="M74.031,47.516V33.116h5.261c0.933,0,1.703,0.106,2.31,0.319c0.606,0.214,1.087,0.507,1.44,0.88
				c0.353,0.374,0.6,0.804,0.739,1.29c0.141,0.487,0.21,0.997,0.21,1.53c0,0.8-0.163,1.46-0.489,1.98
				c-0.327,0.52-0.75,0.93-1.271,1.229c-0.52,0.3-1.109,0.51-1.77,0.63s-1.323,0.181-1.99,0.181h-3.08v6.359H74.031z M78.512,39.996
				c0.64,0,1.213-0.04,1.72-0.12s0.937-0.23,1.29-0.45s0.627-0.52,0.82-0.9c0.193-0.38,0.29-0.876,0.29-1.489
				c0-0.907-0.297-1.594-0.891-2.061c-0.593-0.466-1.536-0.7-2.829-0.7h-3.521v5.721H78.512z"/>
			<path fill="#FFFFFF" d="M87.651,40.976v6.54h-1.36V33.116h5.641c1.586,0,2.8,0.297,3.64,0.89c0.84,0.594,1.26,1.557,1.26,2.89
				c0,0.907-0.183,1.627-0.55,2.16s-0.963,0.987-1.79,1.36c0.427,0.146,0.76,0.359,1,0.64s0.42,0.601,0.54,0.96
				c0.12,0.36,0.196,0.74,0.23,1.141c0.033,0.399,0.057,0.786,0.069,1.159c0.014,0.547,0.037,1,0.07,1.36s0.073,0.653,0.12,0.88
				c0.047,0.228,0.104,0.403,0.17,0.53s0.146,0.224,0.24,0.29v0.14h-1.5c-0.147-0.24-0.25-0.573-0.311-1
				c-0.06-0.427-0.106-0.873-0.14-1.34s-0.06-0.92-0.08-1.36c-0.02-0.439-0.057-0.8-0.11-1.079c-0.08-0.387-0.21-0.697-0.39-0.931
				s-0.396-0.41-0.65-0.53c-0.253-0.119-0.536-0.199-0.85-0.239s-0.637-0.061-0.97-0.061H87.651z M91.892,39.815
				c0.507,0,0.977-0.053,1.41-0.159c0.433-0.107,0.81-0.277,1.13-0.511c0.319-0.232,0.573-0.529,0.76-0.89s0.28-0.793,0.28-1.3
				c0-0.533-0.097-0.974-0.29-1.32s-0.454-0.62-0.78-0.82c-0.327-0.199-0.7-0.34-1.12-0.42s-0.856-0.12-1.31-0.12h-4.32v5.54H91.892
				z"/>
			<path fill="#FFFFFF" d="M99.651,47.516V33.116h9.58v1.159h-8.22v5.2h7.42v1.16h-7.42v5.72h8.42v1.16H99.651z"/>
			<path fill="#FFFFFF" d="M117.991,41.236v-1.16h6.16v7.439h-1.16v-2.46c-0.254,0.427-0.544,0.817-0.87,1.17
				c-0.327,0.354-0.703,0.653-1.13,0.9s-0.92,0.437-1.48,0.57c-0.56,0.133-1.193,0.199-1.899,0.199
				c-0.907,0-1.747-0.159-2.521-0.479s-1.439-0.797-2-1.43c-0.56-0.634-0.997-1.431-1.31-2.391c-0.313-0.96-0.471-2.08-0.471-3.359
				c0-1.054,0.134-2.037,0.4-2.95s0.677-1.707,1.23-2.38c0.553-0.674,1.246-1.203,2.079-1.591c0.834-0.386,1.817-0.579,2.95-0.579
				c0.761,0,1.471,0.093,2.13,0.279c0.66,0.188,1.254,0.471,1.78,0.851s0.97,0.854,1.33,1.42s0.62,1.236,0.78,2.01h-1.4
				c-0.12-0.533-0.323-1.013-0.609-1.44c-0.287-0.426-0.631-0.783-1.03-1.069c-0.4-0.287-0.847-0.507-1.34-0.66
				c-0.494-0.153-1.007-0.23-1.54-0.23c-0.947,0-1.761,0.167-2.44,0.5c-0.68,0.334-1.24,0.804-1.68,1.41
				c-0.44,0.607-0.764,1.334-0.97,2.181c-0.207,0.847-0.311,1.776-0.311,2.789c0,0.801,0.116,1.561,0.35,2.28s0.573,1.354,1.021,1.9
				c0.446,0.547,0.993,0.979,1.64,1.3s1.384,0.48,2.21,0.48c0.387,0,0.787-0.044,1.2-0.131c0.413-0.086,0.813-0.229,1.2-0.43
				s0.746-0.46,1.08-0.78c0.333-0.319,0.62-0.713,0.86-1.18c0.227-0.453,0.383-0.927,0.47-1.42c0.086-0.493,0.137-1.013,0.149-1.56
				H117.991z"/>
			<path fill="#FFFFFF" d="M127.45,33.116h1.36v8.58c0,1.786,0.333,3.073,1,3.859c0.667,0.787,1.74,1.181,3.22,1.181
				c0.773,0,1.431-0.104,1.971-0.311c0.54-0.206,0.977-0.52,1.31-0.939c0.333-0.421,0.573-0.943,0.72-1.57s0.221-1.367,0.221-2.22
				v-8.58h1.359v8.979c0,1.88-0.463,3.317-1.39,4.311s-2.323,1.489-4.19,1.489c-1.88,0-3.279-0.506-4.2-1.52
				c-0.92-1.014-1.38-2.44-1.38-4.28V33.116z"/>
			<path fill="#FFFFFF" d="M143.23,34.956h-0.04v12.56h-1.36V33.116h1.54l8.32,12.58h0.04v-12.58h1.359v14.399h-1.58L143.23,34.956z
				"/>
			<path fill="#FFFFFF" d="M155.01,33.116h10.479v1.159h-4.56v13.24h-1.36v-13.24h-4.56V33.116z"/>
			<path fill="#FFFFFF" d="M166.109,47.516l5.66-14.399h1.54l5.52,14.399h-1.399l-1.66-4.52h-6.56l-1.7,4.52H166.109z
				 M169.67,41.836h5.64l-2.82-7.561L169.67,41.836z"/>
		</g>
		<g>
			<path fill="#FFFFFF" stroke="#FFFFFF" stroke-width="0.5" stroke-miterlimit="10" d="M49.843,18.605
				c-0.003-0.045-0.013-0.092-0.028-0.137c-0.006-0.02-0.01-0.035-0.018-0.055c-0.026-0.057-0.06-0.111-0.107-0.158l-9.982-9.982
				c-0.047-0.041-0.101-0.076-0.158-0.104c-0.017-0.008-0.034-0.012-0.052-0.02c-0.048-0.016-0.092-0.023-0.14-0.025
				c-0.012-0.004-0.023-0.008-0.035-0.008H23.47c-0.298,0-0.544,0.24-0.544,0.541v8.363h-7.384c-0.3,0-0.542,0.244-0.542,0.545
				v32.765c0,0.299,0.242,0.541,0.542,0.541H41.38c0.3,0,0.543-0.242,0.543-0.541v-8.363h7.383c0.3,0,0.545-0.242,0.545-0.541V18.64
				C49.851,18.628,49.843,18.621,49.843,18.605z M47.998,18.099h-8.131V9.974L47.998,18.099z M40.835,49.786H16.087V18.107h7.383
				h7.384v9.438c0,0.299,0.242,0.545,0.544,0.545h9.438v13.337V49.786L40.835,49.786z M31.939,18.875L40.068,27h-8.129V18.875z
				 M41.923,40.882V27.544c0-0.012-0.006-0.02-0.006-0.031c-0.005-0.049-0.015-0.096-0.028-0.141
				c-0.008-0.016-0.014-0.035-0.021-0.051c-0.022-0.057-0.058-0.115-0.105-0.16l-9.98-9.98c-0.047-0.049-0.102-0.084-0.16-0.107
				c-0.017-0.012-0.034-0.012-0.051-0.02c-0.047-0.016-0.093-0.021-0.139-0.025c-0.014,0-0.023-0.008-0.034-0.008h-7.383V9.203
				H38.78v9.438c0,0.299,0.244,0.545,0.543,0.545h9.44v21.697H41.923L41.923,40.882z"/>
			<g>
				<path fill="#FFFFFF" d="M28.696,45.323c0,0.486-0.396,0.882-0.883,0.882c-0.485,0-0.882-0.396-0.882-0.882
					s0.396-0.883,0.882-0.883C28.295,44.44,28.696,44.837,28.696,45.323z"/>
				<path fill="#FFFFFF" d="M32.356,33.321c0,1.544-0.882,2.957-2.517,3.926c-1.192,0.707-1.147,1.544-1.147,1.588
					c0,0,0,0.045,0,0.091v2.03c0,0.441-0.352,0.793-0.793,0.793c-0.44,0-0.837-0.352-0.837-0.793v-1.985
					c-0.045-0.706,0.311-2.075,1.895-3.043c0.793-0.486,1.721-1.324,1.721-2.558c0-1.499-1.234-2.736-2.737-2.736
					s-2.737,1.233-2.737,2.736c0,0.441-0.352,0.793-0.792,0.793c-0.441,0-0.793-0.352-0.793-0.793c0-2.425,1.94-4.367,4.367-4.367
					S32.356,30.896,32.356,33.321z"/>
			</g>
		</g>
	</g>
</g>
</svg>
