<?xml version="1.0" encoding="utf-8"?>
<!-- Generator: Adobe Illustrator 16.0.0, SVG Export Plug-In . SVG Version: 6.00 Build 0)  -->
<!DOCTYPE svg PUBLIC "-//W3C//DTD SVG 1.1//EN" "http://www.w3.org/Graphics/SVG/1.1/DTD/svg11.dtd">
<svg version="1.1" xmlns="http://www.w3.org/2000/svg" xmlns:xlink="http://www.w3.org/1999/xlink" x="0px" y="0px" width="232px"
	 height="62.5px" viewBox="0 0 232 62.5" enable-background="new 0 0 232 62.5" xml:space="preserve">
<g id="Capa_1">
	<rect y="-0.509" fill="#2F8FCE" width="232" height="63.009"/>
	<rect y="-0.509" fill="#5C6367" width="63" height="63.009"/>
</g>
<g id="Capa_3" display="none">
	<rect y="-0.509" display="inline" fill="#5C6367" width="232" height="63.009"/>
	<rect y="-0.509" display="inline" fill="#2F8FCE" width="63" height="63.009"/>
</g>
<g id="Capa_2">
	<g>
		<path fill="#FFFFFF" d="M84.106,13.556c-0.28-1.227-0.8-2.1-1.56-2.62c-0.761-0.52-1.754-0.78-2.98-0.78
			c-0.866,0-1.613,0.173-2.24,0.52c-0.626,0.347-1.143,0.813-1.55,1.4c-0.406,0.587-0.707,1.264-0.899,2.03
			c-0.193,0.767-0.29,1.577-0.29,2.43c0,0.8,0.083,1.587,0.25,2.36c0.166,0.773,0.442,1.463,0.83,2.07
			c0.386,0.607,0.906,1.097,1.56,1.47s1.474,0.56,2.46,0.56c0.613,0,1.173-0.1,1.68-0.3c0.507-0.2,0.95-0.477,1.33-0.83
			c0.38-0.353,0.7-0.77,0.96-1.25c0.261-0.48,0.457-1.006,0.591-1.58h1.42c-0.16,0.694-0.394,1.35-0.7,1.97s-0.71,1.164-1.21,1.63
			c-0.5,0.467-1.107,0.837-1.82,1.11c-0.713,0.273-1.55,0.41-2.51,0.41c-1.107,0-2.054-0.203-2.84-0.61
			c-0.787-0.407-1.431-0.957-1.931-1.65s-0.863-1.497-1.09-2.41c-0.227-0.913-0.34-1.883-0.34-2.91c0-1.373,0.17-2.54,0.51-3.5
			s0.811-1.743,1.41-2.35c0.601-0.607,1.307-1.047,2.12-1.32c0.813-0.273,1.7-0.41,2.66-0.41c0.733,0,1.416,0.097,2.05,0.29
			c0.633,0.194,1.193,0.484,1.68,0.87c0.487,0.387,0.887,0.864,1.2,1.43c0.313,0.567,0.53,1.223,0.65,1.97H84.106z"/>
		<path fill="#FFFFFF" d="M89.666,17.236v6.54h-1.36v-14.4h5.641c1.586,0,2.8,0.297,3.64,0.89s1.26,1.557,1.26,2.89
			c0,0.907-0.183,1.627-0.55,2.16s-0.963,0.987-1.79,1.36c0.427,0.147,0.76,0.36,1,0.64c0.24,0.28,0.42,0.6,0.54,0.96
			s0.196,0.74,0.23,1.14c0.033,0.4,0.057,0.787,0.069,1.16c0.014,0.547,0.037,1,0.07,1.36c0.033,0.36,0.073,0.653,0.12,0.88
			c0.047,0.227,0.104,0.403,0.17,0.53c0.066,0.127,0.146,0.224,0.24,0.29v0.14h-1.5c-0.147-0.24-0.25-0.573-0.311-1
			c-0.06-0.427-0.106-0.873-0.14-1.34s-0.06-0.92-0.08-1.36c-0.02-0.44-0.057-0.8-0.11-1.08c-0.08-0.387-0.21-0.697-0.39-0.93
			s-0.396-0.41-0.65-0.53c-0.253-0.12-0.536-0.2-0.85-0.24s-0.637-0.06-0.97-0.06H89.666z M93.906,16.076
			c0.507,0,0.977-0.053,1.41-0.16c0.433-0.107,0.81-0.277,1.13-0.51c0.319-0.233,0.573-0.53,0.76-0.89
			c0.187-0.36,0.28-0.793,0.28-1.3c0-0.533-0.097-0.973-0.29-1.32s-0.454-0.62-0.78-0.82c-0.327-0.2-0.7-0.34-1.12-0.42
			s-0.856-0.12-1.31-0.12h-4.32v5.54H93.906z"/>
		<path fill="#FFFFFF" d="M101.666,23.776v-14.4h9.58v1.16h-8.22v5.2h7.42v1.16h-7.42v5.72h8.42v1.16H101.666z"/>
		<path fill="#FFFFFF" d="M112.565,23.776l5.66-14.4h1.541l5.52,14.4h-1.4l-1.66-4.52h-6.559l-1.7,4.52H112.565z M116.125,18.096
			h5.64l-2.82-7.56L116.125,18.096z"/>
		<path fill="#FFFFFF" d="M128.564,17.236v6.54h-1.359v-14.4h5.641c1.586,0,2.799,0.297,3.639,0.89s1.26,1.557,1.26,2.89
			c0,0.907-0.182,1.627-0.549,2.16s-0.963,0.987-1.791,1.36c0.428,0.147,0.76,0.36,1,0.64c0.24,0.28,0.42,0.6,0.541,0.96
			c0.119,0.36,0.195,0.74,0.23,1.14c0.033,0.4,0.057,0.787,0.068,1.16c0.014,0.547,0.037,1,0.07,1.36
			c0.033,0.36,0.074,0.653,0.121,0.88c0.047,0.227,0.104,0.403,0.17,0.53c0.066,0.127,0.146,0.224,0.24,0.29v0.14h-1.5
			c-0.148-0.24-0.25-0.573-0.311-1s-0.107-0.873-0.141-1.34s-0.059-0.92-0.08-1.36c-0.02-0.44-0.057-0.8-0.109-1.08
			c-0.08-0.387-0.211-0.697-0.391-0.93s-0.396-0.41-0.65-0.53c-0.252-0.12-0.535-0.2-0.85-0.24c-0.312-0.04-0.637-0.06-0.969-0.06
			H128.564z M132.805,16.076c0.508,0,0.977-0.053,1.41-0.16s0.811-0.277,1.131-0.51c0.318-0.233,0.572-0.53,0.76-0.89
			c0.186-0.36,0.279-0.793,0.279-1.3c0-0.533-0.096-0.973-0.289-1.32s-0.455-0.62-0.781-0.82c-0.326-0.2-0.699-0.34-1.119-0.42
			s-0.857-0.12-1.311-0.12h-4.32v5.54H132.805z"/>
		<path fill="#FFFFFF" d="M72.566,47.776l5.66-14.399h1.54l5.52,14.399h-1.399l-1.66-4.52h-6.56l-1.7,4.52H72.566z M76.126,42.097
			h5.64l-2.82-7.561L76.126,42.097z"/>
		<path fill="#FFFFFF" d="M87.226,47.776V33.377h1.36v13.239h7.72v1.16H87.226z"/>
		<path fill="#FFFFFF" d="M97.046,33.377h10.479v1.159h-4.56v13.24h-1.36v-13.24h-4.56V33.377z"/>
		<path fill="#FFFFFF" d="M109.466,47.776V33.377h9.581v1.159h-8.22v5.2h7.419v1.16h-7.419v5.72h8.419v1.16H109.466z"/>
		<path fill="#FFFFFF" d="M123.025,41.236v6.54h-1.359V33.377h5.641c1.586,0,2.799,0.297,3.639,0.89
			c0.84,0.594,1.26,1.557,1.26,2.89c0,0.907-0.182,1.627-0.549,2.16s-0.963,0.987-1.791,1.36c0.428,0.146,0.76,0.359,1,0.64
			s0.42,0.601,0.541,0.96c0.119,0.36,0.195,0.74,0.23,1.141c0.033,0.399,0.057,0.786,0.068,1.159c0.014,0.547,0.037,1,0.07,1.36
			s0.074,0.653,0.121,0.88c0.047,0.228,0.104,0.403,0.17,0.53s0.146,0.224,0.24,0.29v0.14h-1.5c-0.148-0.24-0.25-0.573-0.311-1
			s-0.107-0.873-0.141-1.34s-0.059-0.92-0.08-1.36c-0.02-0.439-0.057-0.8-0.109-1.079c-0.08-0.387-0.211-0.697-0.391-0.931
			s-0.396-0.41-0.65-0.53c-0.252-0.119-0.535-0.199-0.85-0.239c-0.312-0.04-0.637-0.061-0.969-0.061H123.025z M127.266,40.076
			c0.508,0,0.977-0.053,1.41-0.159c0.434-0.107,0.811-0.277,1.131-0.511c0.318-0.232,0.572-0.529,0.76-0.89
			c0.186-0.36,0.279-0.793,0.279-1.3c0-0.533-0.096-0.974-0.289-1.32s-0.455-0.62-0.781-0.82c-0.326-0.199-0.699-0.34-1.119-0.42
			s-0.857-0.12-1.311-0.12h-4.32v5.54H127.266z"/>
		<path fill="#FFFFFF" d="M136.387,35.217h-0.041v12.56h-1.359V33.377h1.539l8.32,12.58h0.041v-12.58h1.359v14.399h-1.58
			L136.387,35.217z"/>
		<path fill="#FFFFFF" d="M148.145,47.776l5.66-14.399h1.541l5.52,14.399h-1.4l-1.66-4.52h-6.559l-1.701,4.52H148.145z
			 M151.705,42.097h5.641l-2.82-7.561L151.705,42.097z"/>
		<path fill="#FFFFFF" d="M161.506,33.377h10.479v1.159h-4.559v13.24h-1.361v-13.24h-4.559V33.377z"/>
		<path fill="#FFFFFF" d="M174.404,47.776V33.377h1.361v14.399H174.404z"/>
		<path fill="#FFFFFF" d="M178.225,33.377h1.42l4.34,12.8l4.32-12.8h1.42l-5,14.399h-1.5L178.225,33.377z"/>
		<path fill="#FFFFFF" d="M190.385,47.776l5.66-14.399h1.539l5.52,14.399h-1.398l-1.66-4.52h-6.561l-1.699,4.52H190.385z
			 M193.945,42.097h5.639l-2.82-7.561L193.945,42.097z"/>
	</g>
	<g>
		<path fill="#FFFFFF" stroke="#FFFFFF" stroke-width="0.5" stroke-miterlimit="10" d="M49.638,18.941
			c-0.003-0.045-0.013-0.092-0.028-0.137c-0.006-0.02-0.01-0.035-0.018-0.055c-0.026-0.057-0.06-0.111-0.107-0.158l-9.982-9.982
			c-0.047-0.041-0.101-0.076-0.158-0.104c-0.017-0.008-0.034-0.012-0.052-0.02c-0.048-0.016-0.092-0.023-0.14-0.025
			c-0.012-0.004-0.023-0.008-0.035-0.008H23.265c-0.298,0-0.544,0.24-0.544,0.541v8.363h-7.384c-0.3,0-0.542,0.244-0.542,0.545
			v32.766c0,0.299,0.242,0.541,0.542,0.541h25.838c0.3,0,0.543-0.242,0.543-0.541v-8.363h7.383c0.3,0,0.545-0.242,0.545-0.541
			V18.977C49.646,18.965,49.638,18.957,49.638,18.941z M47.792,18.436h-8.131v-8.125L47.792,18.436z M40.63,50.123H15.882v-31.68
			h7.383h7.384v9.438c0,0.299,0.242,0.545,0.544,0.545h9.438v13.338V50.123L40.63,50.123z M31.733,19.211l8.129,8.125h-8.129V19.211
			z M41.718,41.219V27.881c0-0.012-0.006-0.02-0.006-0.031c-0.005-0.049-0.015-0.096-0.028-0.141
			c-0.008-0.016-0.014-0.035-0.021-0.051c-0.022-0.057-0.058-0.115-0.105-0.16l-9.98-9.98c-0.047-0.049-0.102-0.084-0.16-0.107
			c-0.017-0.012-0.034-0.012-0.051-0.02c-0.047-0.016-0.093-0.021-0.139-0.025c-0.014,0-0.023-0.008-0.034-0.008H23.81V9.539h14.765
			v9.438c0,0.299,0.244,0.545,0.543,0.545h9.44v21.697H41.718L41.718,41.219z"/>
		<g>
			<g>
				<line fill="#FFFFFF" x1="23.82" y1="38.691" x2="19.339" y2="38.691"/>
				<path fill="#FFFFFF" d="M23.82,39.441h-4.48c-0.1,0-0.18-0.336-0.18-0.75s0.081-0.75,0.18-0.75h4.48
					c0.1,0,0.181,0.336,0.181,0.75S23.919,39.441,23.82,39.441z"/>
			</g>
			<g>
				<line fill="#FFFFFF" x1="23.82" y1="32.654" x2="19.339" y2="32.654"/>
				<path fill="#FFFFFF" d="M23.82,33.404h-4.48c-0.1,0-0.18-0.336-0.18-0.75s0.081-0.75,0.18-0.75h4.48
					c0.1,0,0.181,0.336,0.181,0.75S23.919,33.404,23.82,33.404z"/>
			</g>
			<g>
				<line fill="#FFFFFF" x1="19.339" y1="44.738" x2="23.82" y2="44.738"/>
				<path fill="#FFFFFF" d="M23.82,45.488h-4.48c-0.1,0-0.18-0.336-0.18-0.75s0.081-0.75,0.18-0.75h4.48
					c0.1,0,0.181,0.336,0.181,0.75S23.919,45.488,23.82,45.488z"/>
			</g>
		</g>
	</g>
</g>
</svg>
