<?xml version="1.0" encoding="utf-8"?>
<!-- Generator: Adobe Illustrator 16.0.0, SVG Export Plug-In . SVG Version: 6.00 Build 0)  -->
<!DOCTYPE svg PUBLIC "-//W3C//DTD SVG 1.1//EN" "http://www.w3.org/Graphics/SVG/1.1/DTD/svg11.dtd">
<svg version="1.1" id="Capa_1" xmlns="http://www.w3.org/2000/svg" xmlns:xlink="http://www.w3.org/1999/xlink" x="0px" y="0px"
	 width="232px" height="62.5px" viewBox="0 -20.25 232 62.5" enable-background="new 0 -20.25 232 62.5" xml:space="preserve">
<rect y="-20.75" fill="#2F8FCE" width="232" height="63"/>
<rect y="-20.75" fill="#5C6367" width="63" height="63"/>
<g>
	<path fill="#FFFFFF" d="M84.109,5.92c-0.281-1.227-0.801-2.1-1.561-2.62s-1.754-0.78-2.98-0.78c-0.865,0-1.613,0.173-2.24,0.52
		c-0.625,0.347-1.143,0.813-1.549,1.4c-0.406,0.587-0.707,1.264-0.9,2.03S74.59,8.047,74.59,8.9c0,0.8,0.082,1.587,0.25,2.36
		c0.166,0.773,0.441,1.463,0.83,2.07c0.385,0.607,0.906,1.097,1.559,1.47c0.654,0.373,1.475,0.56,2.461,0.56
		c0.613,0,1.172-0.1,1.68-0.3c0.506-0.2,0.949-0.477,1.33-0.83c0.379-0.353,0.699-0.77,0.959-1.25
		c0.262-0.48,0.457-1.006,0.592-1.58h1.42c-0.16,0.694-0.395,1.35-0.701,1.97S84.26,14.534,83.76,15
		c-0.5,0.467-1.107,0.837-1.82,1.11c-0.713,0.273-1.551,0.41-2.51,0.41c-1.107,0-2.055-0.203-2.84-0.61
		c-0.787-0.407-1.432-0.957-1.932-1.65s-0.863-1.497-1.09-2.41c-0.227-0.913-0.34-1.883-0.34-2.91c0-1.373,0.17-2.54,0.51-3.5
		s0.811-1.743,1.41-2.35c0.602-0.607,1.307-1.047,2.121-1.32c0.812-0.273,1.699-0.41,2.66-0.41c0.732,0,1.416,0.097,2.049,0.29
		c0.633,0.194,1.193,0.484,1.68,0.87c0.488,0.387,0.887,0.864,1.201,1.43c0.312,0.567,0.529,1.223,0.65,1.97H84.109z"/>
	<path fill="#FFFFFF" d="M89.668,9.601v6.54h-1.359v-14.4h5.641c1.586,0,2.799,0.297,3.639,0.89s1.26,1.557,1.26,2.89
		c0,0.907-0.182,1.627-0.549,2.16s-0.963,0.987-1.791,1.36c0.428,0.147,0.76,0.36,1,0.64c0.24,0.28,0.42,0.6,0.541,0.96
		c0.119,0.36,0.195,0.74,0.23,1.14c0.033,0.4,0.057,0.787,0.068,1.16c0.014,0.547,0.037,1,0.07,1.36
		c0.033,0.36,0.074,0.653,0.121,0.88c0.047,0.227,0.104,0.403,0.17,0.53c0.066,0.127,0.146,0.224,0.24,0.29v0.14h-1.5
		c-0.148-0.24-0.25-0.573-0.311-1s-0.107-0.873-0.141-1.34s-0.059-0.92-0.08-1.36c-0.02-0.44-0.057-0.8-0.109-1.08
		c-0.08-0.387-0.211-0.697-0.391-0.93s-0.396-0.41-0.65-0.53c-0.252-0.12-0.535-0.2-0.85-0.24c-0.312-0.04-0.637-0.06-0.969-0.06
		H89.668z M93.908,8.44c0.508,0,0.977-0.053,1.41-0.16s0.811-0.277,1.131-0.51c0.318-0.233,0.572-0.53,0.76-0.89
		c0.186-0.36,0.279-0.793,0.279-1.3c0-0.533-0.096-0.973-0.289-1.32s-0.455-0.62-0.781-0.82c-0.326-0.2-0.699-0.34-1.119-0.42
		S94.441,2.9,93.988,2.9h-4.32v5.54H93.908z"/>
	<path fill="#FFFFFF" d="M101.668,16.141v-14.4h9.58V2.9h-8.219v5.2h7.42v1.16h-7.42v5.72h8.42v1.16H101.668z"/>
	<path fill="#FFFFFF" d="M112.568,16.141l5.66-14.4h1.539l5.52,14.4h-1.398l-1.66-4.52h-6.561l-1.699,4.52H112.568z M116.129,10.46
		h5.639l-2.82-7.56L116.129,10.46z"/>
	<path fill="#FFFFFF" d="M128.568,9.601v6.54h-1.361v-14.4h5.641c1.586,0,2.801,0.297,3.641,0.89s1.26,1.557,1.26,2.89
		c0,0.907-0.184,1.627-0.551,2.16s-0.963,0.987-1.789,1.36c0.426,0.147,0.76,0.36,1,0.64c0.24,0.28,0.42,0.6,0.539,0.96
		c0.121,0.36,0.197,0.74,0.23,1.14s0.057,0.787,0.07,1.16c0.014,0.547,0.037,1,0.07,1.36c0.033,0.36,0.072,0.653,0.119,0.88
		c0.047,0.227,0.104,0.403,0.17,0.53c0.066,0.127,0.146,0.224,0.24,0.29v0.14h-1.5c-0.146-0.24-0.25-0.573-0.311-1
		c-0.059-0.427-0.105-0.873-0.139-1.34s-0.061-0.92-0.08-1.36c-0.02-0.44-0.057-0.8-0.111-1.08c-0.08-0.387-0.209-0.697-0.389-0.93
		s-0.396-0.41-0.65-0.53c-0.254-0.12-0.537-0.2-0.85-0.24c-0.314-0.04-0.637-0.06-0.971-0.06H128.568z M132.809,8.44
		c0.506,0,0.977-0.053,1.41-0.16c0.432-0.107,0.809-0.277,1.129-0.51c0.32-0.233,0.574-0.53,0.76-0.89
		c0.188-0.36,0.281-0.793,0.281-1.3c0-0.533-0.098-0.973-0.291-1.32s-0.453-0.62-0.779-0.82c-0.328-0.2-0.701-0.34-1.121-0.42
		s-0.855-0.12-1.309-0.12h-4.32v5.54H132.809z"/>
	<path fill="#FFFFFF" d="M146.066,16.141v-14.4h5.262c0.932,0,1.703,0.107,2.309,0.32c0.607,0.213,1.088,0.507,1.441,0.88
		c0.352,0.374,0.6,0.804,0.738,1.29c0.141,0.487,0.211,0.997,0.211,1.53c0,0.8-0.164,1.46-0.49,1.98s-0.75,0.93-1.27,1.23
		c-0.52,0.3-1.109,0.51-1.77,0.63s-1.324,0.18-1.99,0.18h-3.08v6.36H146.066z M150.547,8.621c0.641,0,1.213-0.04,1.721-0.12
		c0.506-0.08,0.936-0.23,1.289-0.45c0.354-0.22,0.627-0.52,0.82-0.9c0.193-0.38,0.291-0.876,0.291-1.49
		c0-0.907-0.297-1.593-0.891-2.06c-0.594-0.466-1.537-0.7-2.83-0.7h-3.52v5.72H150.547z"/>
	<path fill="#FFFFFF" d="M159.688,9.601v6.54h-1.361v-14.4h5.641c1.586,0,2.801,0.297,3.641,0.89s1.26,1.557,1.26,2.89
		c0,0.907-0.184,1.627-0.551,2.16s-0.963,0.987-1.789,1.36c0.426,0.147,0.76,0.36,1,0.64c0.24,0.28,0.42,0.6,0.539,0.96
		c0.121,0.36,0.197,0.74,0.23,1.14s0.057,0.787,0.07,1.16c0.014,0.547,0.037,1,0.07,1.36c0.033,0.36,0.072,0.653,0.119,0.88
		c0.047,0.227,0.104,0.403,0.17,0.53c0.066,0.127,0.146,0.224,0.24,0.29v0.14h-1.5c-0.146-0.24-0.25-0.573-0.311-1
		c-0.059-0.427-0.105-0.873-0.139-1.34s-0.061-0.92-0.08-1.36c-0.02-0.44-0.057-0.8-0.111-1.08c-0.08-0.387-0.209-0.697-0.389-0.93
		s-0.396-0.41-0.65-0.53c-0.254-0.12-0.537-0.2-0.85-0.24c-0.314-0.04-0.637-0.06-0.971-0.06H159.688z M163.928,8.44
		c0.506,0,0.977-0.053,1.41-0.16c0.432-0.107,0.809-0.277,1.129-0.51c0.32-0.233,0.574-0.53,0.76-0.89
		c0.188-0.36,0.281-0.793,0.281-1.3c0-0.533-0.098-0.973-0.291-1.32s-0.453-0.62-0.779-0.82c-0.328-0.2-0.701-0.34-1.121-0.42
		s-0.855-0.12-1.309-0.12h-4.32v5.54H163.928z"/>
	<path fill="#FFFFFF" d="M171.707,1.741h1.359v8.58c0,1.787,0.334,3.073,1,3.86c0.668,0.787,1.74,1.18,3.221,1.18
		c0.773,0,1.43-0.104,1.971-0.31c0.539-0.207,0.977-0.52,1.309-0.94c0.334-0.42,0.574-0.943,0.721-1.57
		c0.146-0.626,0.221-1.367,0.221-2.22v-8.58h1.359v8.98c0,1.88-0.463,3.317-1.391,4.31c-0.926,0.993-2.322,1.49-4.189,1.49
		c-1.881,0-3.279-0.506-4.201-1.52c-0.92-1.013-1.379-2.44-1.379-4.28V1.741z"/>
	<path fill="#FFFFFF" d="M186.127,16.141v-14.4h9.58V2.9h-8.221v5.2h7.42v1.16h-7.42v5.72h8.42v1.16H186.127z"/>
	<path fill="#FFFFFF" d="M198.346,16.141v-14.4h5.201c0.84,0,1.559,0.087,2.16,0.26c0.6,0.173,1.09,0.42,1.469,0.74
		c0.381,0.32,0.656,0.703,0.83,1.15s0.26,0.937,0.26,1.47c0,0.507-0.066,0.943-0.199,1.31c-0.133,0.367-0.307,0.674-0.52,0.92
		c-0.215,0.247-0.457,0.44-0.73,0.58c-0.273,0.14-0.557,0.237-0.85,0.29V8.5c1,0.147,1.742,0.54,2.229,1.18
		c0.488,0.64,0.73,1.44,0.73,2.4c0,0.747-0.117,1.38-0.35,1.9c-0.234,0.52-0.557,0.94-0.971,1.26c-0.412,0.32-0.91,0.55-1.49,0.69
		s-1.209,0.21-1.889,0.21H198.346z M199.707,8.101h3.439c0.707,0,1.299-0.06,1.779-0.18c0.48-0.12,0.867-0.296,1.16-0.53
		c0.293-0.233,0.504-0.52,0.631-0.86c0.125-0.34,0.189-0.73,0.189-1.17c0-0.453-0.074-0.837-0.221-1.15
		c-0.146-0.313-0.379-0.566-0.699-0.76s-0.736-0.333-1.25-0.42s-1.145-0.13-1.891-0.13h-3.139V8.101z M199.707,14.98h3.459
		c0.746,0,1.396-0.033,1.949-0.1c0.555-0.067,1.012-0.203,1.371-0.41c0.359-0.207,0.629-0.5,0.811-0.88
		c0.18-0.38,0.27-0.883,0.27-1.51c0-0.6-0.1-1.083-0.301-1.45c-0.199-0.367-0.486-0.65-0.859-0.85c-0.373-0.2-0.82-0.337-1.34-0.41
		s-1.1-0.11-1.74-0.11h-3.619V14.98z"/>
	<path fill="#FFFFFF" d="M210.365,16.141l5.66-14.4h1.541l5.52,14.4h-1.4l-1.66-4.52h-6.559l-1.701,4.52H210.365z M213.926,10.46
		h5.641l-2.82-7.56L213.926,10.46z"/>
</g>
<g>
	<g>
		<path fill="#FFFFFF" stroke="#FFFFFF" stroke-width="0.5" stroke-miterlimit="10" d="M49.638-0.839
			c-0.003-0.046-0.013-0.092-0.028-0.138c-0.006-0.02-0.01-0.035-0.018-0.054c-0.026-0.058-0.06-0.111-0.107-0.158l-9.982-9.982
			c-0.047-0.042-0.101-0.077-0.158-0.104c-0.017-0.008-0.034-0.012-0.052-0.02c-0.048-0.016-0.092-0.023-0.14-0.026
			c-0.012-0.004-0.023-0.008-0.035-0.008H23.265c-0.298,0-0.544,0.241-0.544,0.541v8.363h-7.384c-0.3,0-0.542,0.245-0.542,0.545
			v32.766c0,0.299,0.242,0.541,0.542,0.541h25.838c0.3,0,0.543-0.242,0.543-0.541v-8.363h7.383c0.3,0,0.545-0.242,0.545-0.541
			V-0.805C49.646-0.816,49.638-0.824,49.638-0.839z M47.792-1.346h-8.131v-8.125L47.792-1.346z M40.63,30.342H15.882v-31.68h7.383
			h7.384V8.1c0,0.299,0.242,0.545,0.544,0.545h9.438v13.338V30.342L40.63,30.342z M31.733-0.571l8.129,8.125h-8.129V-0.571z
			 M41.718,21.438V8.1c0-0.012-0.006-0.02-0.006-0.031c-0.005-0.049-0.015-0.096-0.028-0.141c-0.008-0.016-0.014-0.035-0.021-0.051
			c-0.022-0.057-0.058-0.115-0.105-0.16l-9.98-9.98c-0.047-0.05-0.102-0.085-0.16-0.107c-0.017-0.012-0.034-0.012-0.051-0.02
			c-0.047-0.016-0.093-0.022-0.139-0.026c-0.014,0-0.023-0.008-0.034-0.008H23.81v-7.818h14.765v9.438
			c0,0.3,0.244,0.545,0.543,0.545h9.44v21.698H41.718L41.718,21.438z"/>
		<polygon fill="#FFFFFF" stroke="#FFFFFF" stroke-width="0.5" stroke-miterlimit="10" points="28.799,10.088 27.713,10.088 
			27.713,13.961 23.842,13.961 23.842,15.047 27.713,15.047 27.713,18.916 28.799,18.916 28.799,15.047 32.67,15.047 32.67,13.961 
			28.799,13.961 		"/>
	</g>
</g>
</svg>
