<?xml version="1.0" encoding="utf-8"?>
<!-- Generator: Adobe Illustrator 16.0.0, SVG Export Plug-In . SVG Version: 6.00 Build 0)  -->
<!DOCTYPE svg PUBLIC "-//W3C//DTD SVG 1.1//EN" "http://www.w3.org/Graphics/SVG/1.1/DTD/svg11.dtd">
<svg version="1.1" id="Capa_1" xmlns="http://www.w3.org/2000/svg" xmlns:xlink="http://www.w3.org/1999/xlink" x="0px" y="0px"
	 width="53px" height="55.5px" viewBox="0 0 53 55.5" enable-background="new 0 0 53 55.5" xml:space="preserve">
<g>
	<path fill="#50BEEF" d="M26.5,45.18c-9.611,0-17.431-7.816-17.431-17.429c0-9.611,7.819-17.431,17.431-17.431
		c9.61,0,17.431,7.819,17.431,17.431C43.931,37.363,36.11,45.18,26.5,45.18z M26.5,11.502c-8.959,0-16.248,7.29-16.248,16.249
		C10.252,36.709,17.541,44,26.5,44s16.247-7.291,16.247-16.25C42.747,18.792,35.459,11.502,26.5,11.502z"/>
	<path fill="#50BEEF" d="M23.786,32.26c-0.152,0-0.303-0.057-0.419-0.172l-3.414-3.408c-0.231-0.232-0.231-0.608-0.001-0.837
		c0.231-0.232,0.606-0.231,0.837-0.001l2.997,2.993l8.428-8.426c0.23-0.231,0.604-0.231,0.835,0c0.23,0.23,0.23,0.605,0,0.836
		l-8.845,8.844C24.088,32.203,23.938,32.26,23.786,32.26z"/>
</g>
</svg>
