<?xml version="1.0" encoding="utf-8"?>
<!-- Generator: Adobe Illustrator 16.0.0, SVG Export Plug-In . SVG Version: 6.00 Build 0)  -->
<!DOCTYPE svg PUBLIC "-//W3C//DTD SVG 1.1//EN" "http://www.w3.org/Graphics/SVG/1.1/DTD/svg11.dtd">
<svg version="1.1" id="Capa_1" xmlns="http://www.w3.org/2000/svg" xmlns:xlink="http://www.w3.org/1999/xlink" x="0px" y="0px"
	 width="889.188px" height="236.484px" viewBox="0 0 889.188 236.484" enable-background="new 0 0 889.188 236.484"
	 xml:space="preserve">
<g>
	<g>
		<path fill="#2F8ECD" d="M242.437,36.158c-0.896,0.447-2.688,0.896-4.984,0.896c-5.32,0-9.324-3.36-9.324-9.548
			c0-5.908,4.004-9.912,9.856-9.912c2.352,0,3.836,0.504,4.479,0.84l-0.588,1.988c-0.924-0.448-2.24-0.784-3.808-0.784
			c-4.424,0-7.364,2.828-7.364,7.784c0,4.619,2.66,7.588,7.252,7.588c1.484,0,2.996-0.309,3.976-0.784L242.437,36.158z"/>
		<path fill="#2F8ECD" d="M261.028,27.142c0,6.496-3.948,9.939-8.764,9.939c-4.984,0-8.484-3.863-8.484-9.575
			c0-5.992,3.725-9.912,8.764-9.912C257.696,17.594,261.028,21.542,261.028,27.142z M246.384,27.45c0,4.031,2.184,7.645,6.02,7.645
			c3.864,0,6.048-3.557,6.048-7.84c0-3.752-1.96-7.673-6.02-7.673C248.4,19.582,246.384,23.306,246.384,27.45z"/>
		<path fill="#2F8ECD" d="M264.192,17.902h2.437V34.73h8.063v2.044h-10.5V17.902z"/>
		<path fill="#2F8ECD" d="M292.444,27.142c0,6.496-3.948,9.939-8.764,9.939c-4.984,0-8.484-3.863-8.484-9.575
			c0-5.992,3.725-9.912,8.764-9.912C289.112,17.594,292.444,21.542,292.444,27.142z M277.8,27.45c0,4.031,2.184,7.645,6.02,7.645
			c3.864,0,6.048-3.557,6.048-7.84c0-3.752-1.96-7.673-6.02-7.673C279.816,19.582,277.8,23.306,277.8,27.45z"/>
		<path fill="#2F8ECD" d="M295.608,18.154c1.232-0.252,2.996-0.392,4.676-0.392c2.604,0,4.284,0.476,5.46,1.54
			c0.952,0.84,1.483,2.128,1.483,3.584c0,2.492-1.567,4.145-3.556,4.815v0.084c1.456,0.504,2.323,1.849,2.771,3.809
			c0.615,2.632,1.063,4.452,1.456,5.18h-2.521c-0.309-0.531-0.729-2.155-1.261-4.508c-0.56-2.604-1.567-3.584-3.779-3.668h-2.296
			v8.176h-2.437v-18.62H295.608z M298.044,26.75h2.491c2.604,0,4.256-1.428,4.256-3.584c0-2.437-1.764-3.5-4.34-3.527
			c-1.176,0-2.016,0.111-2.407,0.224V26.75z"/>
		<path fill="#2F8ECD" d="M316.607,18.154c1.231-0.252,2.995-0.392,4.676-0.392c2.604,0,4.284,0.476,5.46,1.54
			c0.952,0.84,1.483,2.128,1.483,3.584c0,2.492-1.567,4.145-3.556,4.815v0.084c1.455,0.504,2.323,1.849,2.771,3.809
			c0.615,2.632,1.063,4.452,1.456,5.18h-2.521c-0.309-0.531-0.729-2.155-1.261-4.508c-0.561-2.604-1.567-3.584-3.779-3.668h-2.296
			v8.176h-2.437v-18.62H316.607z M319.043,26.75h2.491c2.604,0,4.256-1.428,4.256-3.584c0-2.437-1.764-3.5-4.34-3.527
			c-1.176,0-2.017,0.111-2.407,0.224V26.75z"/>
		<path fill="#2F8ECD" d="M341.443,27.926h-7.336v6.804h8.176v2.044H331.67V17.902h10.192v2.044h-7.756v5.965h7.336L341.443,27.926
			L341.443,27.926z"/>
		<path fill="#2F8ECD" d="M345.446,18.126c1.176-0.196,2.716-0.364,4.676-0.364c2.408,0,4.172,0.561,5.292,1.567
			c1.036,0.896,1.652,2.269,1.652,3.947c0,1.708-0.504,3.053-1.456,4.032c-1.288,1.372-3.389,2.072-5.769,2.072
			c-0.729,0-1.399-0.028-1.96-0.168v7.56h-2.437L345.446,18.126L345.446,18.126z M347.882,27.226
			c0.531,0.141,1.203,0.196,2.017,0.196c2.938,0,4.73-1.429,4.73-4.032c0-2.492-1.764-3.696-4.451-3.696
			c-1.063,0-1.876,0.084-2.296,0.196V27.226z"/>
		<path fill="#2F8ECD" d="M360.341,18.154c1.232-0.252,2.996-0.392,4.676-0.392c2.604,0,4.284,0.476,5.46,1.54
			c0.952,0.84,1.484,2.128,1.484,3.584c0,2.492-1.568,4.145-3.556,4.815v0.084c1.455,0.504,2.322,1.849,2.771,3.809
			c0.616,2.632,1.064,4.452,1.456,5.18h-2.52c-0.31-0.531-0.729-2.155-1.262-4.508c-0.56-2.604-1.566-3.584-3.778-3.668h-2.296
			v8.176h-2.438v-18.62H360.341z M362.778,26.75h2.49c2.604,0,4.257-1.428,4.257-3.584c0-2.437-1.765-3.5-4.341-3.527
			c-1.176,0-2.016,0.111-2.406,0.224V26.75z"/>
		<path fill="#2F8ECD" d="M385.177,27.926h-7.336v6.804h8.176v2.044h-10.611V17.902h10.191v2.044h-7.756v5.965h7.336V27.926
			L385.177,27.926z"/>
		<path fill="#2F8ECD" d="M388.844,33.806c1.092,0.672,2.688,1.231,4.368,1.231c2.492,0,3.948-1.315,3.948-3.221
			c0-1.764-1.009-2.771-3.558-3.752c-3.079-1.092-4.982-2.688-4.982-5.348c0-2.94,2.436-5.124,6.104-5.124
			c1.933,0,3.332,0.448,4.173,0.924l-0.673,1.988c-0.615-0.336-1.876-0.896-3.584-0.896c-2.575,0-3.556,1.54-3.556,2.828
			c0,1.765,1.147,2.632,3.752,3.641c3.191,1.231,4.815,2.771,4.815,5.544c0,2.912-2.155,5.433-6.607,5.433
			c-1.82,0-3.809-0.532-4.816-1.204L388.844,33.806z"/>
		<path fill="#2F8ECD" d="M412.756,27.926h-7.336v6.804h8.176v2.044h-10.611V17.902h10.191v2.044h-7.756v5.965h7.336V27.926
			L412.756,27.926z"/>
		<path fill="#2F8ECD" d="M416.759,36.774V17.902h2.66l6.048,9.549c1.4,2.212,2.492,4.199,3.389,6.132l0.057-0.027
			c-0.225-2.521-0.28-4.815-0.28-7.756v-7.896h2.296v18.872h-2.464l-5.992-9.575c-1.314-2.101-2.575-4.257-3.527-6.301l-0.084,0.028
			c0.141,2.38,0.195,4.647,0.195,7.784v8.062H416.759z"/>
		<path fill="#2F8ECD" d="M438.767,19.974h-5.739v-2.072H447v2.072h-5.769v16.8h-2.465V19.974z"/>
		<path fill="#2F8ECD" d="M450.051,30.838l-1.96,5.936h-2.52l6.412-18.872h2.938l6.44,18.872h-2.604l-2.016-5.936H450.051z
			 M456.24,28.934l-1.85-5.432c-0.42-1.232-0.698-2.354-0.979-3.444h-0.056c-0.28,1.12-0.59,2.269-0.952,3.416l-1.85,5.46H456.24z"
			/>
		<path fill="#2F8ECD" d="M465.562,19.974h-5.739v-2.072h13.973v2.072h-5.769v16.8h-2.465V19.974z"/>
		<path fill="#2F8ECD" d="M478.332,17.902v18.872h-2.438V17.902H478.332z"/>
		<path fill="#2F8ECD" d="M486.732,36.774l-6.16-18.872h2.631l2.938,9.297c0.813,2.548,1.515,4.844,2.019,7.057h0.055
			c0.533-2.186,1.316-4.564,2.156-7.028l3.191-9.324h2.604l-6.748,18.872L486.732,36.774L486.732,36.774z"/>
		<path fill="#2F8ECD" d="M514.34,27.142c0,6.496-3.949,9.939-8.764,9.939c-4.984,0-8.484-3.863-8.484-9.575
			c0-5.992,3.726-9.912,8.765-9.912C511.008,17.594,514.34,21.542,514.34,27.142z M499.695,27.45c0,4.031,2.184,7.645,6.02,7.645
			c3.865,0,6.049-3.557,6.049-7.84c0-3.752-1.961-7.673-6.02-7.673C501.711,19.582,499.695,23.306,499.695,27.45z"/>
		<path fill="#2F8ECD" d="M523.439,18.126c1.176-0.196,2.715-0.364,4.676-0.364c2.408,0,4.172,0.561,5.291,1.567
			c1.037,0.896,1.651,2.269,1.651,3.947c0,1.708-0.504,3.053-1.454,4.032c-1.289,1.372-3.39,2.072-5.769,2.072
			c-0.729,0-1.4-0.028-1.961-0.168v7.56h-2.436L523.439,18.126L523.439,18.126z M525.875,27.226
			c0.531,0.141,1.203,0.196,2.016,0.196c2.939,0,4.732-1.429,4.732-4.032c0-2.492-1.764-3.696-4.451-3.696
			c-1.063,0-1.877,0.084-2.297,0.196V27.226z"/>
		<path fill="#2F8ECD" d="M554.463,27.142c0,6.496-3.949,9.939-8.764,9.939c-4.984,0-8.484-3.863-8.484-9.575
			c0-5.992,3.726-9.912,8.764-9.912C551.131,17.594,554.463,21.542,554.463,27.142z M539.818,27.45c0,4.031,2.184,7.645,6.02,7.645
			c3.865,0,6.049-3.557,6.049-7.84c0-3.752-1.961-7.673-6.02-7.673C541.834,19.582,539.818,23.306,539.818,27.45z"/>
		<path fill="#2F8ECD" d="M557.627,18.154c1.232-0.252,2.996-0.392,4.676-0.392c2.604,0,4.283,0.476,5.459,1.54
			c0.953,0.84,1.484,2.128,1.484,3.584c0,2.492-1.568,4.145-3.555,4.815v0.084c1.455,0.504,2.321,1.849,2.771,3.809
			c0.615,2.632,1.064,4.452,1.455,5.18h-2.52c-0.31-0.531-0.729-2.155-1.261-4.508c-0.561-2.604-1.567-3.584-3.778-3.668h-2.298
			v8.176h-2.436v-18.62H557.627z M560.062,26.75h2.492c2.604,0,4.256-1.428,4.256-3.584c0-2.437-1.764-3.5-4.34-3.527
			c-1.176,0-2.016,0.111-2.408,0.224V26.75L560.062,26.75z"/>
		<path fill="#2F8ECD" d="M578.625,18.126c1.176-0.196,2.717-0.364,4.676-0.364c2.408,0,4.172,0.561,5.293,1.567
			c1.035,0.896,1.652,2.269,1.652,3.947c0,1.708-0.504,3.053-1.457,4.032c-1.287,1.372-3.387,2.072-5.768,2.072
			c-0.729,0-1.4-0.028-1.959-0.168v7.56h-2.438L578.625,18.126L578.625,18.126z M581.062,27.226
			c0.531,0.141,1.203,0.196,2.017,0.196c2.938,0,4.729-1.429,4.729-4.032c0-2.492-1.764-3.696-4.45-3.696
			c-1.064,0-1.875,0.084-2.296,0.196V27.226z"/>
		<path fill="#2F8ECD" d="M593.521,18.154c1.231-0.252,2.995-0.392,4.676-0.392c2.604,0,4.283,0.476,5.459,1.54
			c0.953,0.84,1.483,2.128,1.483,3.584c0,2.492-1.567,4.145-3.555,4.815v0.084c1.455,0.504,2.322,1.849,2.771,3.809
			c0.614,2.632,1.063,4.452,1.454,5.18h-2.52c-0.309-0.531-0.729-2.155-1.26-4.508c-0.562-2.604-1.568-3.584-3.779-3.668h-2.297
			v8.176h-2.436v-18.62H593.521z M595.957,26.75h2.492c2.604,0,4.256-1.428,4.256-3.584c0-2.437-1.764-3.5-4.34-3.527
			c-1.177,0-2.017,0.111-2.408,0.224V26.75L595.957,26.75z"/>
		<path fill="#2F8ECD" d="M611.021,17.902v11.173c0,4.229,1.875,6.021,4.395,6.021c2.801,0,4.592-1.849,4.592-6.021V17.902h2.465
			v11.005c0,5.796-3.053,8.176-7.141,8.176c-3.863,0-6.775-2.212-6.775-8.063V17.902H611.021z"/>
		<path fill="#2F8ECD" d="M636.473,27.926h-7.336v6.804h8.177v2.044H626.7V17.902h10.192v2.044h-7.756v5.965h7.336V27.926
			L636.473,27.926z"/>
		<path fill="#2F8ECD" d="M640.475,18.154c1.064-0.224,2.744-0.392,4.453-0.392c2.437,0,4.004,0.42,5.181,1.372
			c0.979,0.728,1.567,1.848,1.567,3.332c0,1.819-1.205,3.416-3.192,4.144v0.057c1.793,0.448,3.893,1.933,3.893,4.731
			c0,1.624-0.646,2.856-1.596,3.78c-1.316,1.204-3.443,1.764-6.523,1.764c-1.682,0-2.969-0.111-3.781-0.224L640.475,18.154
			L640.475,18.154z M642.912,25.882h2.211c2.576,0,4.088-1.345,4.088-3.164c0-2.212-1.68-3.08-4.145-3.08
			c-1.119,0-1.765,0.084-2.154,0.168V25.882z M642.912,34.926c0.475,0.084,1.176,0.111,2.043,0.111c2.52,0,4.844-0.925,4.844-3.668
			c0-2.575-2.211-3.641-4.871-3.641h-2.016V34.926L642.912,34.926z"/>
		<path fill="#2F8ECD" d="M658.703,30.838l-1.961,5.936h-2.521l6.412-18.872h2.939l6.44,18.872h-2.604l-2.017-5.936H658.703z
			 M664.891,28.934l-1.848-5.432c-0.42-1.232-0.699-2.354-0.98-3.444h-0.055c-0.281,1.12-0.59,2.269-0.953,3.416l-1.848,5.46
			H664.891z"/>
	</g>
	<g>
		<path fill="#2F7ABD" d="M175.369,88.473L158.07,71.17c-0.346-0.342-0.811-0.537-1.303-0.537h-52.211
			c-1.014,0-1.836,0.824-1.836,1.837v82.571c0,1.014,0.824,1.835,1.836,1.835h69.52c1.007,0,1.833-0.821,1.833-1.835v-65.27
			C175.91,89.284,175.714,88.823,175.369,88.473z M158.61,76.904l11.036,11.032H158.61V76.904z M106.393,153.204V74.306h48.544
			v15.467c0,1.014,0.821,1.833,1.829,1.833h15.47v61.6L106.393,153.204L106.393,153.204z"/>
		<g>
			<path fill="#2F7ABD" d="M125.503,100.819H112.61c-1.015,0-1.839-0.82-1.839-1.837V86.085c0-1.012,0.824-1.832,1.839-1.832h12.893
				c1.013,0,1.835,0.82,1.835,1.832v12.896C127.339,99.999,126.517,100.819,125.503,100.819z M114.443,97.15h9.224v-9.224h-9.224
				V97.15z"/>
		</g>
		<g>
			<path fill="#2F7ABD" d="M125.503,123.903H112.61c-1.015,0-1.839-0.821-1.839-1.834v-12.896c0-1.019,0.824-1.832,1.839-1.832
				h12.893c1.013,0,1.835,0.813,1.835,1.832v12.896C127.339,123.081,126.517,123.903,125.503,123.903z M114.443,120.236h9.224
				v-9.231h-9.224V120.236z"/>
		</g>
		<g>
			<path fill="#2F7ABD" d="M125.503,146.989H112.61c-1.015,0-1.839-0.822-1.839-1.834v-12.896c0-1.013,0.824-1.836,1.839-1.836
				h12.893c1.013,0,1.835,0.823,1.835,1.836v12.896C127.339,146.165,126.517,146.989,125.503,146.989z M114.443,143.32h9.224v-9.229
				h-9.224V143.32z"/>
		</g>
	</g>
	<g>
		<path fill="#2F7ABD" d="M134.43,134.728v-1.766c0.817-0.036,1.39-0.092,1.716-0.164c0.521-0.115,0.944-0.346,1.27-0.69
			c0.224-0.237,0.394-0.553,0.509-0.947c0.066-0.237,0.099-0.413,0.099-0.529h2.166v13.195h-2.657v-9.099H134.43z"/>
		<path fill="#2F7ABD" d="M144.167,140.078v-2.376h3.732v-3.73h2.393v3.73h3.73v2.376h-3.73v3.749h-2.393v-3.749H144.167z"/>
		<path fill="#2F7ABD" d="M155.578,141.235c0.37-0.88,1.244-1.812,2.621-2.794c1.195-0.856,1.969-1.469,2.321-1.838
			c0.539-0.576,0.81-1.207,0.81-1.894c0-0.558-0.155-1.022-0.464-1.393c-0.309-0.369-0.751-0.555-1.329-0.555
			c-0.789,0-1.326,0.294-1.611,0.883c-0.164,0.34-0.26,0.88-0.292,1.62h-2.521c0.042-1.122,0.245-2.029,0.61-2.721
			c0.692-1.317,1.922-1.976,3.689-1.976c1.397,0,2.508,0.387,3.334,1.161c0.826,0.771,1.239,1.796,1.239,3.071
			c0,0.977-0.292,1.844-0.875,2.603c-0.383,0.504-1.013,1.064-1.887,1.683l-1.04,0.737c-0.65,0.46-1.095,0.794-1.335,1.001
			c-0.239,0.206-0.442,0.446-0.605,0.72h5.76v2.283h-9.037C154.993,142.881,155.196,142.017,155.578,141.235z"/>
	</g>
	<g>
		<path fill="#EA5B0C" d="M377.818,88.473L360.52,71.17c-0.346-0.341-0.812-0.536-1.304-0.536h-52.21
			c-1.013,0-1.836,0.824-1.836,1.837v82.572c0,1.012,0.823,1.835,1.836,1.835h69.521c1.006,0,1.833-0.823,1.833-1.835V89.773
			C378.36,89.284,378.165,88.823,377.818,88.473z M361.061,76.904l11.033,11.032h-11.033V76.904z M308.843,153.204V74.306h48.544
			v15.467c0,1.014,0.821,1.833,1.828,1.833h15.469v61.6L308.843,153.204L308.843,153.204z"/>
		<g>
			<path fill="#EA5B0C" d="M327.952,100.819h-12.892c-1.016,0-1.839-0.82-1.839-1.837V86.085c0-1.012,0.824-1.832,1.839-1.832
				h12.892c1.014,0,1.837,0.82,1.837,1.832v12.896C329.789,99.999,328.966,100.819,327.952,100.819z M316.892,97.15h9.224v-9.224
				h-9.224V97.15L316.892,97.15z"/>
		</g>
		<g>
			<path fill="#EA5B0C" d="M327.952,123.903h-12.892c-1.016,0-1.839-0.821-1.839-1.834v-12.896c0-1.019,0.824-1.832,1.839-1.832
				h12.892c1.014,0,1.837,0.813,1.837,1.832v12.896C329.789,123.081,328.966,123.903,327.952,123.903z M316.892,120.236h9.224
				v-9.231h-9.224V120.236L316.892,120.236z"/>
		</g>
		<g>
			<path fill="#EA5B0C" d="M327.952,146.989h-12.892c-1.016,0-1.839-0.822-1.839-1.834v-12.896c0-1.013,0.824-1.836,1.839-1.836
				h12.892c1.014,0,1.837,0.823,1.837,1.836v12.896C329.789,146.165,328.966,146.989,327.952,146.989z M316.892,143.32h9.224v-9.229
				h-9.224V143.32L316.892,143.32z"/>
		</g>
	</g>
	<g>
		<path fill="#EA5B0C" d="M339.046,130.414h3.17l4.746,13.413h-3.039l-0.885-2.757h-4.94l-0.909,2.757h-2.93L339.046,130.414z
			 M338.862,138.76h3.435l-1.694-5.279L338.862,138.76z"/>
		<path fill="#EA5B0C" d="M356.929,135.101c0.741,0.939,1.113,2.154,1.113,3.64c0,1.541-0.366,2.818-1.098,3.831
			c-0.732,1.014-1.754,1.52-3.065,1.52c-0.823,0-1.485-0.163-1.985-0.491c-0.298-0.195-0.621-0.533-0.968-1.019v1.245h-2.557
			v-13.394h2.594v4.768c0.329-0.461,0.691-0.812,1.088-1.056c0.471-0.303,1.071-0.455,1.795-0.455
			C355.16,133.69,356.188,134.161,356.929,135.101z M354.761,141.143c0.374-0.539,0.561-1.25,0.561-2.13
			c0-0.703-0.093-1.285-0.275-1.747c-0.349-0.874-0.993-1.311-1.926-1.311c-0.95,0-1.6,0.427-1.955,1.283
			c-0.183,0.454-0.275,1.043-0.275,1.765c0,0.85,0.19,1.553,0.568,2.11c0.38,0.56,0.959,0.838,1.735,0.838
			C353.865,141.953,354.389,141.684,354.761,141.143z"/>
		<path fill="#EA5B0C" d="M365.777,137.467c-0.05-0.371-0.175-0.704-0.374-1.002c-0.292-0.399-0.745-0.602-1.358-0.602
			c-0.877,0-1.475,0.436-1.797,1.303c-0.17,0.459-0.256,1.071-0.256,1.833c0,0.728,0.086,1.312,0.256,1.752
			c0.311,0.825,0.895,1.236,1.75,1.236c0.61,0,1.042-0.164,1.296-0.49c0.256-0.329,0.412-0.752,0.465-1.274h2.649
			c-0.061,0.788-0.346,1.535-0.857,2.238c-0.814,1.135-2.021,1.702-3.616,1.702c-1.597,0-2.772-0.473-3.525-1.42
			c-0.752-0.947-1.129-2.174-1.129-3.682c0-1.701,0.417-3.024,1.249-3.971c0.832-0.947,1.981-1.42,3.443-1.42
			c1.243,0,2.262,0.279,3.056,0.837c0.793,0.558,1.262,1.546,1.407,2.959H365.777L365.777,137.467z"/>
	</g>
	<g>
		<path fill="#DEDC00" d="M576.473,88.473L559.174,71.17c-0.348-0.342-0.81-0.537-1.304-0.537h-52.21
			c-1.014,0-1.837,0.824-1.837,1.837v82.571c0,1.014,0.823,1.835,1.837,1.835h69.518c1.007,0,1.833-0.821,1.833-1.835v-65.27
			C577.013,89.284,576.817,88.823,576.473,88.473z M559.714,76.904l11.036,11.032h-11.036V76.904z M507.496,153.204V74.306h48.546
			v15.467c0,1.014,0.82,1.833,1.828,1.833h15.47v61.6L507.496,153.204L507.496,153.204z"/>
		<g>
			<path fill="#DEDC00" d="M526.605,100.819h-12.892c-1.017,0-1.839-0.82-1.839-1.837V86.085c0-1.012,0.822-1.832,1.839-1.832
				h12.892c1.012,0,1.836,0.82,1.836,1.832v12.896C528.442,99.999,527.619,100.819,526.605,100.819z M515.546,97.15h9.224v-9.224
				h-9.224V97.15z"/>
		</g>
		<g>
			<path fill="#DEDC00" d="M526.605,123.903h-12.892c-1.017,0-1.839-0.821-1.839-1.834v-12.896c0-1.019,0.822-1.832,1.839-1.832
				h12.892c1.012,0,1.836,0.813,1.836,1.832v12.896C528.442,123.081,527.619,123.903,526.605,123.903z M515.546,120.236h9.224
				v-9.231h-9.224V120.236z"/>
		</g>
		<g>
			<path fill="#DEDC00" d="M526.605,146.989h-12.892c-1.017,0-1.839-0.822-1.839-1.834v-12.896c0-1.013,0.822-1.836,1.839-1.836
				h12.892c1.012,0,1.836,0.823,1.836,1.836v12.896C528.442,146.165,527.619,146.989,526.605,146.989z M515.546,143.32h9.224v-9.229
				h-9.224V143.32z"/>
		</g>
	</g>
	<g>
		<path fill="#009640" d="M778.001,88.473L760.703,71.17c-0.347-0.342-0.812-0.537-1.306-0.537h-52.21
			c-1.014,0-1.837,0.824-1.837,1.837v82.571c0,1.014,0.823,1.835,1.837,1.835h69.521c1.005,0,1.831-0.821,1.831-1.835v-65.27
			C778.544,89.284,778.349,88.823,778.001,88.473z M761.243,76.904l11.034,11.032h-11.034V76.904z M709.025,153.204V74.306h48.545
			v15.467c0,1.014,0.821,1.833,1.828,1.833h15.47v61.6L709.025,153.204L709.025,153.204z"/>
		<g>
			<path fill="#009640" d="M728.136,100.819h-12.893c-1.016,0-1.839-0.82-1.839-1.837V86.085c0-1.012,0.823-1.832,1.839-1.832
				h12.893c1.014,0,1.836,0.82,1.836,1.832v12.896C729.972,99.999,729.149,100.819,728.136,100.819z M717.076,97.15h9.22v-9.224
				h-9.22V97.15z"/>
		</g>
		<g>
			<path fill="#009640" d="M728.136,123.903h-12.893c-1.016,0-1.839-0.821-1.839-1.834v-12.896c0-1.019,0.823-1.832,1.839-1.832
				h12.893c1.014,0,1.836,0.813,1.836,1.832v12.896C729.972,123.081,729.149,123.903,728.136,123.903z M717.076,120.236h9.22v-9.231
				h-9.22V120.236z"/>
		</g>
		<g>
			<path fill="#009640" d="M728.136,146.989h-12.893c-1.016,0-1.839-0.822-1.839-1.834v-12.896c0-1.013,0.823-1.836,1.839-1.836
				h12.893c1.014,0,1.836,0.823,1.836,1.836v12.896C729.972,146.165,729.149,146.989,728.136,146.989z M717.076,143.32h9.22v-9.229
				h-9.22V143.32z"/>
		</g>
	</g>
	<path fill="#DEDC00" d="M567.699,129.496c-0.032-0.291-0.067-0.584-0.112-0.875c-0.046-0.288-0.096-0.572-0.151-0.856
		c-0.058-0.284-0.125-0.568-0.195-0.846c-0.144-0.559-0.316-1.103-0.513-1.636c-0.044-0.137-0.097-0.268-0.153-0.402
		c-0.15-0.393-0.323-0.785-0.505-1.164c-0.06-0.125-0.124-0.254-0.188-0.378c-0.133-0.253-0.266-0.499-0.402-0.742
		c-0.42-0.728-0.892-1.429-1.41-2.087c-0.261-0.326-0.53-0.649-0.811-0.957c-0.187-0.208-0.38-0.41-0.577-0.607
		c-0.2-0.197-0.398-0.391-0.606-0.577c-0.401-0.366-0.815-0.709-1.252-1.034c-0.569-0.432-1.168-0.83-1.795-1.187
		c-0.243-0.139-0.49-0.276-0.739-0.403c-0.113-0.059-0.229-0.116-0.344-0.173c-0.14-0.068-0.277-0.13-0.42-0.197
		c-0.06-0.023-2.627-1.174-3.163-1.302c-0.169-0.036-0.334,0.037-0.505,0.004c-0.121-0.025-0.247,0.004-0.37-0.017
		c-0.917-0.167-1.86-0.235-2.819-0.252c-0.104,0-0.212,0.014-0.32,0.014c-0.179,0-0.362,0.011-0.539,0.014
		c-1.763,0.055-3.459,0.374-5.051,0.91c-0.274,0.09-0.54,0.193-0.805,0.295c-0.08,0.033-0.158,0.068-0.243,0.103
		c-0.181,0.074-0.358,0.153-0.539,0.23c-0.256,0.12-0.513,0.241-0.758,0.369c-0.254,0.127-0.501,0.263-0.746,0.403
		c-0.978,0.562-1.897,1.217-2.746,1.953c-0.099,0.088-0.2,0.178-0.298,0.267c-0.207,0.187-0.408,0.382-0.606,0.577
		c-0.197,0.197-0.389,0.399-0.58,0.607c-0.28,0.307-0.55,0.631-0.807,0.957c-0.52,0.659-0.992,1.357-1.408,2.087
		c-0.139,0.249-0.275,0.491-0.406,0.743c-0.065,0.125-0.123,0.252-0.185,0.377c-0.183,0.379-0.354,0.771-0.513,1.164
		c-0.054,0.135-0.102,0.266-0.153,0.402c-0.192,0.533-0.36,1.078-0.505,1.638c-0.076,0.276-0.14,0.56-0.193,0.844
		c-0.062,0.284-0.112,0.57-0.154,0.858c-0.046,0.29-0.084,0.583-0.113,0.873c-0.06,0.588-0.088,1.182-0.088,1.784
		c0,0.604,0.026,1.197,0.088,1.783c0.029,0.294,0.067,0.584,0.113,0.871c0.042,0.292,0.093,0.579,0.154,0.862
		c0.054,0.282,0.117,0.564,0.193,0.844c0.145,0.556,0.312,1.105,0.505,1.638c0.1,0.268,0.202,0.531,0.314,0.794
		c0.114,0.259,0.228,0.517,0.352,0.771c0.062,0.125,0.119,0.252,0.185,0.379c0.131,0.249,0.266,0.499,0.406,0.74
		c0.416,0.73,0.889,1.429,1.408,2.09c0.257,0.326,0.528,0.649,0.807,0.957c0.191,0.206,0.383,0.409,0.58,0.607
		c0.198,0.194,0.399,0.387,0.606,0.579c0.926,0.842,1.951,1.59,3.046,2.22c0.245,0.14,0.492,0.273,0.745,0.4
		c0.496,0.258,1.011,0.489,1.541,0.7c0.265,0.104,0.53,0.2,0.805,0.294c1.754,0.594,3.636,0.917,5.594,0.917
		c1.332,0,2.636-0.149,3.881-0.435c0.579-0.13,1.154-0.294,1.713-0.482c0.267-0.094,0.535-0.188,0.799-0.294
		c0.529-0.209,1.047-0.442,1.548-0.7c0.251-0.127,0.496-0.261,0.741-0.4c1.095-0.629,2.115-1.378,3.045-2.22
		c0.207-0.192,0.406-0.385,0.607-0.579c0.197-0.198,0.391-0.401,0.575-0.607c0.283-0.308,0.55-0.627,0.811-0.957
		c0.41-0.52,0.79-1.066,1.138-1.636c0.095-0.149,0.183-0.3,0.274-0.453c0.136-0.241,0.273-0.492,0.401-0.74
		c0.065-0.128,0.128-0.255,0.187-0.38c0.122-0.254,0.239-0.512,0.352-0.77c0.107-0.262,0.213-0.527,0.309-0.795
		c0.196-0.531,0.368-1.08,0.512-1.637c0.07-0.279,0.138-0.561,0.197-0.843c0.056-0.284,0.104-0.571,0.149-0.862
		c0.046-0.288,0.081-0.578,0.112-0.871c0.059-0.588,0.087-1.182,0.087-1.782C567.786,130.676,567.759,130.082,567.699,129.496z
		 M554.221,147.331c-0.015-0.164-0.059-0.331-0.068-0.495c-0.015-0.351,0.038-0.605-0.02-0.935
		c-0.041-0.246-0.099-0.629-0.188-0.785c-0.098-0.175-0.491-0.469-0.69-0.579c-0.131-0.073-0.288-0.098-0.431-0.169
		c-0.306-0.148-0.896-0.465-1.032-0.767c-0.037-0.087-0.031-0.199-0.078-0.298c-0.075-0.193-0.251-0.357-0.369-0.542
		c-0.234-0.352-0.422-0.796-0.66-1.161c-0.117-0.186-0.222-0.393-0.354-0.538c-0.079-0.09-0.326-0.171-0.359-0.302
		c-0.041-0.176-0.169-0.412-0.147-0.542c0.027-0.18,0.377-0.327,0.374-0.486c0-0.14-0.188-0.219-0.227-0.337
		c-0.093-0.287,0.059-0.454,0.172-0.691c0.035-0.08,0.074-0.206,0.113-0.265c0.067-0.1,0.21-0.129,0.3-0.24
		c0.051-0.064,0.084-0.194,0.149-0.28c0.14-0.19,0.371-0.259,0.43-0.434c0.046-0.137,0.076-0.829,0.019-1.067
		c-0.032-0.133-0.158-0.243-0.206-0.374c-0.085-0.225-0.103-0.473-0.336-0.464c-0.141,0-0.247,0.16-0.338,0.261
		c-0.021,0.134-0.013,0.274-0.149,0.314c-0.213,0.065-0.295-0.22-0.545-0.297c-0.098-0.029-0.256-0.027-0.317-0.055
		c-0.181-0.085-0.238-0.35-0.431-0.452c-0.159-0.083-0.297-0.055-0.394-0.186c-0.039-0.091-0.01-0.255-0.019-0.373
		c-0.207-0.121-0.381-0.569-0.618-0.676c-0.163-0.07-0.404-0.062-0.6-0.13c-0.094-0.032-0.166-0.072-0.263-0.093
		c-0.12-0.028-0.248-0.032-0.339-0.078c-0.367-0.18-0.569-0.777-1.032-0.765c-0.196,0.002-0.383,0.187-0.562,0.187
		c-0.176-0.001-0.471-0.143-0.69-0.243c-0.229-0.109-0.484-0.164-0.676-0.264c-0.155-0.077-0.261-0.221-0.392-0.28
		c-0.104-0.046-0.256-0.055-0.338-0.094c-0.12-0.056-0.246-0.178-0.394-0.281c-0.145-0.097-0.294-0.246-0.297-0.373
		c-0.012-0.146,0.135-0.27,0.147-0.413c0.048-0.445-0.281-0.765-0.487-1.028c-0.154-0.193-0.333-0.36-0.488-0.543
		c0.008-0.119,0.008-0.141,0-0.264c-0.118-0.109-0.218-0.277-0.336-0.447c-0.113-0.152-0.332-0.316-0.36-0.488
		c-0.033-0.208,0.081-0.393,0-0.599c-0.131-0.337-0.604-0.183-0.54,0.264c0.016,0.125,0.188,0.289,0.243,0.413
		c0.057,0.124,0.043,0.28,0.095,0.429c0.049,0.144,0.193,0.271,0.242,0.431c0.08,0.258,0.08,0.533,0.15,0.693
		c0.062,0.143,0.302,0.276,0.172,0.447c-0.178,0.039-0.251-0.137-0.36-0.243c-0.059-0.057-0.281-0.164-0.317-0.297
		c-0.029-0.112,0.071-0.259,0.036-0.395c-0.065-0.263-0.595-0.271-0.599-0.541c0-0.171,0.224-0.191,0.224-0.355
		c0.003-0.181-0.245-0.333-0.299-0.486c-0.05-0.14-0.057-0.362-0.074-0.563c-0.02-0.185,0.008-0.4-0.038-0.544
		c-0.039-0.127-0.231-0.302-0.357-0.372c-0.16-0.092-0.294-0.053-0.373-0.186c-0.075-0.118-0.118-0.361-0.134-0.486
		c-0.025-0.227-0.008-0.473-0.018-0.71c-0.013-0.242-0.039-0.474,0-0.732c0.094-0.181,0.26-0.269,0.357-0.447
		c0.064-0.126,0.074-0.28,0.147-0.414c0.138-0.244,0.437-0.47,0.64-0.711c0.214-0.258,0.416-0.507,0.542-0.804
		c0.046-0.106,0.169-0.34,0.147-0.469c-0.023-0.18-0.365-0.328-0.336-0.545c0.018-0.132,0.207-0.129,0.264-0.259
		c0.025-0.068,0.055-0.257,0.055-0.335c0.005-0.182-0.092-0.369-0.055-0.562c0.028-0.166,0.271-0.229,0.147-0.412
		c-0.122-0.178-0.349,0.098-0.486-0.021c-0.127-0.104,0.023-0.233,0.036-0.431c0.006-0.073-0.045-0.164-0.036-0.221
		c0.013-0.084,0.175-0.226,0.13-0.28c-0.067-0.088-0.143-0.26-0.246-0.398c2.089-1.671,4.595-2.85,7.332-3.345
		c0.032,0.059,0.062,0.125,0.146,0.151c0.163-0.086,0.327,0.004,0.506,0c0.177-0.009,0.331-0.088,0.524-0.056
		c0.342,0.051,0.819,0.384,1.089,0.206c0.065-0.05,0.051-0.837,0.113-0.956c0.046-0.095,0.125-1.03,0.172-1.03
		c0.137,0,0.267,0,0.407,0c1.127,0,2.23,0.819,3.294,1.039c-0.045,0.116-0.189,0.42-0.312,0.477
		c-0.115,0.053-0.158,0.343-0.28,0.368c-0.343,0.06-0.625-0.001-0.923,0.014c-0.012,0.128,0.144,0.245,0.224,0.286
		c0.27,0.141,0.489,0.142,0.865,0.137c0.192-0.006,0.413,0.07,0.578-0.046c0.107-0.07,0.101-0.226,0.188-0.313
		c0.036-0.036,0.091-0.074,0.155-0.106c0.183,0.044,0.367,0.097,0.552,0.148c-0.029,0.125-0.234,0.093-0.239,0.263
		c0.131,0.079,0.436-0.044,0.551-0.177c0.044,0.012,0.09,0.026,0.137,0.04c0.268,0.08,0.527,0.167,0.786,0.261
		c0.369,0.133,0.731,0.276,1.089,0.438c-0.067,0.041-0.141,0.091-0.201,0.091c-0.156-0.001-0.223-0.208-0.391-0.132
		c-0.021,0.202,0.21,0.281,0.354,0.375c0.153,0.099,0.317,0.197,0.373,0.374c-0.147,0.321-0.395-0.019-0.637-0.019
		c-0.265-0.003-0.653,0.505-0.881,0.091c0.058-0.217,0.297-0.251,0.355-0.468c-0.051,0.011-0.1,0.026-0.149,0.046
		c-0.094,0.035-0.178,0.083-0.269,0.131c-0.12,0.066-0.244,0.129-0.386,0.162c-0.133,0.026-0.257,0.022-0.373,0.056
		c-0.227,0.063-0.383,0.229-0.617,0.319c-0.094,0.032-0.206,0.024-0.304,0.055c-0.225,0.076-0.493,0.211-0.729,0.337
		c-0.234,0.129-0.507,0.262-0.653,0.395c-0.081,0.066-0.291,0.311-0.284,0.392c0.014,0.11,0.222,0.146,0.227,0.261
		c-0.005,0.066-0.121,0.218-0.037,0.318c0.074,0.09,0.23,0.02,0.389,0.037c0.292,0.037,0.478,0.273,0.698,0.391
		c0.163,0.098,0.414,0.203,0.602,0.227c0.254,0.034,0.544-0.077,0.578,0.131c0.035,0.197-0.243,0.27-0.264,0.393
		c0.142,0.182-0.093,0.27-0.093,0.432c0.002,0.129,0.16,0.322,0.298,0.335c0.189,0.015,0.464-0.187,0.544-0.374
		c0.093-0.225,0.055-0.529,0.225-0.691c0.876,0.022,1.613-0.397,1.554-1.29c-0.005-0.087-0.056-0.202-0.035-0.298
		c0.025-0.146,0.273-0.268,0.245-0.452c0.096-0.026,0.148-0.101,0.2-0.187c0.069-0.13,0.126-0.274,0.259-0.324
		c0.013-0.003,0.014-0.009,0.028-0.009c0.071-0.019,0.155-0.005,0.236,0.021c0.152,0.044,0.317,0.122,0.491,0.107
		c0.09-0.004,0.211-0.087,0.3-0.073c0.182,0.026,0.293,0.252,0.432,0.355c0.122,0.093,0.898,0.062,0.932,0.186
		c-0.037,0.207,0.481,0.215,0.481,0.406c0,0.002,0,0.004,0,0.004c0,0.174-0.455,0.305-0.366,0.322
		c0.138,0.026,0.002-0.049,0.139-0.112c0.143-0.071,0.118-0.22,0.249-0.325c0.182,0.141,0.281,0.284,0.457,0.434
		c0.022,0.084-0.005,0.159-0.001,0.209c0.026,0.199-0.045,0.357-0.033,0.543c0.021,0.313,0.409,0.283,0.607,0.449
		c0.059,0.049,0.074,0.18,0.122,0.241c0.096,0.13,0.213,0.13,0.224,0.263c0.036,0.323-0.295,0.353-0.267,0.71
		c-0.065,0.14-0.237,0.132-0.22,0.319c0.021,0.295,0.443,0.069,0.564,0.299c0.06,0.125-0.015,0.217-0.061,0.393
		c0.146,0.175,0.146,0.452-0.109,0.452c-0.153,0-0.199-0.169-0.356-0.21c-0.088-0.02-0.209-0.018-0.321-0.036
		c-0.093-0.019-0.209-0.046-0.297-0.06c-0.229-0.022-0.48,0.043-0.618-0.089c0.222-0.3,0.518-0.589,0.807-0.847
		c0.084-0.073,0.268-0.125,0.221-0.277c-0.156-0.138-0.353,0.012-0.506,0.094c-0.156,0.088-0.344,0.217-0.523,0.241
		c-0.309,0.05-0.722-0.087-0.976,0.077c-0.031,0.141,0.29,0.086,0.248,0.299c-0.128,0.021-0.245,0.031-0.337-0.056
		c-0.09-0.079-0.038-0.196-0.097-0.244c-0.095-0.078-0.454-0.101-0.618-0.077c-0.196,0.035-0.372,0.15-0.393,0.321
		c0.235,0.11,0.623-0.112,0.711,0.167c-0.13,0.234-0.435,0.361-0.393,0.675c0.018,0.12,0.163,0.282,0.261,0.301
		c0.105,0.017,0.164-0.088,0.265-0.075c0.105,0.009,0.079,0.131,0.205,0.109c0.18-0.076,0.278-0.329,0.486-0.313
		c0.249,0.298-0.223,0.446-0.486,0.54c-0.3,0.109-0.688,0.164-0.919,0.26c-0.118,0.051-0.572,0.488-0.639,0.148
		c-0.044-0.24,0.227-0.172,0.28-0.373c-0.289-0.057-0.56,0.126-0.822,0.225c-0.378,0.142-1.017,0.23-1.105,0.654
		c-0.02,0.085,0.035,0.246-0.021,0.301c-0.042,0.043-0.31,0.053-0.427,0.092c-0.181,0.061-0.342,0.195-0.452,0.227
		c-0.083,0.022-0.21,0.018-0.26,0.035c-0.152,0.059-0.202,0.26-0.375,0.393c-0.065,0.057-0.225,0.094-0.28,0.149
		c-0.1,0.098-0.109,0.337-0.284,0.374c-0.105,0.009-0.192-0.081-0.297-0.018c-0.013,0.237,0.084,0.562-0.018,0.803
		c-0.226,0.182-0.469,0.311-0.75,0.467c-0.159,0.091-0.297,0.113-0.489,0.209c-0.135,0.066-0.255,0.226-0.415,0.318
		c-0.353,0.209-0.787,0.456-0.786,0.991c0,0.116,0.062,0.239,0.075,0.374c0.01,0.076-0.005,0.154,0,0.243
		c0.022,0.194,0.166,0.446,0,0.577c-0.252-0.102-0.572-0.135-0.75-0.318c-0.044-0.182,0.099-0.338,0.075-0.502
		c-0.017-0.137-0.208-0.377-0.317-0.395c-0.114-0.018-0.221,0.105-0.337,0.094c-0.141-0.012-0.269-0.203-0.451-0.223
		c-0.264-0.031-0.455,0.06-0.749,0.018c-0.286,0.151-0.365,0.42-0.712,0.392c-0.124-0.005-0.238-0.099-0.374-0.129
		c-0.153-0.032-0.382-0.085-0.542-0.077c-0.32,0.023-0.553,0.252-0.824,0.395c-0.244,0.129-0.587,0.281-0.654,0.544
		c-0.043,0.138-0.007,0.337-0.059,0.468c-0.031,0.086-0.106,0.162-0.147,0.242c-0.213,0.382-0.39,0.889-0.227,1.439
		c0.024,0.085,0.229,0.543,0.317,0.639c0.1,0.1,0.383,0.257,0.544,0.261c0.138,0,0.298-0.07,0.431-0.093
		c0.156-0.029,0.345-0.033,0.487-0.077c0.407-0.13,0.327-0.676,0.73-0.861c0.177-0.076,0.384-0.094,0.694-0.113
		c0.099,0.087,0.14,0.23,0.13,0.357c-0.01,0.098-0.099,0.183-0.152,0.32c-0.039,0.118-0.047,0.257-0.09,0.354
		c-0.056,0.126-0.178,0.217-0.226,0.338c-0.027,0.075-0.012,0.172-0.037,0.24c-0.042,0.125-0.21,0.21-0.135,0.338
		c0.403,0.157,0.893-0.046,1.24,0.02c0.148,0.023,0.455,0.202,0.452,0.431c-0.008,0.17-0.135,0.278-0.15,0.468
		c-0.023,0.231-0.123,0.521-0.136,0.71c-0.014,0.309,0.459,0.846,0.793,0.842c0.352-0.006,0.562-0.353,0.99-0.169
		c0.141,0.062,0.294,0.292,0.45,0.279c0.131-0.007,0.331-0.233,0.413-0.393c0.102-0.191,0.112-0.35,0.298-0.447
		c0.2-0.104,0.363-0.056,0.618-0.151c0.115-0.04,0.216-0.114,0.318-0.188c0.092-0.06,0.188-0.223,0.3-0.11
		c0.152,0.148-0.179,0.231-0.058,0.394c0.258,0.137,0.395-0.257,0.581-0.262c0.058-0.002,0.266,0.115,0.376,0.186
		c0.145,0.099,0.197,0.229,0.353,0.263c0.104,0.021,0.27-0.039,0.413-0.018c0.191,0.024,0.306,0.188,0.452,0.186
		c0.177-0.006,0.259-0.197,0.41-0.227c0.332-0.058,0.453,0.041,0.603,0.246c0.161,0.027,0.17-0.188,0.316-0.112
		c-0.081,0.162,0.027,0.238,0.094,0.373c0.043,0.09,0.039,0.149,0.077,0.188c0.088,0.085,0.259,0.085,0.393,0.169
		c0.139,0.082,0.217,0.246,0.373,0.432c0.164,0.182,0.438,0.377,0.656,0.391c0.207,0.014,0.373-0.059,0.544-0.039
		c0.387,0.05,0.629,0.241,0.899,0.452c0.15,0.116,0.29,0.195,0.338,0.332c0.03,0.1,0.015,0.23,0.056,0.339
		c0.083,0.234,0.427,0.347,0.297,0.746c0.059,0.122,0.183,0.164,0.318,0.246c0.109,0.065,0.203,0.205,0.317,0.222
		c0.079,0.015,0.165-0.021,0.227-0.018c0.215,0.016,0.361,0.097,0.543,0.168c0.118,0.045,0.262,0.062,0.339,0.113
		c0.093,0.065,0.105,0.28,0.226,0.338c0.076,0.034,0.249-0.014,0.373,0c0.202,0.021,0.475,0.143,0.657,0.146
		c0.108,0.006,0.2-0.044,0.298-0.033c0.228,0.015,0.406,0.159,0.584,0.321C562.131,143.596,558.494,146.298,554.221,147.331z"/>
	<path fill="#009640" d="M735.767,123.61c-0.873-2.029-1.205-4.422-1.866-6.535c-0.105-0.335,0.219-0.616,0.526-0.449
		c1.341,0.737,3.178,1.367,4.866,1.541c2.757,0.287,5.562,0.402,8.04,1.33c2.371,0.889,5.516,2.859,6.987,5.309
		c-1.818,0.217-3.639,0.502-5.387,1.098c-0.58-0.412-1.209-0.756-1.89-1.006c-1.091-0.396-2.398-0.512-3.538-0.82
		c1.211,0.569,2.457,1.098,3.608,1.699c0.287,0.151,0.563,0.316,0.827,0.502c-0.915,0.383-1.807,0.875-2.657,1.501
		c-0.989,0.727-1.832,1.614-2.57,2.713c-0.365-0.081-0.727-0.179-1.042-0.312C738.911,129.02,736.939,126.327,735.767,123.61z"/>
	<path fill="#009640" d="M765.564,123.873c-0.858,2.721-1.298,5.811-2.433,8.428c-1.517,3.511-4.071,6.426-7.647,7.92
		c-0.898,0.373-1.861,0.618-2.846,0.8c-2.803,0.52-5.83,0.528-8.377,1.583c-0.182,0.075-0.339,0.112-0.474,0.112
		c-1.652,0,0.271-5.354,4.679-7.652c0.901-0.471,1.848-0.905,2.801-1.333c0.169-0.076,0.098-0.315-0.063-0.315
		c-0.017,0-0.03,0-0.047,0.009c-0.81,0.232-1.604,0.479-2.383,0.763c-2.93,1.059-5.325,2.801-6.568,5.727
		c-1.081,2.546-1.57,5.662-0.786,8.324c0.109,0.378-0.375,0.644-0.645,0.384c-0.209-0.196-0.271-0.533-0.342-0.801
		c-0.304-1.205-0.325-2.49-0.358-3.725c-0.087-3.046,0.366-6.106,1.357-8.989c0.545-1.586,1.212-3.111,2.162-4.438
		c0.603-0.829,1.311-1.586,2.178-2.224c0.923-0.679,1.901-1.19,2.917-1.578c0.342-0.13,0.69-0.247,1.036-0.354
		c1.606-0.484,3.294-0.729,5.003-0.925c3.49-0.399,7.055-0.608,10.16-2.295c0.082-0.049,0.166-0.067,0.24-0.063
		C765.43,123.226,765.676,123.526,765.564,123.873z"/>
	<g>
		<path fill="#3F3E3E" d="M105.805,175.364c-0.06-1.297-0.134-2.863-0.119-4.221h-0.044c-0.328,1.224-0.746,2.58-1.193,3.848
			l-1.462,4.354h-1.416l-1.342-4.295c-0.388-1.282-0.746-2.653-1.014-3.907h-0.029c-0.045,1.312-0.104,2.908-0.179,4.28
			l-0.224,4.041h-1.715l0.67-10.051h2.416l1.312,4.041c0.357,1.178,0.67,2.371,0.924,3.489h0.044
			c0.269-1.088,0.611-2.327,0.999-3.504l1.387-4.026h2.385l0.582,10.05h-1.789L105.805,175.364z"/>
		<path fill="#3F3E3E" d="M111.573,176.616l-0.865,2.849h-1.894l3.222-10.051h2.341l3.266,10.051h-1.968l-0.909-2.849H111.573z
			 M114.452,175.229l-0.791-2.475c-0.194-0.611-0.357-1.298-0.507-1.879h-0.03c-0.149,0.581-0.298,1.282-0.478,1.879l-0.775,2.475
			H114.452z"/>
		<path fill="#3F3E3E" d="M119.759,170.949h-2.863v-1.536h7.59v1.536h-2.893v8.515h-1.833V170.949z"/>
		<path fill="#3F3E3E" d="M131.284,175.006h-3.788v2.952h4.235v1.507h-6.069v-10.051h5.846v1.508h-4.012v2.594h3.788V175.006z"/>
		<path fill="#3F3E3E" d="M141.826,175.364c-0.06-1.297-0.134-2.863-0.119-4.221h-0.044c-0.328,1.224-0.746,2.58-1.193,3.848
			l-1.462,4.354h-1.417l-1.341-4.295c-0.388-1.282-0.746-2.653-1.014-3.907h-0.03c-0.044,1.312-0.104,2.908-0.178,4.28l-0.224,4.041
			h-1.715l0.671-10.051h2.416l1.312,4.041c0.357,1.178,0.67,2.371,0.924,3.489h0.044c0.269-1.088,0.611-2.327,0.999-3.504
			l1.387-4.026h2.385l0.582,10.05h-1.789L141.826,175.364z"/>
		<path fill="#3F3E3E" d="M147.594,176.616l-0.865,2.849h-1.893l3.222-10.051h2.341l3.266,10.051h-1.968l-0.91-2.849H147.594z
			 M150.473,175.229l-0.791-2.475c-0.194-0.611-0.357-1.298-0.507-1.879h-0.03c-0.149,0.581-0.298,1.282-0.478,1.879l-0.775,2.475
			H150.473z M151.65,167.087l-1.864,1.789h-1.477l1.312-1.789H151.65z"/>
		<path fill="#3F3E3E" d="M155.78,170.949h-2.863v-1.536h7.59v1.536h-2.893v8.515h-1.833V170.949z"/>
		<path fill="#3F3E3E" d="M163.517,169.413v10.051h-1.833v-10.051H163.517z"/>
		<path fill="#3F3E3E" d="M172.821,179.166c-0.432,0.223-1.387,0.448-2.594,0.448c-3.192,0-5.13-1.998-5.13-5.056
			c0-3.311,2.297-5.309,5.368-5.309c1.208,0,2.072,0.254,2.445,0.447l-0.402,1.462c-0.477-0.208-1.134-0.387-1.969-0.387
			c-2.043,0-3.519,1.282-3.519,3.697c0,2.207,1.297,3.624,3.504,3.624c0.746,0,1.521-0.149,1.998-0.374L172.821,179.166z"/>
		<path fill="#3F3E3E" d="M176.503,176.616l-0.865,2.849h-1.893l3.221-10.051h2.341l3.266,10.051h-1.969l-0.909-2.849H176.503z
			 M179.381,175.229l-0.791-2.475c-0.194-0.611-0.357-1.298-0.507-1.879h-0.031c-0.149,0.581-0.298,1.282-0.477,1.879l-0.776,2.475
			H179.381z"/>
	</g>
	<g>
		<path fill="#3F3E3E" d="M305.458,169.413h1.833v8.515h4.131v1.536h-5.964V169.413z"/>
		<path fill="#3F3E3E" d="M318.429,175.006h-3.788v2.952h4.235v1.507h-6.068v-10.051h5.845v1.508h-4.011v2.594h3.788
			L318.429,175.006L318.429,175.006z"/>
		<path fill="#3F3E3E" d="M320.485,179.464v-10.051h2.087l2.594,4.31c0.672,1.119,1.252,2.281,1.715,3.369h0.029
			c-0.119-1.342-0.164-2.639-0.164-4.175v-3.505h1.7v10.051h-1.894l-2.625-4.414c-0.641-1.104-1.312-2.341-1.805-3.476l-0.044,0.016
			c0.074,1.297,0.089,2.625,0.089,4.279v3.595L320.485,179.464L320.485,179.464z"/>
		<path fill="#3F3E3E" d="M338.617,179.001c-0.643,0.239-1.895,0.566-3.237,0.566c-1.7,0-2.983-0.431-3.937-1.341
			c-0.896-0.85-1.417-2.178-1.4-3.697c0-3.177,2.265-5.221,5.592-5.221c1.237,0,2.207,0.255,2.669,0.478l-0.404,1.476
			c-0.552-0.239-1.222-0.434-2.281-0.434c-2.146,0-3.653,1.269-3.653,3.609c0,2.282,1.402,3.638,3.489,3.638
			c0.656,0,1.148-0.09,1.388-0.208v-2.506h-1.776v-1.446h3.55L338.617,179.001L338.617,179.001z"/>
		<path fill="#3F3E3E" d="M342.312,169.413v5.86c0,1.97,0.821,2.88,2.058,2.88c1.327,0,2.118-0.91,2.118-2.88v-5.86h1.835v5.742
			c0,3.101-1.596,4.473-4.011,4.473c-2.328,0-3.833-1.297-3.833-4.46v-5.756L342.312,169.413L342.312,169.413z"/>
		<path fill="#3F3E3E" d="M351.958,176.616l-0.865,2.849h-1.894l3.222-10.051h2.34l3.268,10.051h-1.971l-0.909-2.849H351.958z
			 M354.837,175.229l-0.79-2.475c-0.194-0.611-0.357-1.298-0.508-1.879h-0.028c-0.149,0.581-0.299,1.282-0.479,1.879l-0.774,2.475
			H354.837z"/>
		<path fill="#3F3E3E" d="M361.68,169.413h1.834v6.517c0,2.772-1.342,3.698-3.34,3.698c-0.508,0-1.148-0.09-1.536-0.239l0.224-1.476
			c0.296,0.091,0.701,0.179,1.134,0.179c1.042,0,1.683-0.477,1.683-2.222L361.68,169.413L361.68,169.413z"/>
		<path fill="#3F3E3E" d="M371.148,175.006h-3.787v2.952h4.235v1.507h-6.071v-10.051h5.846v1.508h-4.011v2.594h3.787
			L371.148,175.006L371.148,175.006z"/>
	</g>
	<g>
		<path fill="#3F3E3E" d="M512.329,169.417v4.026h4.251v-4.026h1.834v10.051h-1.834v-4.429h-4.251v4.429h-1.832v-10.051H512.329z"/>
		<path fill="#3F3E3E" d="M522.348,169.417v10.051h-1.832v-10.051H522.348z"/>
		<path fill="#3F3E3E" d="M524.406,177.47c0.596,0.343,1.49,0.641,2.428,0.641c1.179,0,1.834-0.551,1.834-1.37
			c0-0.763-0.506-1.209-1.787-1.672c-1.657-0.597-2.716-1.476-2.716-2.923c0-1.641,1.371-2.893,3.55-2.893
			c1.087,0,1.895,0.239,2.416,0.507l-0.447,1.475c-0.357-0.193-1.059-0.476-1.998-0.476c-1.162,0-1.67,0.625-1.67,1.207
			c0,0.775,0.579,1.134,1.922,1.655c1.746,0.656,2.595,1.536,2.595,2.982c0,1.61-1.224,3.012-3.817,3.012
			c-1.059,0-2.162-0.298-2.714-0.626L524.406,177.47z"/>
		<path fill="#3F3E3E" d="M534.111,170.953h-2.862v-1.536h7.591v1.536h-2.893v8.515h-1.834L534.111,170.953L534.111,170.953z"/>
		<path fill="#3F3E3E" d="M548.516,174.339c0,3.369-2.042,5.293-4.816,5.293c-2.833,0-4.62-2.162-4.62-5.115
			c0-3.087,1.938-5.264,4.771-5.264C546.786,169.253,548.516,171.476,548.516,174.339z M541.016,174.487
			c0,2.043,1.028,3.67,2.788,3.67c1.775,0,2.773-1.641,2.773-3.743c0-1.895-0.939-3.684-2.773-3.684
			C541.984,170.73,541.016,172.414,541.016,174.487z"/>
		<path fill="#3F3E3E" d="M550.095,169.552c0.688-0.119,1.715-0.208,2.773-0.208c1.446,0,2.431,0.237,3.102,0.805
			c0.552,0.463,0.865,1.162,0.865,2.013c0,1.297-0.882,2.178-1.821,2.521v0.044c0.718,0.27,1.15,0.971,1.402,1.94
			c0.312,1.251,0.581,2.415,0.79,2.804h-1.894c-0.149-0.298-0.388-1.12-0.671-2.372c-0.284-1.312-0.761-1.729-1.805-1.759h-0.924
			v4.131h-1.82L550.095,169.552L550.095,169.552z M551.915,173.994h1.088c1.238,0,2.013-0.655,2.013-1.656
			c0-1.104-0.773-1.609-1.969-1.609c-0.581,0-0.954,0.046-1.132,0.09V173.994z"/>
		<path fill="#3F3E3E" d="M560.412,169.417v10.051h-1.834v-10.051H560.412z"/>
		<path fill="#3F3E3E" d="M564.527,176.62l-0.864,2.849h-1.895l3.221-10.05h2.342l3.266,10.05h-1.969l-0.909-2.849H564.527z
			 M567.405,175.233l-0.79-2.474c-0.194-0.612-0.36-1.3-0.507-1.881h-0.03c-0.149,0.581-0.299,1.282-0.478,1.881l-0.775,2.474
			H567.405z"/>
	</g>
	<g>
		<path fill="#3F3E3E" d="M683.094,179.17c-0.433,0.223-1.387,0.447-2.595,0.447c-3.191,0-5.129-1.998-5.129-5.055
			c0-3.311,2.296-5.309,5.365-5.309c1.208,0,2.073,0.254,2.446,0.447l-0.402,1.463c-0.478-0.209-1.134-0.388-1.969-0.388
			c-2.043,0-3.518,1.282-3.518,3.697c0,2.207,1.297,3.624,3.505,3.624c0.745,0,1.519-0.149,1.997-0.374L683.094,179.17z"/>
		<path fill="#3F3E3E" d="M686.492,169.417v10.051h-1.834v-10.051H686.492z"/>
		<path fill="#3F3E3E" d="M694.217,175.01h-3.788v2.952h4.233v1.507h-6.069v-10.05h5.846v1.506h-4.012v2.595h3.788L694.217,175.01
			L694.217,175.01z"/>
		<path fill="#3F3E3E" d="M696.272,179.468v-10.051h2.089l2.594,4.31c0.674,1.119,1.253,2.281,1.715,3.369h0.03
			c-0.119-1.342-0.164-2.639-0.164-4.175v-3.504h1.699v10.05h-1.893l-2.625-4.415c-0.642-1.104-1.312-2.341-1.805-3.475
			l-0.045,0.016c0.074,1.297,0.089,2.625,0.089,4.279v3.595L696.272,179.468L696.272,179.468z"/>
		<path fill="#3F3E3E" d="M713.555,179.17c-0.434,0.223-1.388,0.447-2.596,0.447c-3.19,0-5.129-1.998-5.129-5.055
			c0-3.311,2.297-5.309,5.366-5.309c1.207,0,2.072,0.254,2.445,0.447l-0.402,1.463c-0.478-0.209-1.133-0.388-1.969-0.388
			c-2.043,0-3.517,1.282-3.517,3.697c0,2.207,1.297,3.624,3.504,3.624c0.745,0,1.519-0.149,1.997-0.374L713.555,179.17z"/>
		<path fill="#3F3E3E" d="M716.952,169.417v10.051h-1.832v-10.051H716.952z"/>
		<path fill="#3F3E3E" d="M721.068,176.62l-0.865,2.849h-1.894l3.221-10.05h2.341l3.266,10.05h-1.969l-0.91-2.849H721.068z
			 M723.946,175.233l-0.79-2.474c-0.195-0.612-0.358-1.3-0.507-1.881h-0.028c-0.149,0.581-0.299,1.282-0.479,1.881l-0.774,2.474
			H723.946z"/>
		<path fill="#3F3E3E" d="M728.492,177.47c0.596,0.343,1.491,0.641,2.431,0.641c1.178,0,1.834-0.551,1.834-1.37
			c0-0.763-0.507-1.209-1.789-1.672c-1.655-0.597-2.714-1.476-2.714-2.923c0-1.641,1.371-2.893,3.548-2.893
			c1.089,0,1.895,0.239,2.418,0.507l-0.45,1.475c-0.357-0.193-1.059-0.476-1.997-0.476c-1.162,0-1.67,0.625-1.67,1.207
			c0,0.775,0.581,1.134,1.924,1.655c1.744,0.656,2.595,1.536,2.595,2.982c0,1.61-1.224,3.012-3.817,3.012
			c-1.06,0-2.162-0.298-2.714-0.626L728.492,177.47z"/>
		<path fill="#3F3E3E" d="M739.36,179.468v-10.051h2.089l2.594,4.31c0.672,1.119,1.253,2.281,1.714,3.369h0.029
			c-0.119-1.342-0.164-2.639-0.164-4.175v-3.504h1.699v10.05h-1.893l-2.625-4.415c-0.641-1.104-1.312-2.341-1.805-3.475
			l-0.045,0.016c0.075,1.297,0.09,2.625,0.09,4.279v3.595L739.36,179.468L739.36,179.468z"/>
		<path fill="#3F3E3E" d="M751.453,176.62l-0.865,2.849h-1.894l3.221-10.05h2.341l3.266,10.05h-1.968l-0.911-2.849H751.453z
			 M754.331,175.233l-0.79-2.474c-0.195-0.612-0.359-1.3-0.507-1.881h-0.029c-0.148,0.581-0.298,1.282-0.477,1.881l-0.776,2.474
			H754.331z"/>
		<path fill="#3F3E3E" d="M759.637,170.953h-2.861v-1.536h7.591v1.536h-2.893v8.515h-1.833v-8.515H759.637z"/>
		<path fill="#3F3E3E" d="M767.36,169.417v5.86c0,1.969,0.819,2.879,2.058,2.879c1.328,0,2.118-0.91,2.118-2.879v-5.86h1.834v5.742
			c0,3.101-1.596,4.473-4.012,4.473c-2.326,0-3.832-1.298-3.832-4.459v-5.756H767.36L767.36,169.417z"/>
		<path fill="#3F3E3E" d="M775.471,169.552c0.688-0.119,1.715-0.208,2.773-0.208c1.446,0,2.431,0.237,3.102,0.805
			c0.552,0.463,0.865,1.162,0.865,2.013c0,1.297-0.882,2.178-1.819,2.521v0.044c0.716,0.27,1.148,0.971,1.4,1.94
			c0.312,1.251,0.581,2.415,0.79,2.804h-1.894c-0.149-0.298-0.388-1.12-0.671-2.372c-0.284-1.312-0.761-1.729-1.805-1.759h-0.923
			v4.131h-1.821L775.471,169.552L775.471,169.552z M777.29,173.994h1.087c1.238,0,2.013-0.655,2.013-1.656
			c0-1.104-0.773-1.609-1.969-1.609c-0.579,0-0.954,0.046-1.131,0.09V173.994z"/>
		<path fill="#3F3E3E" d="M786.071,176.62l-0.864,2.849h-1.895l3.221-10.05h2.34l3.266,10.05h-1.969l-0.909-2.849H786.071z
			 M788.949,175.233l-0.79-2.474c-0.194-0.612-0.358-1.3-0.507-1.881h-0.029c-0.148,0.581-0.298,1.282-0.479,1.881l-0.773,2.474
			H788.949z"/>
		<path fill="#3F3E3E" d="M793.54,169.417h1.834v8.515h4.131v1.536h-5.965V169.417z"/>
		<path fill="#3F3E3E" d="M806.512,175.01h-3.788v2.952h4.234v1.507h-6.07v-10.05h5.847v1.506h-4.012v2.595h3.787L806.512,175.01
			L806.512,175.01z"/>
		<path fill="#3F3E3E" d="M808.523,177.47c0.597,0.343,1.492,0.641,2.431,0.641c1.178,0,1.834-0.551,1.834-1.37
			c0-0.763-0.507-1.209-1.789-1.672c-1.655-0.597-2.714-1.476-2.714-2.923c0-1.641,1.372-2.893,3.549-2.893
			c1.089,0,1.896,0.239,2.417,0.507l-0.448,1.475c-0.358-0.193-1.058-0.476-1.998-0.476c-1.163,0-1.671,0.625-1.671,1.207
			c0,0.775,0.582,1.134,1.924,1.655c1.746,0.656,2.595,1.536,2.595,2.982c0,1.61-1.223,3.012-3.817,3.012
			c-1.06,0-2.162-0.298-2.714-0.626L808.523,177.47z"/>
	</g>
	<g>
		<path fill="#588CC9" d="M265.473,119.153l-17.299-17.303c-0.345-0.342-0.811-0.536-1.303-0.536h-52.21
			c-1.014,0-1.836,0.822-1.836,1.835v82.571c0,1.013,0.823,1.835,1.836,1.835h69.52c1.007,0,1.833-0.822,1.833-1.835v-65.27
			C266.014,119.965,265.82,119.502,265.473,119.153z M248.715,107.581l11.035,11.035h-11.035V107.581z M196.498,183.885v-78.899
			h48.545v15.465c0,1.016,0.821,1.833,1.829,1.833h15.469v61.601H196.498L196.498,183.885z"/>
		<g>
			<path fill="#588CC9" d="M215.608,131.498h-12.893c-1.016,0-1.839-0.818-1.839-1.835v-12.898c0-1.013,0.823-1.832,1.839-1.832
				h12.893c1.013,0,1.835,0.819,1.835,1.832v12.898C217.443,130.68,216.621,131.498,215.608,131.498z M204.546,127.828h9.225v-9.223
				h-9.225V127.828z"/>
		</g>
		<g>
			<path fill="#588CC9" d="M215.608,154.581h-12.893c-1.016,0-1.839-0.822-1.839-1.833v-12.896c0-1.018,0.823-1.833,1.839-1.833
				h12.893c1.013,0,1.835,0.815,1.835,1.833v12.896C217.443,153.759,216.621,154.581,215.608,154.581z M204.546,150.917h9.225
				v-9.232h-9.225V150.917z"/>
		</g>
		<g>
			<path fill="#588CC9" d="M215.608,177.667h-12.893c-1.016,0-1.839-0.822-1.839-1.834v-12.895c0-1.014,0.823-1.835,1.839-1.835
				h12.893c1.013,0,1.835,0.821,1.835,1.835v12.895C217.443,176.845,216.621,177.667,215.608,177.667z M204.546,173.997h9.225
				v-9.227h-9.225V173.997z"/>
		</g>
	</g>
	<g>
		<path fill="#588CC9" d="M224.535,165.407v-1.765c0.817-0.037,1.39-0.093,1.716-0.165c0.521-0.115,0.944-0.346,1.271-0.69
			c0.224-0.237,0.394-0.553,0.508-0.946c0.066-0.238,0.099-0.413,0.099-0.529h2.166v13.195h-2.657v-9.1H224.535L224.535,165.407z"/>
		<path fill="#588CC9" d="M234.272,170.758v-2.375h3.732v-3.731h2.393v3.731h3.731v2.375h-3.731v3.751h-2.393v-3.751H234.272z"/>
		<path fill="#588CC9" d="M245.683,171.914c0.37-0.88,1.244-1.812,2.621-2.795c1.195-0.855,1.969-1.468,2.32-1.837
			c0.54-0.576,0.811-1.208,0.811-1.894c0-0.559-0.155-1.022-0.464-1.393c-0.309-0.371-0.752-0.555-1.329-0.555
			c-0.789,0-1.326,0.294-1.611,0.883c-0.163,0.339-0.26,0.88-0.292,1.619h-2.52c0.042-1.122,0.245-2.028,0.61-2.721
			c0.692-1.316,1.922-1.976,3.689-1.976c1.397,0,2.508,0.387,3.334,1.16c0.825,0.771,1.239,1.797,1.239,3.071
			c0,0.977-0.292,1.844-0.875,2.604c-0.383,0.502-1.012,1.065-1.886,1.682l-1.04,0.736c-0.649,0.46-1.095,0.796-1.334,1.002
			c-0.24,0.206-0.442,0.446-0.606,0.721h5.76v2.283h-9.037C245.098,173.561,245.301,172.696,245.683,171.914z"/>
	</g>
	<g>
		<path fill="#F98C15" d="M467.922,119.153l-17.298-17.303c-0.345-0.342-0.812-0.536-1.305-0.536h-52.208
			c-1.015,0-1.838,0.822-1.838,1.835v82.571c0,1.013,0.823,1.835,1.838,1.835h69.52c1.005,0,1.831-0.822,1.831-1.835v-65.27
			C468.464,119.965,468.27,119.502,467.922,119.153z M451.164,107.581l11.034,11.035h-11.034V107.581z M398.948,183.885v-78.899
			h48.544v15.465c0,1.016,0.82,1.833,1.827,1.833h15.47v61.601H398.948L398.948,183.885z"/>
		<g>
			<path fill="#F98C15" d="M418.058,131.498h-12.893c-1.015,0-1.838-0.818-1.838-1.835v-12.898c0-1.013,0.823-1.832,1.838-1.832
				h12.893c1.014,0,1.836,0.819,1.836,1.832v12.898C419.893,130.68,419.071,131.498,418.058,131.498z M406.997,127.828h9.223v-9.223
				h-9.223V127.828z"/>
		</g>
		<g>
			<path fill="#F98C15" d="M418.058,154.581h-12.893c-1.015,0-1.838-0.822-1.838-1.833v-12.896c0-1.018,0.823-1.833,1.838-1.833
				h12.893c1.014,0,1.836,0.815,1.836,1.833v12.896C419.893,153.759,419.071,154.581,418.058,154.581z M406.997,150.917h9.223
				v-9.232h-9.223V150.917z"/>
		</g>
		<g>
			<path fill="#F98C15" d="M418.058,177.667h-12.893c-1.015,0-1.838-0.822-1.838-1.834v-12.895c0-1.014,0.823-1.835,1.838-1.835
				h12.893c1.014,0,1.836,0.821,1.836,1.835v12.895C419.893,176.845,419.071,177.667,418.058,177.667z M406.997,173.997h9.223
				v-9.227h-9.223V173.997z"/>
		</g>
	</g>
	<g>
		<path fill="#F98C15" d="M429.151,161.094h3.171l4.744,13.414h-3.039l-0.885-2.757h-4.94l-0.909,2.757h-2.933L429.151,161.094z
			 M428.967,169.439h3.437l-1.694-5.278L428.967,169.439z"/>
		<path fill="#F98C15" d="M447.034,165.781c0.742,0.938,1.112,2.153,1.112,3.64c0,1.54-0.365,2.816-1.098,3.831
			c-0.73,1.013-1.752,1.52-3.065,1.52c-0.822,0-1.483-0.164-1.984-0.492c-0.299-0.194-0.623-0.532-0.97-1.019v1.246h-2.557v-13.396
			h2.594v4.769c0.331-0.461,0.693-0.812,1.09-1.056c0.471-0.302,1.068-0.453,1.795-0.453
			C445.264,164.369,446.293,164.84,447.034,165.781z M444.866,171.823c0.373-0.539,0.56-1.249,0.56-2.13
			c0-0.703-0.092-1.286-0.275-1.747c-0.35-0.876-0.991-1.312-1.926-1.312c-0.948,0-1.6,0.427-1.955,1.283
			c-0.181,0.454-0.275,1.043-0.275,1.765c0,0.851,0.19,1.552,0.57,2.111c0.379,0.559,0.957,0.837,1.734,0.837
			C443.97,172.632,444.493,172.363,444.866,171.823z"/>
		<path fill="#F98C15" d="M455.882,168.146c-0.048-0.371-0.173-0.703-0.373-1.001c-0.294-0.399-0.744-0.603-1.359-0.603
			c-0.875,0-1.474,0.434-1.796,1.303c-0.171,0.459-0.256,1.072-0.256,1.832c0,0.727,0.086,1.312,0.256,1.751
			c0.309,0.826,0.893,1.238,1.75,1.238c0.609,0,1.041-0.164,1.297-0.492c0.254-0.328,0.41-0.751,0.465-1.274h2.648
			c-0.06,0.788-0.348,1.534-0.856,2.238c-0.812,1.135-2.02,1.702-3.616,1.702c-1.596,0-2.771-0.473-3.523-1.42
			c-0.755-0.946-1.13-2.173-1.13-3.682c0-1.701,0.415-3.024,1.248-3.97c0.831-0.947,1.979-1.421,3.442-1.421
			c1.244,0,2.263,0.28,3.056,0.837c0.792,0.56,1.261,1.547,1.407,2.96L455.882,168.146L455.882,168.146z"/>
	</g>
	<g>
		<path fill="#EAC615" d="M666.577,119.153l-17.3-17.303c-0.345-0.342-0.812-0.536-1.305-0.536h-52.211
			c-1.013,0-1.836,0.822-1.836,1.835v82.571c0,1.013,0.823,1.835,1.836,1.835h69.521c1.005,0,1.832-0.822,1.832-1.835v-65.27
			C667.117,119.965,666.922,119.502,666.577,119.153z M649.818,107.581l11.034,11.035h-11.034V107.581z M597.602,183.885v-78.899
			h48.543v15.465c0,1.016,0.822,1.833,1.828,1.833h15.471v61.601H597.602L597.602,183.885z"/>
		<g>
			<path fill="#EAC615" d="M616.712,131.498h-12.895c-1.016,0-1.839-0.818-1.839-1.835v-12.898c0-1.013,0.823-1.832,1.839-1.832
				h12.895c1.012,0,1.835,0.819,1.835,1.832v12.898C618.547,130.68,617.724,131.498,616.712,131.498z M605.65,127.828h9.222v-9.223
				h-9.222V127.828z"/>
		</g>
		<g>
			<path fill="#EAC615" d="M616.712,154.581h-12.895c-1.016,0-1.839-0.822-1.839-1.833v-12.896c0-1.018,0.823-1.833,1.839-1.833
				h12.895c1.012,0,1.835,0.815,1.835,1.833v12.896C618.547,153.759,617.724,154.581,616.712,154.581z M605.65,150.917h9.222v-9.232
				h-9.222V150.917z"/>
		</g>
		<g>
			<path fill="#EAC615" d="M616.712,177.667h-12.895c-1.016,0-1.839-0.822-1.839-1.834v-12.895c0-1.014,0.823-1.835,1.839-1.835
				h12.895c1.012,0,1.835,0.821,1.835,1.835v12.895C618.547,176.845,617.724,177.667,616.712,177.667z M605.65,173.997h9.222v-9.227
				h-9.222V173.997z"/>
		</g>
	</g>
	<path fill="#EAC615" d="M657.805,160.176c-0.033-0.292-0.067-0.585-0.112-0.873c-0.047-0.29-0.099-0.576-0.152-0.86
		c-0.059-0.284-0.124-0.566-0.196-0.845c-0.145-0.561-0.315-1.103-0.512-1.638c-0.046-0.135-0.098-0.266-0.152-0.4
		c-0.153-0.395-0.324-0.785-0.508-1.165c-0.061-0.125-0.122-0.254-0.188-0.379c-0.131-0.251-0.262-0.495-0.403-0.742
		c-0.419-0.727-0.892-1.426-1.41-2.086c-0.26-0.326-0.527-0.648-0.811-0.957c-0.185-0.207-0.378-0.41-0.573-0.606
		c-0.2-0.197-0.401-0.391-0.607-0.578c-0.402-0.364-0.816-0.708-1.251-1.033c-0.57-0.432-1.168-0.83-1.798-1.188
		c-0.24-0.139-0.49-0.276-0.74-0.402c-0.112-0.059-0.227-0.117-0.344-0.176c-0.137-0.066-0.276-0.13-0.415-0.196
		c-0.062-0.021-2.628-1.173-3.165-1.301c-0.169-0.037-0.335,0.037-0.508,0.004c-0.122-0.024-0.244,0.004-0.367-0.019
		c-0.917-0.167-1.86-0.233-2.823-0.25c-0.104,0-0.209,0.013-0.317,0.013c-0.178,0-0.362,0.013-0.539,0.016
		c-1.762,0.055-3.461,0.371-5.05,0.91c-0.275,0.091-0.544,0.193-0.807,0.294c-0.081,0.033-0.161,0.069-0.245,0.103
		c-0.178,0.076-0.358,0.153-0.538,0.229c-0.255,0.121-0.51,0.242-0.759,0.372c-0.251,0.125-0.497,0.262-0.744,0.401
		c-0.979,0.563-1.896,1.218-2.747,1.954c-0.099,0.087-0.199,0.178-0.296,0.266c-0.209,0.188-0.41,0.383-0.607,0.579
		c-0.197,0.195-0.391,0.398-0.581,0.605c-0.281,0.308-0.549,0.63-0.807,0.958c-0.517,0.658-0.989,1.357-1.409,2.086
		c-0.137,0.249-0.273,0.492-0.403,0.744c-0.066,0.123-0.124,0.253-0.187,0.376c-0.183,0.381-0.354,0.771-0.513,1.165
		c-0.05,0.135-0.101,0.265-0.153,0.401c-0.192,0.534-0.36,1.077-0.506,1.638c-0.072,0.278-0.137,0.56-0.193,0.844
		c-0.059,0.285-0.111,0.569-0.153,0.86c-0.046,0.289-0.084,0.58-0.111,0.873c-0.062,0.585-0.088,1.179-0.088,1.782
		c0,0.604,0.024,1.199,0.088,1.784c0.027,0.294,0.065,0.585,0.111,0.871c0.042,0.294,0.095,0.578,0.153,0.863
		c0.058,0.281,0.121,0.565,0.193,0.844c0.146,0.555,0.313,1.105,0.506,1.637c0.104,0.269,0.203,0.53,0.316,0.795
		c0.112,0.258,0.228,0.518,0.35,0.771c0.062,0.125,0.12,0.253,0.187,0.377c0.13,0.25,0.267,0.497,0.403,0.74
		c0.42,0.731,0.893,1.431,1.409,2.089c0.258,0.327,0.528,0.65,0.807,0.959c0.19,0.206,0.384,0.41,0.581,0.607
		c0.197,0.195,0.398,0.386,0.607,0.577c0.925,0.846,1.949,1.592,3.045,2.22c0.247,0.139,0.493,0.272,0.744,0.401
		c0.499,0.258,1.014,0.492,1.542,0.698c0.263,0.105,0.53,0.203,0.807,0.295c1.754,0.594,3.634,0.918,5.59,0.918
		c1.334,0,2.635-0.149,3.885-0.434c0.579-0.133,1.151-0.295,1.712-0.484c0.267-0.092,0.533-0.188,0.799-0.295
		c0.527-0.208,1.047-0.44,1.545-0.698c0.253-0.129,0.5-0.261,0.74-0.401c1.099-0.63,2.12-1.378,3.051-2.22
		c0.204-0.191,0.405-0.382,0.605-0.577c0.195-0.197,0.388-0.401,0.574-0.607c0.283-0.309,0.552-0.629,0.81-0.959
		c0.411-0.521,0.79-1.066,1.139-1.634c0.094-0.149,0.183-0.299,0.271-0.451c0.14-0.243,0.275-0.492,0.402-0.742
		c0.065-0.126,0.13-0.254,0.188-0.377c0.122-0.256,0.237-0.514,0.352-0.771c0.109-0.263,0.212-0.526,0.309-0.795
		c0.196-0.533,0.367-1.08,0.512-1.637c0.071-0.278,0.138-0.562,0.196-0.844c0.055-0.285,0.105-0.571,0.151-0.863
		c0.046-0.286,0.079-0.578,0.112-0.871c0.059-0.585,0.088-1.18,0.088-1.781C657.892,161.354,657.863,160.761,657.805,160.176z
		 M644.325,178.009c-0.016-0.164-0.06-0.329-0.069-0.493c-0.017-0.353,0.038-0.605-0.02-0.935c-0.042-0.248-0.096-0.63-0.186-0.786
		c-0.099-0.176-0.492-0.469-0.691-0.577c-0.129-0.072-0.289-0.098-0.432-0.171c-0.307-0.146-0.896-0.463-1.03-0.766
		c-0.039-0.089-0.032-0.202-0.078-0.3c-0.077-0.191-0.252-0.355-0.372-0.541c-0.232-0.351-0.42-0.796-0.658-1.159
		c-0.115-0.185-0.221-0.395-0.352-0.54c-0.08-0.089-0.329-0.171-0.358-0.3c-0.044-0.176-0.172-0.411-0.148-0.544
		c0.023-0.179,0.377-0.326,0.372-0.484c0-0.14-0.185-0.222-0.223-0.337c-0.096-0.29,0.058-0.455,0.17-0.691
		c0.035-0.079,0.075-0.206,0.113-0.265c0.067-0.1,0.209-0.13,0.3-0.242c0.051-0.062,0.084-0.19,0.147-0.279
		c0.143-0.19,0.374-0.259,0.429-0.434c0.05-0.136,0.077-0.831,0.021-1.066c-0.03-0.133-0.156-0.245-0.206-0.373
		c-0.085-0.226-0.101-0.474-0.335-0.467c-0.143,0.003-0.247,0.161-0.34,0.261c-0.02,0.135-0.011,0.277-0.147,0.315
		c-0.213,0.066-0.295-0.221-0.544-0.297c-0.099-0.029-0.257-0.027-0.32-0.055c-0.179-0.085-0.237-0.348-0.43-0.45
		c-0.159-0.085-0.296-0.058-0.393-0.188c-0.039-0.09-0.011-0.256-0.021-0.374c-0.205-0.121-0.378-0.569-0.618-0.675
		c-0.162-0.069-0.401-0.063-0.599-0.13c-0.093-0.033-0.163-0.074-0.265-0.096c-0.117-0.028-0.244-0.03-0.336-0.075
		c-0.366-0.182-0.57-0.78-1.029-0.766c-0.196,0.002-0.385,0.187-0.565,0.187c-0.174-0.002-0.472-0.143-0.688-0.246
		c-0.23-0.108-0.488-0.164-0.679-0.259c-0.153-0.079-0.259-0.224-0.39-0.282c-0.104-0.048-0.256-0.056-0.339-0.097
		c-0.12-0.055-0.246-0.178-0.394-0.279c-0.146-0.098-0.293-0.248-0.298-0.374c-0.011-0.146,0.137-0.269,0.147-0.412
		c0.047-0.448-0.28-0.765-0.485-1.03c-0.155-0.191-0.335-0.359-0.49-0.541c0.009-0.118,0.009-0.14,0-0.263
		c-0.118-0.11-0.217-0.278-0.335-0.449c-0.113-0.151-0.334-0.316-0.358-0.488c-0.035-0.209,0.08-0.394,0-0.597
		c-0.132-0.339-0.606-0.187-0.542,0.262c0.014,0.123,0.188,0.289,0.244,0.411c0.054,0.125,0.042,0.281,0.093,0.43
		c0.05,0.143,0.192,0.271,0.243,0.432c0.079,0.255,0.079,0.533,0.149,0.691c0.064,0.142,0.302,0.279,0.173,0.448
		c-0.181,0.038-0.25-0.137-0.358-0.244c-0.06-0.057-0.284-0.164-0.319-0.296c-0.029-0.112,0.07-0.258,0.036-0.393
		c-0.065-0.266-0.597-0.272-0.6-0.544c0-0.171,0.227-0.19,0.227-0.355c0.001-0.179-0.247-0.333-0.301-0.486
		c-0.049-0.14-0.055-0.364-0.075-0.563c-0.017-0.186,0.009-0.4-0.036-0.543c-0.04-0.127-0.231-0.303-0.358-0.373
		c-0.163-0.093-0.294-0.054-0.373-0.185c-0.073-0.119-0.116-0.362-0.133-0.486c-0.024-0.227-0.008-0.475-0.019-0.711
		c-0.012-0.242-0.037-0.474,0-0.73c0.096-0.184,0.261-0.27,0.357-0.448c0.065-0.127,0.076-0.281,0.149-0.414
		c0.136-0.244,0.438-0.469,0.637-0.71c0.217-0.258,0.419-0.507,0.544-0.806c0.047-0.104,0.168-0.339,0.146-0.468
		c-0.024-0.18-0.366-0.328-0.335-0.545c0.018-0.132,0.205-0.13,0.265-0.26c0.024-0.066,0.054-0.256,0.054-0.334
		c0.005-0.182-0.092-0.371-0.054-0.564c0.027-0.166,0.272-0.229,0.147-0.412c-0.123-0.178-0.349,0.098-0.488-0.019
		c-0.126-0.104,0.024-0.232,0.038-0.432c0.003-0.073-0.046-0.164-0.038-0.22c0.014-0.085,0.176-0.226,0.133-0.282
		c-0.07-0.088-0.145-0.257-0.248-0.396c2.088-1.673,4.594-2.85,7.333-3.347c0.033,0.059,0.062,0.127,0.146,0.149
		c0.164-0.085,0.327,0.005,0.505,0c0.178-0.006,0.333-0.087,0.526-0.056c0.342,0.052,0.817,0.385,1.086,0.206
		c0.067-0.05,0.053-0.615,0.111-0.731c0.05-0.094,0.129-0.804,0.174-0.804c0.137,0,0.27,0,0.407,0c1.128,0,2.231,0.596,3.295,0.812
		c-0.043,0.114-0.189,0.308-0.312,0.365c-0.116,0.056-0.158,0.285-0.281,0.31c-0.343,0.059-0.623-0.023-0.921-0.014
		c-0.014,0.128,0.143,0.23,0.223,0.271c0.27,0.143,0.489,0.138,0.864,0.13c0.193-0.006,0.416,0.067,0.579-0.048
		c0.106-0.07,0.098-0.229,0.188-0.315c0.039-0.037,0.094-0.075,0.154-0.108c0.184,0.044,0.371,0.097,0.553,0.148
		c-0.028,0.126-0.235,0.093-0.238,0.264c0.132,0.078,0.436-0.045,0.55-0.176c0.046,0.013,0.092,0.022,0.137,0.037
		c0.268,0.082,0.528,0.171,0.789,0.261c0.368,0.132,0.731,0.276,1.088,0.438c-0.067,0.041-0.143,0.093-0.203,0.093
		c-0.154-0.002-0.221-0.209-0.388-0.132c-0.021,0.199,0.209,0.279,0.353,0.373c0.154,0.099,0.317,0.199,0.372,0.374
		c-0.147,0.322-0.395-0.017-0.637-0.017c-0.263-0.006-0.652,0.503-0.879,0.091c0.057-0.217,0.296-0.251,0.354-0.467
		c-0.05,0.009-0.099,0.023-0.15,0.044c-0.092,0.034-0.178,0.085-0.268,0.131c-0.119,0.066-0.244,0.132-0.385,0.164
		c-0.135,0.027-0.259,0.022-0.373,0.056c-0.227,0.062-0.383,0.229-0.618,0.317c-0.092,0.035-0.205,0.026-0.303,0.059
		c-0.226,0.075-0.494,0.211-0.729,0.336c-0.235,0.13-0.505,0.264-0.652,0.395c-0.081,0.065-0.292,0.311-0.285,0.391
		c0.012,0.112,0.222,0.146,0.224,0.262c-0.002,0.066-0.119,0.216-0.035,0.319c0.074,0.089,0.229,0.02,0.391,0.036
		c0.291,0.035,0.476,0.272,0.697,0.391c0.163,0.097,0.413,0.202,0.603,0.226c0.253,0.034,0.54-0.076,0.577,0.132
		c0.033,0.196-0.243,0.268-0.265,0.393c0.143,0.183-0.093,0.271-0.093,0.43c0.001,0.13,0.161,0.325,0.298,0.335
		c0.189,0.017,0.464-0.186,0.543-0.374c0.094-0.222,0.056-0.528,0.225-0.688c0.878,0.021,1.613-0.399,1.555-1.292
		c-0.005-0.087-0.056-0.2-0.034-0.298c0.024-0.145,0.271-0.267,0.244-0.452c0.097-0.024,0.148-0.101,0.2-0.186
		c0.07-0.131,0.126-0.274,0.261-0.324c0.011-0.002,0.012-0.01,0.025-0.01c0.071-0.019,0.156-0.006,0.236,0.021
		c0.152,0.045,0.318,0.121,0.493,0.108c0.089-0.005,0.208-0.087,0.3-0.073c0.18,0.022,0.291,0.251,0.433,0.355
		c0.12,0.09,0.181,0.06,0.214,0.187c-0.035,0.206-0.236,0.213-0.236,0.405c0,0.001,0,0.003,0,0.003c0,0.174,0.264,0.303,0.354,0.321
		c0.133,0.025,0.358-0.048,0.496-0.111c0.145-0.071,0.296-0.221,0.43-0.326c0.179,0.141,0.369,0.284,0.546,0.435
		c0.022,0.085,0.037,0.158,0.044,0.208c0.027,0.2-0.025,0.356-0.018,0.544c0.023,0.312,0.422,0.281,0.62,0.448
		c0.059,0.052,0.081,0.181,0.127,0.241c0.097,0.132,0.217,0.132,0.227,0.264c0.037,0.322-0.294,0.354-0.264,0.709
		c-0.063,0.14-0.235,0.135-0.217,0.319c0.021,0.294,0.444,0.071,0.562,0.299c0.061,0.126-0.013,0.219-0.059,0.394
		c0.146,0.173,0.146,0.451-0.109,0.451c-0.155,0-0.2-0.169-0.355-0.21c-0.089-0.021-0.21-0.017-0.322-0.035
		c-0.094-0.017-0.21-0.047-0.296-0.058c-0.229-0.023-0.481,0.042-0.619-0.09c0.221-0.301,0.518-0.589,0.808-0.847
		c0.082-0.074,0.267-0.125,0.219-0.277c-0.155-0.14-0.353,0.01-0.504,0.093c-0.156,0.09-0.346,0.217-0.524,0.241
		c-0.31,0.052-0.722-0.087-0.976,0.077c-0.032,0.142,0.29,0.089,0.248,0.298c-0.129,0.022-0.244,0.034-0.34-0.055
		c-0.087-0.079-0.036-0.197-0.094-0.243c-0.097-0.079-0.454-0.102-0.618-0.077c-0.196,0.034-0.373,0.148-0.394,0.32
		c0.234,0.11,0.625-0.112,0.713,0.167c-0.13,0.235-0.437,0.361-0.394,0.676c0.017,0.119,0.161,0.28,0.26,0.3
		c0.105,0.018,0.164-0.087,0.264-0.075c0.105,0.009,0.081,0.131,0.208,0.11c0.179-0.077,0.278-0.331,0.486-0.315
		c0.247,0.297-0.226,0.447-0.486,0.539c-0.3,0.11-0.69,0.169-0.921,0.263c-0.118,0.049-0.569,0.488-0.637,0.147
		c-0.044-0.241,0.225-0.172,0.279-0.373c-0.289-0.056-0.561,0.126-0.824,0.229c-0.376,0.137-1.018,0.229-1.104,0.651
		c-0.02,0.084,0.036,0.244-0.021,0.3c-0.043,0.044-0.309,0.052-0.429,0.091c-0.18,0.062-0.341,0.195-0.451,0.228
		c-0.085,0.021-0.209,0.017-0.259,0.033c-0.154,0.06-0.206,0.261-0.376,0.395c-0.068,0.058-0.227,0.093-0.281,0.149
		c-0.1,0.096-0.108,0.339-0.285,0.374c-0.104,0.009-0.193-0.081-0.295-0.02c-0.014,0.238,0.083,0.563-0.019,0.807
		c-0.226,0.179-0.467,0.31-0.753,0.464c-0.157,0.09-0.294,0.113-0.487,0.208c-0.135,0.068-0.255,0.229-0.414,0.319
		c-0.354,0.21-0.789,0.456-0.786,0.992c0,0.114,0.061,0.239,0.074,0.373c0.01,0.079-0.006,0.156,0,0.244
		c0.024,0.195,0.166,0.448,0,0.579c-0.251-0.103-0.572-0.138-0.749-0.319c-0.047-0.182,0.1-0.336,0.074-0.504
		c-0.018-0.134-0.208-0.375-0.316-0.393c-0.115-0.019-0.223,0.106-0.34,0.094c-0.138-0.013-0.269-0.205-0.449-0.224
		c-0.264-0.029-0.457,0.06-0.747,0.019c-0.287,0.151-0.368,0.422-0.715,0.395c-0.123-0.007-0.235-0.102-0.375-0.129
		c-0.152-0.035-0.38-0.087-0.541-0.079c-0.321,0.022-0.552,0.253-0.825,0.396c-0.241,0.127-0.585,0.281-0.651,0.543
		c-0.044,0.138-0.008,0.336-0.059,0.465c-0.032,0.088-0.105,0.165-0.148,0.245c-0.212,0.379-0.39,0.887-0.227,1.438
		c0.024,0.083,0.23,0.544,0.317,0.637c0.1,0.101,0.383,0.259,0.546,0.262c0.137,0,0.296-0.071,0.431-0.094
		c0.154-0.026,0.343-0.033,0.486-0.077c0.405-0.129,0.324-0.674,0.729-0.86c0.177-0.075,0.382-0.094,0.696-0.111
		c0.101,0.086,0.14,0.228,0.132,0.356c-0.015,0.098-0.102,0.181-0.153,0.32c-0.04,0.116-0.05,0.257-0.091,0.354
		c-0.056,0.126-0.179,0.216-0.225,0.338c-0.03,0.075-0.014,0.171-0.039,0.237c-0.042,0.128-0.209,0.214-0.133,0.339
		c0.402,0.159,0.891-0.045,1.237,0.021c0.15,0.024,0.454,0.204,0.452,0.432c-0.008,0.169-0.137,0.281-0.152,0.466
		c-0.021,0.233-0.119,0.523-0.132,0.711c-0.016,0.31,0.459,0.846,0.789,0.843c0.354-0.006,0.563-0.352,0.993-0.168
		c0.138,0.061,0.293,0.291,0.45,0.279c0.129-0.007,0.33-0.233,0.414-0.392c0.102-0.194,0.113-0.352,0.297-0.45
		c0.201-0.103,0.362-0.055,0.619-0.15c0.116-0.043,0.216-0.114,0.319-0.187c0.091-0.061,0.186-0.221,0.299-0.11
		c0.151,0.149-0.179,0.231-0.057,0.393c0.258,0.138,0.393-0.257,0.579-0.26c0.06-0.004,0.269,0.115,0.378,0.188
		c0.145,0.096,0.196,0.228,0.351,0.26c0.104,0.021,0.271-0.04,0.414-0.021c0.193,0.026,0.304,0.188,0.45,0.186
		c0.178-0.005,0.261-0.196,0.414-0.226c0.331-0.058,0.452,0.04,0.603,0.247c0.16,0.025,0.169-0.188,0.314-0.112
		c-0.079,0.161,0.029,0.238,0.096,0.373c0.043,0.089,0.038,0.147,0.077,0.187c0.089,0.085,0.26,0.085,0.393,0.17
		c0.138,0.084,0.216,0.248,0.373,0.431c0.164,0.184,0.439,0.377,0.658,0.393c0.205,0.011,0.372-0.059,0.542-0.039
		c0.387,0.048,0.629,0.239,0.899,0.452c0.15,0.116,0.291,0.196,0.337,0.335c0.031,0.098,0.017,0.229,0.057,0.337
		c0.086,0.233,0.429,0.345,0.299,0.746c0.058,0.122,0.183,0.163,0.317,0.245c0.109,0.065,0.202,0.206,0.319,0.225
		c0.077,0.012,0.161-0.021,0.225-0.021c0.213,0.017,0.359,0.098,0.545,0.168c0.115,0.047,0.259,0.062,0.338,0.112
		c0.093,0.065,0.104,0.28,0.223,0.338c0.078,0.035,0.25-0.016,0.374,0c0.203,0.021,0.474,0.145,0.658,0.148
		c0.107,0.003,0.197-0.046,0.298-0.035c0.229,0.016,0.404,0.159,0.583,0.32C652.234,174.275,648.599,176.978,644.325,178.009z"/>
	<g>
		<path fill="#3F3E3E" d="M184.227,200.227c0.686-0.119,1.715-0.208,2.773-0.208c1.447,0,2.431,0.238,3.102,0.805
			c0.552,0.463,0.865,1.163,0.865,2.014c0,1.297-0.88,2.179-1.819,2.521v0.044c0.716,0.27,1.147,0.969,1.401,1.939
			c0.313,1.252,0.581,2.417,0.791,2.804h-1.894c-0.149-0.297-0.388-1.119-0.671-2.372c-0.283-1.312-0.76-1.729-1.804-1.758h-0.925
			v4.13h-1.819V200.227L184.227,200.227z M186.045,204.67h1.088c1.238,0,2.014-0.655,2.014-1.655c0-1.104-0.776-1.61-1.968-1.61
			c-0.582,0-0.955,0.046-1.134,0.09V204.67L186.045,204.67z"/>
		<path fill="#3F3E3E" d="M193.977,207.027c0.046,1.312,1.074,1.879,2.238,1.879c0.85,0,1.461-0.119,2.013-0.329l0.269,1.269
			c-0.626,0.253-1.492,0.448-2.536,0.448c-2.356,0-3.743-1.446-3.743-3.669c0-2.015,1.222-3.906,3.548-3.906
			c2.356,0,3.132,1.938,3.132,3.533c0,0.341-0.03,0.61-0.059,0.774L193.977,207.027L193.977,207.027z M197.169,205.744
			c0.015-0.67-0.283-1.773-1.506-1.773c-1.134,0-1.611,1.027-1.686,1.773H197.169z"/>
		<path fill="#3F3E3E" d="M200.284,208.458c0.417,0.255,1.208,0.522,1.864,0.522c0.806,0,1.163-0.329,1.163-0.806
			c0-0.491-0.298-0.744-1.193-1.058c-1.417-0.491-2.013-1.269-1.999-2.119c0-1.28,1.06-2.28,2.744-2.28
			c0.806,0,1.507,0.21,1.925,0.433l-0.357,1.297c-0.313-0.178-0.895-0.416-1.536-0.416c-0.656,0-1.015,0.313-1.015,0.763
			c0,0.46,0.343,0.686,1.268,1.012c1.312,0.479,1.924,1.149,1.939,2.22c0,1.314-1.03,2.268-2.953,2.268
			c-0.88,0-1.67-0.21-2.207-0.506L200.284,208.458z"/>
		<path fill="#3F3E3E" d="M213.494,206.447c0,2.668-1.879,3.862-3.728,3.862c-2.059,0-3.639-1.417-3.639-3.744
			c0-2.384,1.566-3.847,3.758-3.847C212.048,202.718,213.494,204.24,213.494,206.447z M208.021,206.521
			c0,1.4,0.686,2.459,1.805,2.459c1.043,0,1.774-1.029,1.774-2.49c0-1.134-0.508-2.431-1.759-2.431
			C208.543,204.061,208.021,205.312,208.021,206.521z"/>
		<path fill="#3F3E3E" d="M214.999,199.556h1.849v10.589h-1.849V199.556z"/>
		<path fill="#3F3E3E" d="M225.333,207.967c0,0.864,0.03,1.58,0.059,2.178h-1.611l-0.09-1.104h-0.03
			c-0.313,0.521-1.029,1.268-2.326,1.268c-1.327,0-2.536-0.791-2.536-3.163v-4.264h1.834v3.949c0,1.209,0.387,1.984,1.356,1.984
			c0.731,0,1.208-0.521,1.401-0.983c0.06-0.164,0.104-0.359,0.104-0.567v-4.382h1.834v5.085L225.333,207.967L225.333,207.967z"/>
		<path fill="#3F3E3E" d="M232.652,209.919c-0.388,0.179-1.148,0.374-2.058,0.374c-2.267,0-3.743-1.446-3.743-3.7
			c0-2.177,1.491-3.875,4.041-3.875c0.671,0,1.356,0.149,1.774,0.343l-0.329,1.37c-0.298-0.134-0.73-0.282-1.386-0.282
			c-1.402,0-2.237,1.028-2.222,2.355c0,1.491,0.97,2.34,2.222,2.34c0.641,0,1.088-0.135,1.447-0.284L232.652,209.919z"/>
		<path fill="#3F3E3E" d="M235.961,200.853c0,0.552-0.403,0.985-1.043,0.985c-0.611,0-1.015-0.434-1.015-0.985
			c0-0.567,0.418-0.998,1.029-0.998C235.559,199.856,235.947,200.287,235.961,200.853z M234.008,210.145v-7.262h1.849v7.262H234.008
			z"/>
		<path fill="#3F3E3E" d="M244.729,206.447c0,2.668-1.879,3.862-3.728,3.862c-2.059,0-3.638-1.417-3.638-3.744
			c0-2.384,1.566-3.847,3.758-3.847C243.282,202.718,244.729,204.24,244.729,206.447z M239.256,206.521
			c0,1.4,0.686,2.459,1.804,2.459c1.043,0,1.774-1.029,1.774-2.49c0-1.134-0.507-2.431-1.759-2.431
			C239.779,204.061,239.256,205.312,239.256,206.521z M243.238,199.735l-1.833,2.208h-1.268l1.297-2.208H243.238z"/>
		<path fill="#3F3E3E" d="M246.234,205.044c0-0.836-0.015-1.536-0.06-2.162h1.611l0.09,1.087h0.044
			c0.313-0.567,1.104-1.251,2.312-1.251c1.268,0,2.58,0.819,2.58,3.116v4.309h-1.833v-4.103c0-1.042-0.388-1.832-1.387-1.832
			c-0.73,0-1.238,0.522-1.432,1.074c-0.06,0.164-0.075,0.387-0.075,0.596v4.265h-1.849L246.234,205.044L246.234,205.044z"/>
		<path fill="#3F3E3E" d="M264.542,199.556v8.545c0,0.746,0.03,1.553,0.06,2.044h-1.64l-0.075-1.148h-0.03
			c-0.432,0.807-1.312,1.312-2.372,1.312c-1.729,0-3.102-1.476-3.102-3.715c-0.015-2.43,1.506-3.876,3.25-3.876
			c0.999,0,1.715,0.417,2.043,0.956h0.03v-4.116L264.542,199.556L264.542,199.556z M262.709,205.908
			c0-0.149-0.015-0.328-0.045-0.477c-0.164-0.717-0.746-1.299-1.581-1.299c-1.178,0-1.833,1.043-1.833,2.402
			c0,1.326,0.655,2.296,1.819,2.296c0.745,0,1.402-0.507,1.581-1.298c0.044-0.164,0.06-0.343,0.06-0.536L262.709,205.908
			L262.709,205.908z"/>
		<path fill="#3F3E3E" d="M267.807,207.027c0.045,1.312,1.074,1.879,2.238,1.879c0.85,0,1.461-0.119,2.013-0.329l0.269,1.269
			c-0.626,0.253-1.492,0.448-2.536,0.448c-2.356,0-3.743-1.446-3.743-3.669c0-2.015,1.222-3.906,3.548-3.906
			c2.356,0,3.132,1.938,3.132,3.533c0,0.341-0.03,0.61-0.059,0.774L267.807,207.027L267.807,207.027z M270.999,205.744
			c0.015-0.67-0.283-1.773-1.506-1.773c-1.134,0-1.611,1.027-1.686,1.773H270.999z"/>
		<path fill="#3F3E3E" d="M195.043,218.118c0.655-0.118,1.565-0.208,2.803-0.208c1.342,0,2.326,0.283,2.968,0.819
			c0.596,0.492,0.983,1.282,0.983,2.222c0,0.955-0.298,1.745-0.865,2.281c-0.731,0.729-1.879,1.074-3.176,1.074
			c-0.344,0-0.657-0.015-0.896-0.059v3.787h-1.818V218.118L195.043,218.118z M196.861,222.802c0.224,0.058,0.522,0.073,0.896,0.073
			c1.371,0,2.206-0.671,2.206-1.848c0-1.12-0.775-1.716-2.043-1.716c-0.508,0-0.865,0.046-1.06,0.09L196.861,222.802
			L196.861,222.802z"/>
		<path fill="#3F3E3E" d="M203.124,223.115c0-0.983-0.015-1.686-0.06-2.341h1.595l0.06,1.387h0.06
			c0.357-1.029,1.208-1.551,1.983-1.551c0.179,0,0.283,0.016,0.432,0.045v1.729c-0.149-0.029-0.313-0.06-0.537-0.06
			c-0.88,0-1.477,0.568-1.641,1.389c-0.029,0.164-0.06,0.357-0.06,0.567v3.757h-1.833V223.115L203.124,223.115z"/>
		<path fill="#3F3E3E" d="M215.201,224.338c0,2.668-1.879,3.861-3.728,3.861c-2.058,0-3.639-1.416-3.639-3.743
			c0-2.385,1.566-3.847,3.759-3.847C213.755,220.61,215.201,222.131,215.201,224.338z M209.729,224.411
			c0,1.4,0.686,2.459,1.805,2.459c1.043,0,1.774-1.028,1.774-2.49c0-1.133-0.508-2.43-1.76-2.43
			C210.25,221.951,209.729,223.203,209.729,224.411z"/>
		<path fill="#3F3E3E" d="M216.646,228.035c0.03-0.491,0.059-1.297,0.059-2.043v-8.545h1.834v4.324h0.03
			c0.447-0.7,1.238-1.162,2.326-1.162c1.774,0,3.042,1.476,3.027,3.683c0,2.61-1.654,3.907-3.296,3.907
			c-0.939,0-1.774-0.357-2.296-1.253h-0.03l-0.09,1.089H216.646L216.646,228.035z M218.54,225.038c0,0.148,0.015,0.298,0.044,0.433
			c0.194,0.729,0.835,1.281,1.625,1.281c1.148,0,1.849-0.924,1.849-2.385c0-1.281-0.611-2.327-1.834-2.327
			c-0.745,0-1.416,0.536-1.625,1.344c-0.029,0.134-0.059,0.296-0.059,0.477V225.038z"/>
		<path fill="#3F3E3E" d="M225.428,217.448h1.849v10.589h-1.849V217.448z"/>
		<path fill="#3F3E3E" d="M230.556,224.918c0.044,1.313,1.073,1.879,2.237,1.879c0.85,0,1.461-0.119,2.013-0.328l0.269,1.268
			c-0.626,0.253-1.491,0.448-2.536,0.448c-2.356,0-3.743-1.445-3.743-3.669c0-2.014,1.223-3.906,3.549-3.906
			c2.356,0,3.132,1.938,3.132,3.533c0,0.343-0.03,0.609-0.06,0.775H230.556L230.556,224.918z M233.748,223.636
			c0.015-0.672-0.284-1.775-1.507-1.775c-1.133,0-1.611,1.029-1.685,1.775H233.748z"/>
		<path fill="#3F3E3E" d="M236.952,222.935c0-0.835-0.015-1.535-0.059-2.162h1.581l0.074,1.074h0.044
			c0.357-0.567,1.014-1.237,2.236-1.237c0.955,0,1.7,0.536,2.013,1.343h0.03c0.253-0.405,0.552-0.701,0.894-0.91
			c0.403-0.286,0.865-0.433,1.461-0.433c1.208,0,2.431,0.819,2.431,3.146v4.278h-1.789v-4.012c0-1.206-0.418-1.923-1.297-1.923
			c-0.626,0-1.089,0.448-1.282,0.969c-0.044,0.179-0.09,0.403-0.09,0.611v4.354h-1.79v-4.207c0-1.013-0.403-1.729-1.252-1.729
			c-0.686,0-1.148,0.538-1.312,1.043c-0.074,0.179-0.104,0.388-0.104,0.599v4.295h-1.79L236.952,222.935L236.952,222.935z"/>
		<path fill="#3F3E3E" d="M253.68,228.035l-0.119-0.806h-0.045c-0.447,0.566-1.207,0.969-2.146,0.969
			c-1.462,0-2.281-1.058-2.281-2.162c0-1.834,1.625-2.76,4.309-2.744v-0.118c0-0.478-0.194-1.268-1.476-1.268
			c-0.716,0-1.461,0.223-1.954,0.536l-0.357-1.194c0.537-0.33,1.476-0.641,2.625-0.641c2.326,0,2.998,1.474,2.998,3.055v2.625
			c0,0.655,0.029,1.297,0.104,1.745h-1.656V228.035L253.68,228.035z M253.441,224.486c-1.297-0.029-2.535,0.256-2.535,1.356
			c0,0.716,0.463,1.044,1.043,1.044c0.73,0,1.268-0.477,1.432-1c0.044-0.137,0.059-0.284,0.059-0.402V224.486z"/>
		<path fill="#3F3E3E" d="M257.08,226.35c0.417,0.255,1.208,0.521,1.864,0.521c0.806,0,1.163-0.328,1.163-0.805
			c0-0.492-0.298-0.746-1.193-1.06c-1.417-0.492-2.013-1.268-1.999-2.117c0-1.282,1.06-2.28,2.744-2.28
			c0.806,0,1.506,0.208,1.924,0.432l-0.358,1.297c-0.313-0.178-0.895-0.417-1.536-0.417c-0.655,0-1.014,0.313-1.014,0.761
			c0,0.463,0.342,0.688,1.268,1.014c1.312,0.477,1.923,1.149,1.938,2.222c0,1.313-1.029,2.266-2.953,2.266
			c-0.88,0-1.67-0.21-2.207-0.506L257.08,226.35z"/>
	</g>
	<g>
		<path fill="#3F3E3E" d="M397.535,209.845c-0.432,0.224-1.388,0.448-2.595,0.448c-3.193,0-5.13-1.999-5.13-5.055
			c0-3.312,2.297-5.309,5.368-5.309c1.207,0,2.072,0.255,2.446,0.448l-0.403,1.462c-0.477-0.209-1.134-0.387-1.968-0.387
			c-2.043,0-3.519,1.281-3.519,3.698c0,2.207,1.297,3.624,3.504,3.624c0.747,0,1.521-0.149,1.999-0.374L397.535,209.845z"/>
		<path fill="#3F3E3E" d="M405.689,206.447c0,2.668-1.879,3.862-3.728,3.862c-2.058,0-3.637-1.417-3.637-3.744
			c0-2.384,1.566-3.847,3.756-3.847C404.243,202.718,405.689,204.24,405.689,206.447z M400.217,206.521
			c0,1.4,0.686,2.459,1.805,2.459c1.042,0,1.774-1.029,1.774-2.49c0-1.134-0.508-2.431-1.759-2.431
			C400.738,204.061,400.217,205.312,400.217,206.521z"/>
		<path fill="#3F3E3E" d="M407.194,205.044c0-0.836-0.015-1.536-0.058-2.162h1.581l0.075,1.073h0.044
			c0.357-0.567,1.014-1.237,2.236-1.237c0.955,0,1.7,0.534,2.013,1.341h0.031c0.255-0.403,0.551-0.7,0.895-0.91
			c0.402-0.283,0.865-0.431,1.461-0.431c1.208,0,2.431,0.819,2.431,3.145v4.28h-1.79v-4.011c0-1.209-0.416-1.924-1.297-1.924
			c-0.626,0-1.087,0.447-1.281,0.968c-0.044,0.178-0.091,0.404-0.091,0.609v4.355h-1.788v-4.206c0-1.014-0.402-1.73-1.252-1.73
			c-0.686,0-1.148,0.537-1.312,1.044c-0.075,0.18-0.104,0.388-0.104,0.597v4.296h-1.789L407.194,205.044L407.194,205.044z"/>
		<path fill="#3F3E3E" d="M419.836,205.297c0-0.954-0.03-1.73-0.058-2.415h1.611l0.089,1.118h0.031
			c0.535-0.82,1.386-1.282,2.49-1.282c1.671,0,3.058,1.433,3.058,3.697c0,2.626-1.655,3.894-3.31,3.894
			c-0.911,0-1.671-0.388-2.043-0.969h-0.031v3.756h-1.834v-7.799H419.836z M421.672,207.102c0,0.178,0.015,0.343,0.058,0.507
			c0.18,0.746,0.836,1.281,1.611,1.281c1.164,0,1.849-0.969,1.849-2.4c0-1.282-0.626-2.325-1.804-2.325
			c-0.76,0-1.461,0.551-1.639,1.355c-0.044,0.149-0.074,0.313-0.074,0.463V207.102L421.672,207.102z"/>
		<path fill="#3F3E3E" d="M428.559,205.223c0-0.983-0.015-1.686-0.06-2.34h1.596l0.06,1.387h0.058
			c0.357-1.029,1.209-1.552,1.985-1.552c0.178,0,0.283,0.017,0.432,0.045v1.73c-0.149-0.029-0.313-0.059-0.537-0.059
			c-0.88,0-1.477,0.567-1.641,1.388c-0.03,0.164-0.058,0.357-0.058,0.567v3.756h-1.834L428.559,205.223L428.559,205.223z"/>
		<path fill="#3F3E3E" d="M435.03,207.027c0.044,1.312,1.073,1.879,2.238,1.879c0.848,0,1.461-0.119,2.013-0.329l0.269,1.269
			c-0.626,0.253-1.492,0.448-2.536,0.448c-2.356,0-3.743-1.446-3.743-3.669c0-2.015,1.222-3.906,3.548-3.906
			c2.356,0,3.132,1.938,3.132,3.533c0,0.341-0.031,0.61-0.06,0.774L435.03,207.027L435.03,207.027z M438.221,205.744
			c0.015-0.67-0.284-1.773-1.508-1.773c-1.132,0-1.609,1.027-1.684,1.773H438.221z"/>
		<path fill="#3F3E3E" d="M441.425,205.044c0-0.836-0.015-1.536-0.058-2.162h1.611l0.089,1.087h0.044
			c0.313-0.567,1.104-1.251,2.312-1.251c1.268,0,2.58,0.819,2.58,3.116v4.309h-1.834v-4.103c0-1.042-0.388-1.832-1.386-1.832
			c-0.73,0-1.238,0.522-1.434,1.074c-0.058,0.164-0.075,0.387-0.075,0.596v4.265h-1.849L441.425,205.044L441.425,205.044z"/>
		<path fill="#3F3E3E" d="M449.863,208.458c0.418,0.255,1.209,0.522,1.864,0.522c0.806,0,1.163-0.329,1.163-0.806
			c0-0.491-0.297-0.744-1.192-1.058c-1.417-0.491-2.015-1.269-1.999-2.119c0-1.28,1.059-2.28,2.744-2.28
			c0.805,0,1.506,0.21,1.924,0.433l-0.357,1.297c-0.313-0.178-0.895-0.416-1.538-0.416c-0.653,0-1.013,0.313-1.013,0.763
			c0,0.46,0.342,0.686,1.268,1.012c1.312,0.479,1.924,1.149,1.938,2.22c0,1.314-1.028,2.268-2.952,2.268
			c-0.88,0-1.67-0.21-2.207-0.506L449.863,208.458z"/>
		<path fill="#3F3E3E" d="M458.124,200.853c0,0.552-0.403,0.985-1.042,0.985c-0.612,0-1.014-0.434-1.014-0.985
			c0-0.567,0.416-0.998,1.027-0.998C457.721,199.856,458.108,200.287,458.124,200.853z M456.17,210.145v-7.262h1.85v7.262H456.17z"
			/>
		<path fill="#3F3E3E" d="M466.892,206.447c0,2.668-1.879,3.862-3.729,3.862c-2.058,0-3.637-1.417-3.637-3.744
			c0-2.384,1.565-3.847,3.757-3.847C465.446,202.718,466.892,204.24,466.892,206.447z M461.418,206.521
			c0,1.4,0.688,2.459,1.805,2.459c1.042,0,1.775-1.029,1.775-2.49c0-1.134-0.508-2.431-1.76-2.431
			C461.94,204.061,461.418,205.312,461.418,206.521z M465.399,199.735l-1.831,2.208h-1.27l1.297-2.208H465.399z"/>
		<path fill="#3F3E3E" d="M468.396,205.044c0-0.836-0.017-1.536-0.059-2.162h1.61l0.089,1.087h0.045
			c0.313-0.567,1.105-1.251,2.312-1.251c1.27,0,2.579,0.819,2.579,3.116v4.309h-1.834v-4.103c0-1.042-0.388-1.832-1.387-1.832
			c-0.729,0-1.238,0.522-1.434,1.074c-0.059,0.164-0.072,0.387-0.072,0.596v4.265h-1.85V205.044z"/>
		<path fill="#3F3E3E" d="M409.617,217.985h1.834v8.515h4.13v1.535h-5.965V217.985z"/>
		<path fill="#3F3E3E" d="M418.025,224.918c0.044,1.313,1.073,1.879,2.238,1.879c0.85,0,1.461-0.119,2.013-0.328l0.269,1.268
			c-0.626,0.253-1.491,0.448-2.536,0.448c-2.354,0-3.743-1.445-3.743-3.669c0-2.014,1.222-3.906,3.55-3.906
			c2.356,0,3.13,1.938,3.13,3.533c0,0.343-0.031,0.609-0.058,0.775H418.025L418.025,224.918z M421.217,223.636
			c0.017-0.672-0.284-1.775-1.506-1.775c-1.134,0-1.611,1.029-1.686,1.775H421.217z"/>
		<path fill="#3F3E3E" d="M429.761,227.811c-0.388,0.179-1.15,0.374-2.06,0.374c-2.267,0-3.743-1.446-3.743-3.699
			c0-2.178,1.491-3.876,4.042-3.876c0.67,0,1.356,0.148,1.774,0.342l-0.328,1.373c-0.299-0.137-0.73-0.285-1.388-0.285
			c-1.4,0-2.237,1.031-2.22,2.355c0,1.492,0.968,2.342,2.22,2.342c0.643,0,1.088-0.136,1.447-0.285L429.761,227.811z"/>
		<path fill="#3F3E3E" d="M433.443,218.7v2.072h1.747v1.372h-1.747v3.205c0,0.881,0.238,1.343,0.939,1.343
			c0.313,0,0.552-0.044,0.716-0.091l0.03,1.401c-0.269,0.103-0.746,0.178-1.328,0.178c-0.67,0-1.237-0.223-1.581-0.597
			c-0.388-0.418-0.566-1.074-0.566-2.028v-3.413h-1.045v-1.371h1.045v-1.641L433.443,218.7z"/>
		<path fill="#3F3E3E" d="M443.388,224.338c0,2.668-1.879,3.861-3.728,3.861c-2.058,0-3.637-1.416-3.637-3.743
			c0-2.385,1.566-3.847,3.757-3.847C441.942,220.61,443.388,222.131,443.388,224.338z M437.915,224.411
			c0,1.4,0.686,2.459,1.805,2.459c1.044,0,1.774-1.028,1.774-2.49c0-1.133-0.508-2.43-1.761-2.43
			C438.438,221.951,437.915,223.203,437.915,224.411z"/>
		<path fill="#3F3E3E" d="M444.893,223.115c0-0.983-0.017-1.686-0.06-2.341h1.596l0.058,1.387h0.061
			c0.357-1.029,1.207-1.551,1.982-1.551c0.18,0,0.283,0.016,0.433,0.045v1.729c-0.149-0.029-0.313-0.06-0.537-0.06
			c-0.88,0-1.475,0.568-1.639,1.389c-0.029,0.164-0.06,0.357-0.06,0.567v3.757h-1.833L444.893,223.115L444.893,223.115z"/>
		<path fill="#3F3E3E" d="M454.152,228.035l-0.12-0.806h-0.044c-0.447,0.566-1.209,0.969-2.148,0.969
			c-1.46,0-2.281-1.058-2.281-2.162c0-1.834,1.627-2.76,4.31-2.744v-0.118c0-0.478-0.193-1.268-1.476-1.268
			c-0.717,0-1.462,0.223-1.952,0.536l-0.357-1.194c0.535-0.33,1.476-0.641,2.624-0.641c2.328,0,2.998,1.474,2.998,3.055v2.625
			c0,0.655,0.029,1.297,0.103,1.745h-1.655V228.035z M453.914,224.486c-1.299-0.029-2.535,0.256-2.535,1.356
			c0,0.716,0.459,1.044,1.041,1.044c0.73,0,1.268-0.477,1.434-1c0.045-0.137,0.059-0.284,0.059-0.402L453.914,224.486
			L453.914,224.486z"/>
	</g>
	<g>
		<path fill="#3F3E3E" d="M598.035,200.098h5.799v1.506h-3.966v2.773h3.7v1.506h-3.7v4.265h-1.833V200.098z"/>
		<path fill="#3F3E3E" d="M612.037,206.45c0,2.67-1.879,3.862-3.729,3.862c-2.058,0-3.636-1.417-3.636-3.742
			c0-2.387,1.563-3.848,3.756-3.848C610.59,202.723,612.037,204.243,612.037,206.45z M606.563,206.524
			c0,1.402,0.687,2.461,1.805,2.461c1.042,0,1.774-1.029,1.774-2.49c0-1.133-0.507-2.431-1.76-2.431
			C607.086,204.064,606.563,205.318,606.563,206.524z"/>
		<path fill="#3F3E3E" d="M613.541,205.227c0-0.983-0.015-1.684-0.059-2.339h1.595l0.059,1.387h0.058
			c0.36-1.029,1.208-1.552,1.985-1.552c0.179,0,0.284,0.016,0.433,0.046v1.729c-0.148-0.029-0.312-0.058-0.537-0.058
			c-0.879,0-1.475,0.566-1.639,1.387c-0.029,0.164-0.06,0.357-0.06,0.566v3.758h-1.832v-4.923h-0.003V205.227z"/>
		<path fill="#3F3E3E" d="M618.849,205.048c0-0.836-0.015-1.535-0.058-2.162h1.58l0.074,1.073h0.045
			c0.358-0.566,1.015-1.238,2.237-1.238c0.954,0,1.699,0.536,2.013,1.344h0.03c0.253-0.403,0.552-0.7,0.895-0.91
			c0.402-0.284,0.864-0.434,1.461-0.434c1.208,0,2.431,0.82,2.431,3.148v4.278h-1.79v-4.011c0-1.207-0.415-1.925-1.297-1.925
			c-0.626,0-1.087,0.449-1.28,0.971c-0.044,0.178-0.091,0.401-0.091,0.609v4.354h-1.788v-4.204c0-1.014-0.403-1.729-1.252-1.729
			c-0.687,0-1.149,0.535-1.313,1.043c-0.074,0.177-0.104,0.387-0.104,0.596v4.295h-1.789v-5.098H618.849L618.849,205.048z"/>
		<path fill="#3F3E3E" d="M635.579,210.148l-0.12-0.806h-0.044c-0.448,0.568-1.208,0.969-2.147,0.969
			c-1.462,0-2.282-1.059-2.282-2.162c0-1.834,1.627-2.76,4.31-2.744v-0.118c0-0.478-0.193-1.27-1.476-1.27
			c-0.716,0-1.462,0.225-1.952,0.538l-0.359-1.194c0.536-0.328,1.476-0.641,2.625-0.641c2.325,0,2.996,1.474,2.996,3.056v2.623
			c0,0.656,0.03,1.297,0.105,1.746h-1.655V210.148L635.579,210.148z M635.34,206.6c-1.298-0.029-2.535,0.255-2.535,1.356
			c0,0.716,0.461,1.044,1.042,1.044c0.73,0,1.268-0.479,1.433-1c0.046-0.135,0.059-0.284,0.059-0.404L635.34,206.6L635.34,206.6z"/>
		<path fill="#3F3E3E" d="M644.404,209.924c-0.387,0.178-1.149,0.373-2.059,0.373c-2.266,0-3.743-1.446-3.743-3.697
			c0-2.178,1.491-3.877,4.041-3.877c0.671,0,1.355,0.149,1.774,0.343l-0.327,1.371c-0.299-0.134-0.731-0.283-1.39-0.283
			c-1.399,0-2.236,1.029-2.22,2.355c0,1.492,0.967,2.342,2.22,2.342c0.644,0,1.089-0.136,1.446-0.283L644.404,209.924z"/>
		<path fill="#3F3E3E" d="M647.715,200.858c0,0.552-0.403,0.985-1.044,0.985c-0.61,0-1.013-0.434-1.013-0.985
			c0-0.566,0.416-0.998,1.029-0.998C647.312,199.86,647.701,200.291,647.715,200.858z M645.761,210.148v-7.261h1.85v7.261H645.761z"
			/>
		<path fill="#3F3E3E" d="M656.481,206.45c0,2.67-1.878,3.862-3.728,3.862c-2.059,0-3.639-1.417-3.639-3.742
			c0-2.387,1.565-3.848,3.758-3.848C655.035,202.723,656.481,204.243,656.481,206.45z M651.009,206.524
			c0,1.402,0.687,2.461,1.805,2.461c1.042,0,1.774-1.029,1.774-2.49c0-1.133-0.507-2.431-1.76-2.431
			C651.531,204.064,651.009,205.318,651.009,206.524z M654.99,199.74l-1.834,2.207h-1.268l1.298-2.207H654.99z"/>
		<path fill="#3F3E3E" d="M657.985,205.048c0-0.836-0.015-1.535-0.058-2.162h1.61l0.089,1.088h0.046
			c0.312-0.568,1.103-1.253,2.311-1.253c1.268,0,2.578,0.82,2.578,3.118v4.309h-1.832v-4.101c0-1.044-0.389-1.835-1.388-1.835
			c-0.73,0-1.237,0.522-1.433,1.075c-0.058,0.163-0.074,0.388-0.074,0.596v4.265h-1.85V205.048L657.985,205.048z"/>
		<path fill="#3F3E3E" d="M604.716,227.741c-0.433,0.224-1.388,0.447-2.595,0.447c-3.191,0-5.131-1.996-5.131-5.054
			c0-3.31,2.299-5.308,5.368-5.308c1.208,0,2.073,0.254,2.446,0.447l-0.403,1.463c-0.477-0.211-1.133-0.389-1.968-0.389
			c-2.043,0-3.52,1.282-3.52,3.698c0,2.208,1.297,3.624,3.506,3.624c0.745,0,1.52-0.148,1.996-0.373L604.716,227.741z"/>
		<path fill="#3F3E3E" d="M608.115,218.75c0,0.551-0.402,0.983-1.042,0.983c-0.611,0-1.015-0.433-1.015-0.983
			c0-0.567,0.418-1,1.029-1C607.713,217.75,608.101,218.183,608.115,218.75z M606.161,228.039v-7.262h1.85v7.262H606.161z"/>
		<path fill="#3F3E3E" d="M616.479,225.864c0,0.864,0.029,1.581,0.06,2.178h-1.61l-0.089-1.104h-0.03
			c-0.313,0.522-1.029,1.268-2.326,1.268c-1.327,0-2.536-0.79-2.536-3.163v-4.265h1.834v3.951c0,1.209,0.388,1.983,1.356,1.983
			c0.73,0,1.207-0.521,1.401-0.984c0.059-0.163,0.104-0.357,0.104-0.566v-4.384h1.833v5.086H616.479L616.479,225.864z"/>
		<path fill="#3F3E3E" d="M625.157,217.453v8.545c0,0.746,0.029,1.553,0.058,2.043h-1.638l-0.074-1.149h-0.03
			c-0.433,0.806-1.312,1.313-2.37,1.313c-1.73,0-3.103-1.476-3.103-3.714c-0.017-2.43,1.506-3.876,3.25-3.876
			c1,0,1.714,0.416,2.044,0.954h0.027v-4.114h1.836V217.453z M623.322,223.805c0-0.148-0.015-0.328-0.044-0.478
			c-0.164-0.716-0.745-1.298-1.581-1.298c-1.179,0-1.834,1.045-1.834,2.401c0,1.327,0.655,2.297,1.821,2.297
			c0.744,0,1.4-0.507,1.58-1.297c0.045-0.165,0.059-0.343,0.059-0.536L623.322,223.805L623.322,223.805z"/>
		<path fill="#3F3E3E" d="M631.209,228.039l-0.119-0.805h-0.044c-0.45,0.566-1.209,0.967-2.147,0.967
			c-1.462,0-2.282-1.059-2.282-2.162c0-1.832,1.625-2.759,4.31-2.744v-0.119c0-0.477-0.193-1.267-1.476-1.267
			c-0.716,0-1.462,0.222-1.954,0.535l-0.357-1.193c0.536-0.328,1.476-0.642,2.624-0.642c2.326,0,2.997,1.476,2.997,3.056v2.626
			c0,0.654,0.03,1.297,0.105,1.744h-1.656V228.039L631.209,228.039z M630.971,224.491c-1.298-0.03-2.536,0.254-2.536,1.355
			c0,0.716,0.463,1.045,1.044,1.045c0.73,0,1.268-0.478,1.432-1.002c0.045-0.135,0.06-0.283,0.06-0.402L630.971,224.491
			L630.971,224.491z"/>
		<path fill="#3F3E3E" d="M641.394,217.453v8.545c0,0.746,0.029,1.553,0.059,2.043h-1.64l-0.074-1.149h-0.031
			c-0.432,0.806-1.312,1.313-2.37,1.313c-1.729,0-3.102-1.476-3.102-3.714c-0.016-2.43,1.507-3.876,3.25-3.876
			c1,0,1.714,0.416,2.043,0.954h0.029v-4.114h1.836V217.453z M639.56,223.805c0-0.148-0.016-0.328-0.046-0.478
			c-0.164-0.716-0.745-1.298-1.58-1.298c-1.179,0-1.834,1.045-1.834,2.401c0,1.327,0.655,2.297,1.82,2.297
			c0.746,0,1.399-0.507,1.581-1.297c0.044-0.165,0.059-0.343,0.059-0.536V223.805L639.56,223.805z"/>
		<path fill="#3F3E3E" d="M647.445,228.039l-0.119-0.805h-0.045c-0.449,0.566-1.207,0.967-2.147,0.967
			c-1.462,0-2.281-1.059-2.281-2.162c0-1.832,1.626-2.759,4.31-2.744v-0.119c0-0.477-0.193-1.267-1.477-1.267
			c-0.715,0-1.462,0.222-1.953,0.535l-0.357-1.193c0.536-0.328,1.476-0.642,2.624-0.642c2.326,0,2.997,1.476,2.997,3.056v2.626
			c0,0.654,0.03,1.297,0.104,1.744h-1.655V228.039L647.445,228.039z M647.207,224.491c-1.298-0.03-2.536,0.254-2.536,1.355
			c0,0.716,0.462,1.045,1.044,1.045c0.73,0,1.268-0.478,1.432-1.002c0.047-0.135,0.06-0.283,0.06-0.402L647.207,224.491
			L647.207,224.491z"/>
		<path fill="#3F3E3E" d="M650.934,222.94c0-0.836-0.017-1.535-0.06-2.162h1.61l0.09,1.088h0.047
			c0.312-0.567,1.103-1.252,2.31-1.252c1.269,0,2.579,0.82,2.579,3.116v4.31h-1.834v-4.101c0-1.044-0.388-1.835-1.387-1.835
			c-0.731,0-1.237,0.522-1.432,1.074c-0.06,0.165-0.074,0.389-0.074,0.597v4.265h-1.85V222.94z"/>
		<path fill="#3F3E3E" d="M663.548,228.039l-0.119-0.805h-0.046c-0.448,0.566-1.206,0.967-2.146,0.967
			c-1.462,0-2.281-1.059-2.281-2.162c0-1.832,1.625-2.759,4.308-2.744v-0.119c0-0.477-0.192-1.267-1.475-1.267
			c-0.716,0-1.462,0.222-1.953,0.535l-0.357-1.193c0.536-0.328,1.476-0.642,2.624-0.642c2.326,0,2.997,1.476,2.997,3.056v2.626
			c0,0.654,0.03,1.297,0.104,1.744h-1.655V228.039z M663.31,224.491c-1.298-0.03-2.536,0.254-2.536,1.355
			c0,0.716,0.462,1.045,1.044,1.045c0.729,0,1.268-0.478,1.432-1.002c0.045-0.135,0.06-0.283,0.06-0.402L663.31,224.491
			L663.31,224.491z"/>
	</g>
</g>
</svg>
