<?xml version="1.0" encoding="utf-8"?>
<!-- Generator: Adobe Illustrator 16.0.0, SVG Export Plug-In . SVG Version: 6.00 Build 0)  -->
<!DOCTYPE svg PUBLIC "-//W3C//DTD SVG 1.1//EN" "http://www.w3.org/Graphics/SVG/1.1/DTD/svg11.dtd">
<svg version="1.1" id="Capa_1" xmlns="http://www.w3.org/2000/svg" xmlns:xlink="http://www.w3.org/1999/xlink" x="0px" y="0px"
	 width="53px" height="55.5px" viewBox="0 0 53 55.5" enable-background="new 0 0 53 55.5" xml:space="preserve">
<g>
	<g>
		<path fill="#FFFFFF" d="M48.21,12.748l-9.733-9.736C38.283,2.82,38.02,2.71,37.743,2.71H8.368c-0.572,0-1.034,0.462-1.034,1.033
			v46.459c0,0.569,0.462,1.032,1.034,1.032h39.116c0.564,0,1.029-0.463,1.029-1.032V13.478
			C48.515,13.205,48.405,12.944,48.21,12.748z M38.78,6.237l6.209,6.209H38.78V6.237z M9.401,49.169V4.777h27.313v8.702
			c0,0.571,0.462,1.032,1.028,1.032h8.704v34.659H9.401L9.401,49.169z"/>
		<g>
			<path fill="#FFFFFF" d="M20.153,19.694h-7.254c-0.571,0-1.034-0.46-1.034-1.032v-7.257c0-0.57,0.462-1.031,1.034-1.031h7.254
				c0.571,0,1.033,0.46,1.033,1.031v7.257C21.186,19.234,20.723,19.694,20.153,19.694z M13.931,17.629h5.188V12.44h-5.188V17.629z"
				/>
		</g>
		<g>
			<path fill="#FFFFFF" d="M20.153,32.682h-7.254c-0.571,0-1.034-0.462-1.034-1.031v-7.256c0-0.573,0.462-1.03,1.034-1.03h7.254
				c0.571,0,1.033,0.458,1.033,1.03v7.256C21.186,32.22,20.723,32.682,20.153,32.682z M13.931,30.62h5.188v-5.194h-5.188V30.62z"/>
		</g>
		<g>
			<path fill="#FFFFFF" d="M20.153,45.671h-7.254c-0.571,0-1.034-0.462-1.034-1.031v-7.256c0-0.57,0.462-1.031,1.034-1.031h7.254
				c0.571,0,1.033,0.461,1.033,1.031v7.256C21.186,45.209,20.723,45.671,20.153,45.671z M13.931,43.606h5.188v-5.191h-5.188V43.606z
				"/>
		</g>
	</g>
	<g>
		<path fill="#FFFFFF" d="M26.396,36.347h1.785l2.668,7.547h-1.71l-0.498-1.55h-2.779l-0.511,1.55H23.7L26.396,36.347z
			 M26.292,41.041h1.935l-0.955-2.97L26.292,41.041z"/>
		<path fill="#FFFFFF" d="M36.458,38.982c0.417,0.527,0.625,1.212,0.625,2.05c0,0.866-0.206,1.584-0.617,2.155
			c-0.411,0.569-0.986,0.854-1.726,0.854c-0.462,0-0.834-0.092-1.116-0.276c-0.168-0.11-0.35-0.3-0.546-0.573v0.701H31.64v-7.538
			h1.459v2.684c0.187-0.26,0.39-0.458,0.614-0.593c0.266-0.171,0.601-0.256,1.009-0.256C35.462,38.19,36.04,38.455,36.458,38.982z
			 M35.237,42.383c0.211-0.303,0.315-0.703,0.315-1.2c0-0.394-0.052-0.722-0.155-0.981c-0.196-0.493-0.557-0.738-1.083-0.738
			c-0.534,0-0.9,0.241-1.101,0.722c-0.103,0.256-0.154,0.588-0.154,0.993c0,0.479,0.106,0.874,0.32,1.188s0.539,0.47,0.976,0.47
			C34.732,42.837,35.026,42.687,35.237,42.383z"/>
		<path fill="#FFFFFF" d="M41.436,40.314c-0.027-0.208-0.098-0.396-0.209-0.563c-0.167-0.225-0.421-0.339-0.766-0.339
			c-0.492,0-0.829,0.244-1.012,0.732c-0.095,0.259-0.143,0.604-0.143,1.03c0,0.41,0.048,0.74,0.143,0.985
			c0.176,0.466,0.504,0.698,0.985,0.698c0.343,0,0.586-0.094,0.73-0.276c0.144-0.186,0.229-0.424,0.262-0.719h1.489
			c-0.033,0.444-0.195,0.863-0.481,1.26c-0.456,0.639-1.137,0.957-2.035,0.957c-0.896,0-1.559-0.265-1.981-0.799
			c-0.425-0.531-0.637-1.222-0.637-2.071c0-0.957,0.234-1.702,0.703-2.234c0.469-0.531,1.114-0.798,1.937-0.798
			c0.699,0,1.273,0.156,1.72,0.469c0.446,0.316,0.71,0.871,0.792,1.666L41.436,40.314L41.436,40.314z"/>
	</g>
</g>
</svg>
