<?xml version="1.0" encoding="utf-8"?>
<!-- Generator: Adobe Illustrator 16.0.0, SVG Export Plug-In . SVG Version: 6.00 Build 0)  -->
<!DOCTYPE svg PUBLIC "-//W3C//DTD SVG 1.1//EN" "http://www.w3.org/Graphics/SVG/1.1/DTD/svg11.dtd">
<svg version="1.1" id="Capa_1" xmlns="http://www.w3.org/2000/svg" xmlns:xlink="http://www.w3.org/1999/xlink" x="0px" y="0px"
	 width="53px" height="55.5px" viewBox="0 0 53 55.5" enable-background="new 0 0 53 55.5" xml:space="preserve">
<g>
	<path fill="#FFFFFD" d="M48.363,12.461l-9.808-9.809c-0.194-0.194-0.461-0.304-0.74-0.304H8.22c-0.574,0-1.041,0.466-1.041,1.041
		v46.805c0,0.575,0.467,1.04,1.041,1.04h39.409c0.569,0,1.039-0.465,1.039-1.04V13.196C48.67,12.922,48.558,12.659,48.363,12.461z
		 M38.863,5.901l6.254,6.256h-6.254V5.901z M9.263,49.155V4.431h27.518v8.767c0,0.576,0.465,1.04,1.035,1.04h8.771v34.918H9.263
		L9.263,49.155z"/>
	<g>
		<path fill="#FFFFFD" d="M20.096,19.459h-7.309c-0.576,0-1.042-0.464-1.042-1.041v-7.311c0-0.574,0.466-1.038,1.042-1.038h7.309
			c0.574,0,1.041,0.464,1.041,1.038v7.311C21.137,18.996,20.67,19.459,20.096,19.459z M13.826,17.379h5.228v-5.228h-5.228V17.379z"
			/>
	</g>
	<g>
		<path fill="#FFFFFD" d="M20.096,32.544h-7.309c-0.576,0-1.042-0.466-1.042-1.039v-7.311c0-0.577,0.466-1.038,1.042-1.038h7.309
			c0.574,0,1.041,0.461,1.041,1.038v7.311C21.137,32.078,20.67,32.544,20.096,32.544z M13.826,30.467h5.228v-5.233h-5.228V30.467z"
			/>
	</g>
	<g>
		<path fill="#FFFFFD" d="M20.096,45.631h-7.309c-0.576,0-1.042-0.467-1.042-1.039v-7.311c0-0.576,0.466-1.039,1.042-1.039h7.309
			c0.574,0,1.041,0.463,1.041,1.039v7.311C21.137,45.164,20.67,45.631,20.096,45.631z M13.826,43.551h5.228v-5.231h-5.228V43.551z"
			/>
	</g>
</g>
<path fill="#FFFFFD" d="M43.391,35.715c-0.019-0.166-0.038-0.331-0.063-0.495c-0.025-0.163-0.057-0.326-0.087-0.486
	c-0.033-0.162-0.07-0.32-0.111-0.48c-0.081-0.317-0.178-0.625-0.289-0.928c-0.027-0.076-0.056-0.15-0.088-0.226
	c-0.085-0.225-0.183-0.445-0.286-0.661c-0.034-0.072-0.069-0.145-0.106-0.215c-0.075-0.142-0.15-0.281-0.229-0.421
	c-0.238-0.412-0.506-0.809-0.8-1.183c-0.146-0.185-0.298-0.366-0.458-0.543c-0.105-0.116-0.216-0.232-0.326-0.342
	c-0.113-0.113-0.227-0.223-0.344-0.329c-0.228-0.205-0.462-0.4-0.709-0.586c-0.323-0.243-0.662-0.47-1.02-0.673
	c-0.135-0.077-0.276-0.157-0.419-0.228c-0.064-0.033-0.128-0.067-0.195-0.099c-0.078-0.038-0.156-0.074-0.235-0.111
	c-0.035-0.012-1.489-0.665-1.794-0.737c-0.096-0.021-0.19,0.021-0.288,0.002c-0.068-0.014-0.139,0.002-0.208-0.011
	c-0.52-0.095-1.054-0.132-1.6-0.141c-0.061,0-0.119,0.007-0.181,0.007c-0.1,0-0.205,0.007-0.306,0.009
	c-0.998,0.031-1.961,0.209-2.862,0.515c-0.155,0.052-0.309,0.11-0.456,0.167c-0.047,0.019-0.092,0.04-0.14,0.058
	c-0.102,0.044-0.203,0.087-0.306,0.129c-0.143,0.069-0.29,0.138-0.429,0.211c-0.144,0.071-0.282,0.149-0.422,0.228
	c-0.556,0.317-1.076,0.689-1.558,1.106c-0.058,0.05-0.114,0.102-0.168,0.151c-0.118,0.106-0.232,0.217-0.345,0.328
	c-0.111,0.111-0.221,0.227-0.329,0.344c-0.159,0.174-0.311,0.355-0.457,0.542c-0.294,0.373-0.562,0.77-0.8,1.183
	c-0.078,0.141-0.155,0.279-0.228,0.422c-0.038,0.069-0.07,0.143-0.106,0.213c-0.104,0.216-0.201,0.438-0.291,0.66
	c-0.029,0.077-0.057,0.151-0.086,0.228c-0.109,0.303-0.204,0.61-0.287,0.928c-0.042,0.159-0.079,0.317-0.11,0.479
	c-0.033,0.16-0.062,0.322-0.086,0.486c-0.026,0.165-0.048,0.329-0.062,0.496c-0.035,0.331-0.05,0.668-0.05,1.01
	s0.013,0.68,0.05,1.011c0.015,0.168,0.036,0.332,0.062,0.494c0.024,0.167,0.055,0.327,0.086,0.489
	c0.033,0.16,0.068,0.321,0.11,0.479c0.083,0.314,0.177,0.627,0.287,0.928c0.059,0.153,0.115,0.302,0.179,0.45
	c0.063,0.147,0.129,0.295,0.199,0.438c0.035,0.07,0.067,0.144,0.106,0.214c0.073,0.142,0.151,0.282,0.228,0.42
	c0.238,0.414,0.506,0.812,0.8,1.184c0.146,0.186,0.298,0.369,0.457,0.544c0.108,0.116,0.218,0.232,0.329,0.344
	c0.112,0.109,0.227,0.22,0.345,0.327c0.524,0.479,1.104,0.903,1.726,1.259c0.141,0.079,0.278,0.154,0.423,0.228
	c0.282,0.146,0.574,0.279,0.873,0.396c0.149,0.059,0.301,0.114,0.457,0.167c0.995,0.337,2.06,0.52,3.169,0.52
	c0.757,0,1.494-0.084,2.201-0.245c0.329-0.076,0.654-0.167,0.972-0.274c0.15-0.053,0.302-0.107,0.453-0.167
	c0.298-0.118,0.593-0.249,0.875-0.396c0.145-0.073,0.284-0.148,0.42-0.228c0.623-0.356,1.201-0.78,1.73-1.259
	c0.114-0.107,0.229-0.218,0.342-0.327c0.111-0.111,0.22-0.228,0.326-0.344c0.161-0.175,0.312-0.356,0.459-0.544
	c0.232-0.295,0.448-0.604,0.646-0.927c0.054-0.083,0.104-0.168,0.153-0.255c0.079-0.137,0.156-0.279,0.229-0.421
	c0.036-0.071,0.073-0.145,0.105-0.214c0.07-0.146,0.135-0.29,0.2-0.438c0.062-0.147,0.12-0.298,0.175-0.449
	c0.111-0.303,0.208-0.612,0.29-0.929c0.041-0.157,0.078-0.318,0.111-0.479c0.031-0.162,0.061-0.323,0.086-0.489
	c0.026-0.162,0.046-0.327,0.062-0.493c0.034-0.332,0.051-0.669,0.051-1.01C43.438,36.383,43.423,36.047,43.391,35.715z
	 M35.749,45.824c-0.009-0.094-0.034-0.188-0.039-0.279c-0.01-0.2,0.021-0.343-0.012-0.53c-0.023-0.14-0.054-0.357-0.106-0.445
	c-0.056-0.1-0.277-0.266-0.39-0.327c-0.073-0.04-0.164-0.055-0.247-0.098c-0.173-0.082-0.507-0.262-0.582-0.434
	c-0.022-0.051-0.019-0.114-0.045-0.17c-0.044-0.108-0.142-0.201-0.21-0.307c-0.132-0.199-0.238-0.451-0.373-0.657
	c-0.066-0.105-0.126-0.224-0.2-0.306c-0.045-0.051-0.186-0.097-0.203-0.17c-0.025-0.1-0.097-0.232-0.085-0.309
	c0.015-0.102,0.215-0.185,0.213-0.275c0-0.079-0.106-0.124-0.127-0.19c-0.055-0.165,0.031-0.258,0.097-0.392
	c0.02-0.045,0.042-0.116,0.064-0.15c0.036-0.057,0.118-0.073,0.169-0.137c0.029-0.035,0.047-0.108,0.084-0.158
	c0.08-0.107,0.211-0.146,0.242-0.246c0.028-0.077,0.046-0.472,0.013-0.604c-0.018-0.076-0.089-0.139-0.117-0.211
	c-0.048-0.129-0.058-0.269-0.19-0.266c-0.08,0.002-0.14,0.091-0.192,0.147c-0.011,0.078-0.006,0.158-0.082,0.179
	c-0.122,0.038-0.169-0.124-0.309-0.167c-0.058-0.017-0.146-0.015-0.183-0.032c-0.101-0.048-0.133-0.196-0.244-0.255
	c-0.089-0.048-0.168-0.033-0.222-0.105c-0.022-0.052-0.005-0.146-0.012-0.214c-0.116-0.067-0.215-0.321-0.351-0.382
	c-0.092-0.038-0.227-0.036-0.34-0.073c-0.053-0.02-0.093-0.042-0.15-0.054c-0.065-0.017-0.138-0.017-0.19-0.043
	c-0.207-0.104-0.323-0.443-0.584-0.435c-0.11,0-0.218,0.107-0.319,0.107c-0.099-0.002-0.267-0.083-0.391-0.142
	c-0.129-0.06-0.275-0.093-0.384-0.146c-0.087-0.044-0.146-0.128-0.222-0.161c-0.059-0.026-0.145-0.03-0.191-0.055
	c-0.068-0.031-0.141-0.101-0.224-0.157c-0.083-0.056-0.165-0.142-0.17-0.213c-0.005-0.082,0.079-0.153,0.085-0.233
	c0.026-0.253-0.16-0.433-0.275-0.583c-0.088-0.109-0.19-0.203-0.277-0.307c0.004-0.068,0.004-0.08,0-0.149
	c-0.067-0.062-0.123-0.158-0.191-0.255c-0.063-0.086-0.188-0.179-0.202-0.277c-0.021-0.118,0.045-0.223,0-0.338
	c-0.074-0.192-0.344-0.105-0.308,0.149c0.009,0.069,0.106,0.163,0.139,0.231c0.029,0.072,0.023,0.16,0.052,0.244
	c0.03,0.081,0.11,0.154,0.139,0.245c0.046,0.145,0.046,0.303,0.084,0.392c0.036,0.08,0.172,0.159,0.098,0.255
	c-0.102,0.021-0.141-0.079-0.202-0.139c-0.034-0.032-0.16-0.093-0.182-0.168c-0.016-0.063,0.04-0.146,0.021-0.224
	c-0.037-0.149-0.339-0.152-0.34-0.308c0-0.097,0.129-0.107,0.129-0.2c0.001-0.104-0.141-0.189-0.172-0.276
	c-0.027-0.079-0.03-0.207-0.042-0.318c-0.009-0.106,0.005-0.229-0.021-0.308c-0.022-0.073-0.131-0.173-0.203-0.212
	c-0.092-0.054-0.166-0.031-0.21-0.105c-0.043-0.067-0.067-0.206-0.076-0.276c-0.015-0.128-0.005-0.269-0.011-0.402
	c-0.008-0.138-0.021-0.269,0-0.414c0.054-0.104,0.147-0.152,0.202-0.254c0.037-0.072,0.043-0.159,0.085-0.234
	c0.076-0.139,0.248-0.266,0.36-0.402c0.123-0.146,0.238-0.287,0.309-0.457c0.026-0.059,0.096-0.192,0.083-0.266
	c-0.014-0.102-0.208-0.186-0.19-0.309c0.011-0.075,0.115-0.074,0.149-0.147c0.014-0.037,0.032-0.146,0.032-0.189
	c0.002-0.103-0.053-0.21-0.032-0.32c0.018-0.094,0.155-0.13,0.085-0.233c-0.071-0.101-0.198,0.057-0.276-0.01
	c-0.071-0.06,0.012-0.132,0.021-0.245c0.002-0.042-0.027-0.093-0.021-0.125c0.008-0.048,0.099-0.129,0.074-0.159
	c-0.039-0.051-0.082-0.146-0.14-0.225c1.183-0.949,2.604-1.616,4.157-1.897c0.019,0.034,0.034,0.072,0.082,0.084
	c0.092-0.047,0.186,0.003,0.286,0c0.102-0.003,0.188-0.049,0.298-0.032c0.193,0.03,0.463,0.219,0.616,0.117
	c0.038-0.028,0.03-0.35,0.062-0.413c0.028-0.055,0.073-0.458,0.098-0.458c0.079,0,0.154,0,0.231,0c0.64,0,1.265,0.339,1.868,0.46
	c-0.024,0.064-0.108,0.175-0.178,0.208c-0.065,0.031-0.089,0.161-0.157,0.176c-0.196,0.033-0.354-0.014-0.523-0.009
	c-0.008,0.073,0.08,0.129,0.126,0.154c0.153,0.081,0.278,0.079,0.49,0.074c0.108-0.003,0.237,0.038,0.328-0.027
	c0.06-0.041,0.056-0.13,0.106-0.178c0.023-0.022,0.054-0.044,0.087-0.062c0.104,0.024,0.211,0.054,0.314,0.083
	c-0.017,0.071-0.135,0.053-0.137,0.149c0.077,0.044,0.248-0.025,0.312-0.1c0.027,0.007,0.053,0.012,0.077,0.021
	c0.152,0.046,0.3,0.098,0.448,0.148c0.21,0.075,0.414,0.157,0.617,0.249c-0.039,0.022-0.081,0.053-0.116,0.053
	c-0.087-0.001-0.125-0.118-0.22-0.075c-0.012,0.113,0.118,0.16,0.2,0.212c0.088,0.056,0.181,0.112,0.212,0.212
	c-0.083,0.183-0.225-0.011-0.361-0.011c-0.149-0.002-0.37,0.286-0.499,0.054c0.033-0.124,0.168-0.143,0.201-0.265
	c-0.028,0.004-0.056,0.012-0.084,0.024c-0.053,0.019-0.104,0.048-0.153,0.074c-0.068,0.037-0.139,0.073-0.218,0.093
	c-0.077,0.015-0.147,0.012-0.211,0.032c-0.129,0.034-0.219,0.129-0.351,0.18c-0.052,0.019-0.117,0.015-0.172,0.032
	c-0.129,0.042-0.28,0.12-0.414,0.191c-0.132,0.073-0.285,0.149-0.368,0.224c-0.047,0.038-0.167,0.177-0.163,0.222
	c0.008,0.062,0.127,0.082,0.128,0.148c-0.001,0.037-0.068,0.122-0.02,0.181c0.042,0.051,0.129,0.012,0.221,0.02
	c0.165,0.021,0.27,0.155,0.396,0.223c0.093,0.056,0.234,0.114,0.343,0.128c0.143,0.019,0.306-0.043,0.327,0.075
	c0.019,0.111-0.139,0.151-0.15,0.222c0.079,0.105-0.055,0.154-0.055,0.244c0.001,0.074,0.092,0.186,0.17,0.19
	c0.107,0.011,0.263-0.104,0.309-0.212c0.053-0.126,0.031-0.3,0.127-0.39c0.498,0.012,0.915-0.227,0.881-0.733
	c-0.001-0.05-0.03-0.113-0.019-0.169c0.014-0.081,0.153-0.151,0.137-0.255c0.057-0.014,0.085-0.058,0.115-0.105
	c0.039-0.074,0.071-0.157,0.147-0.186c0.007,0,0.007-0.004,0.015-0.004c0.039-0.012,0.088-0.004,0.134,0.011
	c0.086,0.025,0.18,0.068,0.278,0.062c0.052-0.003,0.119-0.049,0.171-0.042c0.103,0.014,0.165,0.144,0.246,0.202
	c0.068,0.051,0.102,0.034,0.12,0.105c-0.02,0.117-0.133,0.122-0.133,0.229c0,0.001,0,0.002,0,0.002c0,0.099,0.149,0.173,0.2,0.183
	c0.074,0.015,0.203-0.028,0.281-0.064c0.081-0.039,0.168-0.124,0.243-0.184c0.102,0.079,0.209,0.16,0.31,0.247
	c0.014,0.048,0.021,0.09,0.025,0.116c0.015,0.115-0.014,0.203-0.01,0.31c0.013,0.177,0.238,0.159,0.352,0.254
	c0.033,0.029,0.046,0.103,0.071,0.136c0.054,0.075,0.123,0.075,0.129,0.15c0.021,0.184-0.167,0.2-0.15,0.402
	c-0.034,0.079-0.133,0.076-0.122,0.18c0.012,0.168,0.252,0.041,0.318,0.17c0.035,0.071-0.007,0.124-0.033,0.224
	c0.082,0.098,0.082,0.255-0.062,0.255c-0.088,0-0.113-0.096-0.201-0.119c-0.05-0.012-0.119-0.008-0.183-0.019
	c-0.053-0.011-0.118-0.027-0.167-0.033c-0.131-0.013-0.273,0.022-0.351-0.051c0.124-0.171,0.294-0.334,0.458-0.48
	c0.045-0.043,0.149-0.071,0.123-0.157c-0.088-0.079-0.199,0.006-0.286,0.054c-0.088,0.05-0.195,0.122-0.296,0.136
	c-0.177,0.028-0.41-0.049-0.553,0.044c-0.019,0.08,0.164,0.051,0.14,0.169c-0.073,0.013-0.139,0.019-0.192-0.032
	c-0.05-0.044-0.021-0.11-0.054-0.137c-0.056-0.045-0.257-0.059-0.352-0.044c-0.109,0.019-0.211,0.085-0.222,0.181
	c0.132,0.062,0.354-0.062,0.404,0.095c-0.074,0.135-0.248,0.206-0.225,0.384c0.01,0.068,0.093,0.158,0.148,0.17
	c0.059,0.011,0.093-0.048,0.149-0.041c0.06,0.004,0.046,0.074,0.118,0.061c0.101-0.043,0.157-0.187,0.275-0.179
	c0.14,0.17-0.129,0.254-0.275,0.307c-0.17,0.062-0.393,0.096-0.522,0.148c-0.066,0.028-0.322,0.277-0.361,0.083
	c-0.023-0.136,0.128-0.097,0.158-0.211c-0.163-0.031-0.318,0.071-0.467,0.13c-0.212,0.078-0.577,0.129-0.626,0.369
	c-0.011,0.048,0.021,0.138-0.012,0.17c-0.024,0.025-0.175,0.03-0.244,0.052c-0.102,0.035-0.193,0.111-0.255,0.128
	c-0.049,0.014-0.118,0.011-0.146,0.02c-0.088,0.035-0.118,0.148-0.213,0.225c-0.039,0.033-0.129,0.053-0.16,0.084
	c-0.057,0.055-0.061,0.192-0.161,0.212c-0.059,0.006-0.109-0.046-0.166-0.011c-0.009,0.135,0.046,0.318-0.012,0.457
	c-0.128,0.102-0.265,0.176-0.428,0.263c-0.088,0.052-0.166,0.064-0.276,0.118c-0.075,0.039-0.144,0.13-0.234,0.181
	c-0.2,0.119-0.448,0.259-0.445,0.563c0,0.064,0.034,0.135,0.042,0.21c0.006,0.046-0.003,0.09,0,0.14
	c0.014,0.109,0.095,0.254,0,0.328c-0.142-0.059-0.324-0.079-0.424-0.182c-0.026-0.104,0.057-0.19,0.041-0.286
	c-0.009-0.075-0.117-0.212-0.179-0.223c-0.064-0.01-0.126,0.061-0.192,0.054c-0.079-0.007-0.153-0.115-0.255-0.127
	c-0.149-0.017-0.259,0.035-0.423,0.012c-0.163,0.085-0.209,0.238-0.405,0.223c-0.07-0.004-0.134-0.059-0.213-0.073
	c-0.086-0.02-0.216-0.049-0.307-0.044c-0.183,0.013-0.313,0.143-0.469,0.225c-0.136,0.072-0.332,0.159-0.369,0.308
	c-0.023,0.078-0.004,0.19-0.033,0.263c-0.018,0.052-0.06,0.095-0.083,0.14c-0.119,0.215-0.221,0.503-0.128,0.815
	c0.014,0.047,0.13,0.308,0.179,0.361c0.057,0.058,0.218,0.146,0.31,0.148c0.077,0,0.168-0.041,0.244-0.054
	c0.087-0.015,0.194-0.019,0.276-0.044c0.228-0.074,0.182-0.382,0.413-0.487c0.099-0.042,0.216-0.053,0.394-0.063
	c0.058,0.049,0.081,0.129,0.074,0.203c-0.008,0.056-0.058,0.102-0.086,0.18c-0.022,0.066-0.028,0.147-0.051,0.201
	c-0.032,0.071-0.102,0.123-0.128,0.192c-0.017,0.042-0.008,0.097-0.021,0.135c-0.025,0.071-0.119,0.12-0.076,0.19
	c0.228,0.092,0.506-0.025,0.702,0.012c0.084,0.015,0.256,0.117,0.256,0.246c-0.005,0.096-0.078,0.159-0.087,0.264
	c-0.012,0.132-0.066,0.297-0.075,0.403c-0.008,0.176,0.261,0.479,0.447,0.478c0.201-0.002,0.319-0.2,0.563-0.094
	c0.078,0.034,0.166,0.164,0.255,0.157c0.073-0.004,0.188-0.132,0.236-0.222c0.057-0.111,0.062-0.199,0.167-0.255
	c0.114-0.059,0.204-0.033,0.352-0.086c0.063-0.024,0.122-0.065,0.181-0.105c0.051-0.034,0.104-0.125,0.168-0.062
	c0.087,0.084-0.101,0.131-0.032,0.222c0.147,0.08,0.224-0.145,0.328-0.146c0.034-0.003,0.153,0.063,0.216,0.105
	c0.081,0.055,0.11,0.13,0.199,0.147c0.059,0.012,0.152-0.022,0.233-0.012c0.11,0.015,0.174,0.105,0.256,0.104
	c0.1-0.002,0.148-0.11,0.235-0.127c0.187-0.033,0.256,0.022,0.342,0.139c0.09,0.015,0.095-0.105,0.177-0.062
	c-0.045,0.092,0.018,0.135,0.055,0.212c0.025,0.05,0.021,0.083,0.043,0.106c0.051,0.047,0.147,0.047,0.223,0.096
	c0.079,0.047,0.123,0.142,0.212,0.244c0.094,0.104,0.248,0.214,0.373,0.224c0.117,0.005,0.211-0.034,0.308-0.022
	c0.22,0.026,0.356,0.135,0.51,0.255c0.084,0.066,0.165,0.112,0.189,0.19c0.02,0.055,0.011,0.129,0.034,0.191
	c0.049,0.132,0.242,0.195,0.169,0.423c0.032,0.068,0.103,0.092,0.18,0.139c0.062,0.036,0.114,0.117,0.182,0.128
	c0.043,0.008,0.09-0.013,0.127-0.013c0.121,0.01,0.203,0.056,0.309,0.095c0.065,0.027,0.146,0.036,0.191,0.064
	c0.053,0.037,0.058,0.158,0.128,0.191c0.044,0.021,0.141-0.01,0.211,0c0.115,0.013,0.269,0.083,0.373,0.083
	c0.061,0.003,0.112-0.024,0.169-0.02c0.129,0.009,0.229,0.091,0.331,0.183C40.232,43.707,38.171,45.24,35.749,45.824z"/>
</svg>
