<?xml version="1.0" encoding="utf-8"?>
<!-- Generator: Adobe Illustrator 16.0.0, SVG Export Plug-In . SVG Version: 6.00 Build 0)  -->
<!DOCTYPE svg PUBLIC "-//W3C//DTD SVG 1.1//EN" "http://www.w3.org/Graphics/SVG/1.1/DTD/svg11.dtd">
<svg version="1.1" id="Capa_1" xmlns="http://www.w3.org/2000/svg" xmlns:xlink="http://www.w3.org/1999/xlink" x="0px" y="0px"
	 width="53px" height="55.5px" viewBox="0 0 53 55.5" enable-background="new 0 0 53 55.5" xml:space="preserve">
<g>
	<g>
		<path fill="#FFFFFF" stroke="#FFFFFF" stroke-width="0.5" stroke-miterlimit="10" d="M48.758,15.297
			c-0.003-0.056-0.015-0.114-0.034-0.17c-0.008-0.023-0.012-0.044-0.021-0.068c-0.034-0.07-0.075-0.138-0.135-0.198L36.131,2.425
			c-0.059-0.052-0.127-0.096-0.198-0.13c-0.02-0.009-0.042-0.015-0.063-0.024c-0.06-0.019-0.114-0.029-0.175-0.032
			C35.68,2.233,35.665,2.23,35.65,2.23H15.899c-0.372,0-0.679,0.299-0.679,0.674v10.42H6.021c-0.374,0-0.676,0.304-0.676,0.678
			v40.824c0,0.372,0.302,0.674,0.676,0.674h32.194c0.373,0,0.676-0.302,0.676-0.674v-10.42h9.198c0.374,0,0.68-0.301,0.68-0.675
			v-28.39C48.769,15.327,48.758,15.316,48.758,15.297z M46.459,14.667h-10.13V4.544L46.459,14.667z M37.535,54.146H6.7v-39.47h9.199
			h9.199v11.759c0,0.372,0.302,0.678,0.677,0.678h11.76v16.618V54.146L37.535,54.146z M26.45,15.632l10.13,10.124H26.45V15.632z
			 M38.891,43.053V26.436c0-0.015-0.008-0.025-0.008-0.04c-0.005-0.061-0.018-0.119-0.034-0.175c-0.01-0.02-0.017-0.044-0.027-0.063
			c-0.028-0.07-0.071-0.144-0.131-0.2L26.253,13.523c-0.057-0.062-0.126-0.104-0.198-0.134c-0.021-0.014-0.042-0.014-0.063-0.024
			c-0.058-0.019-0.116-0.027-0.173-0.032c-0.018,0-0.03-0.009-0.043-0.009h-9.198V3.582h18.397v11.76
			c0,0.372,0.305,0.679,0.676,0.679h11.763v27.032H38.891L38.891,43.053z"/>
		<polygon fill="#FFFFFF" stroke="#FFFFFF" stroke-width="0.5" stroke-miterlimit="10" points="22.794,28.912 21.439,28.912 
			21.439,33.738 16.617,33.738 16.617,35.092 21.439,35.092 21.439,39.912 22.794,39.912 22.794,35.092 27.617,35.092 
			27.617,33.738 22.794,33.738 		"/>
	</g>
</g>
</svg>
