<?xml version="1.0" encoding="utf-8"?>
<!-- Generator: Adobe Illustrator 16.0.0, SVG Export Plug-In . SVG Version: 6.00 Build 0)  -->
<!DOCTYPE svg PUBLIC "-//W3C//DTD SVG 1.1//EN" "http://www.w3.org/Graphics/SVG/1.1/DTD/svg11.dtd">
<svg version="1.1" id="Capa_1" xmlns="http://www.w3.org/2000/svg" xmlns:xlink="http://www.w3.org/1999/xlink" x="0px" y="0px"
	 width="150px" height="150px" viewBox="0 0 150 150" enable-background="new 0 0 150 150" xml:space="preserve">
<g>
	<g>
		<path fill="#FFFFFF" d="M132.591,31.021L102.5,0.923c-0.602-0.595-1.413-0.933-2.268-0.933H9.414c-1.765,0-3.194,1.43-3.194,3.194
			v143.63c0,1.764,1.43,3.193,3.194,3.193h120.929c1.751,0,3.188-1.43,3.188-3.193V33.282
			C133.531,32.433,133.193,31.627,132.591,31.021z M103.439,10.893l19.195,19.194h-19.195V10.893z M12.608,143.62V6.378h84.443
			v26.903c0,1.764,1.428,3.188,3.181,3.188h26.909v107.15H12.608L12.608,143.62z"/>
		<g>
			<path fill="#FFFFFF" d="M45.851,52.495H23.423c-1.766,0-3.196-1.424-3.196-3.194V26.869c0-1.765,1.431-3.188,3.196-3.188h22.428
				c1.763,0,3.193,1.424,3.193,3.188v22.433C49.044,51.071,47.613,52.495,45.851,52.495z M26.611,46.113h16.044V30.07H26.611V46.113
				z"/>
		</g>
		<g>
			<path fill="#FFFFFF" d="M45.851,92.651H23.423c-1.766,0-3.196-1.432-3.196-3.191V67.026c0-1.77,1.431-3.188,3.196-3.188h22.428
				c1.763,0,3.193,1.418,3.193,3.188V89.46C49.044,91.22,47.613,92.651,45.851,92.651z M26.611,86.272h16.044V70.216H26.611V86.272z
				"/>
		</g>
		<g>
			<path fill="#FFFFFF" d="M45.851,132.808H23.423c-1.766,0-3.196-1.434-3.196-3.191v-22.43c0-1.764,1.431-3.195,3.196-3.195h22.428
				c1.763,0,3.193,1.432,3.193,3.195v22.43C49.044,131.374,47.613,132.808,45.851,132.808z M26.611,126.423h16.044v-16.049H26.611
				V126.423z"/>
		</g>
	</g>
	<g>
		<path fill="#FFFFFF" d="M70.725,131.616l-0.273-2.367h-0.114c-1.05,1.473-3.07,2.799-5.754,2.799
			c-3.812,0-5.756-2.686-5.756-5.408c0-4.547,4.045-7.033,11.314-6.996v-0.387c0-1.559-0.424-4.357-4.273-4.357
			c-1.755,0-3.577,0.545-4.901,1.4l-0.778-2.254c1.558-1.014,3.812-1.672,6.18-1.672c5.755,0,7.154,3.926,7.154,7.693v7.041
			c0,1.633,0.083,3.229,0.311,4.508H70.725z M70.217,122.017c-3.729-0.082-7.966,0.584-7.966,4.236c0,2.217,1.477,3.268,3.225,3.268
			c2.451,0,4.007-1.559,4.552-3.154c0.114-0.348,0.189-0.732,0.189-1.088V122.017z"/>
		<path fill="#FFFFFF" d="M78.898,131.616c0.083-1.279,0.159-3.186,0.159-4.857v-22.748h3.379v11.82h0.083
			c1.204-2.096,3.382-3.457,6.413-3.457c4.668,0,7.973,3.889,7.93,9.6c0,6.729-4.238,10.074-8.435,10.074
			c-2.722,0-4.901-1.053-6.301-3.541h-0.113l-0.159,3.109H78.898z M82.437,124.075c0,0.43,0.083,0.855,0.158,1.242
			c0.659,2.373,2.643,4.006,5.129,4.006c3.578,0,5.719-2.918,5.719-7.23c0-3.773-1.943-7.004-5.598-7.004
			c-2.337,0-4.515,1.598-5.211,4.205c-0.075,0.387-0.197,0.855-0.197,1.4V124.075z"/>
		<path fill="#FFFFFF" d="M114.608,130.921c-0.898,0.461-2.88,1.088-5.408,1.088c-5.678,0-9.37-3.85-9.37-9.605
			c0-5.793,3.964-9.992,10.112-9.992c2.02,0,3.805,0.508,4.742,0.969l-0.778,2.648c-0.817-0.471-2.103-0.895-3.964-0.895
			c-4.319,0-6.648,3.186-6.648,7.111c0,4.357,2.798,7.041,6.528,7.041c1.944,0,3.229-0.506,4.198-0.938L114.608,130.921z"/>
	</g>
</g>
</svg>
