<?xml version="1.0" encoding="utf-8"?>
<!-- Generator: Adobe Illustrator 16.0.0, SVG Export Plug-In . SVG Version: 6.00 Build 0)  -->
<!DOCTYPE svg PUBLIC "-//W3C//DTD SVG 1.1//EN" "http://www.w3.org/Graphics/SVG/1.1/DTD/svg11.dtd">
<svg version="1.1" id="Capa_1" xmlns="http://www.w3.org/2000/svg" xmlns:xlink="http://www.w3.org/1999/xlink" x="0px" y="0px"
	 width="300px" height="100px" viewBox="0 0 300 100" enable-background="new 0 0 300 100" xml:space="preserve">
<g>
	<g>
		<path fill="#FFFFFF" d="M154.218,73.347h-25.791V26.124h25.791v3.035H131.72v17.86h21.237v3.038H131.72v20.25h22.498V73.347z"/>
		<path fill="#FFFFFF" d="M200.763,49.279c0,7.925-2.083,13.919-6.24,17.97c-4.151,4.066-10.257,6.098-18.312,6.098h-11.301V26.124
			h12.753c7.54,0,13.277,1.966,17.206,5.908C198.789,35.973,200.763,41.719,200.763,49.279z M197.175,49.408
			c0-6.763-1.719-11.849-5.148-15.26c-3.438-3.415-8.482-5.12-15.14-5.12h-8.684v41.406h7.82
			C190.12,70.435,197.175,63.427,197.175,49.408z"/>
		<path fill="#FFFFFF" d="M243.419,26.124v30.551c0,5.434-1.57,9.668-4.713,12.729c-3.142,3.051-7.526,4.584-13.149,4.584
			c-5.471,0-9.734-1.533-12.801-4.611c-3.075-3.057-4.604-7.344-4.604-12.83V26.124h3.328v30.551c0,4.545,1.251,8.078,3.773,10.607
			c2.524,2.531,6.085,3.801,10.692,3.801c4.497,0,7.984-1.242,10.466-3.738c2.48-2.482,3.715-5.928,3.715-10.346V26.124H243.419z"/>
		<path fill="#FFFFFF" d="M274.681,28.411c-5.922,0-10.585,1.901-13.986,5.681c-3.399,3.798-5.1,8.987-5.1,15.574
			c0,6.739,1.602,11.972,4.811,15.69c3.208,3.729,7.795,5.598,13.759,5.598c3.963,0,7.602-0.508,10.918-1.525v2.912
			c-3.12,1.096-7.02,1.646-11.693,1.646c-6.635,0-11.851-2.143-15.663-6.428c-3.812-4.287-5.719-10.27-5.719-17.956
			c0-4.807,0.912-9.031,2.728-12.691c1.82-3.662,4.438-6.49,7.854-8.478c3.409-1.993,7.38-2.994,11.899-2.994
			c4.604,0,8.725,0.867,12.364,2.581L285.534,31C282.086,29.278,278.472,28.411,274.681,28.411z"/>
		<path fill="#FFFFFF" d="M107.803,45.175h-9.791L86.204,73.479h-3.652l18.993-47.411h1.068h1.033l18.603,47.411h-3.715
			L107.803,45.175z"/>
	</g>
	<g>
		<g>
			<path fill="#FFFFFF" d="M41.033,73.179l3.777,3.803c0.378,0.379,0.964,0.586,1.559,0.586c0.527,0,1.184-0.207,1.552-0.586
				l3.779-3.803H41.033z"/>
			<path fill="#FFFFFF" d="M60.021,63.038c-0.309-0.748-1.046-1.236-1.858-1.236l-3.81,0.031l0.058-10.15
				c-0.005-1.65-1.346-2.987-2.999-2.987h-3.013v21.063h6.696l4.503-4.531C60.167,64.649,60.34,63.786,60.021,63.038z"/>
			<path fill="#FFFFFF" d="M44.165,69.759V48.696H41.32c-1.652,0-2.991,1.337-2.999,2.987l0.055,10.146l-3.81-0.027
				c-0.812-0.004-1.546,0.488-1.858,1.232c-0.313,0.752-0.146,1.615,0.426,2.193l4.507,4.531H44.165z"/>
		</g>
		<g>
			<defs>
				<path id="XMLID_4_" d="M45.798,11.853c-19.216,0-34.792,15.576-34.792,34.79c0,17.198,12.481,31.474,28.884,34.28l-6.67-6.709
					c-10.458-4.781-17.726-15.322-17.726-27.571c0-16.735,13.566-30.301,30.304-30.301c16.735,0,30.302,13.566,30.302,30.301
					c0,11.323-6.219,21.19-15.42,26.392l-7.567,7.625C68.815,77.296,80.59,63.347,80.59,46.643
					C80.59,27.429,65.014,11.853,45.798,11.853z"/>
			</defs>
			<use xlink:href="#XMLID_4_"  overflow="visible" fill="#FFFFFF"/>
			<clipPath id="XMLID_2_">
				<use xlink:href="#XMLID_4_"  overflow="visible"/>
			</clipPath>
			<path clip-path="url(#XMLID_2_)" fill="#FFFFFF" d="M45.638,85.511c0,1.539-0.271,2.783-0.601,2.783H28.833
				c-0.335,0-0.601-1.244-0.601-2.783V10.359c0-1.54,0.266-2.788,0.601-2.788h16.203c0.331,0,0.601,1.248,0.601,2.788V85.511z"/>
			<path clip-path="url(#XMLID_2_)" fill="#FFFFFF" d="M81.457,85.511c0,1.539-0.285,2.783-0.642,2.783H63.381
				c-0.359,0-0.646-1.244-0.646-2.783V10.359c0-1.54,0.288-2.788,0.646-2.788h17.434c0.357,0,0.642,1.248,0.642,2.788V85.511z"/>
			<path clip-path="url(#XMLID_2_)" fill="#FFFFFF" d="M63.046,85.511c0,1.539-0.269,2.783-0.599,2.783H46.244
				c-0.335,0-0.601-1.244-0.601-2.783V10.354c0-1.535,0.266-2.783,0.601-2.783h16.204c0.33,0,0.599,1.248,0.599,2.783V85.511z"/>
		</g>
		<g>
			<path fill="#FFFFFF" d="M41.033,73.179l3.777,3.803c0.378,0.379,0.964,0.586,1.559,0.586c0.527,0,1.184-0.207,1.552-0.586
				l3.779-3.803H41.033z"/>
			<path fill="#FFFFFF" d="M60.021,63.038c-0.309-0.748-1.046-1.236-1.858-1.236l-3.81,0.031l0.058-10.15
				c-0.005-1.65-1.346-2.987-2.999-2.987h-3.013v21.063h6.696l4.503-4.531C60.167,64.649,60.34,63.786,60.021,63.038z"/>
			<path fill="#FFFFFF" d="M65.067,40.031c-0.481-0.102-0.848-0.489-0.9-0.973c-0.943-7.708-7.508-13.674-15.473-13.674
				c-6.365,0-11.842,3.817-14.261,9.291c-0.225,0.499-0.775,0.777-1.307,0.646c-0.862-0.216-1.768-0.326-2.701-0.324
				c-5.935,0.052-10.681,4.842-10.681,10.778c0,3.662,1.82,6.894,4.607,8.837c1.183,2.525,3.746,4.275,6.72,4.275
				c0.288,0,0.57-0.023,0.853-0.059c0.688-0.365,1.456-0.58,2.261-0.637c0.182-0.082,0.362-0.168,0.536-0.268l-0.033-6.223
				c0.009-3.678,2.989-6.643,6.633-6.643h3.441H47.8h3.611c3.645,0,6.625,2.964,6.634,6.613l-0.036,6.496h0.122
				c1.542,0,2.951,0.607,3.985,1.621c0.828-0.67,1.465-1.564,1.793-2.605c0.127-0.396,0.462-0.689,0.875-0.762
				c3.941-0.67,6.935-4.094,6.935-8.221C71.72,44.174,68.86,40.813,65.067,40.031z"/>
			<path fill="#FFFFFF" d="M44.165,69.759V48.696H41.32c-1.652,0-2.991,1.337-2.999,2.987l0.055,10.146l-3.81-0.027
				c-0.812-0.004-1.546,0.488-1.858,1.232c-0.313,0.752-0.146,1.615,0.426,2.193l4.507,4.531H44.165z"/>
		</g>
	</g>
</g>
</svg>
