<?xml version="1.0" encoding="utf-8"?>
<!-- Generator: Adobe Illustrator 16.0.0, SVG Export Plug-In . SVG Version: 6.00 Build 0)  -->
<!DOCTYPE svg PUBLIC "-//W3C//DTD SVG 1.1//EN" "http://www.w3.org/Graphics/SVG/1.1/DTD/svg11.dtd">
<svg version="1.1" id="Capa_1" xmlns="http://www.w3.org/2000/svg" xmlns:xlink="http://www.w3.org/1999/xlink" x="0px" y="0px"
	 width="150px" height="150px" viewBox="0 0 150 150" enable-background="new 0 0 150 150" xml:space="preserve">
<g>
	<g>
		<path fill="#FFFFFF" d="M142.051,31.12L111.874,0.937C111.271,0.34,110.458,0,109.599,0H18.526c-1.768,0-3.203,1.435-3.203,3.203
			v144.039c0,1.77,1.435,3.204,3.203,3.204h121.269c1.757,0,3.198-1.435,3.198-3.204V33.386
			C142.993,32.536,142.652,31.729,142.051,31.12z M112.815,10.934l19.249,19.25h-19.249V10.934z M21.73,144.04V6.407h84.678v26.979
			c0,1.769,1.432,3.198,3.19,3.198h26.987V144.04H21.73L21.73,144.04z"/>
		<g>
			<path fill="#FFFFFF" d="M55.066,52.655h-22.49c-1.772,0-3.207-1.429-3.207-3.204V26.954c0-1.768,1.435-3.197,3.207-3.197h22.49
				c1.769,0,3.204,1.429,3.204,3.197v22.497C58.27,51.227,56.834,52.655,55.066,52.655z M35.772,46.254h16.09v-16.09h-16.09V46.254z
				"/>
		</g>
		<g>
			<path fill="#FFFFFF" d="M55.066,92.925h-22.49c-1.772,0-3.207-1.436-3.207-3.2V67.228c0-1.775,1.435-3.198,3.207-3.198h22.49
				c1.769,0,3.204,1.423,3.204,3.198v22.497C58.27,91.489,56.834,92.925,55.066,92.925z M35.772,86.527h16.09V70.424h-16.09V86.527z
				"/>
		</g>
		<g>
			<path fill="#FFFFFF" d="M55.066,133.194h-22.49c-1.772,0-3.207-1.435-3.207-3.2V107.5c0-1.769,1.435-3.203,3.207-3.203h22.49
				c1.769,0,3.204,1.435,3.204,3.203v22.494C58.27,131.76,56.834,133.194,55.066,133.194z M35.772,126.794h16.09v-16.097h-16.09
				V126.794z"/>
		</g>
	</g>
	<g>
		<path fill="#FFFFFF" d="M73.516,109.853H73.44l-4.404,2.381l-0.661-2.609l5.534-2.966h2.92V132h-3.313V109.853z"/>
		<path fill="#FFFFFF" d="M97.198,111.256v9.163h8.808v2.343h-8.808V132h-2.495v-9.238h-8.813v-2.343h8.813v-9.163H97.198z"/>
		<path fill="#FFFFFF" d="M109.339,132v-2.101l2.687-2.617c6.476-6.159,9.396-9.435,9.435-13.258c0-2.571-1.242-4.946-5.027-4.946
			c-2.299,0-4.211,1.169-5.378,2.141l-1.094-2.414c1.754-1.486,4.249-2.577,7.177-2.577c5.454,0,7.76,3.746,7.76,7.371
			c0,4.681-3.399,8.458-8.739,13.608l-2.024,1.873v0.076h11.386V132H109.339z"/>
	</g>
</g>
</svg>
