<?xml version="1.0" encoding="utf-8"?>
<!-- Generator: Adobe Illustrator 16.0.0, SVG Export Plug-In . SVG Version: 6.00 Build 0)  -->
<!DOCTYPE svg PUBLIC "-//W3C//DTD SVG 1.1//EN" "http://www.w3.org/Graphics/SVG/1.1/DTD/svg11.dtd">
<svg version="1.1" id="Capa_1" xmlns="http://www.w3.org/2000/svg" xmlns:xlink="http://www.w3.org/1999/xlink" x="0px" y="0px"
	 width="150px" height="150px" viewBox="0 0 150 150" enable-background="new 0 0 150 150" xml:space="preserve">
<g>
	<g>
		<path fill="#FFFFFF" d="M70.801,90.032c-1.622-3.776-2.245-8.228-3.478-12.161c-0.191-0.629,0.412-1.147,0.98-0.834
			c2.497,1.368,5.915,2.541,9.057,2.868c5.131,0.528,10.354,0.745,14.962,2.477c4.419,1.653,10.274,5.318,13.019,9.876
			c-3.386,0.405-6.785,0.937-10.023,2.047c-1.092-0.765-2.258-1.408-3.525-1.875c-2.033-0.736-4.461-0.955-6.582-1.527
			c2.251,1.06,4.571,2.044,6.715,3.161c0.533,0.28,1.049,0.595,1.539,0.935c-1.703,0.716-3.367,1.629-4.947,2.789
			c-1.842,1.356-3.414,3.012-4.786,5.058c-0.679-0.153-1.343-0.339-1.938-0.583C76.655,100.105,72.979,95.094,70.801,90.032z"/>
		<path fill="#FFFFFF" d="M129.501,90.52c-1.599,5.065-2.418,10.818-4.523,15.692c-2.832,6.527-7.589,11.956-14.241,14.734
			c-1.675,0.695-3.458,1.153-5.291,1.489c-5.221,0.967-10.851,0.982-15.598,2.944c-0.337,0.145-0.626,0.21-0.881,0.21
			c-3.077,0,0.508-9.965,8.711-14.244c1.675-0.876,3.44-1.682,5.206-2.48c0.316-0.143,0.189-0.584-0.113-0.584
			c-0.028,0-0.057,0-0.091,0.014c-1.505,0.436-2.981,0.892-4.433,1.418c-5.453,1.975-9.917,5.214-12.225,10.661
			c-2.018,4.741-2.921,10.533-1.459,15.495c0.194,0.703-0.699,1.196-1.203,0.711c-0.385-0.365-0.506-0.995-0.632-1.49
			c-0.569-2.24-0.61-4.632-0.677-6.933c-0.164-5.666,0.684-11.361,2.539-16.727c1.018-2.956,2.25-5.794,4.023-8.267
			c1.113-1.545,2.436-2.952,4.047-4.141c1.723-1.262,3.537-2.209,5.428-2.934c0.637-0.244,1.285-0.465,1.932-0.661
			c2.99-0.901,6.132-1.355,9.303-1.724c6.502-0.748,13.138-1.131,18.917-4.273c0.155-0.082,0.31-0.119,0.446-0.117
			C129.249,89.314,129.704,89.876,129.501,90.52z"/>
	</g>
	<g>
		<path fill="#FFFFFF" d="M142.047,31.086L111.998,1.031c-0.601-0.594-1.409-0.931-2.264-0.931H19.049
			c-1.76,0-3.188,1.428-3.188,3.189v143.42c0,1.762,1.429,3.189,3.188,3.189h120.753c1.746,0,3.183-1.428,3.183-3.189V33.343
			C142.984,32.495,142.646,31.691,142.047,31.086z M112.937,10.986l19.167,19.167h-19.167V10.986z M22.239,143.521V6.479h84.317
			v26.864c0,1.761,1.427,3.184,3.178,3.184h26.871v106.994H22.239L22.239,143.521z"/>
		<g>
			<path fill="#FFFFFF" d="M55.432,52.528H33.036c-1.762,0-3.191-1.423-3.191-3.189V26.939c0-1.762,1.43-3.184,3.191-3.184h22.396
				c1.76,0,3.19,1.422,3.19,3.184v22.399C58.622,51.105,57.191,52.528,55.432,52.528z M36.222,46.155h16.021v-16.02H36.222V46.155z"
				/>
		</g>
		<g>
			<path fill="#FFFFFF" d="M55.432,92.625H33.036c-1.762,0-3.191-1.429-3.191-3.186V67.037c0-1.766,1.43-3.183,3.191-3.183h22.396
				c1.76,0,3.19,1.417,3.19,3.183v22.402C58.622,91.196,57.191,92.625,55.432,92.625z M36.222,86.256h16.021V70.222H36.222V86.256z"
				/>
		</g>
		<g>
			<path fill="#FFFFFF" d="M55.432,132.722H33.036c-1.762,0-3.191-1.43-3.191-3.187v-22.396c0-1.761,1.43-3.19,3.191-3.19h22.396
				c1.76,0,3.19,1.43,3.19,3.19v22.396C58.622,131.292,57.191,132.722,55.432,132.722z M36.222,126.348h16.021v-16.026H36.222
				V126.348z"/>
		</g>
	</g>
</g>
</svg>
