<?xml version="1.0" encoding="utf-8"?>
<!-- Generator: Adobe Illustrator 16.0.0, SVG Export Plug-In . SVG Version: 6.00 Build 0)  -->
<!DOCTYPE svg PUBLIC "-//W3C//DTD SVG 1.1//EN" "http://www.w3.org/Graphics/SVG/1.1/DTD/svg11.dtd">
<svg version="1.1" id="Capa_1" xmlns="http://www.w3.org/2000/svg" xmlns:xlink="http://www.w3.org/1999/xlink" x="0px" y="0px"
	 width="53px" height="55.5px" viewBox="0 0 53 55.5" enable-background="new 0 0 53 55.5" xml:space="preserve">
<g>
	<g>
		<path fill="#FFFFFF" d="M25.24,8.39l-4.039-4.04c-0.081-0.08-0.189-0.125-0.305-0.125H8.705c-0.236,0-0.428,0.192-0.428,0.429
			v19.28c0,0.236,0.191,0.429,0.428,0.429h16.233c0.235,0,0.428-0.192,0.428-0.429V8.694C25.366,8.58,25.32,8.472,25.24,8.39z
			 M21.327,5.689l2.577,2.576h-2.577V5.689z M9.134,23.505V5.083h11.335v3.611c0,0.236,0.19,0.428,0.427,0.428h3.612v14.384H9.134
			L9.134,23.505z"/>
		<g>
			<path fill="#FFFFFF" d="M13.596,11.273h-3.011c-0.237,0-0.43-0.191-0.43-0.429V7.833c0-0.237,0.192-0.429,0.43-0.429h3.011
				c0.236,0,0.429,0.191,0.429,0.429v3.011C14.025,11.082,13.833,11.273,13.596,11.273z M11.013,10.417h2.154V8.263h-2.154V10.417z"
				/>
		</g>
		<g>
			<path fill="#FFFFFF" d="M13.596,16.664h-3.011c-0.237,0-0.43-0.192-0.43-0.429v-3.011c0-0.238,0.192-0.429,0.43-0.429h3.011
				c0.236,0,0.429,0.19,0.429,0.429v3.011C14.025,16.471,13.833,16.664,13.596,16.664z M11.013,15.807h2.154v-2.155h-2.154V15.807z"
				/>
		</g>
		<g>
			<path fill="#FFFFFF" d="M13.596,22.053h-3.011c-0.237,0-0.43-0.192-0.43-0.428v-3.011c0-0.237,0.192-0.43,0.43-0.43h3.011
				c0.236,0,0.429,0.192,0.429,0.43v3.011C14.025,21.861,13.833,22.053,13.596,22.053z M11.013,21.197h2.154v-2.154h-2.154V21.197z"
				/>
		</g>
	</g>
	<g>
		<path fill="#FFFFFF" d="M45.67,11.412l-4.04-4.04c-0.08-0.081-0.189-0.126-0.303-0.126H29.135c-0.236,0-0.428,0.192-0.428,0.43
			v19.279c0,0.236,0.191,0.429,0.428,0.429h16.233c0.235,0,0.428-0.192,0.428-0.429v-15.24C45.796,11.601,45.75,11.492,45.67,11.412
			z M41.757,8.709l2.576,2.577h-2.576V8.709z M29.563,26.526V8.103h11.336v3.611c0,0.237,0.191,0.429,0.428,0.429h3.611v14.383
			H29.563L29.563,26.526z"/>
		<g>
			<path fill="#FFFFFF" d="M34.026,14.293h-3.01c-0.238,0-0.43-0.19-0.43-0.429v-3.011c0-0.236,0.191-0.428,0.43-0.428h3.01
				c0.236,0,0.428,0.191,0.428,0.428v3.011C34.454,14.103,34.263,14.293,34.026,14.293z M31.443,13.437h2.154v-2.154h-2.154V13.437z
				"/>
		</g>
		<g>
			<path fill="#FFFFFF" d="M34.026,19.683h-3.01c-0.238,0-0.43-0.19-0.43-0.428v-3.012c0-0.236,0.191-0.427,0.43-0.427h3.01
				c0.236,0,0.428,0.19,0.428,0.427v3.012C34.454,19.493,34.263,19.683,34.026,19.683z M31.443,18.828h2.154v-2.155h-2.154V18.828z"
				/>
		</g>
		<g>
			<path fill="#FFFFFF" d="M34.026,25.074h-3.01c-0.238,0-0.43-0.191-0.43-0.429v-3.01c0-0.237,0.191-0.43,0.43-0.43h3.01
				c0.236,0,0.428,0.192,0.428,0.43v3.01C34.454,24.882,34.263,25.074,34.026,25.074z M31.443,24.217h2.154v-2.154h-2.154V24.217z"
				/>
		</g>
	</g>
	<g>
		<path fill="#FFFFFF" d="M27.964,31.883l-4.039-4.04c-0.08-0.08-0.189-0.126-0.305-0.126H11.43c-0.237,0-0.429,0.192-0.429,0.429
			v19.281c0,0.236,0.191,0.429,0.429,0.429h16.232c0.235,0,0.429-0.192,0.429-0.429v-15.24
			C28.091,32.073,28.045,31.965,27.964,31.883z M24.051,29.182l2.577,2.576h-2.577V29.182z M11.859,46.998V28.575h11.335v3.611
			c0,0.237,0.191,0.428,0.427,0.428h3.613v14.384H11.859L11.859,46.998z"/>
		<g>
			<path fill="#FFFFFF" d="M16.321,34.766H13.31c-0.236,0-0.429-0.191-0.429-0.429v-3.011c0-0.236,0.192-0.428,0.429-0.428h3.011
				c0.237,0,0.429,0.191,0.429,0.428v3.011C16.75,34.574,16.558,34.766,16.321,34.766z M13.739,33.909h2.153v-2.153h-2.153V33.909z"
				/>
		</g>
		<g>
			<path fill="#FFFFFF" d="M16.321,40.156H13.31c-0.236,0-0.429-0.192-0.429-0.429v-3.011c0-0.237,0.192-0.428,0.429-0.428h3.011
				c0.237,0,0.429,0.19,0.429,0.428v3.011C16.75,39.964,16.558,40.156,16.321,40.156z M13.739,39.3h2.153v-2.155h-2.153V39.3z"/>
		</g>
		<g>
			<path fill="#FFFFFF" d="M16.321,45.546H13.31c-0.236,0-0.429-0.192-0.429-0.428v-3.011c0-0.237,0.192-0.429,0.429-0.429h3.011
				c0.237,0,0.429,0.191,0.429,0.429v3.011C16.75,45.354,16.558,45.546,16.321,45.546z M13.739,44.689h2.153v-2.154h-2.153V44.689z"
				/>
		</g>
	</g>
	<g>
		<path fill="#FFFFFF" d="M48.396,34.904l-4.041-4.04c-0.08-0.081-0.189-0.125-0.303-0.125H31.86c-0.237,0-0.428,0.191-0.428,0.429
			v19.279c0,0.237,0.19,0.43,0.428,0.43h16.232c0.235,0,0.428-0.192,0.428-0.43V35.208C48.521,35.094,48.476,34.985,48.396,34.904z
			 M44.481,32.202l2.576,2.577h-2.576V32.202z M32.288,50.019V31.597h11.336v3.611c0,0.236,0.191,0.428,0.428,0.428h3.611v14.383
			H32.288L32.288,50.019z"/>
		<g>
			<path fill="#FFFFFF" d="M36.751,37.787h-3.01c-0.238,0-0.43-0.191-0.43-0.429v-3.012c0-0.236,0.191-0.428,0.43-0.428h3.01
				c0.236,0,0.429,0.191,0.429,0.428v3.012C37.18,37.596,36.987,37.787,36.751,37.787z M34.169,36.93h2.154v-2.154h-2.154V36.93z"/>
		</g>
		<g>
			<path fill="#FFFFFF" d="M36.751,43.177h-3.01c-0.238,0-0.43-0.191-0.43-0.429v-3.012c0-0.236,0.191-0.427,0.43-0.427h3.01
				c0.236,0,0.429,0.19,0.429,0.427v3.012C37.18,42.985,36.987,43.177,36.751,43.177z M34.169,42.32h2.154v-2.155h-2.154V42.32z"/>
		</g>
		<g>
			<path fill="#FFFFFF" d="M36.751,48.567h-3.01c-0.238,0-0.43-0.192-0.43-0.429v-3.011c0-0.237,0.191-0.43,0.43-0.43h3.01
				c0.236,0,0.429,0.192,0.429,0.43v3.011C37.18,48.375,36.987,48.567,36.751,48.567z M34.169,47.71h2.154v-2.154h-2.154V47.71z"/>
		</g>
	</g>
</g>
</svg>
