<?xml version="1.0" encoding="utf-8"?>
<!-- Generator: Adobe Illustrator 16.0.0, SVG Export Plug-In . SVG Version: 6.00 Build 0)  -->
<!DOCTYPE svg PUBLIC "-//W3C//DTD SVG 1.1//EN" "http://www.w3.org/Graphics/SVG/1.1/DTD/svg11.dtd">
<svg version="1.1" id="Capa_1" xmlns="http://www.w3.org/2000/svg" xmlns:xlink="http://www.w3.org/1999/xlink" x="0px" y="0px"
	 width="53px" height="55.5px" viewBox="0 0 53 55.5" enable-background="new 0 0 53 55.5" xml:space="preserve">
<g>
	<path fill="#FFFFFF" d="M48.414,12.773l-9.758-9.76C38.461,2.82,38.199,2.71,37.921,2.71H8.47c-0.572,0-1.036,0.464-1.036,1.035
		v46.577c0,0.572,0.464,1.035,1.036,1.035h39.215c0.567,0,1.033-0.463,1.033-1.035V13.505C48.719,13.232,48.61,12.97,48.414,12.773z
		 M38.962,6.246l6.225,6.225h-6.225V6.246z M9.506,49.288V4.782H36.89v8.724c0,0.572,0.463,1.033,1.031,1.033h8.727v34.749H9.506
		L9.506,49.288z"/>
	<g>
		<path fill="#FFFFFF" d="M20.286,19.737h-7.272c-0.573,0-1.038-0.462-1.038-1.035v-7.275c0-0.571,0.465-1.033,1.038-1.033h7.272
			c0.572,0,1.036,0.462,1.036,1.033v7.275C21.322,19.275,20.858,19.737,20.286,19.737z M14.046,17.667h5.204v-5.203h-5.204V17.667z"
			/>
	</g>
	<g>
		<path fill="#FFFFFF" d="M20.286,32.758h-7.272c-0.573,0-1.038-0.464-1.038-1.034v-7.274c0-0.574,0.465-1.033,1.038-1.033h7.272
			c0.572,0,1.036,0.459,1.036,1.033v7.274C21.322,32.294,20.858,32.758,20.286,32.758z M14.046,30.691h5.204v-5.208h-5.204V30.691z"
			/>
	</g>
	<g>
		<path fill="#FFFFFF" d="M20.286,45.78h-7.272c-0.573,0-1.038-0.464-1.038-1.034v-7.273c0-0.572,0.465-1.035,1.038-1.035h7.272
			c0.572,0,1.036,0.463,1.036,1.035v7.273C21.322,45.316,20.858,45.78,20.286,45.78z M14.046,43.71h5.204v-5.204h-5.204V43.71z"/>
	</g>
</g>
<g>
	<path fill="#FFFFFF" d="M25.321,38.865V37.87c0.461-0.021,0.785-0.053,0.968-0.095c0.294-0.064,0.533-0.194,0.717-0.388
		c0.127-0.135,0.223-0.312,0.287-0.534c0.037-0.134,0.057-0.233,0.057-0.298h1.221v7.442h-1.498v-5.133H25.321L25.321,38.865z"/>
	<path fill="#FFFFFF" d="M30.813,41.883v-1.339h2.106v-2.104h1.349v2.104h2.104v1.339h-2.104V44H32.92v-2.117H30.813z"/>
	<path fill="#FFFFFF" d="M37.252,42.536c0.207-0.497,0.7-1.022,1.478-1.577c0.674-0.482,1.111-0.829,1.309-1.036
		c0.305-0.325,0.458-0.682,0.458-1.068c0-0.316-0.089-0.576-0.263-0.786c-0.174-0.209-0.424-0.313-0.749-0.313
		c-0.445,0-0.748,0.167-0.909,0.499c-0.092,0.19-0.146,0.496-0.164,0.912h-1.422c0.024-0.632,0.138-1.144,0.344-1.534
		c0.392-0.742,1.084-1.114,2.081-1.114c0.788,0,1.414,0.218,1.881,0.654c0.465,0.435,0.699,1.013,0.699,1.732
		c0,0.551-0.165,1.04-0.494,1.469c-0.216,0.283-0.57,0.601-1.064,0.948l-0.586,0.415c-0.366,0.26-0.618,0.449-0.752,0.565
		c-0.136,0.117-0.25,0.252-0.343,0.407h3.249v1.287h-5.097C36.92,43.464,37.035,42.977,37.252,42.536z"/>
</g>
</svg>
